<?xml version="1.0" encoding="UTF-8"?>
<svg id="uuid-f79a0400-e4b0-4f6c-b84a-4fbc5610458a" data-name="Capa 1" xmlns="http://www.w3.org/2000/svg" xmlns:xlink="http://www.w3.org/1999/xlink" viewBox="0 0 369.41 369.41">
  <defs>
    <clipPath id="uuid-452ce9da-f2ec-4c44-a1a2-3e310d9d98c6">
      <rect x="-2368.74" y="611.22" width="423.13" height="376.13" fill="none"/>
    </clipPath>
  </defs>
  <g clip-path="url(#uuid-452ce9da-f2ec-4c44-a1a2-3e310d9d98c6)">
    <g id="uuid-a5742b59-11ce-4603-95c1-a57c33e281d7" data-name="3Shu6D">
      <image id="uuid-c1e2cb73-64ab-463d-8924-746f703ca44c" data-name="3Shu6D" width="1280" height="1600" transform="translate(-3708.45 -3940.58) scale(5.09)" xlink:href="medicina-fam-1.png"/>
    </g>
  </g>
  <g>
    <g>
      <path d="M157.11,143.12c-.04.07,0,.11,0,0h0Z" fill="#1d1d1d"/>
      <path d="M201.29,125.84s.03.02.05.03c.11-.08.21-.14.3-.19l-.34.15Z" fill="#1d1d1d"/>
      <path d="M206.85,133.15s0,.04,0,.07c.06-.05.13-.08,0-.07Z" fill="#1d1d1d"/>
      <path d="M181.28,121.11c-.08,0-.12.04-.14.08.04-.03.08-.06.14-.08Z" fill="#1d1d1d"/>
      <path d="M159.78,158.96s-.02-.02-.03-.03c-.01.04-.01.08-.03.12l.06-.09Z" fill="#1d1d1d"/>
      <path d="M159.51,158.89c0-.22.19-.03.25.04.07-.27,0-.46-.17-.63-.18.08.02.44-.08.59Z" fill="#1d1d1d"/>
      <path d="M182.86,173.83l-.09.08s.06-.05.09-.08Z" fill="#1d1d1d"/>
      <path d="M182.78,130.89s-.06.03-.08.05c.04,0,.07-.02.08-.05Z" fill="#1d1d1d"/>
      <path d="M178.42,173.09l-.12.3c.07-.12.1-.21.12-.3Z" fill="#1d1d1d"/>
      <path d="M201.63,125.69l.13-.06s-.08.03-.13.06Z" fill="#1d1d1d"/>
      <path d="M210.03,140.83c-.09.03-.16.07-.22.11,0,.01,0,.02,0,.02l.22-.13Z" fill="#1d1d1d"/>
      <path d="M190.19,169.06s.03.08.05.11l.06-.26c-.06.04-.1.1-.12.15Z" fill="#1d1d1d"/>
      <path d="M209.28,151.9s.06.05.1.05c.13-.17.25-.65.31-1.28l-.39-.08c.02.43-.02.87-.03,1.3Z" fill="#eb671f"/>
      <path d="M197.44,157.51c.38-.04.71-.12,1.07-.2-.22.6-.6,1.01-.89,1.42-.29.41-.65.69-.97.99-.62.62-1.27,1.11-1.9,2.05v-.2c-.19.02-.04.4-.38.84-.31.43-1.22.96-3.21.72l-.03-.07c-.1.06-.03.2-.33.11l.73.19c-.23.32-.36.8-.78,1.06-.13-.03-.22-.18-.28-.29l-1.06.51-.49-.36c-.25.37.18,1.34-.92,1.01.54.63-.38.55-.18.9-.07-.08-.21-.18-.33-.28-.57.19-1.67.54-1.92.97,0,0,.65.31,1.42.69.79.42,1.73.74,2.19,1.05-1,.04-.23.15.02.35l.02-.2c.62.03.75.49,1.09.54-.01-.04-.03-.08-.05-.12l-.02.07c-.05-.07-.05-.13-.03-.18-.04-.09-.03-.17.13-.2l-.02.06c.22-.15.65-.23.84-.26l.13.37c.08-.45.91-.36,1.77-.38.87,0,1.87.1,2.15-.08.8.09,1.2-.83,1.99-1.08,1.12-.67.86.08,1.6-.05.83-.31-.42-.26-.16-.48.38-.05.76-.11,1.12-.2-.41.43-.02.4.16.44.69-.54,2.28-.96,1.88-1.74,1.09-.62,1.33-.43,1.72-.8-.23.04-.56.21-.68.11.59-.13.09-.23-.1-.13.14-.37,1-.88,1.77-1.43.8-.53,1.42-1.14,1.1-1.44l.13.08c-.45-.49-1.12-.59-1.15-1.21l.42-.14.03-.57c.36-.18.42.04.49.08.11-.88.97-1.73,1.42-2.64-.65.12-1.34.2-2.01.25.74-.51,1.96-1.66,1.51-2l.73-.28c1.52-1.32-.16-1.26.33-1.81.28-.22.56-.45.81-.69-.04.28-.12.56-.2.83.55-.75.75-1.07,1.29-1.69,0,0,0,0-.02-.01-.03.04-.07.07-.11.07v-.12c-.3-.16-.43-.63-.33-1.23.13-.87-.24-1.54.43-2.92l-.67-.33.35-1.04.52-.03c0,.52.09,1.26.14,2.05,0,.79,0,1.62-.02,2.29l.23.05c.05-.81-.12-1.73-.04-2.25.14-.25.63-.92,1-.43l-.53-.5c-.08-1.35-.11-2.03-.17-2.73-.02-.35-.02-.7,0-1.16.02-.45.05-1,0-1.73l-.2.3c-.28-.52-.56-1.02-.19-1.29-.14-.86-.38-1.7-.47-2.53-.09-.84-.18-1.6-.14-2.27l-.66.03c-.12-.34.45-1.28-.39-1.05-.2-.2-.42-.37-.63-.56-.22-.46-.67-.54-.67-1.22h0s0,0,0,0c0-.04,0-.08,0-.13-.02.01-.03.02-.04.03-.38-1.12-.43.3-.89-.96.1-.59-.9.09-1.16-.49l.31-1.05c-.38-1.19-1.17-.79-2.31-1.97-.36-.76-.16-1.59.71-1.7-1.11.08-.61.15-1.6-.23.1-.35.22-.34.58-.41-.42-.9-.61-.13-1.12-.56-.54.37-1.32,1.03-1.51.94l.08.3c-.74-.13-1.36-.46-1.85-1.1l.2-.25-.78-.3.16-.37c-.36-.17-.71-.35-1.08-.5l.09.17c-.27-.08-1.15-.36-1.52-.77l.11-.19c-.51-.66-1.18-.86-1.9-.96-.72-.11-1.48-.15-2.33-.31l.34-.38c-.45-.59-.35.63-.96.23l.1-.55c-.78.56-.73-.38-1.12-.72l.05.75-.77-.29c-.84-.38-.4-1-.2-1.36l-.71.47-.03-.66c-.55.68-.44-.22-1.3.13-.05-.25.17-.37-.09-.5-.48.27-.94.55-1.39.83l.82-.36-.16.94c-.84.68-1.08-.19-1.67.09.13-.1.26-.2.4-.28-.94.24-.99-.15-1.54-.34.18.17.43.42.06.56-.28.06-.17-.33-.44-.42-.04.65-.67.96-1.29.76,0-.09,0-.18.04-.24-.14.12-.2.29-.49.18l.08-.72-.44.73c-.37-.14-.79.43-.82-.04l.17-.17c-.89.04-1.76.22-2.64.38l-.18-.53c-.06.79-1.52.1-1.15,1.01-.65-.33-1.74,1.01-1.85-.1-.87.24-1.38.82-1.97,1.28-.29.24-.6.46-.95.68-.35.23-.76.44-1.29.6-1.17-.43-2.78,1.09-3.91,1.92-.46.53-.86,1.02-1.23,1.49-.37.47-.67.96-.99,1.43-.66.92-1.19,1.93-1.89,3.11-.99.31-1.45,1.29-1.83,2.27-.3,1.04-.57,2.06-1.23,2.75l.3.64c-.57.4-.84,1.11-1,1.9-.16.79-.35,1.62-.91,2.35.15.45.19.67.19.76.04-.07.15-.16.47-.14-.3.42-.17,1.39-.8,1.24l-.05-.13c-.31-.08-.3.29-.28.73.05.45.12.96-.18,1.21l.71-.24-.17.88-.12-.24c.3.99.48,1.8.55,2.55.06.75,0,1.43.02,2.11,0,.68,0,1.37.14,2.08.18.71.5,1.45,1.05,2.21-.42-.12-.28.02-.14.23.17.2.34.46-.04.61-.67,1.2.76,1.54,1.31,2.08.04-.02.08-.03.16-.01l.45,1.19c-1.27-.23,1.17.45.07.21.38,1.68,1.45,3.35,2.72,4.89.66.75,1.38,1.48,2.08,2.2.76.66,1.44,1.41,2.17,2.05l.03-.31c.76.64,1.89,1.12,2.31,1.84.43.76,1.73.28,2,.35.92-.06,1.17,1.08.88.89.84.3,1.94-.31,2.88.47.02.24.24.39.55.47.31.07.73.07,1.12.07.78,0,1.49-.01,1.41.48l.03-.08c.67.47,1.43.47,2.19.46.76-.02,1.52-.15,2.31.22,0,0-.03.07-.09.14,1.15-.92,2.16-2.06,3.05-3.08-.38-1.1-.72-2.19-1.02-3.3-.77-.87-1.45-1.73-2.02-2.71-.86.09-1.7,0-2.58-.02-.85-.14-1.73-.21-2.57-.47-1.2-.78-2.21-1.81-3.13-2.79-1.34-.88-2.57-1.94-3.66-3.15-1.05-1.23-1.91-2.62-2.62-4.09l-.94-.41c.13-.58.1-1.11.05-1.66-.07-.54-.27-1.07-.36-1.63-.12-.56-.3-1.12-.27-1.69,0-.57.01-1.13.31-1.64l-.64-.07c0-.61.4-.54.52-.67.11-2.74.89-5.54,2.28-7.98,1.37-2.45,3.56-4.38,5.91-5.3.6.07,1.81-.72,2.31-.48,1.17-1.3,2.93-1.8,4.56-1.87l-.05.08c.25-.09.5-.14.76-.19.04.05.04.13.02.18.41-.28.99-.36,1.57-.22.58.16,1.17.34,1.67.55l-.07.06c2.96.46,5.84,1.32,8.32,3.03,2.51,1.62,4.47,4.18,5.27,7.14,0,.38.02.75.08,1.11.07.35.16.71.21,1.08.07.36.17.72.29,1.08.08.37.16.75.24,1.13l.13.58.06.59c.03.39.08.79.08,1.2-.08.79-.13,1.61-.53,2.34-.09.06-.18.21-.26.42-.07.22-.16.5-.28.81-.11.32-.21.68-.31,1.08-.15.38-.29.78-.41,1.18-.58,1.6-1.36,3.16-1.42,3.47Z" fill="#eb671f"/>
      <path d="M190.46,164.13h.02c-.1-.26-.1-.16-.02,0Z" fill="#1d1d1d"/>
      <polygon points="206.97 157.31 206.94 157.36 207.38 157.28 206.97 157.31" fill="#1d1d1d"/>
      <path d="M199.57,167.59c.51-.29.47-.38.35-.4-.16.13-.29.26-.35.4Z" fill="#1d1d1d"/>
      <path d="M187.43,165.58c-.21.03-.1.17.06.32.21-.08.36-.14.36-.14-.13-.03-.28-.14-.42-.18Z" fill="#1d1d1d"/>
      <path d="M189.2,168.95l-.03.23c.14-.09.11-.17.03-.23Z" fill="#1d1d1d"/>
    </g>
    <g>
      <path d="M217.93,105.1s-.07.02,0,0h0Z" fill="#1d1d1d"/>
      <path d="M249.36,117.27s.02.01.03.02c.11-.08.2-.14.28-.19l-.3.17Z" fill="#64ad2f"/>
      <path d="M252.61,121.82s0,.03,0,.05c.06-.05.12-.1,0-.05Z" fill="#64ad2f"/>
      <path d="M238.35,110.85s-.08-.01-.11.02c.04-.01.07-.02.11-.02Z" fill="#1d1d1d"/>
      <path d="M208.68,105.69s.01,0,.02-.01c-.02-.03-.04-.04-.05-.08l.03.09Z" fill="#1d1d1d"/>
      <path d="M208.78,105.47c.11.1-.03.18-.08.21.12.18.24.19.36.11,0-.2-.23-.17-.28-.32Z" fill="#1d1d1d"/>
      <path d="M192.26,106.25l.05-.08s-.04.05-.05.08Z" fill="#1d1d1d"/>
      <path d="M234.1,119.74s-.05,0-.08,0c.03.02.05.01.08,0Z" fill="#1d1d1d"/>
      <path d="M194.85,106.45l.03-.32c-.03.13-.03.23-.03.32Z" fill="#1d1d1d"/>
      <path d="M249.66,117.1l.12-.06s-.07.03-.12.06Z" fill="#64ad2f"/>
      <path d="M255.54,125.96c-.08.06-.14.11-.18.16,0,0,0,.01,0,.01l.18-.17Z" fill="#64ad2f"/>
      <path d="M258.74,150.12s.08-.01.12-.02l-.23-.08s.06.08.11.1Z" fill="#1d1d1d"/>
      <path d="M257.77,132.57s.07-.01.11-.03c.05-.15-.07-.44-.25-.78l-.36.16.5.65Z" fill="#64ad2f"/>
      <path d="M251.81,142.07c.21-.27.37-.52.56-.79.49.84.5,1.57.61,2.22.09.66.23,1.26.71,1.99l-.18-.06c-.07.13.33.15.53.51.2.35.21,1.09-.66,2.51h-.08c.03.1.18.08,0,.28l.41-.5c.24.24.65.43.76.79-.07.09-.23.13-.36.15l.17.88-.49.31c.29.25,1.35.06.79.83.73-.31.46.34.84.24-.09.04-.22.13-.35.21.11.44.36,1.26.76,1.47,0,0,.38-.43.83-.95.46-.52,1.02-1.12,1.41-1.4-.17.68.1.17.34.03l-.19-.03c.16-.41.63-.44.75-.65-.04,0-.08.01-.13.02l.06.02c-.08.02-.14.02-.19,0-.1.01-.18,0-.16-.11l.05.02c-.08-.16-.02-.46,0-.59l.39-.04c-.7-.23.9-2.15.86-2.59.43-.49-.26-.91-.1-1.47,0-.85.5-.52.77-1,.16-.58-.43.2-.49-.01.15-.25.29-.49.4-.74.14.35.32.11.45,0-.07-.55.41-1.59-.4-1.57.17-.83.48-.91.43-1.24-.11.14-.18.39-.33.43.26-.39-.12-.12-.16.02-.43-.34.77-2.76-.14-2.59l.15-.05c-.65.1-1.18.45-1.62.26l.2-.29-.37-.21c.12-.27.32-.23.39-.25-.46-.39-.38-1.2-.52-1.83l-1.4,1.25c.2-.62.63-1.83.07-1.72.15-.18.28-.35.42-.52.56-1.42-.77-.48-.64-1l.35-.76.22.49c.06-.62.15-.91.34-1.49h-.02s-.03.07-.06.09l-.05-.06c-.31.08-.63-.08-.78-.43-.17-.53-.72-.71-.6-1.77l-.68.14v-.75s.45-.26.45-.26c.31.56,1.12,1.51,1.47,2.27l.22-.09c-.23-.44-.65-.86-.78-1.15,0-.18.27-.8.73-.72l-.6-.02c-.92-1.4-.93-1.38-1.36-3.21l-.14.27c-.3-.22-.62-.41-.34-.73-.56-.89-.95-1.96-.85-2.93l-.57.25c-.11-.2.41-1.05-.32-.6l-.5-.21c-.15-.28-.56-.18-.52-.67h0s0-.06.01-.1l-.04.04c-.26-.69-.41.36-.68-.45.16-.48-.77.31-.92-.07l.39-.88c-.11-.86-.83-.35-1.51-1.09-.11-.57.22-1.25.93-1.51-.9.27-.52.23-1.23.11.16-.3.26-.31.56-.43-.13-.64-.45,0-.73-.29-.51.38-1.28,1.02-1.41.96l-.02.24c-.53-.03-.96-.21-1.1-.76l.22-.22-.48-.22.24-.33-.62-.39v.15c-.15-.09-.69-.3-.81-.66l.15-.17c-.3-1.1-1.46-.83-2.35-1.39l.38-.29c-.03-.59-.48.51-.7.07l.3-.47c-.73.38-.3-.43-.37-.8l-.3.67-.34-.39c-.33-.49.22-.95.5-1.23l-.64.29.29-.58c-.64.49-.17-.25-.8-.16.09-.23.27-.28.19-.46l-1.16.36.62-.1-.54.78c-.79.36-.52-.43-.95-.39l.35-.12c-.61-.1-.43-.46-.61-.82,0,.21,0,.51-.25.5-.17-.04.08-.34,0-.51-.33.52-.85.62-1.05.2.05-.08.09-.15.14-.19-.13.05-.25.17-.33-.04l.41-.58-.6.45c-.1-.26-.61.05-.38-.36l.17-.07-1.39-.86.21-.52c-.47.63-.69-.65-1.03.25-.06-.63-1.24-.16-.66-1.08-.99-.46-1.9.32-2.94-.62-.14-1.03-1.45-1.21-2.25-1.47-1.72-.02-2.81-.03-4.5-.03-.77-1.42-2.54.06-3.49-.82l-.35.46c-.63-.91-1.8.07-2.75-.79-.26.21-.39.27-.45.29.04.03.11.13.12.45-.27-.24-.86.02-.8-.63l.07-.06c.06-.64-.88.26-1.19-.31l.17.7-.52-.13.13-.13c-2.12,1.54-3.08-.66-5.08.74.26-.76-.39.4-.42-.43-.5-1.04-.93.22-1.34.5,0,.04,0,.09-.03.15l-.72-.1c.43-1.05-.52.87-.12-.02-1.88-.78-4.33.01-6.51-.35l.1.27c-.55-.05-1.24.27-1.66-.15-.42-.43-.92.68-1.08.73-.46.46-.88-.46-.68-.41-.49.13-.95,1.08-1.63.67-.23-.89-1.86.87-1.88-.13v.08c-.88-.7-1.7.49-2.64-.14,0,0,.02-.07.05-.14l-1.91,3.03.54,3.33,1.66,2.71,4.49-.59,3.58,1.06,8.72-.36.62-.75c1.71,1.31,3.91-.2,5.76.74l.04-.65c.5-.03.44.38.56.5,1.06.02,2.13,0,3.21-.04,1.07.02,2.13.13,3.2.21,1.07.04,2.07.36,3.06.62.49.14.97.3,1.44.47.45.21.89.46,1.3.72.2.53,1.33.68,1.43,1.19.74-.19,1.37-.04,1.99.15.61.2,1.18.5,1.73.8l-.08.04c.19.05.4.09.58.15,0,.06-.04.13-.08.16.84-.15,1.46.89,2.02,1.5l-.08.04c1.02.58,1.91,1.3,2.89,1.9,1,.58,1.88,1.29,2.78,1.99.44.36.92.69,1.33,1.08.4.41.79.82,1.17,1.25.38.43.75.87,1.1,1.33.31.5.59,1.02.85,1.55.11.59.36,1.1.69,1.57.32.48.63.97,1.01,1.45.36.48.74.97,1.06,1.5.31.53.48,1.15.56,1.79-.1.17,0,.57.19,1.06.1.25.22.52.36.8.13.29.24.61.38.91.52,1.23,1.2,2.43,1.39,2.6Z" fill="#64ad2f"/>
      <path d="M254.12,149.16v-.02c-.28.03-.17.05,0,.02Z" fill="#1d1d1d"/>
      <polygon points="258.54 136.23 258.54 136.27 258.85 135.99 258.54 136.23" fill="#64ad2f"/>
      <path d="M261.08,143.9c.01-.37-.07-.37-.16-.3.02.13.07.24.16.3Z" fill="#1d1d1d"/>
      <path d="M254.76,151.62c-.01.16.15.1.32,0-.04-.17-.06-.28-.06-.28-.06.09-.2.19-.26.29Z" fill="#1d1d1d"/>
      <path d="M258.43,150.77l.22.04c-.06-.1-.14-.09-.22-.04Z" fill="#1d1d1d"/>
    </g>
    <g>
      <path d="M111.45,124.55s-.02.06,0,0h0Z" fill="#64ad2f"/>
      <path d="M139.34,105.27s.02,0,.03-.01c0-.13,0-.25,0-.34l-.03.35Z" fill="#1d1d1d"/>
      <path d="M144.97,105.14s.02.02.04.03c-.01-.08-.01-.16-.04-.03Z" fill="#1d1d1d"/>
      <path d="M127.77,110.8s-.06.05-.05.1c.01-.04.03-.07.05-.1Z" fill="#1d1d1d"/>
      <path d="M106.96,133.52v-.03s-.06.02-.1.02h.1Z" fill="#1d1d1d"/>
      <path d="M106.8,133.33c.14-.07.15.11.16.16.22-.05.29-.16.27-.31-.18-.08-.26.16-.43.15Z" fill="#1d1d1d"/>
      <path d="M103.36,151.01l-.08-.06s.05.04.08.06Z" fill="#1d1d1d"/>
      <path d="M132.76,119.33s-.03.04-.04.07c.03,0,.04-.04.04-.07Z" fill="#1d1d1d"/>
      <path d="M103.71,148.22l-.31-.06c.13.04.23.06.31.06Z" fill="#1d1d1d"/>
      <path d="M139.37,104.92v-.13s0,.08,0,.13Z" fill="#1d1d1d"/>
      <path d="M150.07,105.07c0,.1.01.17.03.24,0,0,.01,0,.01,0l-.04-.24Z" fill="#1d1d1d"/>
      <path d="M173.22,110.13s0-.08-.01-.12l-.09.23s.08-.05.1-.1Z" fill="#1d1d1d"/>
      <path d="M156.37,106.45s.02-.07.02-.11c-.11-.11-.39-.13-.76-.12l-.02.39.76-.16Z" fill="#1d1d1d"/>
      <path d="M163.26,115.56l-.67-.79c2.15-.36,3.16.43,5-.21l-.1.17c.27.18.42-1.58,3.39.57v.08c.1-.01.1-.17.31.04l-.51-.48c.31-.2.58-.57.99-.63.09.09.12.25.13.37l1-.13.31.51c.31-.28.17-1.35.99-.75-.31-.74.41-.45.31-.82.04.09.14.23.21.36.49-.09,1.41-.29,1.64-.68,0,0-1.91-1.57-2.43-2.36.69.2.18-.09.05-.34l-.05.19c-.41-.18-.41-.65-.62-.78,0,.04,0,.08.01.13l.03-.06c.02.08,0,.14-.01.19,0,.1-.01.18-.13.15l.02-.05c-.17.07-.47,0-.6-.04v-.39c-.31.75-2.05-1.14-2.47-1.16-.41-.49-.92.12-1.44-.13-.82-.13-.41-.57-.82-.91-.51-.25.1.46-.1.48l-.62-.55c.36-.05.16-.28.1-.44-.53-.07-1.37-.79-1.54,0-.72-.37-.72-.69-1.03-.73.1.14.31.27.31.43-.29-.35-.14.09-.02.16-.44.34-2.28-1.43-2.37-.57v-.16c-.1.64.06,1.26-.24,1.61l-.2-.29-.31.28c-.21-.21-.1-.38-.1-.46-.5.3-1.2-.06-1.81-.14l.64,1.74c-.51-.4-1.44-1.22-1.54-.66l-.31-.59c-1.03-1.12-.72.49-1.13.15l-.52-.64h.51c-.51-.31-.72-.52-1.13-.94v.02s.04.06.05.1l-.07.02c-.06.32-.33.54-.69.52-.51-.09-.92.38-1.74-.29l-.2.65-.62-.39v-.52c.6.03,1.74-.17,2.51-.19v-.24c-.45,0-.97.23-1.27.18-.15-.1-.53-.64-.25-1l-.28.51c-1.54.06-1.54.08-3.15-.51l.14.26c-.32.15-.63.3-.72-.12-1.06-.04-2.16-.31-2.91-.93l-.12.62c-.22-.02-.63-.93-.68-.07l-.46.3c-.31-.03-.47.32-.85,0h0s0,0,0,0c-.02-.02-.05-.04-.07-.06,0,.02,0,.03,0,.05-.72-.17.07.54-.76.31-.31-.39-.18.81-.58.73l-.51-.81c-.78-.39-.76.5-1.76.65-.54-.23-.93-.93-.72-1.64-.3.87-.11.53-.62,1.04-.16-.3-.11-.39-.04-.71-.61-.25-.26.37-.66.45.02.64.11,1.64,0,1.71l.19.15c-.33.43-.72.69-1.26.5l-.06-.31-.45.28-.14-.38-.68.3.13.08c-.15.09-.66.37-1.03.25l-.05-.22c-1.08-.36-1.51.77-2.47,1.2l-.03-.47c-.5-.3.15.69-.33.63l-.22-.51c-.09.82-.52.03-.88-.14l.39.64-.52.03c-.61-.03-.68-.74-.75-1.12-.05.22-.09.44-.13.68l-.32-.56c.05.81-.3,0-.58.59-.14-.21-.08-.39-.28-.41l-.35,1.18.27-.58.34.88c-.14.86-.65.2-.86.59l.1-.36c-.42.46-.63.11-1.02.07.17.11.43.28.27.49-.13.12-.23-.26-.43-.28.25.58.03,1.05-.44.95-.04-.08-.07-.16-.08-.22-.04.13,0,.3-.23.24l-.24-.66.03.73c-.28-.06-.3.55-.5.12l.04-.19-1.48.7-.31-.47c.26.74-.92.22-.37,1.01-.55-.28-.83.94-1.27-.06-.99.49-.81,1.75-2.18,2.09-.92-.45-1.81.55-2.51,1.02-.99,1.41-1.55,2.38-2.56,3.72-1.61-.15-1.37,2.15-2.63,2.47l.19.55c-1.14-.01-.98,1.52-2.22,1.84.03.33,0,.48-.01.54.05-.02.17-.02.44.16-.35.09-.47.73-.97.32v-.1c-.51-.41-.29.88-.94.82l.68.25c-.14.13-.29.24-.41.38l-.03-.2c.02,1.44-.55,2.06-1.14,2.68-.58.62-1.23,1.22-1.06,2.55-.55-.61.17.57-.58.22-1.18.04-.25,1.04-.19,1.56.04.02.08.04.12.09l-.43.67c-.75-.85.55.86-.08.11-.42.38-.71.86-.94,1.4-.24.53-.44,1.11-.62,1.7-.19.59-.36,1.2-.56,1.79-.15.61-.32,1.2-.56,1.76l.29-.03c-.2.58-.07,1.38-.6,1.73-.53.36.41,1.12.42,1.3.38.58-.6.86-.52.65.04.56.91,1.21.39,1.87-.92.14.56,2.09-.43,1.99l.08.02c-.77.88.39,1.86-.3,2.84,0,0-.07-.02-.14-.06.97.74,1.95,1.43,2.93,2.08,1.12-.18,2.24-.35,3.36-.51.93-.51,1.86-.98,2.78-1.42l-.2-2,.02-2.01.75-1.48c.26-.48.6-.94.89-1.4.26-1.23.47-2.48.91-3.67l.56-1.82c.18-.61.48-1.17.72-1.76l-.44-.82c.92-.39,1.21-1.2,1.62-1.97.37-.79.72-1.64,1.53-2.08l-.52-.39c.23-.4.55-.14.71-.17.61-.87,1.19-1.78,1.76-2.7.66-.85,1.33-1.71,1.98-2.55,1.44-1.57,2.97-3.03,4.8-3.8.55.13,1.29-.77,1.79-.54.63-1.28,1.77-2.02,2.9-2.55v.08s.47-.36.47-.36c.05.04.08.1.09.16.34-.8,1.55-.75,2.36-.89v.09c1.07-.44,2.16-.83,3.2-1.33.52-.27,1.07-.42,1.6-.61l1.62-.57.82-.28c.28-.07.56-.12.84-.17.56-.11,1.13-.21,1.7-.29,1.14-.22,2.32-.13,3.5.03.56.24,1.12.31,1.7.3.67.03,1.35-.03,2.05-.09,1.4-.12,2.84-.27,4.27.17.53.64,6.32.16,6.83-.14Z" fill="#64ad2f"/>
      <path d="M171.78,114.69h-.02c0,.28.03.17.02,0Z" fill="#1d1d1d"/>
      <polygon points="159.82 107.24 159.86 107.25 159.72 106.86 159.82 107.24" fill="#1d1d1d"/>
      <path d="M167.48,107.01c-.34-.09-.36-.02-.31.09.12.02.23,0,.31-.09Z" fill="#1d1d1d"/>
      <path d="M174.59,114.17c.18.02.11-.14,0-.32-.19.03-.31.05-.31.05.1.06.2.21.31.27Z" fill="#1d1d1d"/>
      <path d="M173.85,110.47l.06-.22c-.11.05-.1.13-.06.22Z" fill="#1d1d1d"/>
    </g>
    <g>
      <g>
        <path d="M68.53,240.22c.04.1.11.11,0,0h0Z" fill="#1d1d1d"/>
        <path d="M59.74,159.71s.02-.04.03-.07c-.09-.1-.18-.2-.23-.28l.2.35Z" fill="#1d1d1d"/>
        <path d="M65.73,148.44s.04-.04.06-.06c-.07-.03-.14-.07-.06.06Z" fill="#1d1d1d"/>
        <path d="M57.94,190.86c0,.11.02.17.06.22-.03-.06-.05-.13-.06-.22Z" fill="#1d1d1d"/>
        <path d="M83.54,258.09s-.02-.02-.04-.04c0,.05.02.1.02.16l.02-.12Z" fill="#1d1d1d"/>
        <path d="M83.21,258.03c-.1-.28.19-.05.29.03-.05-.35-.24-.6-.49-.8-.16.13.24.57.2.77Z" fill="#1d1d1d"/>
        <path d="M105.8,290.04l-.08-.13c.02.05.05.09.08.13Z" fill="#1d1d1d"/>
        <path d="M67.79,189.61c.02.06.03.13.05.19,0-.1-.02-.15-.05-.19Z" fill="#1d1d1d"/>
        <path d="M105.78,285l-.31.12c.14-.04.24-.08.31-.12Z" fill="#1d1d1d"/>
        <path d="M59.53,159.35l-.08-.14s.04.09.08.14Z" fill="#1d1d1d"/>
        <path d="M70.77,137.81c.09.04.17.04.25.04,0-.01.01-.02.02-.03h-.26Z" fill="#1d1d1d"/>
        <path d="M92.52,174.39s.08,0,.13,0l-.15-.29c-.02.13,0,.22.02.29Z" fill="#1d1d1d"/>
        <path d="M88.81,132.96s.09-.03.11-.06c-.11-.13-.35-.3-.67-.51-.17-.1-.35-.21-.55-.34-.18-.1-.38-.2-.59-.31l-.23.32c.57.22,1.27.57,1.93.9Z" fill="#1d1d1d"/>
        <path d="M91.57,150.99c.16-.47.27-.95.41-1.46.79,2,.87,3.62.78,5.1-.11,1.49-.25,2.85-.45,4.71l-.12-.24c-.13.2.16.59-.01,1.72-.18,1.13-.83,3.02-2.94,6.36l-.08-.02c-.06.26.09.3-.26.75l.83-1.12c-.03.81.13,1.58-.11,2.6-.15.19-.32.22-.45.2l-.6,2.51-.71.61c.04.83,1.17.79,0,2.64.94-.55.13,1.13.57.99-.12.08-.32.27-.5.42-.27,1.22-.74,3.54-.53,4.21,0,0,2.88-4.26,4.02-5.29-.69,1.63-.04.47.29.21l-.14-.16c.47-.96.92-.83,1.2-1.3-.04-.01-.08,0-.13,0l.04.08c-.09.02-.14-.02-.17-.09-.1-.02-.16-.09-.05-.35l.03.07c.06-.44.34-1.15.47-1.46l.38.1c-.5-.96,2.58-4.72,2.9-5.72.77-.87.55-2.3,1.16-3.5.71-1.98.85-.85,1.47-1.76.6-1.24-.51.15-.39-.39.32-.48.63-1,.94-1.52-.2.99.16.52.36.37.25-.73.56-1.67.79-2.52.21-.84.2-1.59-.16-1.84.28-1.02.36-1.55.51-1.93.12-.38.22-.62.2-1.07-.11.31-.24.92-.4.93.33-.85-.09-.39-.16-.05-.08-.31-.06-.88-.04-1.57.04-.69.11-1.5.08-2.29,0-.39,0-.78-.02-1.14-.04-.36-.09-.69-.15-.97-.12-.56-.28-.93-.5-.93l.15-.05c-.7-.08-1.13.54-1.77-.14l.07-.63-.56-.7c-.05-.61.22-.42.3-.45-.86-1.16-1.43-3.09-2.43-4.53-.13.85-.24,1.63-.47,2.44-.15-.7-.5-1.64-.83-2.45-.39-.76-.81-1.35-1.11-1.27-.03-.35-.09-.68-.15-1.02-.31-.7-.58-1.14-.82-1.39-.26-.23-.47-.3-.65-.31-.36-.02-.62.18-.95-.32-.22-.49-.51-.91-.78-1.38.39.29.81.55,1.17.88-.46-.6-.83-.97-1.14-1.38-.31-.4-.59-.79-1.02-1.26,0,0-.02,0-.02,0,.06.06.09.12.08.16l-.19-.09c-.16.09-.44.08-.78,0-.35-.09-.78-.29-1.17-.5-.28-.17-.56-.3-.85-.43-.41-.19-.82-.37-1.25-.58-.89-.42-1.87-.88-3.41-1.29-.24.21-.47.44-.68.66-.73-.08-1.48-.05-2.22.08l-.18-.49c1.07-.41,2.75-.73,4.49-.43.87.15,1.72.48,2.53.86.65.32,1.27.63,1.83.9l.14-.19c-.26-.14-.54-.26-.82-.39-.41-.19-.87-.41-1.28-.58-.84-.37-1.61-.58-2.2-.73-.27-.12-.78-.36-1.1-.58-.32-.21-.45-.44.14-.58-.41.14-.8.29-1.17.48-1.29.06-2.3.35-3.1.69-.8.35-1.44.72-1.99,1.13-1.11.83-2.01,1.7-3.07,3.51-.17.3-.38.66-.62,1.09-.16.25-.34.53-.53.84l.38-.22c-.2.8-.4,1.61-.87,1.64-1.09,2.21-2.45,4.4-3.71,5.59l.41.57c-.25.46-1.41.79-.73,1.37l-.21,1.12c-.34.63-.2,1.17-.85,1.76h0s0,0,0,0c-.04.03-.08.07-.13.11.02,0,.03.01.05.01-.91,1.35.51.21-.57,1.75-.64.36.44.92-.06,1.68l-1.17.46c-1.13,1.27-.44,1.89-1.41,4.04-.75.9-1.66,1.09-1.96.13.31,1.27.28.64.07,2.05-.39.06-.39-.11-.54-.5-.85.95-.04.81-.43,1.63.46.5,1.24,1.19,1.15,1.48l.32-.24c-.1,1.02-.39,2.05-1.14,2.95l-.27-.17-.36,1.18-.42-.05-.77,1.92.03.79.11-.37c.03.34.07,1.05.09,1.82.02.48,0,.99-.11,1.37l-.22-.03c-.7,2.13.22,3.89.29,6.38l-.46-.33c-.45.85.7.23.47,1.25l-.56.05c.73.89-.16,1.15-.43,1.77l.73-.29-.15,1.16c-.24,1.28-.93.78-1.31.6l.58.87-.65.17c.75.63-.12.63.28,1.75-.24.09-.38-.19-.49.19l.91,1.83-.4-1.11.94.13c.72,1.15-.1,1.56.16,2.38l-.28-.57c.23,1.34-.17,1.41-.38,2.17.18-.23.44-.59.56-.05.05.4-.33.22-.44.59.63.09.96,1.05.67,1.93-.09-.01-.18-.03-.23-.09.1.22.26.34.11.73l-.7-.23.67.75c-.19.5.32,1.22-.16,1.16l-.14-.28-.17,3.77-.56.05c.77.37-.29,2.05.67,1.93-.52.71.37,2.8-.71,2.38-.08,2.48.96,3.81.43,6.82-.92,1.07-.62,4.01-.72,5.94.21,1.89.38,3.44.55,5.01.08.78.16,1.57.25,2.4.02.21.04.42.06.63l.03.32c0,.11.02.19.03.42.04.78.07,1.58.11,2.43-.12.39-.21.81-.28,1.25.46.87,1.13,1.8,1.88,2.71.45.55.59.69.83.94.24.23.47.47.71.71.96.94,1.93,1.88,2.38,2.98l.82.22c.39,1.81,2.74,3.18,3.57,5.5.53.31.77.5.87.59-.05-.1-.07-.28.15-.52.23.66,1.29,1.54.73,1.87l-.16-.09c-.57.32,1.49,1.4,1.51,2.33l.29-.75.69,1.06-.31-.18c4.6,3.34,4.41,6.64,8.7,9.81-1.02-.07.94.55.33,1.11-.01,1.66,1.67,1.74,2.54,2.41.03-.03.08-.04.16-.04l1.07,1.52c-1.51-.22,1.51.51.18.26,2.39,4.29,6.94,8.75,10.13,13.38l.06-.36c.84,1.15,2.19,2.33,2.53,3.45.33,1.11,2,1.43,2.29,1.73,1.1.64,1.04,2.06.76,1.63.89.91,2.37,1.25,3.14,2.88-.16.51.75,1.31,1.61,2.07.21.19.42.38.61.55.11.08.21.16.28.24.14.16.16.31-.07.42l.08-.03c0,.13.02.24.05.34-.07.25-.07.46-.04.67l.07.36.09.74c.11,1,.19,2.01-.09,3.09,0,0-.07-.05-.14-.13l3.03,4.93,3.33-1.4,2.71-4.27-.13-2.59-.13-4.42c-3.04-3.67-3.84-4.51-5.36-6.26l-4.9-7.9-14.22-17.41-1.59-.79c-1.71-4.28-6.41-7.79-8.62-12.1l-.57.32c-.86-1.03-.49-1.21-.61-1.54-2.03-2.5-4.1-5-6.18-7.48-1.04-1.24-2.08-2.48-3.11-3.71l-1.54-1.85c-.05-.06-.17-.2-.15-.18l-.04-.04-.08-.08-.17-.17c-.01-.16-.03-.23-.04-.49,0-.74-.02-1.48-.02-2.21-.01-1.47,0-2.93,0-4.37.03-2.88.13-5.69.33-8.41.43-1.08.18-4.38.63-5.23-.79-3.65-.78-7.51-.7-11.16l.07.14-.12-1.72c.05-.07.13-.08.18-.03-.57-1.94,0-5,.23-7.37l.07.14c.02-2.51,0-5-.05-7.46-.03-1.23-.06-2.45-.08-3.68l-.05-1.83v-.46c-.02-.06-.02-.05-.03-.08l-.03-.12.02-.1c.02-.07-.03.03.11-.31l.62-1.47,1.24-2.94c.83-1.96,1.67-3.91,2.53-5.86,1.73-3.89,3.57-7.77,5.64-11.64.72-1.08,1.37-2.25,1.98-3.47.3-.61.59-1.23.88-1.87l.42-.96.1-.24c.05-.11.01-.04.03-.07v-.04c-.01-.16.09-.4.31-.43.1-.01.21.05.28.14.03.02-.02,0,.07.05l.35.21.7.43c.43.28.68.51,1.02.77.26.52,2.7,2.11,4.42,4.47,1.85,2.27,2.72,5.14,3,5.56Z" fill="#f9b515"/>
        <path d="M89.18,169.58v-.06c-.25-.07-.17.04,0,.06Z" fill="#1d1d1d"/>
        <polygon points="95.62 140.25 95.68 140.34 95.75 139.78 95.62 140.25" fill="#1d1d1d"/>
        <path d="M99.65,161.12c.32-.94.27-1,.13-.89-.1.34-.16.65-.13.89Z" fill="#1d1d1d"/>
        <path d="M87.64,176.64c-.15.44.05.31.31.11.11-.46.18-.78.18-.78-.14.23-.35.44-.48.68Z" fill="#1d1d1d"/>
        <path d="M91.73,175.87l.17.2c.03-.28-.06-.29-.17-.2Z" fill="#1d1d1d"/>
      </g>
      <g>
        <path d="M90.94,176.62c-.11.03-.15.09,0,0h0Z" fill="#1d1d1d"/>
        <path d="M149.75,215.74s.03.03.05.05c.13-.05.24-.1.33-.13l-.38.08Z" fill="#f9b515"/>
        <path d="M156.87,224.37s.01.05.02.07c.05-.06.12-.1-.02-.07Z" fill="#f9b515"/>
        <path d="M131.11,198c-.06-.08-.12-.09-.18-.09.06.02.12.04.18.09Z" fill="#1d1d1d"/>
        <path d="M79.95,198.32s-.01-.03-.02-.06c-.02.05-.03.1-.05.16l.07-.1Z" fill="#1d1d1d"/>
        <path d="M79.68,198.07c.06-.32.19.06.25.19.11-.36.12-.69,0-1.03-.2.02-.12.67-.25.84Z" fill="#1d1d1d"/>
        <path d="M103.81,229.08l-.14-.03s.09.03.14.03Z" fill="#f9b515"/>
        <path d="M124.74,205.59c-.05-.03-.1-.07-.15-.09.06.07.11.09.15.09Z" fill="#1d1d1d"/>
        <path d="M100.03,224.61l-.28.17c.14-.05.22-.1.28-.17Z" fill="#f9b515"/>
        <path d="M150.13,215.66l.15-.03s-.09.01-.15.03Z" fill="#f9b515"/>
        <path d="M162.58,236.24c-.1,0-.18.03-.24.05,0,.01,0,.02,0,.03l.24-.08Z" fill="#f9b515"/>
        <path d="M157.52,288.19s.08-.01.12-.03l-.23-.21c.02.11.05.19.1.24Z" fill="#1d1d1d"/>
        <path d="M161.21,250.38s.07.05.11.05c.11-.24.13-.88.12-1.7l-.39-.05.16,1.7Z" fill="#1d1d1d"/>
        <path d="M152.09,265.84l.79-1.51c.36,4.84-.43,7.09.21,11.24l-.17-.23c-.18.6,1.58.94-.57,7.6h-.08c.01.23.17.23-.04.69l.48-1.15c.2.69.57,1.29.63,2.21-.09.2-.25.26-.37.28l.13,2.25-.51.69c.28.69,1.35.38.75,2.22.74-.69.45.91.82.69-.09.09-.23.3-.36.47.09,1.1.29,3.16.68,3.67,0,0,1.57-4.29,2.36-5.44-.2,1.54.09.41.34.1l-.19-.1c.18-.92.65-.92.78-1.39-.04,0-.08.01-.13.03l.06.06c-.08.04-.14.02-.19-.03-.1.01-.18-.03-.15-.28l.05.05c-.07-.39,0-1.05.04-1.34h.39c-.75-.69,1.14-4.61,1.16-5.53.49-.92-.12-2.07.13-3.23.13-1.84.57-.92.91-1.84.25-1.15-.46.23-.48-.23l.55-1.38c.05.8.28.37.44.22.07-1.19.79-3.08,0-3.45.37-1.61.69-1.62.73-2.31-.14.23-.27.69-.43.69.35-.65-.09-.31-.16-.04-.34-.98,1.43-5.11.57-5.32h.16c-.64-.23-1.26.14-1.61-.55l.29-.46-.27-.69c.21-.46.38-.24.46-.24-.3-1.13.06-2.7.14-4.06l-1.74,1.44c.4-1.15,1.22-3.23.66-3.46l.59-.69c1.12-2.31-.49-1.61-.15-2.53l.64-1.16v1.15c.31-1.15.52-1.61.94-2.53,0,0-.01-.01-.02-.01-.03.06-.06.1-.1.11l-.02-.16c-.32-.14-.54-.74-.52-1.55.09-1.15-.38-2.06.29-3.9l-.65-.46.39-1.38h.52c-.03,1.35.17,3.9.19,5.64l.24.03c0-1.03-.23-2.21-.18-2.89.1-.33.64-1.18,1-.57l-.51-.64c-.06-3.45-.08-3.47.51-7.06l-.26.31c-.15-.71-.3-1.42.12-1.62.05-.81.1-1.64.15-2.44.07-1.11.17-2.21.29-3.27-.81-1.08-1.5-2.11-2.03-3.04-.29,0-.58-.01-.85,0-.06-.07-.15-.19-.17-.25-.02-.06-.04-.14-.06-.21-.03-.15-.06-.31-.1-.45-.08-.27-.23-.45-.61-.23l-.87-.52c-.4-.48-.91-.52-1.15-1.27h0s0,0,0,0c-.01-.05-.03-.1-.04-.15-.01.01-.02.03-.03.04-.78-1.21-.39.39-1.25-1.02-.04-.68-.96.12-1.4-.54l.09-1.18c-.62-1.38-1.43-.95-2.86-2.44-.46-.93-.25-1.8.69-1.78-1.21-.1-.66.07-1.77-.53.11-.36.25-.32.65-.33-.45-1.04-.67-.27-1.21-.86-.61.26-1.52.75-1.73.59l.07.36c-.83-.38-1.58-.95-2.04-1.88l.25-.19-.84-.65.24-.33-1.13-1,.06.22c-.28-.22-1.18-.96-1.49-1.58l.18-.14c-.79-1.83-2.51-2.31-4.07-3.85l.53-.11c-.19-.85-.65.34-1.1-.46l.37-.42c-1.07-.06-.59-.84-.76-1.42l-.36.69-.59-.84c-.6-.98.2-1.13.59-1.28l-.94-.15.36-.55c-.93.12-.3-.49-1.26-.91.12-.23.39-.15.24-.46l-1.77-.53.96.42-.76.57c-1.22-.23-.87-1.06-1.56-1.4l.55.16c-.98-.69-.73-1.02-1.04-1.64.02.27.04.68-.37.42-.28-.22.11-.37-.04-.68-.51.38-1.33,0-1.65-.76.07-.06.15-.1.22-.11-.21-.07-.4-.03-.52-.38l.64-.34h-.93c-.16-.46-.97-.57-.59-.85l.27.08-2.16-2.5.37-.42c-.78.3-1.03-1.5-1.65-.76-.05-.81-1.96-1.52-.93-2-1.44-1.63-3-1.75-4.44-4.03.02-1.31-1.98-2.97-3.08-4.26-.64-.53-1.23-1.01-1.79-1.47-.32-.26-.64-.51-.95-.76-.36-.28-.72-.56-1.08-.84-1.5-1.02-3.06-1.97-5.1-2.76-.45-.58-1.12-.96-1.85-1.29-.76-.25-1.58-.47-2.43-.54-.85-.09-1.69-.14-2.5-.16-.81-.07-1.58-.09-2.29-.28-.26.17-.51.33-.76.52-.47-.17-1.01-.22-1.59-.21-.57.05-1.18.18-1.81.31-.62.16-1.26.37-1.91.51-.65.18-1.31.34-2.01.39-.51.47-.78.69-.91.77.12-.03.33-.02.51.25-.38.06-.89.3-1.3.49-.41.2-.76.3-.88,0l.13-.16c-.11-.31-.58.06-1.13.5-.53.47-1.12,1.04-1.63,1.08l.8.27c-.41.24-.79.51-1.16.81l.2-.36c-1.82,2.59-3.18,4.21-4.41,6.03-1.18,1.79-2.24,3.84-2.01,6.76-.65-.86.25,1.15-.57,1.13-.63.67-.54,1.38-.35,2.03.19.65.65,1.23.82,1.79.04,0,.09,0,.16.07,0,.67.1,1.34.18,2.01-1.24-1,1.11,1.26.04.35.15,2.67,1.35,5.68,3.35,8.18l.77.92.39.46.34.36,1.31,1.4c.87.94,1.7,1.89,2.46,2.86l.05-.34c.8.96,2.08,1.89,2.4,2.88.32.99,1.89,1.07,2.17,1.32,1.04.46.99,1.77.73,1.41.84.74,2.25.87,2.98,2.28-.3.98,3.46,2.53,2.75,3.23l.07-.04c.8,1.93,2.94,2.51,3.89,4.5,0,0-.08.02-.18.01l5.14,1.16,1.64-3.15-.51-4.59-7.25-7.12-4.65-6.71-3.37-3.59-1.69-1.79-.81-.87-.52-.6c-1.33-1.63-2.14-3.67-2.3-5.81-.3-.29-.49-.61-.75-.95.71-1.31.96-2.68,1.5-4.09.52-1.38,1.4-2.76,2.76-3.33l-.39-.52c.57-.59.82-.18,1.03-.22,1.42-1.14,3.14-1.88,4.96-2.23,1.82-.3,3.77-.21,5.52.44.89.28,1.7.76,2.48,1.25.35.3.76.53,1.07.88l.5.47.67.71c1.78,1.91,3.47,3.82,5.02,5.74.35.98,2.52,2.89,2.71,3.74,2.78,1.76,5.11,4.22,7.27,6.59l-.14-.04,1.13,1c0,.08-.04.14-.11.14,1.59.83,3.03,3.16,4.3,4.83l-.13-.04c4.15,4.43,8.4,8.48,12.56,12.58,2.08,2.05,4.14,4.12,6.16,6.26,1.01,1.07,2.01,2.15,3,3.27.49.56.98,1.12,1.47,1.69l.18.21c.05.06.02.04.04.06l.03.08c.02.05.03.1.03.15l-.05.09-.23.24-.02.02h0s0,.13,0,.13l-.02.54c0,.36-.01.72-.02,1.08,0,1.46.05,2.95.11,4.47.12,3.03.24,6.16-.19,9.27-.64,1.18-.16,14.18.14,15.33Z" fill="#f9b515"/>
        <path d="M152.96,284.97v-.05c-.28,0-.17.08,0,.05Z" fill="#1d1d1d"/>
        <polygon points="160.41 258.12 160.4 258.21 160.79 257.89 160.41 258.12" fill="#1d1d1d"/>
        <path d="M160.64,275.32c.09-.77.02-.81-.09-.7-.02.28,0,.52.09.7Z" fill="#1d1d1d"/>
        <path d="M153.48,291.28c-.02.41.14.25.32.01-.03-.41-.05-.7-.05-.7-.06.23-.21.46-.27.69Z" fill="#1d1d1d"/>
        <path d="M157.18,289.63l.22.13c-.05-.24-.13-.23-.22-.13Z" fill="#1d1d1d"/>
      </g>
      <g>
        <path d="M107.85,290.2s-.07.02,0,0h0Z" fill="#1d1d1d"/>
        <path d="M145,289.25s.02,0,.04,0c.03-.13.06-.24.07-.33l-.11.33Z" fill="#1d1d1d"/>
        <path d="M150.98,290.06s.02.02.04.03c0-.08,0-.16-.04-.03Z" fill="#1d1d1d"/>
        <path d="M131.23,290.46c-.05,0-.08.02-.1.06.03-.03.06-.05.1-.06Z" fill="#1d1d1d"/>
        <path d="M95.42,290.89s.02,0,.04-.01c-.04-.03-.09-.04-.14-.08l.1.09Z" fill="#1d1d1d"/>
        <path d="M95.54,290.67c.25.1,0,.18-.08.21.3.18.54.19.76.11-.06-.2-.51-.17-.68-.32Z" fill="#1d1d1d"/>
        <path d="M89.42,310.87l-.08-.06s.05.04.08.06Z" fill="#1d1d1d"/>
        <path d="M131.82,300.31s-.06.03-.09.05c.05,0,.07-.02.09-.05Z" fill="#1d1d1d"/>
        <path d="M89.62,307.74l-.32-.03c.13.03.23.04.32.03Z" fill="#1d1d1d"/>
        <path d="M145.11,288.92l.04-.12s-.03.07-.04.12Z" fill="#1d1d1d"/>
        <path d="M156.5,290.26c0,.1.01.18.03.24,0,0,.02,0,.02,0l-.05-.24Z" fill="#1d1d1d"/>
        <path d="M169.38,309.55s.08,0,.12-.01l-.23-.11c.02.06.05.1.1.13Z" fill="#1d1d1d"/>
        <path d="M164.37,291.64s.04-.07.05-.11c-.1-.05-.28-.09-.52-.1-.12,0-.26-.01-.4-.02-.1,0-.2,0-.31,0l-.03.39c.18-.03.25-.05.51-.08l.7-.08Z" fill="#1d1d1d"/>
        <path d="M163.95,300.94c.26-.17.52-.38.79-.62.18.14.07.44,0,.62-.02.05-.03.09-.04.14,0,.02,0,.04,0,.06v.13c.03.47.1.96.26,1.51l-.17-.12c-.18.32,1.58.51-.57,4.07h-.08c.01.12.17.12-.04.37l.48-.62c.2.37.57.69.63,1.18-.09.1-.25.14-.37.15l.13,1.21-.51.37c.28.37,1.35.2.75,1.19.74-.37.45.49.82.37-.09.05-.23.16-.36.25.09.59.29,1.69.68,1.97,0,0,1.57-2.3,2.36-2.92-.2.83.09.22.34.06l-.19-.06c.18-.5.65-.5.78-.74-.04,0-.08,0-.13.01l.06.03c-.08.02-.14,0-.19-.02-.1,0-.18-.02-.15-.15l.05.03c-.07-.21,0-.56.04-.72h.39c-.75-.37,1.14-2.47,1.16-2.96.49-.5-.12-1.11.13-1.73.13-.99.57-.49.91-.99.25-.62-.46.13-.48-.12l.55-.74c.05.43.28.2.44.12.03-.32.23-.73.32-1.09.09-.53.07-.99-.32-1.08.37-1.29.69-1.42.73-2-.14.24-.27.64-.43.69.35-.61-.09-.22-.16,0-.17-.33.19-1.41.48-2.54.29-1.11.52-2.23.09-2l.16-.11c-.64.29-1.26,1-1.61.78l.29-.55-.27-.26c.21-.51.38-.5.46-.57-.1-.2-.13-.49-.11-.85-.61-.03-1.19-.2-1.82-.25-.08.58-.24,1.16-.46,1.74-.28-.4-1.19-1.22-1.69-.66-.04-.2-.08-.39-.14-.59-.54-.56-.95-.44-1.18-.22-.25.22-.39.54-.66.37-.2-.21-.43-.43-.67-.64h.86c-.78-.31-1.1-.52-1.81-.94,0,0,0,.01-.01.02.05.03.08.06.08.1l-.13.02c-.07.16-.23.29-.45.39-.11.05-.23.08-.37.1-.12.02-.2.03-.32.03-.62-.09-1.1.38-2.09-.29l-.25.65-.74-.39v-.52c.73.03,2.09-.17,3.02-.19l.02-.24c-.55,0-1.18.23-1.55.18-.18-.1-.63-.64-.3-1l-.34.51c-1.85.06-1.86.08-3.78-.51l.17.26c-.38.15-.76.3-.87-.12-1.16-.09-2.35-.41-3.11-1.07l-.16.61c-.24-.03-.61-.96-.73-.1l-.52.27c-.33-.05-.54.3-.92-.05h0s0,0,0,0c-.02-.02-.05-.05-.07-.07,0,.02,0,.03,0,.05-.76-.27,0,.55-.86.2-.28-.44-.31.78-.73.64l-.42-.88c-.76-.5-.89.38-2,.38-.53-.31-.79-1.06-.44-1.73-.48.81-.22.53-.86.91-.1-.33-.03-.4.11-.7-.57-.39-.35.3-.78.28-.12.62-.27,1.62-.41,1.66l.17.19c-.46.33-.95.49-1.48.18l.02-.31-.56.16-.04-.4-.8.12.11.11c-.19.05-.81.19-1.16-.02v-.22c-.99-.7-1.81.22-2.98.29l.15-.46c-.4-.45-.11.7-.58.47l-.02-.56c-.42.73-.54-.16-.83-.43l.13.73-.54-.15c-.6-.24-.37-.93-.28-1.31l-.41.58-.08-.65c-.3.75-.3-.12-.82.28-.04-.24.09-.38-.09-.49l-.86.91.52-.4-.06.94c-.54.72-.73-.1-1.12.16l.27-.28c-.63.23-.66-.17-1.02-.38.11.18.28.44.02.56-.19.05-.1-.33-.28-.44-.04.63-.49.96-.9.67,0-.09.01-.18.04-.23-.1.1-.16.26-.34.11l.11-.7-.35.67c-.23-.19-.57.32-.54-.16l.13-.14-1.77-.17-.02-.56c-.17.77-.96-.29-.91.67-.33-.52-1.31.37-1.12-.71-1.16-.08-1.79.96-3.2.43-.5-.92-1.88-.62-2.79-.72-1.77.38-2.92.73-4.73,1.03-1.09-1.28-2.72.44-3.89-.28l-.32.51c-.78-.81-1.97.18-3.06-.61-.27.22-.41.29-.47.31.05.02.12.12.15.44-.31-.23-.94.06-.9-.59l.08-.07c.05-.65-.95.3-1.3-.26l.19.69-.59-.12.16-.13c-2.57,1.54-3.73-.66-6.14.74.3-.76-.41.4-.64-.43-.54-.52-1.08-.46-1.51-.24-.44.22-.78.61-1.14.74.01.04.02.09-.01.15l-1.45-.1c.21-.52.04-.31-.13-.07-.16.24-.3.49-.13.05-1.82-.35-3.86-.38-5.85-.35.05,2.58.2,5.22,0,7.61l.27-.12c-.03.54.04,1.18.06,1.76.01.29,0,.57-.02.83-.03.27-.09.52-.2.61-.43.51.68,1.11.73,1.3.46.56-.46,1.06-.41.82.13.59,1.08,1.15.67,1.98-.89.28.87,2.25-.13,2.27h.08c-.7,1.06.49,2.06-.14,3.2,0,0-.07-.02-.14-.06l3.03,2.31,3.33-.66,2.71-2-.59-5.43.53-2.17.26-1.08.13-.54c.02-.13.04-.09.07-.1h.07c-.07-.08-.13-.21-.2-.4.05-.05.14-.11.27-.16-.04-.25-.04-.5-.02-.75.03.08.06.15.09.21l.04.08s.02.05.11.07c.28.09.56.14.85.17.58.06,1.17.02,1.77-.03,1.2-.1,2.43-.24,3.54.23l.05-.65c.63-.04.59.36.74.48,5.86-.14,11.89-1.01,17.16-.19.51.43,2.05.18,2.45.63,1.71-.79,3.53-.78,5.24-.7l-.06.07.81-.12c.03.05.04.13.01.18.91-.57,2.35,0,3.46.23l-.07.07c6.51.12,12.54-1.09,19-.19,1.5.53,3.12.43,4.8.31.84-.06,1.69-.13,2.55-.12.43,0,.86.02,1.29.07.22.02.43.05.65.09.04.04.03.08.04.14.01.41-.13.36.07.2.1-.08.23-.11.34-.16Z" fill="#9d4693"/>
        <path d="M164.82,307.83v-.03c-.28,0-.17.04,0,.03Z" fill="#1d1d1d"/>
        <polygon points="170.13 292.44 170.19 292.45 170.23 292.06 170.13 292.44" fill="#1d1d1d"/>
        <path d="M172.5,302.66c.09-.41.02-.43-.09-.37-.02.15,0,.28.09.37Z" fill="#1d1d1d"/>
        <path d="M165.34,311.21c-.02.22.14.13.32,0-.03-.22-.05-.38-.05-.38-.06.12-.21.24-.27.37Z" fill="#1d1d1d"/>
        <path d="M169.04,310.32l.22.07c-.05-.13-.13-.12-.22-.07Z" fill="#1d1d1d"/>
      </g>
    </g>
    <g>
      <g>
        <path d="M293.43,234.3c-.08.07-.08.13,0,0h0Z" fill="#f9b515"/>
        <path d="M299.29,164.43s-.02-.04-.03-.07c-.14,0-.27,0-.36-.01l.4.08Z" fill="#1d1d1d"/>
        <path d="M294.77,152.49s0-.05,0-.09c-.07.04-.15.06,0,.09Z" fill="#1d1d1d"/>
        <path d="M302.49,190.86c0,.11.02.17.06.22-.03-.06-.05-.13-.06-.22Z" fill="#1d1d1d"/>
        <path d="M279.51,253.04s.01-.03.03-.05c-.05.02-.09.04-.15.06h.12Z" fill="#1d1d1d"/>
        <path d="M279.49,252.7c.25-.16.1.17.04.29.33-.13.53-.37.67-.67-.16-.12-.5.36-.71.38Z" fill="#1d1d1d"/>
        <path d="M256.61,290.04l-.08-.13c.02.05.05.09.08.13Z" fill="#1d1d1d"/>
        <path d="M312.35,189.61c.02.06.03.13.05.19,0-.1-.02-.15-.05-.19Z" fill="#1d1d1d"/>
        <path d="M257.54,282.05l-.22-.23c.06.14.14.2.22.23Z" fill="#1d1d1d"/>
        <path d="M298.89,164.35l-.15-.03s.09.03.15.03Z" fill="#1d1d1d"/>
        <path d="M290.11,141.69c.09-.04.15-.1.19-.16,0-.01,0-.02-.01-.03l-.18.19Z" fill="#1d1d1d"/>
        <path d="M276.24,174.59s.07-.04.11-.07l-.28-.16c.05.11.11.19.17.23Z" fill="#1d1d1d"/>
        <path d="M284.05,138.67s0,.08.02.12c.13-.01.33-.09.58-.22.27-.14.61-.32.98-.53l-.13-.37c-.59.36-.99.67-1.45,1Z" fill="#1d1d1d"/>
        <path d="M266.59,148.38c.42-.64.89-1.26,1.33-1.86-.81,3.29-1.18,5.74-1.24,8.11-.04,2.35.14,4.66,1.24,7.35l-.24-.26c.02.47.47.6.94,1.64.46,1.04.93,2.99.97,6.94l-.08.02c.09.25.24.2.19.77l.09-1.4c.41.7.97,1.25,1.31,2.24-.02.24-.15.36-.27.41l.85,2.43-.26.9c.49.68,1.41.03,1.43,2.22.49-.97.72.88,1.01.52-.06.13-.12.4-.19.62.44,1.18,1.3,3.38,1.83,3.83,0,0,.12-5.14.51-6.63.3,1.75.22.42.36.02l-.21-.06c-.12-1.06.33-1.2.3-1.74-.04.01-.08.04-.12.07l.08.05c-.07.07-.13.06-.19.02-.09.04-.18.02-.24-.27l.06.04c-.19-.4-.33-1.15-.4-1.48l.37-.12c-.94-.54-.39-5.37-.66-6.38.18-1.15-.78-2.23-.92-3.57-.47-2.05.25-1.17.28-2.28-.11-1.3-.38.37-.54-.11.05-.54.12-1.04.18-1.54.24.79.37.3.48.12-.14-.59-.03-1.39-.05-2.04,0-.66-.02-1.21-.43-1.37.11-.81.36-1.21.47-1.49.14-.28.21-.44.26-.77-.17.21-.29.66-.45.65.36-.62-.08-.31-.16-.05-.09-.25-.03-.69.15-1.2.15-.51.38-1.09.65-1.62.12-.27.24-.53.35-.77.13-.24.23-.45.31-.65.15-.38.18-.67-.02-.79l.15.05c-.54-.42-1.26-.25-1.34-1.03l.44-.35v-.77c.39-.35.45-.07.52-.04.22-1.17,1.26-2.47,2.17-3.49-.74.06-1.55.14-2.3.3.47-.46,1.27-.97,1.83-1.47.62-.45,1.05-.87.92-1.15.3-.07.62-.1.93-.13.62-.23.97-.43,1.18-.61.22-.17.29-.34.31-.49.04-.32-.12-.6.35-.78.43-.11.9-.14,1.34-.2-.31.23-.66.42-.94.68.54-.26.98-.34,1.35-.45.38-.1.74-.17,1.24-.2,0,0,0-.01,0-.02-.07,0-.12,0-.14-.03l.13-.09c-.02-.17.07-.38.25-.59.19-.21.45-.43.89-.64.3-.13.57-.29.84-.45.18-.12.3-.21.48-.32.32-.2.78-.37,1.31-.04.1-.24.21-.48.35-.71.3.15.57.36.79.59l-.2.54c-.32-.16-.87-.18-1.38.01-.25.1-.48.25-.69.39l-.16.1c-.07.04-.06.04-.21.12-.24.13-.47.26-.69.38l.08.23c.26-.14.52-.29.78-.45.13-.09.2-.16.31-.24.19-.16.39-.31.55-.32.2.05.5.6.28,1,.06-.19.14-.38.24-.57.56-.02.88.17,1.1.38.22.21.32.52.33.96,0,.07,0,.16-.01.25.08.28.17.6.28.95l.09-.43c.48.68.95,1.36.65,1.74.94,2.28,1.69,4.74,1.75,6.47l.7.07c.18.49-.34,1.58.55,1.46l.7.9c.25.67.75.92.76,1.8h0s0,0,0,0c0,.05,0,.11,0,.17.02,0,.03-.02.04-.03.42,1.58.49-.24.93,1.58-.15.72.98.28,1.22,1.15l-.43,1.18c.21,1.69,1.13,1.58,2.1,3.73.18,1.16-.28,1.97-1.19,1.56,1.16.61.67.21,1.59,1.3-.21.33-.34.22-.73.07.15,1.27.58.56.94,1.4.68-.01,1.71-.15,1.87.11l.03-.4c.7.75,1.28,1.65,1.46,2.8l-.3.09.63,1.01-.36.19.25.34.03.15.11-.1c.03.07.07.22.09.39.01.47,0,.99-.11,1.37l-.22-.03c-.7,2.13.22,3.89.29,6.38l-.46-.33c-.45.85.7.23.47,1.25l-.56.05c.73.89-.16,1.15-.43,1.77l.73-.29-.15,1.16c-.24,1.28-.93.78-1.31.6l.58.87-.65.17c.75.63-.12.63.28,1.75-.24.09-.38-.19-.49.19l.91,1.83-.4-1.11.94.13c.72,1.15-.1,1.56.16,2.38l-.28-.57c.23,1.34-.17,1.41-.38,2.17.18-.23.44-.59.56-.05.05.4-.33.22-.44.59.63.09.96,1.05.67,1.93-.09-.01-.18-.03-.23-.09.1.22.26.34.11.73l-.7-.23.67.75c-.19.5.32,1.22-.16,1.16l-.14-.28-.17,3.77-.56.05c.77.37-.29,2.05.67,1.93-.52.71.37,2.8-.71,2.38-.08,2.48.96,3.81.43,6.82-.92,1.07-.62,4.01-.72,5.94.21,1.89.38,3.44.55,5.01.08.78.16,1.57.25,2.4.02.21.04.42.06.63l.03.32c0,.11.02.24.03.23.04.1.08.22.11.34-.12.02-.21.04-.28.07-.25.03-.35.07-.4.17.05-.05-.22.34-.39.6-.17.28-.35.57-.53.86-.7,1.16-1.39,2.32-2.35,3l-.02.85c-1.67.8-2.46,3.4-4.53,4.74-.18.59-.31.87-.38.98.08-.07.26-.13.55.03-.59.38-1.2,1.61-1.65,1.14l.05-.17c-.45-.48-1.01,1.77-1.91,2.01l.8.11-.87.92.1-.35c-2.19,5.25-5.45,5.83-7.53,10.73-.17-1-.32,1.04-1.01.58-1.62.37-1.31,2.02-1.76,3.03.03.03.06.06.07.15l-1.23,1.4c-.13-1.52-.15,1.59-.22.24-3.62,3.32-6.91,8.77-10.67,12.95l.36-.03c-.92,1.08-1.76,2.67-2.77,3.25-1.01.58-.93,2.28-1.15,2.63-.37,1.22-1.76,1.49-1.41,1.12-.68,1.07-.67,2.6-2.08,3.72-.53-.04-1.11,1.03-1.65,2.05-.14.25-.27.5-.4.73-.21.33-.41.62-.59.86-.37.48-.69.76-.93.67l.06.06c-.31.26-.6.54-.87.83-.07.74-.07,1.51-.04,2.28.02.37.05.74.07,1.12l.09.74c.11,1,.19,2.01-.09,3.09,0,0-.07-.05-.14-.13l3.03,4.93,3.33-1.4,2.71-4.27-.13-2.59c-.02-.6-.04-.43-.07-.54l-.07-.21c-.39.32,1.45-2.19,2.58-3.78l6.56-6.59,13.66-17.86.41-1.73c3.77-2.65,6.1-8.03,9.78-11.18l-.45-.48c.8-1.08,1.06-.76,1.35-.95,1.97-2.55,3.91-5.15,5.85-7.74.97-1.3,1.93-2.59,2.89-3.88.48-.64.96-1.29,1.44-1.93.84-1.1,1.68-2.19,2.52-3.28-.02-2.08-.04-4.14-.06-6.19-.01-1.47,0-2.93,0-4.37.03-2.88.13-5.69.33-8.41.43-1.08.18-4.38.63-5.23-.79-3.65-.78-7.51-.7-11.16l.07.14-.12-1.72c.05-.07.13-.08.18-.03-.57-1.94,0-5,.23-7.37l.07.14c.02-2.51,0-5-.05-7.46-.06-2.85-.12-5.68-.19-8.49l-1.18-2.5-.7-1.43-1.39-2.87c-.92-1.91-1.84-3.83-2.73-5.77-1.79-3.87-3.49-7.81-5.03-11.92-.34-1.26-.78-2.51-1.3-3.77-.26-.63-.53-1.26-.82-1.89-.39-.84-.78-1.68-1.18-2.53-1.69-3.66-5.47-6.08-9.48-6.12-.99-.02-2,.1-2.97.35-.97.27-1.92.67-2.85,1.15l-.66.33-.37.17-.75.33c-.61.29-1.22.57-1.84.86-.23.04-.68.22-1.26.59-.58.37-1.36.81-2.15,1.48-1.65,1.24-3.45,3.16-4.94,5.27-.76,1.05-1.38,2.19-1.96,3.27-.51,1.12-1,2.16-1.3,3.14-.16.48-.3.93-.44,1.35-.1.42-.19.8-.26,1.13-.14.66-.24,1.13-.24,1.34Z" fill="#f9b515"/>
        <path d="M270.82,172.35l-.02-.05c-.26.08-.14.13.02.05Z" fill="#1d1d1d"/>
        <polygon points="277.92 143.22 277.86 143.29 278.36 143.25 277.92 143.22" fill="#1d1d1d"/>
        <path d="M275.12,159.67c-.1-.77-.17-.79-.25-.66.05.28.13.51.25.66Z" fill="#1d1d1d"/>
        <path d="M273.36,179.12c.11.45.22.24.31-.08-.16-.45-.27-.75-.27-.75.01.27-.05.56-.04.83Z" fill="#1d1d1d"/>
        <path d="M276.37,176.26l.25.08c-.13-.25-.2-.21-.25-.08Z" fill="#1d1d1d"/>
      </g>
      <g>
        <path d="M274.36,185.21s.09.02,0,0h0Z" fill="#1d1d1d"/>
        <path d="M227.97,223.65s-.03.03-.04.05c.06.13.11.24.14.33l-.1-.38Z" fill="#f9b515"/>
        <path d="M219.68,231.15s-.05.02-.07.03c.06.05.11.11.07-.03Z" fill="#f9b515"/>
        <path d="M244.86,204.23c.07-.06.09-.12.08-.18-.02.06-.04.12-.08.18Z" fill="#1d1d1d"/>
        <path d="M281.42,197.2s0-.02,0-.04c-.03.03-.06.05-.09.08l.1-.04Z" fill="#1d1d1d"/>
        <path d="M281.23,197.01c.11-.17.18.07.18.16.22-.17.22-.39.17-.6-.2-.02-.19.37-.35.45Z" fill="#1d1d1d"/>
        <path d="M260.42,224.35v-.14s0,.09,0,.14Z" fill="#f9b515"/>
        <path d="M236.98,198.21c.02-.05.06-.1.08-.15-.06.06-.08.11-.08.15Z" fill="#1d1d1d"/>
        <path d="M264.5,220.15l-.19-.26c.06.13.12.21.19.26Z" fill="#f9b515"/>
        <path d="M228.07,224.03l.03.14s-.02-.09-.03-.14Z" fill="#f9b515"/>
        <path d="M216.27,236.24c-.1,0-.18.03-.24.05,0,.01,0,.02,0,.03l.24-.08Z" fill="#f9b515"/>
        <path d="M211.21,288.19s.08-.01.12-.03l-.23-.21c.02.11.05.19.1.24Z" fill="#1d1d1d"/>
        <path d="M214.89,250.38s.07.05.11.05c.11-.24.13-.88.12-1.7l-.39-.05.16,1.7Z" fill="#1d1d1d"/>
        <path d="M205.78,265.84l.79-1.51c.36,4.84-.43,7.09.21,11.24l-.17-.23c-.18.6,1.58.94-.57,7.6h-.08c.01.23.17.23-.04.69l.48-1.15c.2.69.57,1.29.63,2.21-.09.2-.25.26-.37.28l.13,2.25-.51.69c.28.69,1.35.38.75,2.22.74-.69.45.91.82.69-.09.09-.23.3-.36.47.09,1.1.29,3.16.68,3.67,0,0,1.57-4.29,2.36-5.44-.2,1.54.09.41.34.1l-.19-.1c.18-.92.65-.92.78-1.39-.04,0-.08.01-.13.03l.06.06c-.08.04-.14.02-.19-.03-.1.01-.18-.03-.15-.28l.05.05c-.07-.39,0-1.05.04-1.34h.39c-.75-.69,1.14-4.61,1.16-5.53.49-.92-.12-2.07.13-3.23.13-1.84.57-.92.91-1.84.25-1.15-.46.23-.48-.23l.55-1.38c.05.8.28.37.44.22.07-1.19.79-3.08,0-3.45.37-1.61.69-1.62.73-2.31-.14.23-.27.69-.43.69.35-.65-.09-.31-.16-.04-.34-.98,1.43-5.11.57-5.32h.16c-.64-.23-1.26.14-1.61-.55l.29-.46-.27-.69c.21-.46.38-.24.46-.24-.3-1.13.06-2.7.14-4.06l-1.74,1.44c.4-1.15,1.22-3.23.66-3.46l.59-.69c1.12-2.31-.49-1.61-.15-2.53l.64-1.16v1.15c.31-1.15.52-1.61.94-2.53,0,0-.01-.01-.02-.01-.03.06-.06.1-.1.11l-.02-.16c-.32-.14-.54-.74-.52-1.55.09-1.15-.38-2.06.29-3.9l-.65-.46.39-1.38h.52c-.03,1.35.17,3.9.19,5.64l.24.03c0-1.03-.23-2.21-.18-2.89.1-.33.64-1.18,1-.57l-.51-.64c-.06-3.45-.08-3.47.51-7.06l-.26.31c-.15-.71-.3-1.42.12-1.62l.06-.97.02-.24c0-.08.01-.06.02-.09l.05-.12c.07-.16.17-.29.29-.36.28-.06.55-.03.79.09-.15-.14-.29-.28-.43-.44.02-.01.02.02.08-.01.06-.03.13-.05.21-.07.15-.04.31-.08.44-.12.27-.1.44-.25.2-.62l.48-.89c.46-.42.48-.94,1.22-1.21h0s0,0,0,0c.05-.01.09-.03.14-.05-.01-.01-.03-.02-.04-.03,1.17-.83-.41-.37.96-1.29.67-.07-.17-.95.48-1.42l1.18.04c1.35-.68.88-1.47,2.31-2.96.91-.5,1.78-.33,1.81.61.04-1.21-.1-.66.45-1.79.37.1.33.24.36.63,1.02-.5.24-.68.81-1.25-.29-.6-.82-1.48-.67-1.7l-.36.09c.35-.84.88-1.62,1.78-2.12l.2.24.61-.87.34.23.95-1.17-.22.07c.21-.29.91-1.22,1.51-1.56l.14.17c1.79-.87,2.2-2.61,3.66-4.24l.13.52c.84-.23-.37-.63.41-1.12l.43.35c0-1.07.81-.62,1.38-.82l-.7-.32.81-.63c.95-.64,1.14.14,1.31.53l.11-.95.57.34c-.16-.92.47-.32.85-1.3.23.11.16.39.47.22l.45-1.79-.38.98-.6-.74c.18-1.22,1.02-.92,1.33-1.62l-.14.55c.65-1.01.98-.78,1.59-1.11-.27.03-.68.07-.44-.35.2-.29.37.09.67-.07-.4-.49-.06-1.33.68-1.68.06.07.11.14.12.22.06-.21.01-.4.36-.54l.37.63-.03-.93c.44-.18.51-.99.81-.63l-.07.28,2.4-2.27.44.35c-.33-.77,1.45-1.1.68-1.68.81-.09,1.43-2.03,1.96-1.02,1.56-1.51,1.62-3.08,3.82-4.62,1.31-.04,2.88-2.11,4.12-3.27.5-.67.95-1.28,1.39-1.86.33-.45.64-.88.96-1.31.62-.71,1.29-1.44,2.32-2.08.46.13.88.14,1.26,0,.41-.07.79-.31,1.21-.47.41-.18.84-.38,1.28-.45.43-.11.87-.07,1.25.11.14-.17.29-.36.44-.5.25.23.53.34.84.39.31.08.64.12.99.15.35.05.7.14,1.05.25.34.14.65.37.91.66.4-.06.6-.04.68-.02-.05-.05-.1-.18.01-.49.14.2.44.31.65.47.2.17.32.35.13.61h-.12c-.19.27.1.36.47.47.34.14.75.33.76.68l.23-.69c.2.18.37.38.54.6l-.24-.04c1.82.54,2.55,1.8,2.96,2.96.43,1.2.69,2.28,1.66,3.81-.8-.33.47.61-.34.75-.44.46-.43.8-.18,1.16.25.35.58.72.7,1.08.04,0,.09.02.15.06-.04.41-.17.81-.27,1.21-.91-.92.7,1.05-.06.2-.71,1.48-1.35,3.12-2.46,4.65l-.43.56-.21.29c-.08.1-.2.24-.3.35l-1.26,1.44c-.85.95-1.71,1.88-2.6,2.73l.34.02c-.88.89-1.67,2.26-2.63,2.67-.95.41-.88,1.99-1.1,2.29-.35,1.08-1.67,1.16-1.33.86-.65.91-.64,2.32-1.98,3.19-1.01-.21-2.17,3.69-2.94,3.06l.05.07c-1.84.99-2.21,3.17-4.1,4.31,0,0-.03-.08-.03-.18l-.65,5.23,3.3,1.33,4.52-.96,6.38-7.91,6.22-5.29,3.24-3.71,1.62-1.85.84-.96,1.04-1.31c2.68-3.57,4.21-7.99,4.34-12.41-.19-.64-.5-1.26-.75-1.86.56-2.55-.12-5.58-1.48-8.24-1.35-2.7-3.3-5.02-5.08-7.21l-.51.41c-.57-.51-.81-.79-.91-1-.1-.22-.08-.36-.21-.52-2.94-2.18-6.52-3.49-10.13-3.89-3.62-.35-7.29.16-10.56,1.55-1.65.65-3.17,1.57-4.59,2.57-.68.55-1.39,1.05-1.99,1.66l-.93.89-.69.71c-1.83,1.87-3.66,3.64-5.51,5.28-.96.39-2.78,2.65-3.62,2.88-1.64,2.86-3.98,5.3-6.25,7.56l.03-.14-.95,1.18c-.08,0-.14-.04-.15-.11-.76,1.63-3.02,3.17-4.63,4.51l.03-.14c-4.24,4.35-8.09,8.77-12,13.12-1.96,2.17-3.93,4.33-5.97,6.44-1.02,1.06-2.06,2.11-3.13,3.14-1.47,1.42-2.95,2.85-4.44,4.29-.28.24-.55.48-.83.73-.11,1.25-.18,2.57-.23,3.93-.02.48-.04.96-.05,1.45,0,.36-.01.72-.02,1.08,0,1.46.05,2.95.11,4.47.12,3.03.24,6.16-.19,9.27-.64,1.18-.16,14.18.14,15.33Z" fill="#f9b515"/>
        <path d="M206.64,284.97v-.05c-.28,0-.17.08,0,.05Z" fill="#1d1d1d"/>
        <polygon points="214.1 258.12 214.09 258.21 214.48 257.89 214.1 258.12" fill="#1d1d1d"/>
        <path d="M214.32,275.32c.09-.77.02-.81-.09-.7-.02.28,0,.52.09.7Z" fill="#1d1d1d"/>
        <path d="M207.16,291.28c-.02.41.14.25.32.01-.03-.41-.05-.7-.05-.7-.06.23-.21.46-.27.69Z" fill="#1d1d1d"/>
        <path d="M210.87,289.63l.22.13c-.05-.24-.13-.23-.22-.13Z" fill="#1d1d1d"/>
      </g>
      <g>
        <path d="M261.6,299.74s.07-.02,0,0h0Z" fill="#1d1d1d"/>
        <path d="M224.45,300.69s-.02,0-.04,0c-.03.13-.06.24-.07.33l.11-.33Z" fill="#1d1d1d"/>
        <path d="M218.47,299.88s-.02-.02-.04-.03c0,.08,0,.16.04.03Z" fill="#1d1d1d"/>
        <path d="M238.22,299.48c.05,0,.08-.02.1-.06-.03.03-.06.05-.1.06Z" fill="#1d1d1d"/>
        <path d="M271.06,299.05s0,0-.01.01c0,.03,0,.05,0,.08l.02-.09Z" fill="#1d1d1d"/>
        <path d="M270.94,299.27c0-.1.07-.18.1-.21.01-.18-.04-.19-.12-.11-.06.2.05.17.01.32Z" fill="#1d1d1d"/>
        <path d="M272.99,310.87l-.08-.06s.05.04.08.06Z" fill="#1d1d1d"/>
        <path d="M237.63,289.63s.06-.03.09-.05c-.05,0-.07.02-.09.05Z" fill="#1d1d1d"/>
        <path d="M273.19,307.74l-.32-.03c.13.03.23.04.32.03Z" fill="#1d1d1d"/>
        <path d="M224.34,301.02l-.04.12s.03-.07.04-.12Z" fill="#1d1d1d"/>
        <path d="M212.95,299.67c0-.1-.01-.18-.03-.24,0,0-.02,0-.02,0l.05.24Z" fill="#1d1d1d"/>
        <path d="M199.35,309.55s.08,0,.12-.01l-.23-.11c.02.06.05.1.1.13Z" fill="#1d1d1d"/>
        <path d="M205.68,298.29s0,.07,0,.11c.03.05.09.09.16.1.04,0,.07.01.12.02.1,0,.2,0,.31,0l.03-.39c-.13.03-.36.05-.4.08l-.21.08Z" fill="#1d1d1d"/>
        <path d="M193.92,294.22c.26-.37.52-.7.79-1,.18,2.45.07,4.05,0,5.68-.01.41-.03.81-.04,1.21v.61c0,.19,0,.37,0,.56.02.47.09.96.25,1.51l-.17-.12c-.18.32,1.58.51-.57,4.07h-.08c.01.12.17.12-.04.37l.48-.62c.2.37.57.69.63,1.18-.09.1-.25.14-.37.15l.13,1.21-.51.37c.28.37,1.35.2.75,1.19.74-.37.45.49.82.37-.09.05-.23.16-.36.25.09.59.29,1.69.68,1.97,0,0,1.57-2.3,2.36-2.92-.2.83.09.22.34.06l-.19-.06c.18-.5.65-.5.78-.74-.04,0-.08,0-.13.01l.06.03c-.08.02-.14,0-.19-.02-.1,0-.18-.02-.15-.15l.05.03c-.07-.21,0-.56.04-.72h.39c-.75-.37,1.14-2.47,1.16-2.96.49-.5-.12-1.11.12-1.73.13-.99.57-.49.91-.99.25-.62-.46.13-.48-.12l.55-.74c.05.43.28.2.44.12.03-.32.23-.74.32-1.09.09-.19.07-.33-.32-.43.37-.43.69-.31.73-.47-.14,0-.27.1-.43.06.35-.08-.09-.11-.16-.06-.17-.2.19-.49.48-.62.29-.15.52-.19.09-.54l.16.11c-.64-.53-1.26-.85-1.61-1.37.1.02.19.04.29.06l-.28-.48c.21.01.38.25.46.32-.1-.22-.13-.4-.11-.54.33.03.81.2,1.13.25-.6-.58-1.27-1.16-2.01-1.74.95.4,2.27,1.22,2.01.66.21.2.41.39.6.59.69.56.72.44.73.22,0-.22-.09-.54.14-.37.21.21.4.43.57.64h-.37c.46.31.63.52.9.94v-.02s-.03-.06-.04-.1l.04-.02c0-.16.04-.29.11-.39.04-.05.08-.08.13-.1.06-.02.19-.03.29-.03.62.09,1.1-.38,2.09.29l.25-.65.74.39v.52c-.73-.03-2.09.17-3.02.19l-.02.24c.55,0,1.18-.23,1.55-.18.18.1.63.64.3,1l.34-.51c1.85-.06,1.86-.08,3.78.51l-.17-.26c.38-.15.76-.3.87.12,1.16.09,2.35.41,3.11,1.07l.16-.61c.24.03.61.96.73.1l.52-.27c.33.05.54-.3.92.05h0s0,0,0,0c.02.02.05.05.07.07,0-.02,0-.03,0-.05.76.27,0-.55.86-.2.28.44.31-.78.73-.64l.42.88c.76.5.89-.38,2-.38.53.31.79,1.06.44,1.73.48-.81.22-.53.86-.91.1.33.03.4-.11.7.57.39.35-.3.78-.28.12-.62.27-1.62.41-1.66l-.17-.19c.46-.33.95-.49,1.48-.18l-.02.31.56-.16.04.4.8-.12-.11-.11c.19-.05.81-.19,1.16.02v.22c.99.7,1.81-.22,2.98-.29l-.15.46c.4.45.11-.7.59-.47l.02.56c.42-.73.54.16.83.43l-.14-.73.54.15c.6.24.37.93.28,1.31l.41-.58.08.65c.3-.75.3.12.82-.28.04.24-.09.38.09.49l.86-.91-.52.4.06-.94c.54-.72.73.1,1.12-.16l-.27.28c.63-.23.66.17,1.02.38-.11-.18-.28-.44-.02-.56.19-.05.1.33.28.44.04-.63.49-.96.9-.67,0,.09-.01.18-.04.23.1-.1.16-.26.34-.11l-.11.7.35-.67c.23.19.57-.32.54.16l-.13.14,1.77.17.02.56c.18-.77.96.29.91-.67.33.52,1.31-.37,1.12.71,1.16.08,1.79-.96,3.2-.43.5.92,1.88.62,2.79.72,1.77-.38,2.92-.73,4.73-1.03,1.09,1.28,2.72-.44,3.89.28l.32-.51c.78.81,1.97-.18,3.06.61.27-.22.41-.29.47-.31-.05-.02-.12-.12-.15-.44.31.23.94-.06.9.59l-.08.07c-.05.65.95-.3,1.3.26l-.19-.69.59.12-.16.13c2.57-1.54,3.73.66,6.14-.74-.34.76.54-.4.38.43.07.52.09.46.2.24.1-.22.27-.61.4-.74.01-.04.03-.09.06-.15l.29.1c-.31.52-.17.31,0,.07.17-.24.36-.49.05-.05.21.35.47.38.89.35.05.39.2.87,0,1.4l.27-.12c-.03.12.04.24.06.37.01.06,0,.13-.02.19-.03.05-.09.09-.2.26-.43.51.68,1.11.73,1.3.46.56-.46,1.06-.41.82.13.59,1.08,1.15.67,1.98-.89.28.87,2.25-.13,2.27h.08c-.7,1.06.49,2.06-.14,3.2,0,0-.07-.02-.14-.06l3.03,2.31,3.33-.66,2.71-2-.59-5.43.53-2.17.26-1.08.13-.54c.02-.05.04-.27.07-.44l.07-.53-.2-11.18-9.26.16c-.54.25-1.05.5-1.52.75-.22-.08-.45-.15-.7-.21-.12-.03-.25-.06-.37-.08-.13-.03-.26-.05-.3-.07-.28-.09-.56-.14-.85-.17-.58-.06-1.17-.02-1.77.03-1.2.1-2.43.24-3.54-.23l-.05.65c-.63.04-.59-.36-.74-.48-5.86.14-11.89,1.01-17.16.19-.51-.43-2.05-.18-2.45-.63-1.71.79-3.53.78-5.24.7l.06-.07-.81.12c-.03-.05-.04-.13-.01-.18-.91.57-2.35,0-3.46-.23l.06-.07c-6.51-.12-12.54,1.09-19,.19-1.5-.53-3.12-.43-4.8-.31-.84.06-1.69.13-2.55.12-.43,0-.86-.02-1.29-.07-.22-.02-.43-.05-.65-.09-.41-.05-.83-.09-1.25-.14-.79-.41-6.82-.36-11.13-.2.1,2.7.23,4.88.34,5.38Z" fill="#9d4693"/>
        <path d="M194.79,307.83v-.03c-.28,0-.17.04,0,.03Z" fill="#1d1d1d"/>
        <polygon points="203.14 297.5 203.11 297.49 203.5 297.88 203.14 297.5" fill="#1d1d1d"/>
        <path d="M202.46,302.66c.09-.41.02-.43-.09-.37-.02.15,0,.28.09.37Z" fill="#1d1d1d"/>
        <path d="M195.3,311.21c-.02.22.14.13.32,0-.03-.22-.05-.38-.05-.38-.06.12-.21.24-.27.37Z" fill="#1d1d1d"/>
        <path d="M199.01,310.32l.22.07c-.05-.13-.13-.12-.22-.07Z" fill="#1d1d1d"/>
      </g>
    </g>
    <g>
      <path d="M162.49,176.83c-.05,0-.05.05,0,0h0Z" fill="#1d1d1d"/>
      <path d="M198.28,172.28s.02,0,.04,0c.07-.12.13-.21.18-.29l-.21.28Z" fill="#1d1d1d"/>
      <path d="M203.5,175.34s.01.03.02.05c.03-.07.07-.14-.02-.05Z" fill="#1d1d1d"/>
      <path d="M184.59,171.21c-.05,0-.08.02-.1.06.03-.03.06-.05.1-.06Z" fill="#1d1d1d"/>
      <path d="M154.41,183.9s0-.01.01-.03c-.03,0-.06,0-.1-.01l.09.04Z" fill="#eb671f"/>
      <path d="M154.33,183.66c.16-.02.1.16.08.21.23.03.34-.06.38-.22-.14-.14-.31.07-.46,0Z" fill="#eb671f"/>
      <path d="M144.68,200.28l-.06-.08s.03.06.06.08Z" fill="#1d1d1d"/>
      <path d="M184.95,181.08s-.05.03-.07.04c.04,0,.05-.01.07-.04Z" fill="#1d1d1d"/>
      <path d="M145.96,197.56l-.28-.16c.11.08.2.13.28.16Z" fill="#1d1d1d"/>
      <path d="M198.5,172l.08-.1s-.05.06-.08.1Z" fill="#1d1d1d"/>
      <path d="M208.13,178.24c-.05.08-.09.15-.11.22,0,0,.01.01.01.01l.1-.23Z" fill="#1d1d1d"/>
      <path d="M220.05,201.24s.07-.04.11-.05h-.25s.08.05.14.05Z" fill="#1d1d1d"/>
      <path d="M213.01,183.92s.07-.03.09-.06c-.01-.16-.23-.41-.54-.7l-.28.27.73.49Z" fill="#64ad2f"/>
      <path d="M210.77,195.19l.28-.96c1.51,1.39,1.26,2.63,2.68,3.77h-.19c-.02.15.37.05.68.35.29.3.62,1.01.15,2.68l-.07.03c.05.08.19.02.07.27l.27-.62c.28.18.72.26.92.6-.05.11-.19.19-.3.25l.47.81-.37.44c.37.16,1.32-.31.99.62.62-.51.54.23.87.02-.08.07-.18.19-.28.3.22.41.68,1.19,1.12,1.3,0,0,.25-.54.55-1.19.31-.65.69-1.42.99-1.8.02.74.14.15.34-.06h-.19c.04-.45.49-.61.54-.86-.04.01-.08.03-.12.06h.07c-.07.05-.13.06-.18.05-.09.04-.17.05-.19-.07h.05c-.13-.14-.18-.45-.2-.59l.37-.14c-.82,0,.26-2.46.06-2.89.24-.61-.56-.85-.59-1.46-.29-.86.3-.67.4-1.23-.04-.63-.35.32-.48.13.06-.29.11-.58.15-.86.25.32.34.02.44-.12-.25-.54-.14-1.74-.9-1.49-.11-.89.15-1.07,0-1.39-.06.18-.04.45-.17.54.12-.47-.15-.09-.15.07-.49-.24-.34-2.94-1.09-2.54l.13-.09c-.58.29-.97.81-1.46.74l.09-.36-.42-.11c.03-.31.23-.33.29-.38-.57-.26-.82-1.06-1.2-1.65-.28.56-.57,1.12-.87,1.67-.05-.67-.1-2-.59-1.71l.21-.65c0-1.59-.92-.23-.99-.79l.04-.86.4.42c-.18-.64-.2-.95-.25-1.58h-.02c0,.05,0,.09-.02.12l-.07-.05c-.27.18-.64.12-.91-.18-.39-.45-1.04-.38-1.31-1.5l-.59.35-.29-.75.32-.41c.51.47,1.64,1.16,2.34,1.73l.17-.16c-.41-.35-1.02-.57-1.26-.83-.06-.19-.06-.89.42-.95l-.58.17c-1.4-1.13-1.46-1.04-2.65-2.64l-.02.31c-.39-.09-.78-.18-.63-.59-.9-.7-1.75-1.56-2.07-2.53l-.44.45c-.19-.15-.06-1.16-.58-.45h-.59c-.28-.18-.61.04-.79-.44h0s0,0,0,0c0-.03-.02-.06-.03-.1l-.02.05c-.55-.58-.23.5-.85-.2-.06-.52-.6.57-.91.26l-.02-.98c-.51-.75-.98.01-1.98-.38-.37-.48-.36-1.28.21-1.78-.74.57-.39.41-1.13.54.02-.35.1-.39.34-.62-.41-.58-.44.17-.84.01-.32.55-.77,1.46-.91,1.45l.09.23c-.53.19-1.02.2-1.42-.25l.11-.3h-.57s.07-.4.07-.4l-.79-.1.08.13c-.19,0-.81.01-1.1-.27l.06-.21c-.81-.87-1.8-.2-2.92-.29l.22-.43c-.32-.5-.22.68-.64.39l.06-.56c-.51.67-.5-.22-.75-.53l.04.74-.51-.22c-.55-.31-.26-.96-.12-1.33l-.47.52v-.65c-.39.71-.3-.16-.86.18-.02-.25.12-.38-.05-.49l-.93.87.55-.38-.13.94c-.58.69-.71-.13-1.11.11l.28-.27c-.63.2-.64-.2-.99-.42.1.18.26.45,0,.56-.19.04-.09-.34-.26-.45-.06.63-.5.94-.9.63,0-.09.01-.18.04-.23-.1.1-.16.25-.33.11l.11-.7-.34.68c-.23-.18-.56.34-.53-.14l.13-.15-1.75-.1-.06-.56c-.13.78-.98-.25-.86.71-.38-.52-1.25.52-1.17-.59-1.18.08-1.65,1.14-3.11.86-.66-.8-1.98-.22-2.89-.13-.83.39-1.47.81-2.13,1.17-.65.38-1.32.71-2.09,1.2-1.47-.79-2.36,1.35-3.67,1.23l-.07.6c-1.05-.38-1.67.98-2.97.86-.12.33-.2.46-.25.51.05,0,.17.04.35.31-.38-.04-.77.52-1.07-.06l.03-.1c-.3-.57-.65.73-1.25.45l.53.48c-.19.07-.36.15-.55.23l.06-.2c-.62,1.37-1.44,1.74-2.28,2.12-.8.42-1.62.84-2.07,2.12-.26-.77-.1.59-.66,0-1.13-.35-.65.94-.8,1.47.03.03.06.07.08.13l-.68.52c-.38-1.09.18,1.03-.12.09-1.08.48-1.89,1.5-2.73,2.52-.79,1.07-1.51,2.23-2.41,3.17l.28.06c-.39.52-.55,1.38-1.18,1.56-.63.2,0,1.27-.05,1.44.15.7-.88.68-.73.5-.16.58.44,1.49-.29,1.99-.97-.16-.1,2.31-1.02,1.92l.07.04c-1.05.67-.33,1.97-1.24,2.79,0,0-.06-.04-.11-.1.72,1.04,1.45,2.02,2.2,2.95,1.13.12,2.25.26,3.37.42,1.04-.25,2.06-.46,3.07-.64.09-.69.32-1.34.49-2.01.18-.67.35-1.35.61-2l1.23-1.21c.42-.39.88-.74,1.31-1.1,1.3-2.26,2.87-4.41,4.73-6.29l-.1-.95c1.01-.08,1.69-.63,2.32-1.3.64-.66,1.36-1.27,2.3-1.38l-.33-.56c.37-.31.57.05.73.09.95-.56,1.82-1.29,2.81-1.81l1.45-.86c.5-.25,1.01-.48,1.51-.72,2.01-.95,4.16-1.46,6.19-1.45.45.35,1.57-.02,1.92.38.29-.24.6-.43.92-.58.32-.13.65-.21.99-.26.67-.11,1.34-.14,1.99-.1l-.05.07.62-.1c.03.05.03.13,0,.18.71-.52,1.8.02,2.6.38l-.06.06c1.21.19,2.41.24,3.58.46.59.1,1.19.13,1.77.26l1.74.38c.59.11,1.15.32,1.71.51.56.21,1.13.38,1.67.65,1.06.57,2.14,1.12,3.05,1.99.34.53.81.88,1.28,1.25.47.37,1,.69,1.55,1,.57.29,1.06.7,1.56,1.11.49.42.96.88,1.24,1.51-.03.2.2.55.56.97.18.21.41.43.63.67.22.25.45.51.69.76,1.01.98,1.95,2.03,2.22,2.13Z" fill="#64ad2f"/>
      <path d="M215.25,201.56v-.02c-.26.1-.16.09,0,.02Z" fill="#1d1d1d"/>
      <polygon points="215.14 187.31 215.16 187.35 215.35 186.97 215.14 187.31" fill="#64ad2f"/>
      <path d="M220.3,194.26c-.11-.39-.19-.36-.25-.26.06.13.14.23.25.26Z" fill="#64ad2f"/>
      <path d="M216.62,203.84c.03.17.17.06.31-.09-.08-.16-.13-.27-.13-.27-.03.11-.14.25-.17.36Z" fill="#1d1d1d"/>
      <path d="M219.92,201.99h.23c-.08-.1-.16-.07-.23,0Z" fill="#1d1d1d"/>
    </g>
    <g>
      <g>
        <path d="M123.92,79.68c-.04.07,0,.11,0,0h0Z" fill="#1d1d1d"/>
        <path d="M168.1,62.41s.03.02.05.03c.11-.08.21-.14.3-.19l-.34.15Z" fill="#eb671f"/>
        <path d="M173.66,69.71s0,.04,0,.07c.06-.05.13-.08,0-.07Z" fill="#1d1d1d"/>
        <path d="M148.1,57.68c-.08,0-.12.04-.14.08.04-.03.08-.06.14-.08Z" fill="#eb671f"/>
        <path d="M126.6,95.52s-.02-.02-.03-.03c-.01.04-.01.08-.03.12l.06-.09Z" fill="#1d1d1d"/>
        <path d="M126.32,95.46c0-.22.19-.03.25.04.07-.27,0-.46-.17-.63-.18.08.02.44-.08.59Z" fill="#1d1d1d"/>
        <path d="M149.67,110.39l-.09.08s.06-.05.09-.08Z" fill="#1d1d1d"/>
        <path d="M149.59,67.46s-.06.03-.08.05c.04,0,.07-.02.08-.05Z" fill="#1d1d1d"/>
        <path d="M145.24,109.66l-.12.3c.07-.12.1-.21.12-.3Z" fill="#1d1d1d"/>
        <path d="M168.45,62.26l.13-.06s-.08.03-.13.06Z" fill="#eb671f"/>
        <path d="M176.84,77.4c-.09.03-.16.07-.22.11,0,.01,0,.02,0,.02l.22-.13Z" fill="#1d1d1d"/>
        <path d="M157.01,105.63s.03.08.05.11l.06-.26c-.06.04-.1.1-.12.15Z" fill="#1d1d1d"/>
        <path d="M176.09,88.47s.06.05.1.05c.13-.17.25-.65.31-1.28l-.39-.08c.02.43-.02.87-.03,1.3Z" fill="#1d1d1d"/>
        <path d="M164.25,94.08c.38-.04.71-.12,1.07-.2-.22.6-.6,1.01-.89,1.42-.29.41-.65.69-.97.99-.62.62-1.27,1.11-1.9,2.05v-.2c-.19.02-.04.4-.38.84-.31.43-1.22.96-3.21.72l-.03-.07c-.1.06-.03.2-.33.11l.73.19c-.23.32-.36.8-.78,1.06-.13-.03-.22-.18-.28-.29l-1.06.51-.49-.36c-.25.37.18,1.34-.92,1.01.54.63-.38.55-.18.9-.07-.08-.21-.18-.33-.28-.57.19-1.67.54-1.92.97,0,0,.65.31,1.42.69.79.42,1.73.74,2.19,1.05-1,.04-.23.15.02.35l.02-.2c.62.03.75.49,1.09.54-.01-.04-.03-.08-.05-.12l-.02.07c-.05-.07-.05-.13-.03-.18-.04-.09-.03-.17.13-.2l-.02.06c.22-.15.65-.23.84-.26l.13.37c.08-.45.91-.36,1.77-.38.87,0,1.87.1,2.15-.08.8.09,1.2-.83,1.99-1.08,1.12-.67.86.08,1.6-.05.83-.31-.42-.26-.16-.48.38-.05.76-.11,1.12-.2-.41.43-.02.4.16.44.69-.54,2.28-.96,1.88-1.74,1.09-.62,1.33-.43,1.72-.8-.23.04-.56.21-.68.11.59-.13.09-.23-.1-.13.14-.37,1-.88,1.77-1.43.8-.53,1.42-1.14,1.1-1.44l.13.08c-.45-.49-1.12-.59-1.15-1.21l.42-.14.03-.57c.36-.18.42.04.49.08.11-.88.97-1.73,1.42-2.64-.65.12-1.34.2-2.01.25.74-.51,1.96-1.66,1.51-2l.73-.28c1.52-1.32-.16-1.26.33-1.81.28-.22.56-.45.81-.69-.04.28-.12.56-.2.83.55-.75.75-1.07,1.29-1.69,0,0,0,0-.02-.01-.03.04-.07.07-.11.07v-.12c-.3-.16-.43-.63-.33-1.23.13-.87-.24-1.54.43-2.92l-.67-.33.35-1.04.52-.03c0,.52.09,1.26.14,2.05,0,.79,0,1.62-.02,2.29l.23.05c.05-.81-.12-1.73-.04-2.25.14-.25.63-.92,1-.43l-.53-.5c-.08-1.35-.11-2.03-.17-2.73-.02-.35-.02-.7,0-1.16.02-.45.05-1,0-1.73l-.2.3c-.28-.52-.56-1.02-.19-1.29-.14-.86-.38-1.7-.47-2.53-.09-.84-.18-1.6-.14-2.27l-.66.03c-.12-.34.45-1.28-.39-1.05-.2-.2-.42-.37-.63-.56-.22-.46-.67-.54-.67-1.22h0s0,0,0,0c0-.04,0-.08,0-.13-.02.01-.03.02-.04.03-.38-1.12-.43.3-.89-.96.1-.59-.9.09-1.16-.49l.31-1.05c-.38-1.19-1.17-.79-2.31-1.97-.36-.76-.16-1.59.71-1.7-1.11.08-.61.15-1.6-.23.1-.35.22-.34.58-.41-.42-.9-.61-.13-1.12-.56-.54.37-1.32,1.03-1.51.94l.08.3c-.74-.13-1.36-.46-1.85-1.1l.2-.25-.78-.3.16-.37c-.36-.17-.71-.35-1.08-.5l.09.17c-.27-.08-1.15-.36-1.52-.77l.11-.19c-.51-.66-1.18-.86-1.9-.96-.72-.11-1.48-.15-2.33-.31l.34-.38c-.45-.59-.35.63-.96.23l.1-.55c-.78.56-.73-.38-1.12-.72l.05.75-.77-.29c-.84-.38-.4-1-.2-1.36l-.71.47-.03-.66c-.55.68-.44-.22-1.3.13-.05-.25.17-.37-.09-.5-.48.27-.94.55-1.39.83l.82-.36-.16.94c-.84.68-1.08-.19-1.67.09.13-.1.26-.2.4-.28-.94.24-.99-.15-1.54-.34.18.17.43.42.06.56-.28.06-.17-.33-.44-.42-.03.65-.67.96-1.29.76,0-.09,0-.18.04-.24-.14.12-.2.29-.49.18l.08-.72-.44.73c-.37-.14-.79.43-.82-.04l.17-.17c-.89.04-1.76.22-2.64.38l-.18-.53c-.06.79-1.52.1-1.15,1.01-.65-.33-1.74,1.01-1.85-.1-.87.24-1.38.82-1.97,1.28-.29.24-.6.46-.95.68-.35.23-.76.44-1.29.6-1.17-.43-2.78,1.09-3.91,1.92-.46.53-.86,1.02-1.23,1.49-.37.47-.67.96-.99,1.43-.66.92-1.19,1.93-1.89,3.11-.99.31-1.45,1.29-1.83,2.27-.3,1.04-.57,2.06-1.23,2.75l.3.64c-.57.4-.84,1.11-1,1.9-.16.79-.35,1.62-.91,2.35.15.45.19.67.19.76.04-.07.15-.16.47-.14-.3.42-.17,1.39-.8,1.24l-.05-.13c-.31-.08-.3.29-.28.73.05.45.12.96-.18,1.21l.71-.24-.17.88-.12-.24c.3.99.48,1.8.55,2.55.06.75,0,1.43.02,2.11,0,.68,0,1.37.14,2.08.18.71.5,1.45,1.05,2.21-.42-.12-.28.02-.14.23.17.2.34.46-.04.61-.67,1.2.76,1.54,1.31,2.08.04-.02.08-.03.16-.01l.45,1.19c-1.27-.23,1.17.45.07.21.38,1.68,1.45,3.35,2.72,4.89.66.75,1.38,1.48,2.08,2.2.76.66,1.44,1.41,2.17,2.05l.03-.31c.76.64,1.89,1.12,2.31,1.84.43.76,1.73.28,2,.35.92-.06,1.17,1.08.88.89.84.3,1.94-.31,2.88.47.02.24.24.39.55.47.31.07.73.07,1.12.07.78,0,1.49-.01,1.41.48l.03-.08c.67.47,1.43.47,2.19.46.76-.02,1.51-.15,2.31.22,0,0-.03.07-.09.14,1.15-.92,2.16-2.06,3.05-3.08-.38-1.1-.72-2.19-1.02-3.3-.77-.87-1.45-1.73-2.02-2.71-.86.09-1.7,0-2.58-.02-.85-.14-1.73-.21-2.57-.47-1.2-.78-2.21-1.81-3.13-2.79-1.34-.88-2.57-1.94-3.66-3.15-1.05-1.23-1.91-2.62-2.62-4.09l-.94-.41c.13-.58.1-1.11.05-1.66-.07-.54-.27-1.07-.36-1.63-.12-.56-.3-1.12-.27-1.69,0-.57.01-1.13.31-1.64l-.64-.07c0-.61.4-.54.52-.67.11-2.74.89-5.54,2.28-7.98,1.37-2.45,3.56-4.38,5.91-5.3.6.07,1.81-.72,2.31-.48,1.17-1.3,2.93-1.8,4.56-1.87l-.05.08c.25-.09.5-.14.76-.19.04.05.04.13.02.18.41-.28.99-.36,1.57-.22.58.16,1.17.34,1.67.55l-.07.06c2.96.46,5.84,1.32,8.32,3.03,2.51,1.62,4.47,4.18,5.27,7.14,0,.38.02.75.08,1.11.07.35.16.71.21,1.08.07.36.17.72.29,1.08.08.37.16.75.24,1.13l.13.58.06.59c.03.39.08.79.08,1.2-.08.79-.13,1.61-.53,2.34-.09.06-.18.21-.26.42-.07.22-.16.5-.28.81-.11.32-.21.68-.31,1.08-.15.38-.29.78-.41,1.18-.58,1.6-1.36,3.16-1.42,3.47Z" fill="#eb671f"/>
        <path d="M157.28,100.7h.02c-.1-.26-.1-.16-.02,0Z" fill="#1d1d1d"/>
        <polygon points="173.78 93.88 173.75 93.93 174.19 93.85 173.78 93.88" fill="#1d1d1d"/>
        <path d="M166.38,104.16c.51-.29.47-.38.35-.4-.16.13-.29.26-.35.4Z" fill="#1d1d1d"/>
        <path d="M154.24,102.15c-.21.03-.1.17.06.32.21-.08.36-.14.36-.14-.13-.03-.28-.14-.42-.18Z" fill="#1d1d1d"/>
        <path d="M156.01,105.52l-.03.23c.14-.09.11-.17.03-.23Z" fill="#1d1d1d"/>
      </g>
      <g>
        <path d="M190.29,79.68c-.04.07,0,.11,0,0h0Z" fill="#1d1d1d"/>
        <path d="M234.47,62.41s.03.02.05.03c.11-.08.21-.14.3-.19l-.34.15Z" fill="#eb671f"/>
        <path d="M240.04,69.71s0,.04,0,.07c.06-.05.13-.08,0-.07Z" fill="#1d1d1d"/>
        <path d="M214.47,57.68c-.08,0-.12.04-.14.08.04-.03.08-.06.14-.08Z" fill="#eb671f"/>
        <path d="M192.97,95.52s-.02-.02-.03-.03c-.01.04-.01.08-.03.12l.06-.09Z" fill="#1d1d1d"/>
        <path d="M192.69,95.46c0-.22.19-.03.25.04.07-.27,0-.46-.17-.63-.18.08.02.44-.08.59Z" fill="#1d1d1d"/>
        <path d="M216.05,110.39l-.09.08s.06-.05.09-.08Z" fill="#1d1d1d"/>
        <path d="M215.97,67.46s-.06.03-.08.05c.04,0,.07-.02.08-.05Z" fill="#1d1d1d"/>
        <path d="M211.61,109.66l-.11.3c.07-.12.1-.21.11-.3Z" fill="#1d1d1d"/>
        <path d="M234.82,62.26l.13-.06s-.08.03-.13.06Z" fill="#eb671f"/>
        <path d="M243.21,77.4c-.09.03-.16.07-.22.11,0,.01,0,.02,0,.02l.22-.13Z" fill="#1d1d1d"/>
        <path d="M223.38,105.63s.03.08.05.11l.06-.26c-.06.04-.1.1-.12.15Z" fill="#1d1d1d"/>
        <path d="M242.46,88.47s.06.05.1.05c.13-.17.25-.65.31-1.28l-.39-.08c.02.43-.02.87-.02,1.3Z" fill="#1d1d1d"/>
        <path d="M230.62,94.08c.38-.04.71-.12,1.07-.2-.22.6-.6,1.01-.89,1.42-.29.41-.65.69-.97.99-.62.62-1.27,1.11-1.9,2.05v-.2c-.19.02-.04.4-.38.84-.31.43-1.22.96-3.21.72l-.03-.07c-.1.06-.03.2-.33.11l.73.19c-.23.32-.36.8-.78,1.06-.13-.03-.22-.18-.28-.29l-1.06.51-.49-.36c-.25.37.18,1.34-.92,1.01.54.63-.38.55-.18.9-.07-.08-.21-.18-.33-.28-.57.19-1.67.54-1.92.97,0,0,.65.31,1.42.69.79.42,1.73.74,2.19,1.05-1,.04-.23.15.02.35l.02-.2c.62.03.75.49,1.09.54-.01-.04-.03-.08-.05-.12l-.02.07c-.05-.07-.05-.13-.03-.18-.04-.09-.03-.17.13-.2l-.02.06c.22-.15.65-.23.84-.26l.13.37c.08-.45.91-.36,1.77-.38.87,0,1.87.1,2.15-.08.8.09,1.2-.83,1.99-1.08,1.12-.67.86.08,1.6-.05.83-.31-.42-.26-.16-.48.38-.05.76-.11,1.12-.2-.41.43-.02.4.16.44.69-.54,2.28-.96,1.88-1.74,1.09-.62,1.33-.43,1.72-.8-.23.04-.56.21-.68.11.59-.13.09-.23-.1-.13.14-.37,1-.88,1.77-1.43.8-.53,1.42-1.14,1.1-1.44l.13.08c-.45-.49-1.12-.59-1.15-1.21l.42-.14.03-.57c.36-.18.42.04.49.08.11-.88.97-1.73,1.42-2.64-.65.12-1.34.2-2.01.25.74-.51,1.96-1.66,1.51-2l.73-.28c1.52-1.32-.16-1.26.33-1.81.28-.22.56-.45.81-.69-.04.28-.12.56-.2.83.55-.75.75-1.07,1.29-1.69,0,0,0,0-.02-.01-.03.04-.07.07-.11.07v-.12c-.3-.16-.43-.63-.33-1.23.13-.87-.24-1.54.43-2.92l-.67-.33.35-1.04.52-.03c0,.52.09,1.26.14,2.05,0,.79,0,1.62-.02,2.29l.23.05c.05-.81-.12-1.73-.04-2.25.14-.25.63-.92,1-.43l-.53-.5c-.08-1.35-.11-2.03-.17-2.73-.02-.35-.02-.7,0-1.16.02-.45.05-1,0-1.73l-.2.3c-.28-.52-.56-1.02-.19-1.29-.14-.86-.38-1.7-.47-2.53-.09-.84-.18-1.6-.14-2.27l-.66.03c-.12-.34.45-1.28-.39-1.05-.2-.2-.42-.37-.63-.56-.22-.46-.67-.54-.67-1.22h0s0,0,0,0c0-.04,0-.08,0-.13-.02.01-.03.02-.04.03-.38-1.12-.43.3-.89-.96.1-.59-.9.09-1.16-.49l.31-1.05c-.38-1.19-1.17-.79-2.31-1.97-.36-.76-.16-1.59.71-1.7-1.11.08-.61.15-1.6-.23.1-.35.22-.34.58-.41-.42-.9-.61-.13-1.12-.56-.54.37-1.32,1.03-1.51.94l.08.3c-.74-.13-1.36-.46-1.85-1.1l.2-.25-.78-.3.16-.37c-.36-.17-.71-.35-1.08-.5l.09.17c-.27-.08-1.15-.36-1.52-.77l.11-.19c-.51-.66-1.18-.86-1.9-.96-.72-.11-1.48-.15-2.33-.31l.34-.38c-.45-.59-.35.63-.96.23l.1-.55c-.78.56-.73-.38-1.12-.72l.05.75-.77-.29c-.84-.38-.4-1-.2-1.36l-.71.47-.03-.66c-.55.68-.44-.22-1.3.13-.05-.25.17-.37-.09-.5-.48.27-.94.55-1.39.83l.82-.36-.16.94c-.84.68-1.08-.19-1.67.09.13-.1.26-.2.4-.28-.94.24-.99-.15-1.54-.34.18.17.43.42.06.56-.28.06-.17-.33-.44-.42-.04.65-.67.96-1.29.76,0-.09,0-.18.04-.24-.14.12-.2.29-.49.18l.08-.72-.44.73c-.37-.14-.79.43-.82-.04l.17-.17c-.89.04-1.76.22-2.64.38l-.18-.53c-.06.79-1.52.1-1.15,1.01-.65-.33-1.74,1.01-1.85-.1-.87.24-1.38.82-1.97,1.28-.29.24-.6.46-.95.68-.35.23-.76.44-1.29.6-1.17-.43-2.78,1.09-3.91,1.92-.46.53-.86,1.02-1.23,1.49-.37.47-.67.96-.99,1.43-.66.92-1.19,1.93-1.89,3.11-.99.31-1.45,1.29-1.83,2.27-.3,1.04-.57,2.06-1.23,2.75l.3.64c-.57.4-.84,1.11-1,1.9-.16.79-.35,1.62-.91,2.35.15.45.19.67.19.76.04-.07.15-.16.47-.14-.3.42-.17,1.39-.8,1.24l-.05-.13c-.31-.08-.3.29-.28.73.05.45.12.96-.18,1.21l.71-.24-.17.88-.12-.24c.3.99.48,1.8.55,2.55.06.75,0,1.43.02,2.11,0,.68,0,1.37.14,2.08.18.71.5,1.45,1.05,2.21-.42-.12-.28.02-.14.23.17.2.34.46-.04.61-.67,1.2.76,1.54,1.31,2.08.04-.02.08-.03.16-.01l.45,1.19c-1.27-.23,1.17.45.07.21.38,1.68,1.45,3.35,2.72,4.89.66.75,1.38,1.48,2.08,2.2.76.66,1.44,1.41,2.17,2.05l.03-.31c.76.64,1.89,1.12,2.31,1.84.43.76,1.73.28,2,.35.92-.06,1.17,1.08.88.89.84.3,1.94-.31,2.88.47.02.24.24.39.55.47.31.07.73.07,1.12.07.78,0,1.49-.01,1.41.48l.03-.08c.67.47,1.43.47,2.19.46.76-.02,1.52-.15,2.31.22,0,0-.03.07-.09.14,1.15-.92,2.16-2.06,3.05-3.08-.38-1.1-.72-2.19-1.02-3.3-.77-.87-1.45-1.73-2.02-2.71-.86.09-1.71,0-2.58-.02-.85-.14-1.73-.21-2.57-.47-1.2-.78-2.21-1.81-3.13-2.79-1.34-.88-2.57-1.94-3.66-3.15-1.05-1.23-1.91-2.62-2.62-4.09l-.94-.41c.13-.58.1-1.11.05-1.66-.07-.54-.27-1.07-.36-1.63-.12-.56-.3-1.12-.27-1.69,0-.57.01-1.13.31-1.64l-.64-.07c0-.61.4-.54.52-.67.11-2.74.89-5.54,2.28-7.98,1.37-2.45,3.56-4.38,5.91-5.3.6.07,1.81-.72,2.31-.48,1.17-1.3,2.93-1.8,4.56-1.87l-.05.08c.25-.09.5-.14.76-.19.04.05.04.13.02.18.41-.28.99-.36,1.57-.22.58.16,1.17.34,1.67.55l-.07.06c2.96.46,5.84,1.32,8.32,3.03,2.51,1.62,4.47,4.18,5.27,7.14,0,.38.02.75.08,1.11.07.35.16.71.21,1.08.07.36.17.72.29,1.08.08.37.16.75.24,1.13l.13.58.06.59c.03.39.08.79.08,1.2-.08.79-.13,1.61-.53,2.34-.09.06-.18.21-.26.42-.07.22-.16.5-.28.81-.11.32-.21.68-.31,1.08-.15.38-.29.78-.41,1.18-.58,1.6-1.36,3.16-1.42,3.47Z" fill="#eb671f"/>
        <path d="M223.65,100.7h.02c-.1-.26-.1-.16-.02,0Z" fill="#1d1d1d"/>
        <polygon points="240.15 93.88 240.13 93.93 240.57 93.85 240.15 93.88" fill="#1d1d1d"/>
        <path d="M232.75,104.16c.51-.29.47-.38.35-.4-.16.13-.29.26-.35.4Z" fill="#1d1d1d"/>
        <path d="M220.62,102.15c-.21.03-.1.17.06.32.21-.08.36-.14.36-.14-.13-.03-.28-.14-.42-.18Z" fill="#1d1d1d"/>
        <path d="M222.38,105.52l-.03.23c.14-.09.11-.17.03-.23Z" fill="#1d1d1d"/>
      </g>
    </g>
  </g>
</svg>