<?xml version="1.0" encoding="UTF-8"?>
<svg id="uuid-14cdfe00-c09b-420d-ba4c-2391d5bfa982" data-name="Capa 1" xmlns="http://www.w3.org/2000/svg" xmlns:xlink="http://www.w3.org/1999/xlink" viewBox="0 0 369.41 369.41">
  <defs>
    <clipPath id="uuid-facc1863-f9f4-4553-a3f8-5e2a565a01d8">
      <rect x="-1200.5" y="611.22" width="423.13" height="376.13" fill="none"/>
    </clipPath>
  </defs>
  <g clip-path="url(#uuid-facc1863-f9f4-4553-a3f8-5e2a565a01d8)">
    <g id="uuid-f961444c-4623-42f3-9b75-1c963ecf819a" data-name="3Shu6D">
      <image id="uuid-e6f0e5ba-c63c-42cb-afed-08744524ac10" data-name="3Shu6D" width="1280" height="1600" transform="translate(-2540.2 -3940.58) scale(5.09)" xlink:href="psicologia-1.png"/>
    </g>
  </g>
  <g>
    <path d="M80.14,139.55s.03-.01,0,0h0Z" fill="#1d1d1d"/>
    <path d="M69.8,137.12s0,0-.01,0c-.05.12-.09.23-.12.3l.13-.3Z" fill="#1d1d1d"/>
    <path d="M68.44,135.81s0-.02,0-.04c-.02.07-.05.15,0,.04Z" fill="#1d1d1d"/>
    <path d="M73.9,137.2s.03-.01.05-.05c-.02.02-.03.04-.05.05Z" fill="#1d1d1d"/>
    <path d="M83.32,139.87s0,0-.01,0c0,.03,0,.05,0,.08l.02-.09Z" fill="#1d1d1d"/>
    <path d="M83.21,140.07c0-.1.07-.17.09-.19.02-.18-.02-.21-.08-.14-.06.19.02.19,0,.33Z" fill="#1d1d1d"/>
    <path d="M88.86,141.13l-.04.07s.03-.04.04-.07Z" fill="#1d1d1d"/>
    <path d="M76.85,127.8s.03-.02.04-.04c-.01,0-.02,0-.04.04Z" fill="#1d1d1d"/>
    <path d="M88.08,140.65l-.11.3c.05-.12.08-.22.11-.3Z" fill="#1d1d1d"/>
    <path d="M69.66,137.42l-.05.11s.03-.07.05-.11Z" fill="#1d1d1d"/>
    <path d="M67.01,135.12c.03-.09.05-.17.07-.23,0,0,0,0,0,0l-.06.24Z" fill="#eb671f"/>
    <path d="M61.09,127.81s-.02.08-.04.12l.1-.2s-.04.04-.07.09Z" fill="#eb671f"/>
    <path d="M65.4,133.13s-.03.06-.04.1c0,.11.09.17.21.19l.13-.37-.3.07Z" fill="#eb671f"/>
    <path d="M66.03,123.74l-.03.82c-.81.11-.89-.75-1.69-.34l.09-.15c-.03-.2-.64,1.46-.92-.91l.02-.07s-.09.15-.09-.07v.51c-.15.15-.35.48-.5.49,0-.09.04-.25.08-.37l-.37.02.06-.52c-.19.23-.48,1.26-.56.61-.13.74-.27.38-.36.75.02-.09.03-.23.04-.36-.19.03-.55.13-.74.47,0,0,.13,1.69.04,2.5-.16-.27-.09.07-.12.32l.07-.17c.08.22-.07.66-.05.81.01-.04.02-.08.04-.12l-.03.06c.02-.08.04-.13.06-.18.03-.1.06-.17.09-.13l-.02.04c.08-.05.15.06.18.1l-.12.37c.33-.68.31,1.3.43,1.37-.02.51.34-.02.43.27.23.21-.05.59-.02.95.09.29.11-.45.19-.45l.03.58c-.13,0-.14.25-.17.4.15.12.2.89.5.17.12.43.02.73.1.8.01-.15-.01-.29.04-.44-.02.36.07-.07.06-.15.25-.28.29,1.6.59.79l-.05.15c.23-.6.38-1.2.59-1.51l-.02.29.19-.23c0,.22-.09.37-.11.44.26-.23.37.18.54.33l.34-1.73c.04.44.08,1.31.29.79l-.08.59c-.02,1.17.39-.38.41-.02l-.03.66-.16-.07c.06.36.07.58.07,1.02,0,0,0,0,0-.02,0-.03,0-.06.01-.1h.03c.12-.3.28-.48.39-.42.14.14.42-.26.47.47l.27-.6.08.44-.16.49c-.19-.09-.62-.03-.88-.09l-.08.22c.15.05.39-.11.47-.03.02.11-.03.67-.23.97l.25-.45c.52.11.53.09.86.82l.04-.26c.15-.11.3-.22.2.19.29.19.51.6.5,1.3l.24-.57c.06.05-.14.97.17.16l.23-.21c.08.07.24-.24.23.13,0,0,0,0,0,0,0,0,0,0,0,0,0,.02,0,.05,0,.07,0-.02.01-.03.01-.05.12.32.17-.52.29-.11-.06.44.33-.71.4-.54l-.16.87c.05.55.36-.28.66-.18.05.34-.12,1.08-.43,1.68.38-.72.22-.48.52-.79-.08.32-.12.38-.25.65.03.42.19-.25.3-.2.23-.58.58-1.51.63-1.54l.02-.2c.23-.28.41-.38.46-.03l-.1.3.2-.1-.12.38.26-.05v-.11c.07-.03.28-.11.31.12l-.07.21c.05.75.56-.04.9,0l-.19.42c-.03.47.25-.65.31-.4l-.17.53c.34-.66.1.2.09.49l.19-.71.1.2c.09.28-.19.91-.34,1.27l.29-.51-.18.62c.32-.69.04.14.31-.19-.07.24-.15.36-.13.47l.52-.79-.27.34.31-.89c.37-.63.17.16.35-.05l-.16.24c.24-.16.12.22.16.45.03-.18.06-.44.17-.53.07-.03-.08.32-.06.44.21-.59.44-.87.45-.55-.03.08-.06.17-.08.22.06-.09.13-.24.13-.08l-.25.65.3-.6c0,.2.25-.25.1.2l-.08.12.43.32-.17.53c.29-.72.17.36.46-.55-.07.53.47-.23.08.78.29.18.79-.75,1-.12-.15.92.31.76.53.93.6-.21,1.02-.43,1.6-.55-.11,1.32.87-.18.96.62l.25-.46c-.05.84.59,0,.64.85.14-.19.2-.24.23-.25,0-.03,0-.13.1-.44.01.24.27.03.06.64l-.04.06c-.22.61.35-.2.27.36l.17-.67.12.16-.08.11c1.18-1.23.8.96,1.9-.16-.32.69.25-.33,0,.45-.16,1.04.38-.11.6-.33.01-.04.03-.08.06-.14l.2.17c-.47.95.44-.77.03.03.37.95,1.42.46,2.02,1.03l.05-.27c.16.11.49-.13.49.33,0,.45.51-.55.58-.57.3-.39.14.53.09.46.2-.07.65-.92.75-.46-.2.87.88-.62.57.33l.03-.08c.06.76.71-.28.82.42,0,0-.03.07-.06.13l1.58-2.67.87-3.22.31-2.75-1.65.07-.84-1.39-2.96-.61-.44.65c-.15-1.43-1.34-.24-1.65-1.33l-.22.61c-.18-.02-.04-.4-.05-.52-1.63-.39-3.53-.11-4.7-1.36,0-.45-.5-.35-.46-.82-.71.6-1.2.43-1.64.2l.04-.06-.26.05c0-.05.03-.13.05-.17-.43.46-.64-.2-.86-.53l.04-.06c-1.72-.7-3.73-.09-5.19-1.53-.48-1.27-1.88-.2-2.53-1.35.03-.67-2-.83-2.26-.6Z" fill="#eb671f"/>
    <path d="M62.99,123.64h0c.09-.26.04-.17,0,0Z" fill="#eb671f"/>
    <polygon points="64.53 132 64.52 131.99 64.44 132.37 64.53 132" fill="#eb671f"/>
    <path d="M61.97,131.39c.08.12.11.06.13-.05-.04-.03-.08-.02-.13.05Z" fill="#eb671f"/>
    <path d="M61.91,123.83c-.05-.04-.08.12-.1.31.07-.01.12-.01.12-.01-.01-.07,0-.22-.01-.29Z" fill="#eb671f"/>
    <path d="M60.99,127.42l-.09.2c.05-.04.08-.12.09-.2Z" fill="#eb671f"/>
  </g>
  <g>
    <g>
      <path d="M286.59,214.03c.11.26.21.36,0,0h0Z" fill="#1d1d1d"/>
      <path d="M146.83,106.97c-.07.03-.11.04-.18.07-.09.17-.18.32-.27.45l.45-.52Z" fill="#1d1d1d"/>
      <path d="M119.33,123.29c-.06.05-.1.08-.16.12.07.04.1.13.16-.12Z" fill="#1d1d1d"/>
      <path d="M221.9,106.43c.27.1.42.14.54.14-.16-.03-.32-.09-.54-.14Z" fill="#1d1d1d"/>
      <path d="M265.44,251.15s0-.09-.01-.15c-.03.12-.04.25-.08.37l.09-.22Z" fill="#1d1d1d"/>
      <path d="M265.22,250.46c.1-.77.18.21.21.55.18-.84.19-1.69.11-2.55-.2,0-.17,1.62-.32,2Z" fill="#1d1d1d"/>
      <path d="M221.12,330.08l-.08-.35c.02.14.05.25.08.35Z" fill="#1d1d1d"/>
      <path d="M221.85,96.06c.18.04.37.09.54.12-.27-.09-.43-.12-.54-.12Z" fill="#1d1d1d"/>
      <path d="M221.32,311.89l-.32-.2c.13.18.23.22.32.2Z" fill="#1d1d1d"/>
      <path d="M146.37,107.48l-.18.2c.06-.05.12-.12.18-.2Z" fill="#1d1d1d"/>
      <path d="M103.29,148.46c-.1-.02-.19.01-.28.07-.01.04-.03.06-.03.08l.32-.15Z" fill="#1d1d1d"/>
      <path d="M134.92,297.47s.08-.05.12-.1l-.29-.62c.05.34.11.57.17.72Z" fill="#1d1d1d"/>
      <path d="M96.46,189.62s.08.13.13.13c.02-.36-.03-1.01-.09-1.88-.04-.87-.1-1.95-.18-3.16l-.4-.13c.17,1.68.27,3.38.55,5.04Z" fill="#1d1d1d"/>
      <path d="M107.28,236.83l-1.94-4.47c4.25,6.32,7.36,10.95,10.31,15.36,2.9,4.33,5.52,8.27,8.42,13.46l-.45-.51c.28.82,1.05,1.21,2.2,3.81.28.65.67,1.41.97,2.38.28.98.59,2.12.93,3.48.2.66.25,1.43.37,2.23.1.8.21,1.66.32,2.59.15.91.09,1.94.13,3,0,1.07.03,2.2.02,3.4h-.08c.04.68.19.66.03,2.02.12-1.12.28-2.26.27-3.37.24.97.41,1.91.56,2.94.16,1.03.31,2.15.38,3.5-.03.29-.09.48-.15.61-.02.03-.03.06-.05.08v.02s-.02.17-.02.17c0,.05-.02.05-.02.07-.03.07-.06.11-.09.14.04.63.08.75.11,1.08l.1.87.2,1.74.41,3.48-.3,2.19c.48,2.11,1.45,1.03,1.42,6.79.53-2.22.72,2.79,1.03,2.05-.06.3-.14.96-.21,1.5.42,3.38,1.25,9.75,1.79,11.29,0,0,.26-13.42.7-17.07.27,4.8.21,1.25.37.28l-.22-.3c-.1-2.88.37-2.92.36-4.37-.04,0-.08.05-.12.1l.08.18c-.07.14-.13.07-.2-.08-.1.04-.19-.08-.24-.86l.06.14c-.19-1.19-.31-3.26-.37-4.16l.39-.06c-.44-1.02-.66-4.62-.31-8.3.07-.93.13-1.86.2-2.76.07-.9.02-1.77.03-2.57-.01-1.6-.04-2.93-.12-3.66,0-1.48-.39-3.09-.78-4.78-.17-.85-.48-1.69-.76-2.55-.27-.86-.53-1.74-.74-2.64-.17-.71-.4-1.26-.55-1.72-.16-.46-.27-.82-.35-1.11-.16-.58-.19-.86-.18-1.07.01-.41.21-.49-.21-1.93-1.43-3.42-.08.86-.77-.46-.5-1.39-.96-2.81-1.51-4.19,1.24,2.25.79.92.72.41-.44-.85-.95-1.82-1.46-2.83-.51-1.01-1.03-2.04-1.58-2.94-1.07-1.83-2.05-3.33-2.71-3.57-2.54-4.39-2.29-4.56-3.48-6.35.29.67,1,1.92.88,2.02-.86-1.84-.62-.74-.21-.02-1.02-1.16-2.98-4.63-4.77-7.79-1.74-3.19-3.34-6.08-3.85-6.13l.13-.08c-.9-.26-.85,1.03-2.24-.6l-.48-1.36-1.33-1.68c-.55-1.33-.03-.82.03-.85-.95-1.44-1.93-3.26-2.91-5.19-.97-1.93-1.8-4.02-2.7-5.91l.39,4.77c-.6-1.69-1.42-4.06-2.19-6.05-.7-2.02-1.33-3.68-1.73-3.89l-.31-2.18c-.22-.87-.43-1.58-.62-2.18-.16-.58-.27-1.03-.4-1.41-.26-.73-.48-1.15-.66-1.45-.38-.59-.75-.66-.93-2.03-.01-1.19-.1-2.34-.05-3.52.16,1.14.45,2.24.66,3.36-.2-1.71-.33-2.89-.33-4.02-.04-1.12-.04-2.15.04-3.53,0,0-.01-.03-.02-.03,0,.19-.02.31-.06.34l-.07-.47c-.18-.19-.37-.72-.55-1.52-.14-.8-.25-1.86-.32-3.07,0-3.45-.59-6.22.52-11.72-.19-.48-.38-.96-.53-1.44.29-1.38.56-2.75.87-4.11l.51.07c-.28,2.02-.58,4.93-.7,8.01-.08,1.53-.05,3.11-.08,4.62.04,1.51.09,2.96.13,4.26l.24.08c-.06-1.54-.13-3.18-.19-4.69,0-1.52-.04-2.91.05-3.93.17-1,.89-3.48,1.11-1.62l-.38-1.93c.28-2.55.45-4.48.74-6.07.25-1.6.46-2.89.78-4.17.31-1.28.57-2.59,1.1-4.18.25-.8.53-1.67.84-2.67.34-.99.77-2.07,1.23-3.32l-.53.8c.44-2.08,1.08-4.09,1.68-4.49.29-.74.58-1.49.89-2.22.34-.72.69-1.44,1.03-2.15.35-.71.68-1.41,1.04-2.09.39-.66.77-1.31,1.14-1.95.38-.63.75-1.24,1.11-1.84.38-.58.79-1.11,1.17-1.63.78-1.02,1.46-1.98,2.17-2.72v-1.07c.81-1.07,2.64-2.16,2.37-3.17l1.57-2.37c1.14-1.41,1.69-2.41,3.35-3.68h0s0,0,0,0c.1-.08.21-.16.32-.23-.01-.01-.03-.02-.05-.02,1.48-1.41,1.44-1.43,1.38-1.59-.04-.13-.02-.31,1.84-1.77.7-.35.88-.77,1.11-1.3.24-.52.57-1.09,1.52-1.75l2.35-.73c.87-.56,1.61-.94,2.21-1.37.61-.42,1.13-.84,1.69-1.3,1.08-.98,2.48-1.94,5.12-3.42,1.32-.61,2.46-.73,3.01-.67.56.08.59.46-.13,1.15,2.02-1.81.85-.96,3.86-2.76.64.13.29.29-.28.9,3-.78,1.66-.95,3.85-1.75.42-.82.85-2.03,1.56-2.34l-.93.13c1.11-.64,2.38-1.05,3.69-1.48,1.32-.4,2.7-.8,4.18-.99l-.04.33,3.04-.79.27.35c1.46-.32,2.89-.76,4.38-.95l-.63-.02c1.04-.19,4.47-.8,6.46-.87l-.05.23c2.83.1,5.37-.1,8.03-.45,2.68-.18,5.49-.47,8.8-.51-.29.13-.58.29-.87.45,2.23.5.63-.69,3.31-.35l.11.57c2.39-.62,3.04.3,4.63.65l-.71-.77c1.02.09,2.03.19,3.04.38,3.31.61,1.95,1.14,1.43,1.47l2.32-.33.36.69c1.74-.55,1.64.23,4.53.35.19.28-.54.29.4.57l4.86-.08-2.91-.1.52-.87c3.13-.23,3.97.93,6.12,1.17l-1.5-.08c1.72.31,2.61.57,3.29.84.68.28,1.18.51,2.07.94-.53-.36-1.34-.9.03-.58,1,.27.44.49,1.34.89.39-.51,2.92-.12,4.95.95-.06.07-.13.14-.29.13.57.12.9.09,1.78.61l-.8.43,2.03.11c1.12.66,3.07.9,2.7,1.3-.23-.07-.47-.13-.72-.17,2.88,1.46,5.78,2.89,8.46,4.67l-.18.55c.3-.04.73.12,1.19.37.47.24.98.59,1.42.96.91.71,1.7,1.3,1.85.81,1.25,1.36,5.85,4.12,4.34,4.26.58.52,1.19.94,1.7,1.43.52.48,1.03.92,1.53,1.35,1,.86,2.01,1.62,2.91,2.55.92.91,1.92,1.82,2.88,2.97.92,1.18,1.98,2.46,2.97,4.11.38,1.41,1.75,3.54,3.08,6.02.73,1.2,1.4,2.52,2.05,3.8.32.64.67,1.25.95,1.87.27.62.54,1.22.78,1.79,2.15,4.31,3.66,8.03,4.93,11.87,1.27,3.84,2.36,7.8,3.25,12.75-.14,2.21.1,4.74.36,7.4.12,1.33.27,2.68.37,4.04.06.68.09,1.35.13,2.02l.02.49v.89c0,.63-.02,1.26-.03,1.88.47.86.94,1.71,1.4,2.55.26.48.51.96.76,1.43.48.93.91,1.85,1.27,2.74l1.33,1.4c1.42,4.37,5.55,9.99,7.85,15.96.93,1.27,1.38,1.95,1.56,2.26-.11-.27-.24-.7-.02-.97.65,1.7,2.64,4.8,1.94,4.88l-.28-.37c-.35.04.37,1.21,1.23,2.64.43.71.9,1.49,1.28,2.21.09.17.18.34.26.5.01.03.02.07.02.1,0,.07-.02.13-.07.19.2-.11.39-.26.55-.44.11.29.22.56.18.85-.05-.08-.12-.16-.18-.22.32.41.31,1,.06,1.42-.25.43-.74.66-1.21.65h-.35c-.33,0-.67,0-.99,0-.71-.01-1.4-.02-2.09-.03-1.37-.04-2.7-.08-4.03-.12-1.32-.04-2.64-.08-3.98-.13-.67-.01-1.35-.03-2.03-.04-.34,0-.69,0-1.04,0h-.83c-.3,0-.61.02-.91.04-2.41.18-4.82,1.33-6.5,3.31-.84.99-1.5,2.18-1.86,3.49-.18.66-.31,1.34-.33,2.05-.02.35-.02.71,0,1.06l.03.54.02.27.02.17c-.02-.06-.05-.11-.07-.16-.02-.08-.04-.14-.05-.2-.03-.11-.06-.19-.08-.24-.04-.09-.06-.04-.07.11,0,.07,0,.17,0,.29,0,.07.01.16.02.26.02.18.04.4.06.64.09.94.17,2.14-.24,2.24-1.04,3.53.22,6.54.5,9.44.04,0,.09.03.15.2l-.1,5.06c-1.05-3.02.87,3.64-.02.87-.39,6.6-.39,14.2-.33,22.07.02,1.97.03,3.95.05,5.94v.96c.01.16,0,.32-.04.48-.07.31-.24.61-.48.83-.23.23-.53.38-.85.44-.38.05-.36.02-1.63.02-1.96-.03-3.9-.06-5.81-.09l.67.27c-3.87-.05-8.69.27-11.63-.15-1.47-.21-3.08-.04-4.46.19-.69.11-1.33.24-1.86.35-.65.13-1.19.24-1.54.27-1.96.41-3.79.78-4.96,1.09-1.18.26-1.7.35-.9-.03-1.98.93-3.61,2.35-5.09,4.07-1.46,1.73-2.82,3.74-4.06,6.39-.19.19-.41.58-.63,1.12-.17.55-.41,1.24-.52,2.04-.05.4-.1.82-.16,1.26-.04.44-.03.89-.03,1.35,0,.23,0,.45,0,.68l.04.58.08,1.16c.2,3.07.39,5.96-.11,6.03l.08.05c-.7,6.12.49,11.9-.14,18.49,0,0-.07-.13-.14-.35l3.03,13.42,3.33-3.82,2.71-11.63-.29-15.76-.15-7.88c-.01-.38,0-.54,0-.76.01-.21,0-.43.02-.64.07-.42.08-.85.2-1.26.16-.84.5-1.64.89-2.41,1.53-2.3,4.03-3.88,6.63-4.14.33,0,.64-.09.98-.06h.49s.26,0,.26,0l.39.02,3.15.13,6.29.26,7.65-.04,3.83-.02h1.91s1.07-.02,1.07-.02c.62,0,1.25,0,1.86-.08,2.45-.24,4.75-1.34,6.51-2.99,1.76-1.66,2.96-3.89,3.37-6.3.09-.6.15-1.22.16-1.83v-1.42s-.01-1.91-.01-1.91l-.02-3.83-.18-30.62-.75-4.37c.16-1.5.28-3.06.37-4.66.02-.4.04-.8.06-1.21v-.3s.02-.04.02-.06l.02-.08c.03-.11.07-.21.13-.29.12-.17.3-.3.51-.34-.47-.02,2.14-.03,3.7-.06,3.49-.05,7.01-.11,10.47-.1h.98c.4,0,.8,0,1.19-.02.8-.01,1.55-.16,2.3-.32,1.49-.36,2.85-1.07,4.03-1.98,2.36-1.84,3.87-4.61,4.19-7.52-.21-.19-.41-.37-.62-.55.03-.39-.01-.76-.03-1.1-.01-.34-.05-.66-.12-.95-.05-.29-.1-.57-.15-.82-.07-.25-.14-.48-.2-.69-.1-.43-.24-.78-.36-1.08-.11-.3-.2-.55-.27-.77-.32-.84-.43-1.32-.55-1.66-3.03-5.56-6.07-11.15-9.12-16.74-2.84-5.18-5.69-10.35-8.52-15.5l-.06-2.91c-.05-1.41-.14-2.8-.24-4.19-.24-2.77-.52-5.53-.96-8.25-.83-5.44-2.02-10.78-3.6-15.95-1.57-5.17-3.51-10.17-5.78-14.95-2.27-4.78-4.99-9.25-7.89-13.47-.82-1.36-2.66-3.97-4.78-6.27-.51-.59-1.02-1.17-1.51-1.73-.5-.55-1.01-1.04-1.46-1.52-.91-.94-1.63-1.73-2.01-2.25-8.4-6.7-18.19-12.37-28.01-16.17l.39.08-1.16-.44-1.18-.36-2.37-.7c-.18-.11-.18-.2-.02-.19-.69-.15-1.41-.33-2.17-.53-.76-.21-1.55-.44-2.39-.61-1.66-.39-3.42-.85-5.22-1.34-.9-.27-1.81-.46-2.73-.65-.92-.2-1.83-.4-2.74-.59-1.81-.38-3.59-.84-5.26-1.03l.4-.03c-2.45-.27-4.88-.54-7.31-.8-2.43-.11-4.84-.22-7.25-.33l-1.8-.08-1.8.02c-1.2.02-2.4.04-3.6.06-1.2.02-2.39.04-3.59.07l-3.58.28c-9.53.7-19.01,2.42-28.1,5.57-9.09,3.13-17.76,7.74-25.44,13.82-1.98,1.44-3.72,3.18-5.56,4.81-.47.4-.9.84-1.32,1.29l-1.28,1.34c-.83.91-1.74,1.75-2.52,2.71-1.56,1.91-3.22,3.77-4.62,5.83-.71,1.02-1.49,2-2.16,3.05-.67,1.05-1.33,2.11-2,3.17-.68.95-1.23,1.99-1.83,3.01-.57,1.04-1.2,2.07-1.72,3.15-1.03,2.18-2.11,4.39-2.94,6.73-.94,2.3-1.64,4.72-2.39,7.14-.63,2.46-1.31,4.93-1.76,7.47-1.01,5.06-1.66,10.25-1.94,15.51-.3,5.26-.29,10.57.08,15.94-.02.5,0,1.61.23,3.2.18,1.58.53,3.64,1.11,6.05.54,2.35,1.67,5.43,2.72,7.69.54,1.24,1.09,2.51,1.65,3.79.28.64.57,1.29.86,1.94l.95,1.91c1.29,2.55,2.49,5.13,3.86,7.46,1.32,2.36,2.56,4.59,3.78,6.48,2.34,3.85,4.26,6.51,4.81,7.25Z" fill="#9d4693"/>
      <path d="M129.4,287.74l-.02-.41s-.06,0-.08.01h-.03s-.01.02-.01.02v.08c-.02.15-.02.14-.03.17,0,.02,0,.05,0,.07.02.09.09.15.17.07Z" fill="#1d1d1d"/>
      <path d="M102.64,211.69c.04.08.07.16.11.24l-.08-1.04-.03.81Z" fill="#1d1d1d"/>
      <path d="M130.53,257.2c-1.04-2.28-1.15-2.36-1.09-1.99.39.82.76,1.52,1.09,1.99Z" fill="#1d1d1d"/>
      <path d="M131.84,307.43c.1,1.26.22.76.33,0-.15-1.28-.26-2.17-.26-2.17,0,.71-.07,1.43-.06,2.16Z" fill="#1d1d1d"/>
      <path d="M135.02,301.94l.26.37c-.13-.73-.2-.7-.26-.37Z" fill="#1d1d1d"/>
    </g>
    <g>
      <path d="M130.45,209.19s-.06-.02,0,0h0Z" fill="#f9b515"/>
      <path d="M160.21,233.48s.01.02.02.04c.13-.03.24-.05.33-.06l-.35.03Z" fill="#1d1d1d"/>
      <path d="M161.9,239.92s-.01.03-.02.05c.07-.03.15-.04.02-.05Z" fill="#1d1d1d"/>
      <path d="M150.07,221.61s-.08-.04-.13-.03c.04,0,.09,0,.13.03Z" fill="#f9b515"/>
      <path d="M124.82,202.58s.01,0,.02.01c.02-.02.03-.05.05-.07l-.07.06Z" fill="#1d1d1d"/>
      <path d="M125.06,202.59c-.05.13-.18.04-.22,0-.12.17-.09.28.03.36.19-.08.07-.27.19-.37Z" fill="#1d1d1d"/>
      <path d="M125.77,186.43l.05.08s-.03-.06-.05-.08Z" fill="#1d1d1d"/>
      <path d="M143.79,229.21s-.05-.02-.08-.02c.02.03.05.03.08.02Z" fill="#1d1d1d"/>
      <path d="M124.5,188.89l.29.14c-.12-.07-.21-.11-.29-.14Z" fill="#1d1d1d"/>
      <path d="M160.56,233.45h.13s-.08,0-.13,0Z" fill="#1d1d1d"/>
      <path d="M163.3,245.72c-.09.02-.17.05-.23.08,0,0,0,.02,0,.02l.23-.1Z" fill="#1d1d1d"/>
      <path d="M159.65,274.26s.08,0,.13,0l-.21-.13c.01.06.04.1.09.13Z" fill="#1d1d1d"/>
      <path d="M163.27,253.8s.07.02.11.01c.09-.15.07-.5.01-.95l-.39.02.27.92Z" fill="#1d1d1d"/>
      <path d="M154.72,262.52l.76-.77c.42,2.44-.38,3.57.19,5.68l-.17-.12c-.2.28,1.6.58-.78,3.8h-.08c0,.11.16.12-.06.34l.52-.54c.17.36.53.7.54,1.16-.1.09-.26.11-.39.11l.03,1.15-.54.29c.24.37,1.33.34.62,1.19.78-.26.39.51.78.44-.1.04-.24.13-.38.19.02.55.08,1.62.42,1.87,0,.09,1.86-1.88,2.71-2.41-.3.78.07.22.33.09l-.18-.07c.24-.46.7-.41.86-.65-.04,0-.08,0-.13,0l.06.04c-.08.01-.14,0-.18-.04-.1,0-.18-.04-.14-.17l.05.03c-.05-.21.06-.55.11-.71l.39.03c-.7-.42,1.34-2.35,1.4-2.86.52-.47-.06-1.12.22-1.73.17-.99.59-.47.95-.96.27-.62-.46.11-.48-.14l.57-.73c.03.44.28.21.43.13.09-.65.82-1.68.04-1.89.39-.88.69-.88.73-1.27-.14.13-.27.38-.43.38.34-.35-.09-.17-.16-.02-.33-.53,1.4-2.83.53-2.93h.16c-.64-.11-1.26.11-1.62-.26l.28-.26-.29-.37c.2-.26.37-.14.45-.15-.32-.6-.02-1.47.03-2.23l-1.7.89c.38-.64,1.11-1.82.54-1.9l.55-.42c1.01-1.36-.56-.83-.26-1.36l.56-.7.06.63c.25-.66.43-.94.79-1.49h-.02s-.05.06-.09.07l-.03-.09c-.32-.04-.58-.34-.61-.79,0-.65-.54-1.07-.01-2.18l-.68-.15c.09-.27.18-.54.26-.82l.51-.09c.1.75.49,2.13.66,3.09h.24c-.07-.59-.4-1.21-.41-1.59.08-.2.54-.76.94-.46l-.55-.28c-.39-1.91-.39-1.91-.24-4.03l-.22.23c-.24-.37-.47-.73-.08-.93-.16-1.22-.21-2.54.22-3.51h-.64c-.03-.27.75-.91-.12-.79l-.43-.46c-.07-.36-.47-.46-.26-.96h0s0,0,0,0c.01-.03.03-.06.04-.1l-.05.02c0-.87-.52.18-.47-.82.3-.43-.85-.05-.88-.52l.66-.74c.16-.96-.67-.79-1.16-1.89.05-.65.62-1.22,1.39-1.13-.96-.18-.58-.02-1.23-.51.26-.24.35-.2.69-.18.09-.75-.43-.24-.61-.69-.62.14-1.59.43-1.69.31l-.09.25c-.53-.3-.91-.7-.9-1.35l.29-.13-.42-.47.33-.23c-.17-.24-.35-.48-.54-.71l-.03.16c-.15-.15-.62-.66-.65-1.11l.2-.1c.03-1.33-1.27-1.6-2.08-2.6l.47-.13c.11-.63-.64.31-.76-.25l.43-.36c-.85.06-.23-.58-.23-1.01l-.48.57-.27-.57c-.24-.67.45-.91.81-1.07h-.74s.44-.48.44-.48c-.79.22-.13-.35-.82-.55.15-.2.35-.18.3-.4-.44-.06-.91-.08-1.36-.11l.72.16-.75.59c-.95.05-.5-.66-1-.8l.41.02c-.67-.35-.41-.66-.55-1.1-.03.22-.08.54-.37.42-.19-.11.15-.32.08-.54-.47.41-1.05.31-1.21-.21.06-.06.13-.12.19-.14-.16,0-.31.08-.37-.17l.56-.44-.74.24c-.08-.32-.7-.18-.37-.52h.21c-.48-.49-.94-.99-1.47-1.42l.31-.46c-.62.5-.74-.89-1.25-.07-.01-.66-1.43-.57-.65-1.34-1.12-.79-2.26-.26-3.42-1.51-.1-1.07-1.7-1.5-2.61-2.03-1.58-.3-2.69-.38-4.23-.89-.06-.4-.24-.64-.47-.79-.22-.17-.51-.26-.81-.34-.59-.16-1.29-.24-1.48-.85l-.51.26c-.04-.53-.41-.73-.81-.95-.39-.23-.78-.51-.88-1.1-.32.03-.45,0-.51,0,.02.04,0,.16-.19.42-.07-.33-.63-.49-.16-.94h.09c.47-.45-.76-.32-.57-.91l-.38.6-.27-.42h.19c-1.25-.24-1.68-.94-1.94-1.64-.32-.69-.48-1.35-1.57-1.84.78-.13-.52-.15.2-.55.36-.44.21-.6-.08-.69-.27-.1-.7-.13-.91-.26-.04.02-.08.03-.15.03-.05-.23-.12-.45-.17-.68,1.11.04-.97-.19-.01-.12.1-.98-.2-1.93-.38-2.99-.22-1.04-.38-2.18-.14-3.24l-.27.08c.06-.54-.19-1.26.29-1.63.46-.35-.53-1.01-.55-1.2-.38-.56.63-.81.54-.62-.03-.51-.84-1.22-.25-1.83.46,0,.4-.53.34-1.04-.04-.51-.07-1,.4-.84l-.08-.04c.98-.61.22-1.9,1.24-2.54,0,0,.06.05.1.11-.61-1.05-1.17-2.15-1.65-3.3-1.05-.42-2.13-.78-3.22-1.11-1.16.21-2.31.48-3.47.81-.73,2.02-1.28,4.06-1.64,6.16-.78,1.54-1.46,3.18-1.98,4.93-.31,4.34.35,9,2.29,13.1.35.2.7.39,1.07.56,0,.71.16,1.43.49,2.08.33.64.75,1.28,1.22,1.86.49.57.97,1.15,1.43,1.71.47.55.88,1.14,1.17,1.81l.5-.41c.56.49.24.74.3.95,2.58,2.43,5.57,4.18,8.44,5.64.72.35,1.44.7,2.15,1.05.71.33,1.41.65,2.1.97.34.17.68.33,1.02.5l.76.44c.49.3.98.6,1.42.93.15.59,1.37,1.02,1.41,1.56.8.03,1.48.33,2.14.67.66.34,1.16.89,1.68,1.37l-.09.02c.19.12.4.22.59.35-.02.06-.07.12-.12.14.46.06.81.42,1.09.85.14.22.27.45.39.68.1.25.2.49.31.71h-.09c1.69,2.08,3.36,4.16,4.71,6.55,1.34,2.38,2.38,5.03,2.69,7.96-.07.72,0,1.42.12,2.14.14.71.36,1.42.54,2.17.41,1.47.79,3.04.53,4.67-.28.32-.13,2.05.06,3.8.19,1.74.42,3.5.58,3.78Z" fill="#f9b515"/>
      <path d="M155.26,272.17v-.03c-.27-.02-.17.02,0,.03Z" fill="#1d1d1d"/>
      <polygon points="162.87 258.13 162.86 258.18 163.24 257.98 162.87 258.13" fill="#1d1d1d"/>
      <path d="M163.23,267.55c.1-.42.04-.44-.08-.39-.02.15,0,.29.08.39Z" fill="#1d1d1d"/>
      <path d="M155.45,275.39c-.05.2.12.14.32.05,0-.21,0-.36,0-.36-.08.11-.23.2-.31.31Z" fill="#1d1d1d"/>
      <path d="M159.22,274.98l.21.09c-.04-.13-.12-.14-.21-.09Z" fill="#1d1d1d"/>
    </g>
    <g>
      <path d="M180.63,201.88s-.03.02,0,0h0Z" fill="#f9b515"/>
      <path d="M191.5,199.07h0c-.05-.13-.1-.23-.14-.31l.13.31Z" fill="#f9b515"/>
      <path d="M193.41,198.87s.02.01.03.02c-.04-.06-.09-.13-.03-.02Z" fill="#f9b515"/>
      <path d="M188.12,201.64s-.02.03-.02.07c0-.03,0-.06.02-.07Z" fill="#f9b515"/>
      <path d="M176.85,202.03s0,0,.01,0c0-.03,0-.05,0-.08v.09Z" fill="#f9b515"/>
      <path d="M176.93,201.82c.03.1-.05.18-.07.2.01.18.06.21.13.14.04-.2-.06-.19-.05-.34Z" fill="#f9b515"/>
      <path d="M170.06,200.51l.05-.07s-.03.04-.05.07Z" fill="#f9b515"/>
      <path d="M190.78,211.13s-.02.03-.03.06c.02,0,.03-.02.03-.06Z" fill="#f9b515"/>
      <path d="M170.99,201.1l.13-.29c-.06.12-.1.21-.13.29Z" fill="#f9b515"/>
      <path d="M191.38,198.76l-.05-.11s.03.07.05.11Z" fill="#f9b515"/>
      <path d="M194.85,198.02c.07.07.12.13.16.18h0s-.17-.18-.17-.18Z" fill="#f9b515"/>
      <path d="M204.7,193.29s-.07-.03-.11-.05l.18.14s-.03-.06-.07-.09Z" fill="#f9b515"/>
      <path d="M197.55,197.35s-.05-.05-.08-.08c-.11-.04-.2.02-.3.13l.28.28.09-.33Z" fill="#f9b515"/>
      <path d="M206.72,200.46l-.85-.15c.37-1.18,1.39-1.19,1.34-2.39l.12.14c.24-.05-1.26-.97,1.43-1.31l.07.04c.02-.06-.12-.13.11-.13h-.56c-.08-.22-.35-.53-.31-.75.1,0,.25.06.36.12l.12-.54.53.08c-.17-.27-1.17-.68-.44-.81-.74-.18-.31-.39-.67-.5.09.02.24.04.37.06.04-.27.06-.78-.24-1.04,0,0-.47.06-1.03.09-.56.04-1.23.04-1.64-.02.33-.21-.04-.12-.3-.17l.16.1c-.25.1-.67-.11-.83-.09.03.02.08.03.12.05l-.05-.04c.08.03.13.06.16.09.09.04.16.09.11.12l-.04-.03c.02.1-.1.2-.16.24l-.35-.18c.6.48-1.43.32-1.55.45-.52-.08-.1.42-.44.49-.29.25-.58-.14-.97-.16-.32.06.41.2.39.29l-.6-.05c.04-.16-.21-.21-.35-.27-.17.17-.96.07-.35.55-.49.04-.75-.14-.85-.05.14.05.3.05.43.14-.35-.09.04.09.13.1.17.35-1.7-.05-1.02.48l-.13-.09c.49.41,1.03.72,1.24,1.04l-.28-.1.14.27c-.22-.05-.33-.19-.39-.24.11.35-.37.36-.59.5l1.54.87c-.47-.07-1.35-.28-.95.11l-.53-.27c-1.13-.39.17.55-.19.47l-.62-.26c.05-.05.1-.1.15-.16-.37-.04-.6-.13-1.02-.3h.01s.05.04.08.06v.03c.21.23.29.46.17.55-.21.09,0,.54-.7.3l.4.53-.45-.1-.36-.38c.19-.15.36-.62.56-.85l-.17-.17c-.12.13-.1.44-.22.49-.12-.03-.6-.31-.77-.63l.28.44c-.36.47-.39.46-1.21.42l.21.16c.01.19.02.39-.28.09-.32.18-.82.14-1.39-.27l.33.52c-.08.02-.71-.67-.24.05l.03.31c-.11.02.04.35-.25.12h0s0,0,0,0c-.02-.01-.04-.03-.06-.05l.03.04c-.34-.09.31.46-.1.31-.31-.32.35.7.16.65l-.58-.67c-.46-.31-.03.46-.32.64-.3-.18-.72-.8-.97-1.43.28.77.21.5.23.92-.18-.28-.2-.35-.31-.63-.33-.27.06.31-.06.34.26.57.69,1.46.66,1.52l.14.15c.03.36-.05.57-.34.37l-.13-.28-.09.22-.18-.36-.17.23.08.08c-.03.08-.15.28-.34.13l-.09-.21c-.56-.52-.44.41-.76.62l-.12-.44c-.27-.38.21.67,0,.51l-.2-.52c.13.73-.21-.1-.39-.33l.28.68-.21-.09c-.26-.17-.4-.84-.5-1.21l.07.58-.22-.61c.15.74-.12-.09-.14.34-.08-.23-.09-.38-.17-.46l.02.95.03-.44.26.91c.04.74-.24-.02-.29.26v-.29c-.12.27-.24-.12-.4-.29.08.16.2.4.15.54-.04.06-.12-.31-.2-.4.15.61.09.97-.11.71-.02-.09-.04-.17-.04-.23,0,.11.01.27-.08.14l-.13-.69.05.67c-.11-.17-.1.35-.2-.11v-.15c-.18,0-.37-.02-.56-.05l-.12-.55c.09.76-.34-.24-.15.7-.19-.5-.34.44-.46-.64-.35-.01-.41,1.04-.92.56-.26-.9-.63-.54-.93-.63-.52.41-.86.8-1.45,1.08-.35-1.28-.89.45-1.26-.3l-.13.5c-.22-.82-.67.16-.97-.67-.11.21-.16.28-.18.3.01.03.03.12.01.45-.08-.24-.32.03-.25-.61l.03-.06c.08-.64-.34.27-.4-.29v.69s-.2-.14-.2-.14l.07-.13c-1.06,1.41-1.14-.81-2.17.43.24-.73-.23.36-.09-.45-.01-1.06-.42.14-.65.38,0,.04-.02.09-.04.15l-.28-.16c.39-.99-.39.8-.05-.03-.6-.92-1.78-.4-2.57-1.01l-.04.27c-.21-.12-.58.11-.62-.35-.04-.46-.57.53-.66.55-.33.38-.21-.55-.15-.48-.24.06-.74.89-.88.41.21-.86-1.05.54-.71-.4l-.03.08c-.09-.79-.86.19-.98-.55,0,0,.04-.06.07-.12-.64.83-1.29,1.64-1.98,2.43-.42,1.03-.8,2.08-1.17,3.13-.1.94-.19,1.89-.25,2.84.84.14,1.65.25,2.47.32.48.55.97,1.08,1.48,1.6,1.53.34,3.07.62,4.63.8l.47-.67c.67,1.47,2.08.15,2.95,1.2l.09-.64c.28,0,.22.39.28.51,2.68.13,5.34-.73,7.84-.22.29.4.98.06,1.23.47.68-.92,1.5-1.05,2.31-1.19v.08s.33-.21.33-.21c.03.05.05.12.05.17.27-.64,1.07-.3,1.66-.25v.08c.76-.2,1.47-.53,2.15-.91.69-.35,1.32-.81,1.95-1.23,1.27-.86,2.46-1.72,3.98-2.31.92,0,1.44-.65,1.98-1.27.54-.63.97-1.34,1.88-1.64.73.23,2.49-2.72,2.34-3.14Z" fill="#f9b515"/>
      <path d="M208.43,196.02h0c.24.14.16.07,0,0Z" fill="#f9b515"/>
      <polygon points="199.07 196.79 199.08 196.78 198.74 196.59 199.07 196.79" fill="#f9b515"/>
      <path d="M200.73,194.03c-.15.08-.09.12,0,.16.04-.04.05-.09,0-.16Z" fill="#f9b515"/>
      <path d="M208.63,194.45c.06-.08-.1-.11-.29-.14-.02.1-.03.17-.03.17.08-.02.23,0,.32-.03Z" fill="#f9b515"/>
      <path d="M205.14,193.17l-.19-.12c.03.07.1.1.19.12Z" fill="#f9b515"/>
    </g>
    <g>
      <path d="M221.13,192.57s-.07.01,0,0h0Z" fill="#f9b515"/>
      <path d="M244.81,174.96s0-.02,0-.03c-.12-.06-.21-.12-.29-.16l.28.19Z" fill="#1d1d1d"/>
      <path d="M246.64,170.14s.02-.02.04-.03c-.08,0-.16-.02-.04.03Z" fill="#1d1d1d"/>
      <path d="M239.42,185.95s-.04.07-.02.11c0-.04,0-.08.02-.11Z" fill="#f9b515"/>
      <path d="M211.27,190.12s.02,0,.03,0c0-.03-.02-.06-.02-.1v.1Z" fill="#f9b515"/>
      <path d="M211.47,189.97c.07.14-.11.15-.17.15.05.22.17.29.34.28.09-.18-.17-.27-.16-.43Z" fill="#f9b515"/>
      <path d="M195,179.02l.1-.02s-.07,0-.1.02Z" fill="#f9b515"/>
      <path d="M247.07,192.21s-.03.07-.04.11c.04-.04.05-.07.04-.11Z" fill="#1d1d1d"/>
      <path d="M197.17,181.32l.24-.21c-.11.08-.18.15-.24.21Z" fill="#f9b515"/>
      <path d="M244.53,174.77l-.11-.07s.06.04.11.07Z" fill="#1d1d1d"/>
      <path d="M246.76,165.34c.1-.01.17-.03.24-.06,0,0,0-.01,0-.01l-.24.07Z" fill="#1d1d1d"/>
      <path d="M234.47,142.34s-.01.08-.02.12l.18-.19c-.07,0-.12.03-.16.07Z" fill="#f9b515"/>
      <path d="M246.28,158.36s-.07,0-.11.02c-.05.15.04.46.2.83l.37-.12-.47-.73Z" fill="#1d1d1d"/>
      <path d="M249.13,145.87l.04,1.29c-.57-.57-1.04-1.09-1.48-1.57-.42-.48-.79-.94-1.18-1.35-.76-.85-1.58-1.61-2.9-2.21l.23-.04c-.11-.2-.48.02-1.12-.25-.31-.14-.71-.39-1.21-.86-.49-.49-1.13-1.16-1.99-2.2l.03-.07c-.17-.06-.23.09-.46-.24.2.26.4.52.57.79-.53-.06-1.1.14-1.72-.07-.1-.13-.08-.3-.05-.43-.52-.18-1.09-.28-1.63-.41l-.36-.64c-.61.15-.6,1.24-1.83.37.19.42,0,.49-.21.52-.22.04-.48.03-.42.23-.06-.1-.19-.25-.31-.39-.82-.06-2.42.19-2.76.58,0,0,.83.38,1.64.87.81.57,1.58,1.24,1.84,1.73-.89-.4-.25.04-.13.32l.1-.17c.51.3.4.75.62.93,0-.04.01-.08.02-.13l-.05.05c0-.09.02-.14.06-.18.02-.1.06-.17.2-.11l-.04.04c.23,0,.59.19.74.27l-.12.37c.3-.31.86.18,1.31.8.47.58.8,1.35,1.02,1.46.2.63,1.01.46,1.41.99.73.67.07.75.26,1.31.33.54.18-.44.38-.32.09.29.17.56.24.87-.35-.23-.32.1-.36.27.43.45.66,1.57,1.31,1.14.33.84.11,1.04.32,1.32.03-.19-.05-.43.06-.55-.01.46.17.05.13-.1.31.04.48.79.67,1.41.17.63.31,1.2.69.96l-.12.1c.57-.31.94-.85,1.44-.79l-.07.36.43.13c-.02.32-.23.33-.29.37.59.3.78,1.17,1.06,1.82.36-.52.71-1.05,1.06-1.59.01.77-.11,2.11.42,1.95l-.33.61c-.41,1.58.84.52.75,1.12l-.32.82-.24-.54c-.04.68-.12.98-.32,1.56h.02s.03-.07.07-.09l.04.07c.32-.06.63.14.77.54.15.57.74.87.38,1.97l.7.03c-.04.26-.13.53-.19.79l-.5.13c-.06-.34-.24-.79-.45-1.26-.2-.47-.42-.96-.61-1.35l-.23.07c.2.47.6.94.65,1.28-.05.19-.43.74-.86.57l.58.14c.5,1.59.54,1.63.26,3.41l.23-.19c.22.31.38.64-.02.78.07,1.03-.25,2.12-.88,2.75l.61.14c-.04.22-.98.5-.12.63l.26.46c-.05.29.28.49-.11.79h0s0,0,0,0c-.02.02-.05.04-.08.06.02,0,.03,0,.05,0-.34.63.55.05.12.77-.46.18.76.37.55.73l-.93.23c-.63.56.28.84.01,1.8-.42.39-1.19.39-1.77-.07.68.6.47.31.69.95-.35-.02-.39-.09-.64-.29-.53.34.19.36.05.7.56.29,1.46.73,1.46.87l.23-.08c.17.5.2,1.01-.3,1.34l-.28-.13-.06.54-.38-.13-.17.72.14-.05c0,.18-.14.76-.48.95l-.19-.11c-.52.25-.65.63-.72,1.09-.1.45-.13.97-.38,1.45l-.31-.36c-.57.07.54.46.12.72l-.48-.29c.42.73-.42.33-.79.38l.68.31-.42.32c-.52.31-.95-.27-1.21-.55l.25.64-.56-.33c.44.66-.23.15-.21.76-.22-.12-.25-.3-.44-.24l.21,1.17v-.62s.69.64.69.64c.23.84-.52.46-.54.91l-.06-.37c-.2.6-.52.38-.89.47.2.05.51.11.43.36-.08.16-.31-.15-.5-.11.44.45.39.98-.09,1.05-.06-.07-.12-.13-.14-.19,0,.14.09.29-.14.31l-.43-.56.25.7c-.28.02-.15.61-.46.25v-.19c-.41.37-.87.65-1.3.96l-.39-.41c.39.68-.82.33-.17,1.04-.54-.19-.68,1.02-1.2.05-.85.47-.69,1.75-2.03,1.86-.41-.29-.82-.24-1.21-.07-.41.12-.81.35-1.16.45-.56.51-1.08.79-1.6,1.16-.51.39-1.09.61-1.8.94-.55-.5-1.09-.39-1.64-.13-.54.28-1.15.5-1.65.16l-.27.52c-.33-.38-.75-.37-1.22-.35-.46,0-.97.07-1.4-.42-.26.19-.39.24-.45.25.04.03.09.14.07.46-.25-.27-.85-.07-.7-.7l.08-.06c.07-.32-.14-.27-.41-.22-.26.03-.58.06-.67-.25l.03.72-.5-.23.17-.1c-1.31.53-2.13.06-2.88-.33-.75-.48-1.46-.87-2.78-.7.57-.58-.57.19-.28-.58-.12-1.16-1.06-.22-1.63-.18-.02.04-.04.08-.1.12l-.72-.45c.92-.72-.94.51-.12-.08-1.6-1.68-4.49-2.47-6.44-4.28l-.06.28c-.52-.41-1.37-.65-1.53-1.29-.15-.64-1.29-.13-1.48-.21-.73.03-.56-1.02-.4-.83-.54-.28-1.59.12-1.97-.74.35-.85-2.3-.83-1.66-1.6l-.06.06c-.32-1.23-1.87-1.04-2.25-2.3,0,0,.07-.04.14-.06-1.26.18-2.53.33-3.81.43-.67.91-1.31,1.86-1.94,2.8-.13,1.17-.23,2.34-.31,3.52,1.62,1.3,3.28,2.51,4.97,3.67,1.03,1.3,2.1,2.6,3.24,3.86,3.33,2.29,6.89,4.33,10.72,5.98.38-.1.74-.19,1.12-.31.86,1.08,2.2,1.59,3.6,1.96.69.21,1.43.34,2.12.56.69.23,1.36.48,1.99.85l.2-.62c.76.13.63.51.79.66,3.58.65,7.45.58,11.11-.14,3.67-.7,7.07-2.05,10.15-3.42.38,0,1.02-.24,1.54-.59.55-.33,1.08-.65,1.42-.61.69-.94,1.37-1.81,2.14-2.6.78-.76,1.54-1.51,2.29-2.24v.11s.58-.79.58-.79c.07,0,.13.05.14.11.19-.58.63-1.12,1.17-1.63.53-.51,1.21-.95,1.69-1.45v.11c2.45-3.14,4.12-6.78,5.21-10.53,1.09-3.77,1.66-7.65,1.94-11.74.5-1.93.08-4.02-.46-6.08-.61-2.06-1.4-4.07-1.85-6.25.13-.49-.82-2.76-2.19-4.77-.66-1.02-1.45-1.96-2.07-2.69-.66-.7-1.18-1.19-1.36-1.29Z" fill="#f9b515"/>
      <path d="M237.89,138.66h.04c.1-.24,0-.17-.04,0Z" fill="#f9b515"/>
      <polygon points="245.16 154.5 245.14 154.46 244.9 154.8 245.16 154.5" fill="#1d1d1d"/>
      <path d="M239.18,148.14c.26.29.3.27.33.14-.1-.11-.21-.16-.33-.14Z" fill="#f9b515"/>
      <path d="M233.18,138c-.31-.06-.21.12-.05.32.32,0,.53.01.53.01-.16-.08-.31-.25-.49-.33Z" fill="#f9b515"/>
      <path d="M233.72,141.83l-.11.2c.15-.02.16-.1.11-.2Z" fill="#f9b515"/>
    </g>
    <g>
      <path d="M224.42,143.37s.03.04,0,0h0Z" fill="#f9b515"/>
      <path d="M212.02,131.19s-.01,0-.02,0c-.05.12-.09.23-.12.31l.14-.3Z" fill="#1d1d1d"/>
      <path d="M208.98,129.73s-.01-.02-.02-.04c0,.08-.02.15.02.04Z" fill="#1d1d1d"/>
      <path d="M219.18,133.13s.05,0,.08-.02c-.03.01-.06.03-.08.02Z" fill="#f9b515"/>
      <path d="M225.65,149.8s0,0-.01-.02c-.03.01-.04.03-.08.04l.09-.02Z" fill="#f9b515"/>
      <path d="M225.43,149.73c.09-.08.18.02.21.06.18-.09.19-.18.11-.27-.2,0-.17.17-.32.21Z" fill="#f9b515"/>
      <path d="M225.05,162.17l-.07-.05s.04.04.07.05Z" fill="#f9b515"/>
      <path d="M224.4,124.78s.06,0,.09,0c-.03-.03-.06-.02-.09,0Z" fill="#1d1d1d"/>
      <path d="M225.58,160.27l-.31-.07c.13.04.23.06.31.07Z" fill="#f9b515"/>
      <path d="M211.88,131.49l-.05.11s.03-.07.05-.11Z" fill="#1d1d1d"/>
      <path d="M205.87,129.3c0-.1,0-.18-.01-.24h0s.02.24.02.24Z" fill="#1d1d1d"/>
      <path d="M188.14,128.6l.08.1-.06-.23s-.03.08-.02.13Z" fill="#1d1d1d"/>
      <path d="M201.36,128.11s0,.07,0,.11c.09.1.29.09.55.05l-.02-.39-.53.23Z" fill="#1d1d1d"/>
      <path d="M194.09,120.23l.8.6c-1.79.82-2.92.4-4.32,1.59l.03-.2c-.15-.04-.1.37-.42.67-.33.32-.99.41-2.79.16l-.04-.07c-.09.06-.01.2-.29.11l.68.19c-.18.32-.23.77-.56,1-.12-.04-.22-.16-.29-.27-.27.18-.54.42-.8.64l-.54-.26c-.12.41.6,1.22-.43,1.18.69.43-.08.59.23.85-.09-.05-.25-.09-.39-.14-.36.4-.97,1.19-.88,1.62,0,0,.65-.04,1.37,0,.72.03,1.49.17,1.91.4-.61.15-.07.16.16.3l-.07-.17c.39-.04.65.35.86.37-.02-.03-.05-.07-.08-.1l.02.06c-.06-.06-.08-.11-.09-.16-.06-.08-.09-.16,0-.18v.05c.09-.13.34-.2.44-.23l.21.33c-.1-.4.41-.36.97-.21.55.14,1.12.38,1.27.32.48.29.59-.39,1.05-.33.62-.12.51.41.91.6.44.08-.24-.4-.11-.48l.62.33c-.23.14,0,.31.09.43.39-.07,1.2.43,1.06-.35.61.19.7.49.92.46-.11-.11-.29-.19-.34-.34.3.26.07-.11-.03-.16.21-.46,1.97.95,1.8.09l.04.15c-.08-.64-.35-1.21-.22-1.61l.22.24.16-.33c.2.16.16.35.18.42.3-.38.89-.12,1.35-.12l-.82-1.62c.48.32,1.31.99,1.29.43l.33.53c.93.99.46-.55.82-.26l.47.59-.38.03c.42.28.6.46.94.84v-.02s-.04-.05-.05-.09l.05-.02c0-.32.18-.56.45-.57.38.03.65-.43,1.29.21l.11-.66.47.36.02.52c-.44,0-1.25.21-1.8.31v.24c.34-.05.7-.28.92-.25.12.1.41.62.24.98l.17-.52c1.08-.11,1.1-.17,2.21.46l-.09-.26c.22-.15.45-.29.5.13.33.05.67.15.97.34.29.21.55.48.73.83l.14-.6c.14.05.25.99.4.14l.32-.24c.18.06.34-.27.51.09h0s0,0,0,0c0,.02.02.05.03.08,0-.02,0-.03,0-.05.38.34.07-.55.5-.11.09.46.29-.74.51-.56l.09.91c.33.57.56-.28,1.19-.18.22.38.18,1.15-.15,1.75.43-.72.23-.48.66-.76-.03.34-.08.39-.23.66.19.46.25-.24.47-.16.22-.59.56-1.52.65-1.54l-.04-.21c.34-.25.67-.33.87.05l-.1.3c.12-.02.24-.05.36-.06l-.1.39.46.04-.02-.12c.12-.01.49-.02.61.25l-.08.21c.26.86,1.05.11,1.66.37l-.27.38c0,.51.35-.61.49-.28l-.23.51c.52-.56.2.27.21.59l.26-.69.2.27c.18.36-.25.91-.47,1.23l.46-.42-.27.59c.5-.59.08.17.52-.06-.1.22-.23.31-.2.45l.83-.54-.43.2.5-.8c.61-.45.28.31.59.19l-.27.16c.41,0,.21.34.25.62.05-.18.11-.45.3-.48.11.01-.14.31-.11.44.36-.51.77-.65.79-.29-.05.07-.11.14-.15.18.11-.05.23-.17.22,0l-.45.54.55-.44c-.02.22.39-.09.1.28l-.13.07.49.61-.37.42c.57-.51.08.5.73-.21-.27.47.69.15-.17.83.23.43,1.26-.04,1.2.83-.61.69-.06,1.04.07,1.46.37.26.67.51.99.76.29.27.59.56.9.95-.51.5-.3.78,0,1.08.27.3.62.61.36,1.01l.54.04c-.7.62.44,1.04-.24,1.82.25.11.33.18.35.21.02-.03.11-.09.42-.16-.19.22.15.53-.49.61l-.07-.03c-.64.07.37.49-.15.77l.67-.21-.07.36-.14-.07c1.72,1.33-.41,2.22,1.05,3.58-.76-.16.41.27-.42.32-1.02.4.25.67.53.98.04,0,.09,0,.15.02l-.09.54c-1.05-.32.87.38-.02.09-.78,1.38-.05,3.23-.55,4.85l.27-.05c-.08.41.19.96-.27,1.23-.45.27.61.76.63.89.42.4-.53.61-.46.47.08.38.98.86.51,1.32-.9.05.65,1.54-.34,1.4l.08.02c-.8.54.27,1.36-.49,1.95,0,0-.07-.03-.13-.06.9.66,1.79,1.34,2.67,2.05,1.11.12,2.23.2,3.35.28.98-.28,1.96-.57,2.94-.88.05-1.32.05-2.62.03-3.91.48-.97.96-1.95,1.4-2.95.12-2.52.11-5.07-.05-7.64l-.76-.53c1.28-1.57-.37-3.43.34-5.19l-.65.05c-.1-.46.3-.49.39-.62-.39-2.19-1.14-4.4-2.03-6.53-.89-2.15-1.92-4.22-2.93-6.33.12-.63-.98-1.55-.88-2.12-.81-.34-1.54-.74-2.17-1.23-.34-.22-.66-.46-.97-.71l-.46-.38-.42-.31.08-.03-.61-.25c0-.06.05-.12.09-.15-.94.1-1.56-1.05-2.26-1.66l.08-.04c-2.3-1.28-4.75-2.01-7.16-2.44l-1.79-.36c-.6-.08-1.2-.18-1.79-.29-1.19-.26-2.38-.42-3.6-.77-1.12-.63-2.39-.51-3.67-.41-1.28.21-2.58.35-3.94.11-.27-.28-1.75-.2-3.18.19-1.43.32-2.81.92-3,1.12Z" fill="#f9b515"/>
      <path d="M186.89,124.01h.02c-.13-.25-.11-.14-.02,0Z" fill="#1d1d1d"/>
      <polygon points="198.74 127.7 198.71 127.7 198.88 128.06 198.74 127.7" fill="#1d1d1d"/>
      <path d="M193.4,129.42c.26-.02.24-.08.17-.17-.09.02-.15.07-.17.17Z" fill="#1d1d1d"/>
      <path d="M184.76,126.02c-.17.11,0,.19.19.26.14-.15.23-.25.23-.25-.12.02-.29-.03-.42,0Z" fill="#1d1d1d"/>
      <path d="M187.51,128.6l.09.21c.04-.09,0-.16-.09-.21Z" fill="#1d1d1d"/>
    </g>
    <g>
      <path d="M177.25,128.03s.03,0,0,0h0Z" fill="#1d1d1d"/>
      <path d="M163.88,130.51s0,.01,0,.01c.09.1.16.18.21.25l-.21-.26Z" fill="#1d1d1d"/>
      <path d="M161.87,131.74s-.02,0-.04,0c.07.04.13.08.04,0Z" fill="#1d1d1d"/>
      <path d="M167.83,126.96s.03-.03.03-.07c0,.03-.01.06-.03.07Z" fill="#1d1d1d"/>
      <path d="M181.22,130.59s0,0-.02,0c-.01.02-.02.04-.04.07l.06-.07Z" fill="#1d1d1d"/>
      <path d="M181.01,130.69c.04-.11.15-.1.19-.1.09-.17.06-.23-.04-.23-.15.13-.05.21-.15.33Z" fill="#1d1d1d"/>
      <path d="M186.1,139.07h-.09s.05,0,.09,0Z" fill="#f9b515"/>
      <path d="M164.8,117.57s.04-.04.05-.06c-.03,0-.05.03-.05.06Z" fill="#1d1d1d"/>
      <path d="M185.81,137.49l-.31.09c.13-.03.23-.06.31-.09Z" fill="#f9b515"/>
      <path d="M164.09,130.77l.08.1s-.05-.06-.08-.1Z" fill="#1d1d1d"/>
      <path d="M160.65,133.72c-.09-.04-.17-.06-.23-.08h0s.23.08.23.08Z" fill="#f9b515"/>
      <path d="M154.45,147.76s.08-.02.12-.02l-.23-.04s.06.05.11.06Z" fill="#f9b515"/>
      <path d="M158.32,136.78s.07.03.11.03c.12-.04.18-.2.21-.42l-.38-.1.06.48Z" fill="#f9b515"/>
      <path d="M148.73,140.6l.82-.49c.28,1.7-.51,2.48.16,3.9l-.17-.07c-.16.24,1.56.22-.42,2.66h-.08c.02.09.18.07-.02.25l.44-.44c.22.22.61.39.69.7-.08.07-.24.11-.36.13l.22.76-.48.3c.31.21,1.35-.05.85.66.7-.34.49.25.85.11-.09.04-.21.14-.33.21.14.37.47,1.02.9,1.2-.03-.11,1.28-1.76,2.03-2.21-.13.51.11.11.34-.01h-.19c.14-.32.61-.38.72-.54-.04,0-.08.02-.13.02h.06c-.08.03-.14.03-.19.02-.1.02-.18.01-.16-.07h.05c-.08-.1-.03-.32-.01-.41l.39-.05c-.77-.14.99-1.52,1-1.78.47-.31-.17-.61.07-.97.1-.55.56-.3.89-.58.24-.34-.46.08-.49-.05l.53-.42c.05.23.29.1.44.05.05-.35.77-.89,0-.99.37-.46.69-.45.73-.65-.14.06-.28.19-.44.19.35-.18-.08-.09-.16-.01-.34-.31,1.47-1.39.62-1.48h.16c-.64-.09-1.26-.02-1.6-.24l.29-.11-.26-.22c.22-.12.38-.04.46-.03-.26-.34.12-.77.25-1.14l-1.78.24c.42-.31,1.33-.8.77-.94l.61-.12c1.2-.48-.41-.53-.03-.74l.68-.21-.07.32c.37-.26.6-.35,1.05-.52h-.02s-.06.01-.1,0v-.05c-.31-.1-.49-.3-.42-.52.16-.28-.26-.65.53-.96l-.6-.29.47-.26.5.15c-.12.34-.12,1.03-.18,1.5l.23.06c.06-.26-.11-.62,0-.78.12-.06.7-.13,1,.11l-.45-.29c.17-.86.18-.89,1.01-1.51l-.27-.02c-.08-.21-.15-.43.26-.32.26-.46.81-.77,1.51-.75l-.51-.34c.08-.07.97.25.24-.21l-.13-.32c.11-.09-.15-.35.23-.31h0s0,0,0,0c.02,0,.05,0,.08.01l-.04-.03c.4-.1-.46-.29.03-.39.42.15-.57-.54-.36-.61l.81.37c.58.07-.08-.49.2-.85.37.03,1,.49,1.41,1.01-.48-.65-.34-.4-.46-.83.27.2.3.27.48.51.41.13-.13-.29-.02-.39-.41-.47-1.07-1.22-1.06-1.29l-.18-.09c-.11-.38-.03-.63.34-.55l.2.24.07-.27.27.3c.06-.1.11-.21.17-.31l-.1-.06c.03-.08.16-.34.41-.26l.12.18c.7.33.48-.58.89-.9l.17.43c.36.32-.3-.64-.02-.54l.27.49c-.19-.74.28.04.49.24l-.37-.64.27.05c.33.12.52.78.65,1.14l-.1-.59.29.58c-.2-.74.15.07.17-.39.11.22.11.37.21.44,0-.32-.01-.63,0-.96l-.05.44-.31-.89c-.03-.75.33,0,.4-.31l-.02.3c.18-.3.32.07.52.22-.09-.15-.24-.38-.18-.53.06-.08.14.3.24.38-.17-.61-.06-.98.2-.74.02.09.04.17.04.23.02-.11,0-.27.12-.14l.13.69-.02-.68c.15.16.17-.37.27.09l-.02.15c.26,0,.51-.02.79,0l.11.55c-.06-.77.46.22.28-.72.23.49.53-.47.59.62.48.04.67-1.03,1.31-.54.23.93.77.59,1.1.73.69-.34,1.18-.63,1.95-.76.06.68.32.62.63.53.29-.08.65-.23.73.18l.3-.42c-.05.87.81.15.81,1.07.2-.15.28-.18.31-.19,0-.03.02-.13.17-.41,0,.25.37.15.01.69l-.06.04c-.36.54.47-.05.28.49l.32-.62.14.23-.13.08c.86-.31,1.12.07,1.28.47.19.39.3.79,1.19.68-.65.42.44-.12-.16.46-.59.9.5.21.87.22.03-.03.07-.05.13-.09l.18.38c-.97.46.86-.31.03.07.04,1.29,1.46,2.01,1.76,3.34l.21-.18c.11.31.58.54.31.95-.28.41.85.21.93.29.55.07-.2.68-.21.55.23.22,1.23.12,1.01.67-.77.44,1.23.79.29,1.14l.08-.02c-.49.73.8.86.36,1.6,0,0-.07,0-.14,0,1.08.1,2.16.23,3.23.42,1.06-.34,2.11-.73,3.16-1.13.77-.64,1.53-1.31,2.27-2-.54-1.13-1.12-2.2-1.75-3.25-.03-1.02-.11-2.06-.24-3.11-1.19-2.12-2.64-4.17-4.4-6.06l-.93.09c0-1-.68-1.6-1.4-2.14-.73-.54-1.54-.98-1.96-1.87l-.4.51c-.42-.23-.17-.55-.21-.71-1.93-1.2-4.2-1.93-6.39-2.34-2.19-.42-4.27-.55-6.23-.89-.4-.41-1.51-.05-1.86-.47-1.15.95-2.36,1.15-3.62,1.41l.03-.08-.54.27s-.06-.12-.06-.17c-.48.77-1.65.53-2.55.68l.02-.09c-2.36.93-4.38,2.59-6,4.43-1.64,1.85-2.91,3.84-4.37,5.8-.48.39-.83.88-1.06,1.43-.26.54-.41,1.13-.53,1.73-.27,1.2-.41,2.4-1.08,3.49-.35.15-.64,1.47-.71,2.77-.07,1.3.07,2.58.21,2.79Z" fill="#f9b515"/>
      <path d="M149.8,147.23v-.02c-.28.03-.17.04,0,.02Z" fill="#f9b515"/>
      <polygon points="157.21 138.77 157.2 138.8 157.6 138.75 157.21 138.77" fill="#f9b515"/>
      <path d="M157.25,143.68c.08-.22.01-.23-.1-.2-.01.08,0,.15.1.2Z" fill="#f9b515"/>
      <path d="M150.59,149.33c0,.14.15.06.32-.04-.05-.14-.08-.23-.08-.23-.05.09-.18.19-.24.28Z" fill="#f9b515"/>
      <path d="M154.17,148.25h.22c-.06-.06-.14-.04-.22,0Z" fill="#f9b515"/>
    </g>
    <g>
      <path d="M132.69,146.06s.02-.05,0,0h0Z" fill="#f9b515"/>
      <path d="M126.69,169.3s0,.01,0,.02c.13-.02.24-.03.33-.04l-.34.02Z" fill="#1d1d1d"/>
      <path d="M127.36,173.17s-.01.02-.02.04c.07-.04.14-.07.02-.04Z" fill="#1d1d1d"/>
      <path d="M125.18,160.33s0-.06-.05-.08c.02.03.04.05.05.08Z" fill="#1d1d1d"/>
      <path d="M138.62,141.5s0,0-.01.02c.02.02.04.03.07.06l-.06-.07Z" fill="#f9b515"/>
      <path d="M138.63,141.74c-.12-.05-.05-.18-.02-.22-.16-.12-.27-.1-.33.02.08.18.25.08.35.2Z" fill="#f9b515"/>
      <path d="M152.87,139.07l-.05.08s.04-.05.05-.08Z" fill="#f9b515"/>
      <path d="M115.39,159.16s-.02-.07-.03-.1c-.01.04,0,.07.03.1Z" fill="#1d1d1d"/>
      <path d="M150.54,138.72l-.03.32c.03-.13.03-.23.03-.32Z" fill="#f9b515"/>
      <path d="M127.03,169.28h.13s-.07,0-.13,0Z" fill="#1d1d1d"/>
      <path d="M129.2,176.44c-.08.06-.13.11-.18.16h0s.17-.16.17-.16Z" fill="#1d1d1d"/>
      <path d="M143.96,192.78s.02-.08.03-.12l-.17.18c.05,0,.1-.02.14-.06Z" fill="#f9b515"/>
      <path d="M131.96,181.38s.06-.04.09-.07c0-.15-.18-.33-.43-.54l-.28.27.62.34Z" fill="#f9b515"/>
      <path d="M132.15,192.87l-.2-1.06c2.18.97,2.75,2.19,4.83,2.57l-.18.1c.21.29,1.06-1.18,3.08,2.13l-.03.07c.11.03.17-.11.29.17l-.32-.67c.38-.04.81-.27,1.23-.14.05.12.02.28-.02.4l1.06.3.12.6c.42-.13.66-1.19,1.28-.31-.06-.81.57-.27.6-.66.01.1.06.27.09.41.54.11,1.54.22,1.97-.05-.12-.02-1.51-2.15-1.7-3.09.59.44.2-.02.16-.3l-.11.16c-.33-.32-.15-.76-.3-.95-.01.04-.02.08-.04.13l.05-.05c-.01.08-.04.13-.08.17-.03.1-.08.16-.17.1l.04-.04c-.19,0-.44-.18-.54-.26l.15-.36c-.59.58-1.43-1.85-1.76-2.04-.16-.61-.87-.28-1.21-.72-.66-.47-.1-.69-.3-1.17-.32-.45-.12.45-.31.38l-.27-.76c.33.12.27-.18.29-.34-.42-.29-.75-1.31-1.27-.7-.41-.66-.24-.94-.47-1.11,0,.17.11.38.03.52-.06-.44-.15,0-.1.13-.55.08-1.06-2.32-1.58-1.65l.09-.13c-.43.48-.64,1.09-1.08,1.23v-.34s-.4.06-.4.06c-.04-.28.13-.37.17-.43-.55-.03-.91-.68-1.3-1.1-.19.59-.37,1.18-.53,1.78-.18-.63-.38-1.81-.8-1.42l.13-.64c-.04-1.49-.83-.05-.92-.56l.04-.8.36.31c-.16-.55-.17-.83-.17-1.39h-.01s0,.08-.03.11l-.06-.03c-.25.2-.58.2-.81-.04-.29-.37-.88-.31-.93-1.31l-.6.32c-.04-.23-.09-.44-.11-.67l.38-.35c.35.41,1.2,1,1.74,1.45l.17-.17c-.31-.27-.79-.44-.95-.67-.02-.17.13-.78.55-.86l-.54.18c-.51-.45-.71-.71-.91-.99-.18-.29-.32-.64-.5-1.36l-.13.26c-.29-.12-.58-.24-.29-.55-.43-.7-.62-1.58-.32-2.34l-.57.23c-.06-.16.62-.84-.16-.47l-.41-.17c-.08-.21-.46-.17-.25-.56h0s0,0,0,0c.01-.02.03-.05.04-.08l-.04.03c.02-.58-.49.25-.43-.43.31-.35-.79.15-.8-.17.22-.21.45-.42.68-.62.28-.66-.56-.4-.85-1.1.18-.45.86-.83,1.54-.84-.85-.03-.54.04-1.02-.23.3-.16.38-.13.69-.14.27-.45-.35-.12-.41-.38-.62.1-1.61.26-1.68.18l-.15.16c-.42-.21-.62-.53-.4-.96l.31-.05-.24-.35.39-.1c-.07-.17-.17-.34-.23-.51l-.1.09c-.07-.12-.26-.53-.08-.8l.22-.02c.31-.38.2-.67.02-.98-.16-.31-.42-.65-.47-1.05l.46.09c.44-.28-.7-.06-.49-.39l.56-.02c-.75-.28.14-.37.43-.56l-.74.08.17-.37c.26-.41.94-.21,1.32-.14l-.56-.29.65-.02c-.74-.24.13-.19-.26-.55.24,0,.38.09.49-.02-.3-.21-.57-.43-.85-.66l.35.39-.93-.13c-.66-.45.17-.5-.05-.8l.25.22c-.17-.46.23-.44.47-.65-.18.05-.46.13-.56-.07-.03-.14.34-.02.46-.13-.61-.12-.92-.5-.56-.74.09.02.17.04.22.07-.08-.09-.24-.16-.06-.26l.67.2-.6-.37c.22-.12-.22-.47.24-.35l.12.12.43-1.18.55.12c-.71-.32.48-.59-.46-.8.57-.09-.09-1.03.91-.58.29-.77-.51-1.52.32-2.29.96-.02,1.08-.97,1.42-1.5.18-1.24.22-2.12.66-3.32.73.02.88-.4,1.02-.87.13-.47.2-1.03.75-1.09l-.25-.49c.48.06.66-.22.86-.52.22-.28.46-.59.99-.56-.03-.29-.01-.41,0-.45-.04,0-.14-.03-.37-.25.3.02.45-.47.85.04v.08c.41.51.28-.64.81-.36l-.53-.45c.12-.06.25-.12.38-.16v.17c.21-1.12.85-1.4,1.48-1.56.62-.21,1.23-.3,1.64-1.32.14.77.12-.5.51.23.83.77.58-.55.82-.93-.02-.04-.03-.08-.04-.15l.61-.14c.04,1.11.09-.98.11-.02,1.75.15,3.55-1.2,5.53-1.14l-.13-.25c.49-.02,1.05-.44,1.47-.05.41.39.74-.77.89-.82.38-.49.82.4.64.36.42-.17.81-1.12,1.45-.74.21.87,1.71-.87,1.72.13v-.08c.77.73,1.59-.43,2.39.3,0,0-.02.07-.06.14.67-.94,1.39-1.87,2.16-2.76.04-1.12.02-2.25-.01-3.38-.48-.98-1.01-1.96-1.57-2.91-1.76.03-3.47.19-5.16.43-1.37-.32-2.77-.55-4.21-.73-3.37.56-6.74,1.57-9.92,3.09l-.36,1.01c-1.21-.17-2.26.46-3.24,1.16-.49.37-.97.75-1.47,1.07-.49.35-1.01.63-1.61.79l.36.54c-.47.41-.68.09-.88.11-2.25,1.96-4.05,4.4-5.52,6.84-1.5,2.44-2.61,4.89-3.89,7.09-.56.31-.86,1.78-1.36,2.01.15.9.1,1.74-.03,2.57-.1.85-.3,1.67-.51,2.48l-.06-.07c-.02.26-.02.53,0,.79-.06.02-.13.02-.18-.02.46.97-.34,2.25-.59,3.38l-.07-.07c-.26,3.26.31,6.51,1.31,9.52,1,3.04,2.38,5.84,3.77,8.76.39,1.54,1.47,2.81,2.65,3.95.59.57,1.19,1.15,1.79,1.72.58.6,1.14,1.2,1.61,1.92,0,.45,1.37,1.69,2.87,2.69,1.49,1.02,3.09,1.8,3.42,1.82Z" fill="#f9b515"/>
      <path d="M140.84,196.43h-.02c-.11.24-.03.16.02,0Z" fill="#f9b515"/>
      <polygon points="133.93 184 133.95 184.03 134.08 183.64 133.93 184" fill="#f9b515"/>
      <path d="M140.17,187.62c-.25-.23-.29-.17-.3-.06.1.07.2.1.3.06Z" fill="#f9b515"/>
      <path d="M143.88,197.07c.18.09.16-.09.12-.3-.2-.04-.34-.07-.34-.07.08.1.14.27.22.37Z" fill="#f9b515"/>
      <path d="M144.44,193.33l.13-.19c-.12.01-.14.09-.13.19Z" fill="#f9b515"/>
    </g>
    <g>
      <path d="M156.06,162.04s-.04.02,0,0h0Z" fill="#f9b515"/>
      <path d="M173.95,170.14s0,0,.01.01c.11-.07.2-.14.27-.19l-.29.18Z" fill="#f9b515"/>
      <path d="M175.22,172.98s-.01.02-.02.04c.06-.05.13-.09.02-.04Z" fill="#f9b515"/>
      <path d="M167.87,166.18s-.05,0-.08.02c.03-.01.06-.02.08-.02Z" fill="#f9b515"/>
      <path d="M150.56,162.96s0,0,.01-.01c-.01-.02-.02-.04-.04-.07l.03.09Z" fill="#f9b515"/>
      <path d="M150.59,162.73c.08.09,0,.18-.02.21.09.17.17.17.23.08-.03-.2-.16-.15-.21-.3Z" fill="#f9b515"/>
      <path d="M141.48,165.94v-.09s0,.05,0,.09Z" fill="#f9b515"/>
      <path d="M162.37,174.36s-.03.01-.05.02c0,.01.03,0,.05-.02Z" fill="#f9b515"/>
      <path d="M142.96,165.59l-.09-.31c.03.13.06.22.09.31Z" fill="#f9b515"/>
      <path d="M174.24,169.96l.11-.07s-.06.04-.11.07Z" fill="#f9b515"/>
      <path d="M176.6,175.36c-.08.05-.14.1-.2.14h0s.2-.14.2-.14Z" fill="#f9b515"/>
      <path d="M176.62,189.07s.08-.02.12-.03h-.23s.06.02.11.03Z" fill="#f9b515"/>
      <path d="M177.21,179.25s.07-.02.1-.04c.07-.1.01-.26-.1-.44l-.35.17.34.31Z" fill="#f9b515"/>
      <path d="M170.2,185.99l.63-.54c.66.77.06,1.43.88,2.01h-.18c-.16.14,1.61-.19-.2,1.54l-.08.02s.17,0-.01.13l.43-.31c.22.08.61.12.7.28-.08.05-.23.1-.36.13l.21.39-.48.21c.29.07,1.34-.15.81.28.72-.24.47.1.83,0-.09.03-.22.09-.34.13.11.17.36.55.74.49.02.16,1.48-.88,2.22-1.28-.14.37.1.08.34-.03h-.19c.15-.23.61-.3.72-.43-.04,0-.08.02-.13.03h.06c-.08.03-.14.03-.19.03-.1.02-.18.02-.16-.04h.05c-.08-.07-.03-.23-.01-.31l.39-.07c-.76,0,.91-1.28.87-1.52.43-.33-.24-.46-.06-.79,0-.46.49-.36.76-.67.16-.34-.42.18-.48.08l.43-.48c.1.18.3,0,.43-.07-.02-.3.53-.98-.25-.83.23-.5.52-.6.5-.78-.12.1-.2.25-.35.3.28-.26-.11-.05-.16.04-.39-.11.92-1.71.08-1.46l.15-.06c-.62.17-1.17.48-1.56.44l.23-.21-.32-.06c.15-.18.33-.19.4-.22-.38-.15-.18-.65-.25-.99l-1.47,1c.27-.4.81-1.19.27-1.02l.47-.39c.78-.99-.6-.16-.39-.5l.46-.54.11.27c.18-.4.31-.6.57-.99h-.02s-.04.05-.07.07l-.03-.03c-.3.11-.57.07-.64-.12-.06-.3-.57-.28-.19-1.01l-.63.21.17-.49.45-.26c.15.31.61.8.85,1.19l.22-.1c-.12-.24-.47-.4-.5-.58.05-.12.42-.58.81-.6l-.52.1c-.49-.76-.52-.73-.51-1.86l-.18.21c-.23-.08-.45-.16-.12-.43-.23-.53-.3-1.19.03-1.88l-.55.28c-.04-.12.61-.81-.12-.36l-.37-.06c-.06-.16-.39-.04-.23-.4h0s0,0,0,0c.01-.02.02-.04.04-.07l-.04.03c-.02-.46-.44.33-.42-.22.26-.37-.71.35-.73.11l.56-.7c.16-.61-.57-.12-.91-.54.08-.4.57-.99,1.19-1.28-.77.33-.47.25-.98.26.22-.25.29-.27.57-.41.1-.47-.35.06-.48-.11-.51.36-1.3.97-1.38.94l-.09.19c-.4.06-.67-.01-.61-.41l.24-.21-.3-.09.28-.29-.36-.21-.04.11c-.1-.03-.4-.16-.37-.43l.16-.15c.14-.83-.8-.47-1.26-.8l.37-.28c.17-.46-.52.47-.53.15l.37-.42c-.65.4-.09-.3,0-.6l-.45.59-.09-.3c-.05-.38.48-.82.77-1.07l-.54.29.39-.51c-.63.46-.06-.2-.56-.08.14-.2.29-.26.27-.41l-.97.4.49-.13-.63.71c-.68.38-.25-.33-.59-.25l.29-.13c-.42-.03-.19-.36-.22-.65-.05.18-.14.44-.32.46-.11-.02.15-.3.13-.45-.39.49-.78.62-.79.24.05-.07.11-.14.15-.18-.1.05-.22.17-.21-.02l.44-.54-.53.43c0-.24-.42.08-.16-.31l.14-.08c-.25-.22-.51-.42-.77-.64l.27-.49c-.47.62-.34-.53-.78.33.09-.55-.82-.03-.22-.94-.28-.2-.61-.11-.93-.07-.33.06-.64.08-.9-.31.09-.96-.77-.97-1.23-1.25-1.08.03-1.79.26-2.81.3-.34-1.44-1.51.2-2.01-.62l-.23.48c-.16-.43-.42-.42-.71-.41-.28.02-.58.07-.84-.34-.15.22-.23.28-.26.3.02.03.06.12.05.45-.15-.23-.49.04-.44-.61l.04-.06c.05-.65-.51.28-.68-.28l.09.7-.3-.13.08-.13c-.67.75-1.11.63-1.59.46-.46-.15-.96-.36-1.48.42.09-.77-.2.42-.29-.4-.41-1-.54.29-.74.59,0,.04,0,.09,0,.15l-.44-.05c.11-1.06-.19.89-.08-.01-1.23-.61-2.52.44-3.83.4l.12.25c-.33.02-.63.44-.98.09-.35-.35-.33.8-.4.87-.12.52-.62-.3-.49-.29-.24.2-.2,1.2-.69.93-.41-.8-.72,1.16-1.06.22l.02.08c-.72-.49-.73.79-1.48.41,0,0-.02-.07-.03-.14.04,1.07.1,2.15.2,3.21.58.96,1.1,1.94,1.63,2.92.59.72,1.16,1.47,1.72,2.22.51-.42,1.08-.83,1.66-1.22.62.16,1.23.37,1.82.57,1.19-.42,2.4-.81,3.6-1.05l.18-.78c.44.61.83.51,1.24.41.4-.11.84-.29,1.21.19l.02-.65c.21-.03.19.37.24.49.48,0,.99-.11,1.46-.12.47-.01.97-.06,1.44-.04.45.06.9.13,1.32.26.41.16.75.44,1.04.75-.01.22.11.32.23.41.11.1.2.23.15.45.38-.23.7-.28.97-.23.27.05.5.18.66.39l-.06.05.26.05s-.07.11-.1.15c.55-.3.56.42.65.77l-.06.04c1.59,1.55,4.02,2.48,4.6,4.94-.12.73.24,1.15.65,1.61.43.43.82.94.71,1.67-.22.24,0,.86.34,1.42.33.58.74,1.13.93,1.18Z" fill="#64ad2f"/>
      <path d="M172.01,189.24h0c-.27.05-.16.04,0,0Z" fill="#f9b515"/>
      <polygon points="177.31 181.36 177.31 181.39 177.63 181.16 177.31 181.36" fill="#f9b515"/>
      <path d="M178.96,185.36c.03-.21-.04-.2-.14-.15,0,.07.04.13.14.15Z" fill="#f9b515"/>
      <path d="M172.72,190.31c-.01.07.15.03.32-.04-.04-.07-.06-.12-.06-.12-.06.05-.2.11-.26.16Z" fill="#f9b515"/>
      <path d="M176.34,189.45h.22c-.06-.05-.14-.04-.22,0Z" fill="#f9b515"/>
    </g>
    <g>
      <path d="M183.23,148.35s-.03,0,0,0h0Z" fill="#f9b515"/>
      <path d="M192.44,149.04h.01c-.01-.13-.02-.25-.03-.33l.02.33Z" fill="#f9b515"/>
      <path d="M194.4,149.49s.01.02.02.03c-.02-.08-.03-.15-.02-.03Z" fill="#f9b515"/>
      <path d="M188.57,150.5s-.02.02-.03.06c.01-.03.02-.05.03-.06Z" fill="#f9b515"/>
      <path d="M180.59,146.77s0,0,.01,0c.02-.02.03-.04.05-.06l-.06.07Z" fill="#f9b515"/>
      <path d="M180.78,146.65c-.05.09-.15.11-.18.12-.11.15-.09.19,0,.17.15-.13.08-.17.18-.28Z" fill="#f9b515"/>
      <path d="M177,141.87h.08s-.05,0-.08,0Z" fill="#f9b515"/>
      <path d="M188.31,160.35s-.03.03-.04.05c.02,0,.03-.02.04-.05Z" fill="#f9b515"/>
      <path d="M177.2,142.84l.29-.13c-.12.05-.22.09-.29.13Z" fill="#f9b515"/>
      <path d="M192.42,148.71v-.12s0,.07,0,.12Z" fill="#f9b515"/>
      <path d="M196.17,149.25c.03.09.05.17.08.23h0s-.08-.23-.08-.23Z" fill="#f9b515"/>
      <path d="M207.08,150.29l-.06-.11.07.22s0-.07,0-.11Z" fill="#f9b515"/>
      <path d="M199,149.78s-.02-.07-.03-.11c-.08-.09-.19-.07-.33,0l.12.37.24-.26Z" fill="#f9b515"/>
      <path d="M205.17,157.17l-.6-.6c.81-.73,1.57-.2,2.12-1.15l.03.18c.2.11-.5-1.5,1.72-.18l.03.07s-.03-.17.15-.03l-.44-.32c.05-.24,0-.64.15-.77.08.06.16.2.22.31l.37-.34.37.38c0-.31-.55-1.23.08-.89-.48-.59-.03-.49-.26-.8.06.07.17.17.26.27.17-.19.46-.59.41-1-.05.04-1.59-.91-2.16-1.51.37.03.03-.12-.14-.31l.07.17c-.25-.07-.46-.49-.6-.56.02.03.04.07.06.11l-.02-.06c.05.07.07.12.08.17.05.09.08.16.02.16v-.05c-.05.1-.2.09-.27.09l-.18-.35c.21.73-1.32-.61-1.48-.57-.37-.37-.31.28-.61.15-.37.04-.4-.44-.7-.68-.3-.13.23.4.16.46l-.47-.39c.12-.11-.05-.29-.14-.41-.23.03-.84-.48-.59.26-.42-.22-.55-.51-.68-.5.1.11.23.2.29.35-.25-.27-.02.1.06.15-.04.39-1.43-.95-1.13-.14l-.06-.14c.2.61.5,1.16.52,1.53l-.19-.23-.02.31c-.16-.16-.18-.33-.21-.41-.09.35-.49.13-.76.14l.89,1.53c-.36-.29-1.01-.92-.86-.38l-.33-.5c-.79-.89-.12.56-.4.31l-.42-.53.21-.06c-.31-.23-.46-.4-.76-.74v.02s.04.05.06.08l-.02.02c.08.31.05.55-.1.58-.23-.02-.24.49-.77-.04l.12.65-.36-.3-.16-.5c.25-.04.62-.38.91-.51l-.07-.23c-.18.06-.3.35-.44.34-.09-.08-.4-.55-.41-.91l.05.52c-.57.23-.57.26-1.34-.12l.13.23c-.08.18-.16.37-.31-.03-.39.01-.85-.21-1.24-.78l.1.61c-.09-.01-.42-.88-.25-.04l-.1.31c-.11-.02-.1.34-.3.02h0s0,0,0,0c-.01-.02-.02-.04-.04-.07,0,.02,0,.03.01.05-.29-.22.12.53-.22.25-.18-.41.07.78-.09.67l-.31-.83c-.33-.45-.2.43-.55.5-.22-.27-.43-1-.44-1.67,0,.82.03.53-.1.94-.08-.32-.08-.39-.08-.69-.23-.36-.05.31-.18.31.06.62.17,1.61.14,1.65l.08.18c-.09.35-.23.53-.44.24l-.04-.31-.16.18-.06-.4-.23.16.05.1c-.05.06-.23.23-.36.03l-.02-.22c-.37-.67-.52.25-.89.35l.02-.46c-.15-.44.01.7-.15.49l-.04-.56c-.09.74-.17-.14-.27-.41l.07.73-.17-.14c-.18-.24-.13-.92-.12-1.3l-.09.57-.04-.65c-.06.75-.08-.12-.21.28-.01-.24.02-.38-.03-.49l-.23.91.14-.4-.02.94c-.16.71-.21-.11-.32.16l.08-.28c-.18.23-.18-.17-.27-.38.02.18.06.44-.01.56-.06.05-.02-.33-.06-.44-.03.63-.19.96-.29.67,0-.09.01-.18.02-.23-.04.1-.06.26-.1.11l.07-.69-.13.65c-.05-.2-.18.3-.13-.17l.05-.14-.45-.22.06-.56c-.14.76-.2-.32-.31.64-.01-.53-.4.33-.18-.73-.24-.13-.58.84-.8.26.12-.93-.25-.66-.39-.85-.47.2-.86.5-1.38.55.36-1.28-.8.11-.69-.69l-.33.39c.28-.79-.52-.14-.3-.93-.19.15-.26.18-.28.19,0,.03-.05.12-.24.38.07-.23-.23-.12.17-.62l.06-.04c.41-.5-.37.08-.09-.41l-.4.57-.05-.19.12-.08c-.76.38-.86.08-.91-.24-.06-.32-.08-.6-.83-.37.61-.44-.38.16.22-.4.66-.83-.37-.09-.68-.02-.03.03-.07.06-.12.09l-.09-.26c.9-.55-.79.42-.01-.05.08-.5-.13-.81-.43-1.09-.28-.29-.6-.59-.67-1.01l-.21.17c-.06-.2-.47-.25-.18-.61.29-.35-.76.05-.84.02-.49.07.24-.52.24-.43-.2-.1-1.13.19-.89-.23.75-.47-1.09-.27-.2-.71l-.08.03c.5-.59-.72-.4-.27-.97,0,0,.07-.02.14-.04-1.02.16-2.06.3-3.1.38-1.03.41-2.05.88-3.06,1.35-.75.6-1.47,1.2-2.19,1.84.5.7,1.02,1.34,1.56,1.96-.02.72-.02,1.47.03,2.21.94,1.32,1.96,2.58,3.16,3.74l.79-.24c-.19.8.27,1.18.74,1.51.47.34.99.62,1.12,1.32l.43-.48c.26.16-.01.46-.02.6.56.44,1.22.78,1.88,1.11.64.35,1.35.59,2.02.86.66.29,1.34.5,1.99.78.32.13.64.29.95.45.32.14.63.29.93.47.16.48.99.41,1.11.9.98-.66,1.8-.57,2.62-.41l-.03.07.38-.12c.01.05.01.13,0,.18.44-.56,1.07,0,1.61.25l-.03.07c1.5.02,2.89-.38,4.18-.77,1.31-.38,2.56-.72,3.97-.63.75.36,1.38.07,2-.25.64-.31,1.25-.68,2.06-.5.48.54,2.98-.94,3.07-1.34Z" fill="#64ad2f"/>
      <path d="M208.55,154.66h0c.12.25.09.15,0,0Z" fill="#f9b515"/>
      <polygon points="200.62 150.03 200.63 150.03 200.44 149.69 200.62 150.03" fill="#f9b515"/>
      <path d="M203.49,148.57c-.17-.02-.15.04-.08.14.05,0,.09-.04.08-.14Z" fill="#f9b515"/>
      <path d="M209.53,153.57c.09-.02-.02-.15-.15-.29-.07.07-.11.11-.11.11.07.03.19.14.26.17Z" fill="#f9b515"/>
      <path d="M207.49,150.46l-.08-.21c-.02.07.02.14.08.21Z" fill="#f9b515"/>
    </g>
    <g>
      <path d="M215.88,171.65s-.02,0,0,0h0Z" fill="#f9b515"/>
      <path d="M219.99,174.24h0c.04-.13.08-.23.1-.31l-.11.31Z" fill="#f9b515"/>
      <path d="M220.79,175.24s0,.02,0,.04c.01-.08.03-.15,0-.04Z" fill="#f9b515"/>
      <path d="M217.54,174.45s-.02.01-.05.05c.02-.02.04-.04.05-.05Z" fill="#f9b515"/>
      <path d="M214.73,169.75s0,0,.01,0c.02,0,.04-.01.08-.02l-.09.02Z" fill="#f9b515"/>
      <path d="M214.95,169.75c-.09.04-.18.02-.21.01-.17.05-.18.09-.09.11.2-.03.16-.08.31-.12Z" fill="#f9b515"/>
      <path d="M214.14,165.36l.08.02s-.05-.01-.08-.02Z" fill="#f9b515"/>
      <path d="M212.27,182.77s-.04,0-.06.02c.01.02.04,0,.06-.02Z" fill="#f9b515"/>
      <path d="M213.87,166.04l.32.03c-.13-.01-.23-.02-.32-.03Z" fill="#f9b515"/>
      <path d="M220.1,173.92l.04-.12s-.02.07-.04.12Z" fill="#f9b515"/>
      <path d="M221.76,175.56c0,.1,0,.18,0,.24h0s0-.24,0-.24Z" fill="#f9b515"/>
      <path d="M228.97,179.39s-.03-.07-.05-.11l.05.22s0-.06,0-.11Z" fill="#f9b515"/>
      <path d="M223.29,176.93s0-.07,0-.11c-.03-.1-.11-.12-.2-.1v.39s.2-.18.2-.18Z" fill="#f9b515"/>
      <path d="M226.85,185.64l-.43-.72c.8-.52,1.39.14,1.96-.67v.17c.19.13-.31-1.54,1.53.12l.03.07s-.01-.18.14,0l-.36-.38c.06-.23.04-.62.18-.73.06.07.13.22.18.33l.35-.27.31.43c.03-.31-.44-1.27.11-.85-.41-.63-.01-.48-.2-.81.05.08.14.19.22.29.08-.08.18-.21.28-.37.04-.08.08-.17.1-.26.04-.1.06-.21.05-.31-.13.08-1.44-1.06-1.89-1.74.3.09.02-.11-.11-.32l.06.18c-.2-.12-.37-.55-.49-.65.02.03.03.08.05.12l-.02-.06c.04.07.05.13.06.18.04.09.06.17.02.16v-.05c-.04.08-.16.05-.21.04l-.14-.37c.16.74-1.01-.85-1.12-.84-.27-.43-.23.2-.46,0-.27-.05-.28-.51-.49-.8-.21-.2.15.43.1.47l-.32-.48c.09-.07-.03-.28-.09-.43-.17-.03-.56-.67-.41.1-.28-.31-.35-.62-.44-.64.06.13.14.25.18.4-.15-.32-.02.09.03.16-.06.36-.89-1.28-.74-.43l-.03-.15c.09.63.25,1.24.22,1.6l-.11-.27-.04.28c-.09-.2-.09-.37-.11-.45-.09.31-.35,0-.52-.07l.43,1.7c-.22-.38-.59-1.15-.55-.59l-.16-.57c-.4-1.09-.16.5-.31.17l-.2-.62h.14c-.17-.31-.24-.52-.37-.92v.02s.02.06.02.09l-.02.02c0,.32-.05.54-.15.53-.14-.08-.24.39-.47-.29l-.04.65-.17-.39v-.52c.16.03.44-.17.64-.2v-.24c-.12.01-.24.23-.32.19-.04-.1-.14-.64-.08-.99l-.06.51c-.36.06-.39.1-.73-.52l.02.26c-.08.15-.17.29-.16-.13-.21-.1-.42-.43-.46-1.11l-.1.6s.02-.97-.11-.12l-.13.25c-.05-.06-.14.28-.16-.07h0s0-.05,0-.07c0,.02,0,.03,0,.05-.09-.29-.09.54-.19.17.03-.44-.2.76-.26.61l.1-.88c-.02-.53-.23.33-.43.28-.02-.33.13-1.06.35-1.69-.27.76-.16.5-.37.85.07-.32.1-.39.2-.67.02-.39-.13.28-.19.24-.19.59-.5,1.55-.53,1.57l-.02.2c-.18.29-.32.4-.32.07l.1-.3-.15.11.12-.38-.18.07-.02.11c-.05.04-.21.13-.2-.09l.08-.21c.08-.7-.39.08-.63.05l.21-.4c.12-.44-.3.63-.29.38l.23-.51c-.38.63-.03-.18.05-.46l-.29.67-.02-.18c0-.26.35-.86.54-1.19l-.32.49.28-.58c-.39.65.01-.13-.25.2.11-.22.19-.33.22-.44l-.51.74.24-.32-.46.83c-.41.58-.03-.15-.2.05l.17-.22c-.18.15.02-.2.1-.4-.08.16-.2.39-.29.48-.05.03.17-.29.2-.39-.34.53-.58.77-.46.5.05-.07.1-.14.14-.19-.07.08-.17.21-.1.07l.41-.57-.42.53c.08-.17-.25.22.03-.16l.1-.11c-.03-.08-.06-.16-.07-.26l.35-.44c-.5.58.12-.29-.5.44.32-.42-.36.17.39-.62-.01-.13-.85.58-.55.06.66-.66.36-.56.37-.69-.44.11-.78.11-1.18.06,1.04-.7-.57-.18,0-.66l-.49.16c.69-.42-.31-.23.38-.69-.22.03-.3.03-.32.03-.02.02-.11.06-.41.17.2-.13-.11-.15.51-.34h.07c.62-.2-.34-.07.18-.29l-.65.23.08-.13h.14c-.81-.02-.68-.27-.55-.47.14-.22.28-.4-.44-.52.75-.07-.41-.03.41-.18,1.01-.29-.26-.18-.55-.25-.04,0-.09,0-.15.01l.07-.19c1.05-.03-.88-.02.02-.03.72-.57-.13-1.12.22-1.72l-.27.03c.04-.14-.28-.33.15-.44.43-.11-.68-.25-.72-.3-.46-.14.46-.23.41-.18-.12-.13-1.07-.3-.65-.48.88-.01-.84-.58.16-.52h-.08c.72-.19-.45-.53.21-.71,0,0,.07.02.14.03-.99-.29-1.96-.59-2.93-.94-1.1-.14-2.21-.23-3.32-.32-.92.09-1.85.21-2.77.34.12.65.28,1.26.45,1.87-.38.46-.73.94-1.08,1.44.14,1.21.33,2.41.64,3.64l.79.15c-.59.46-.48.88-.28,1.29.2.41.43.79.09,1.33l.63-.16c.11.21-.28.31-.37.4.39,1.04,1.07,2.03,1.72,2.98.36.48.69.95.96,1.44.33.48.61.99.82,1.56-.19.47.49.77.32,1.21,1.12-.05,1.66.46,2.26.92l-.06.04.36.09c-.02.05-.06.12-.09.15.32-.13.53,0,.71.22.09.11.17.25.25.39.07.12.13.24.2.34l-.05.05c.55.29,1.12.51,1.71.67.6.13,1.19.22,1.77.32.59.06,1.17.14,1.73.28.57.11,1.13.29,1.7.6.5.56,1.14.52,1.76.41.62-.13,1.24-.26,1.9.12.29.66,2.81-.14,2.92-.53Z" fill="#64ad2f"/>
      <path d="M230.08,183.84h0c.09.26.07.16,0,0Z" fill="#f9b515"/>
      <polygon points="224.29 177.63 224.3 177.63 224.22 177.26 224.29 177.63" fill="#f9b515"/>
      <path d="M226.33,176.99c-.11-.06-.1,0-.06.11.04,0,.06-.02.06-.11Z" fill="#f9b515"/>
      <path d="M231,182.92c.08-.01-.01-.15-.13-.3-.06.06-.1.1-.1.1.07.04.16.16.23.2Z" fill="#f9b515"/>
      <path d="M229.3,179.62l-.07-.21c-.01.06.02.14.07.21Z" fill="#f9b515"/>
    </g>
    <g>
      <path d="M179.94,63.88s.02.03,0,0h0Z" fill="#1d1d1d"/>
      <path d="M178.99,46.27s0-.01,0-.02c-.13-.01-.24-.02-.33-.04l.33.05Z" fill="#eb671f"/>
      <path d="M179.8,43.44s.02-.01.03-.02c-.08,0-.16,0-.03.02Z" fill="#eb671f"/>
      <path d="M180.2,52.79s.02.04.06.05c-.03-.01-.05-.03-.06-.05Z" fill="#eb671f"/>
      <path d="M180.63,69.06s0,0-.01-.01c-.03,0-.04.02-.08.03l.09-.02Z" fill="#1d1d1d"/>
      <path d="M180.41,69.01c.1-.06.18.02.21.04.18-.07.19-.14.11-.21-.2,0-.17.13-.32.16Z" fill="#1d1d1d"/>
      <path d="M181.19,78.48l-.08-.03s.05.02.08.03Z" fill="#1d1d1d"/>
      <path d="M190.05,52.52s.03.03.05.04c0-.02-.02-.03-.05-.04Z" fill="#eb671f"/>
      <path d="M181.39,76.99l-.32-.02c.13.01.23.02.32.02Z" fill="#1d1d1d"/>
      <path d="M178.66,46.22l-.12-.02s.07.01.12.02Z" fill="#eb671f"/>
      <path d="M180,40.82c.1,0,.18,0,.24-.01,0,0,0,0,0,0l-.24.02Z" fill="#eb671f"/>
      <path d="M185.07,27.63s-.08,0-.12,0l.23.05s-.05-.05-.1-.06Z" fill="#eb671f"/>
      <path d="M181.38,37.23s-.07-.01-.11-.01c-.11.06-.13.22-.12.43h.39s-.16-.42-.16-.42Z" fill="#eb671f"/>
      <path d="M190.5,33.31l-.79.38c-.36-1.23.43-1.8-.21-2.85l.17.06c.18-.15-1.58-.24.57-1.93h.08c-.01-.06-.17-.06.04-.18l-.48.29c-.2-.18-.57-.33-.63-.56.09-.05.25-.07.37-.07l-.13-.57.51-.18c-.28-.17-1.35-.1-.75-.56-.74.18-.45-.23-.82-.17.09-.02.23-.08.36-.12-.09-.28-.29-.8-.68-.93,0,0-1.57,1.09-2.36,1.38.2-.39-.09-.1-.34-.03l.19.03c-.18.23-.65.23-.78.35.04,0,.08,0,.13,0l-.06-.02c.08-.01.14,0,.19,0,.1,0,.18,0,.15.07h-.05c.07.09,0,.26-.04.33h-.39c.75.18-1.14,1.17-1.16,1.4-.49.23.12.53-.13.82-.13.47-.57.23-.91.47-.25.29.46-.06.48.06l-.55.35c-.05-.2-.28-.09-.44-.06-.07.3-.79.78,0,.87-.37.41-.69.41-.73.59.14-.06.27-.18.43-.18-.35.16.09.08.16.01.34.25-1.43,1.3-.57,1.35h-.16c.64.06,1.26-.04,1.61.14l-.29.12.27.18c-.21.12-.38.06-.46.06.3.29-.06.68-.14,1.03l1.74-.37c-.4.29-1.22.82-.66.88l-.59.18c-1.12.59.49.41.15.64l-.64.29v-.29c-.31.29-.52.41-.94.64,0,0,.01,0,.02,0,.03-.02.06-.03.1-.03l.02.04c.32.04.54.19.52.39-.09.29.38.52-.29.99l.65.12-.39.35h-.52c.03-.34-.17-.99-.19-1.43h-.24c0,.25.23.55.18.73-.1.08-.64.3-1,.14l.51.16c.06.87.08.88-.51,1.79l.26-.08c.15.18.3.36-.12.41-.09.55-.41,1.12-1.07,1.47l.61.08c-.03.12-.96.29-.1.35l.27.25c-.05.16.3.26-.05.44,0,0,0,0,0,0,0,0,0,0,0,0-.02.01-.04.02-.07.03.02,0,.03,0,.05,0-.27.36.55,0,.2.41-.44.13.78.15.64.35l-.88.2c-.5.36.38.42.38.95-.31.25-1.06.37-1.73.21.81.23.53.1.91.41-.33.05-.4.01-.7-.05-.39.27.3.17.28.37.62.06,1.62.13,1.66.19l.19-.08c.33.22.49.45.18.7h-.31s.16.26.16.26l-.4.02.12.38.11-.05c.05.09.19.38-.02.55h-.22c-.7.47.22.86.29,1.41l-.46-.07c-.45.19.7.05.47.28h-.56c.73.21-.16.27-.43.4l.73-.06-.15.26c-.24.28-.93.17-1.31.13l.58.19-.65.04c.75.14-.12.14.28.39-.24.02-.38-.04-.49.04l.91.41-.4-.25.94.03c.72.26-.1.35.16.53l-.28-.13c.23.3-.17.31-.38.48.18-.05.44-.13.56-.01.05.09-.33.05-.44.13.63.02.96.23.67.43-.09,0-.18,0-.23-.02.1.05.26.08.11.16l-.7-.05.67.17c-.19.11.32.27-.16.26l-.14-.06-.17.84h-.56c.77.09-.29.47.67.44-.52.16.37.62-.71.53-.08.55.96.85.43,1.52-.92.24-.62.89-.72,1.32.38.84.73,1.38,1.03,2.24-1.28.52.44,1.29-.28,1.84l.51.15c-.81.37.18.93-.61,1.45.22.13.29.19.31.22.02-.02.12-.06.45-.07-.23.15.06.45-.59.43l-.07-.04c-.65-.02.3.45-.26.61l.69-.09-.12.28-.13-.08c1.54,1.22-.66,1.77.74,2.91-.76-.15.4.23-.43.24-1.04.29.22.53.5.77.04,0,.09,0,.15.02l-.1.41c-1.05-.25.87.3-.02.07-.78,1.08.01,2.48-.35,3.73l.27-.05c-.05.32.27.71-.15.95-.43.24.68.53.73.62.46.26-.46.5-.41.39.13.28,1.08.55.67.94-.89.13.87,1.07-.13,1.08h.08c-.7.5.49.98-.14,1.51,0,0-.07-.01-.14-.03l3.03,1.1,3.33-.31,2.71-.95-.59-2.57,1.06-2.05-.36-5-.75-.36c1.31-.98-.2-2.24.74-3.3l-.65-.02c-.04-.3.36-.28.48-.35-.14-2.78-1.01-5.63-.19-8.13.43-.24.18-.97.63-1.16-.79-.81-.78-1.67-.7-2.48l.07.03-.12-.38c.05-.02.13-.02.18,0-.57-.43,0-1.11.23-1.64l.07.03c.12-3.08-1.09-5.95-.19-9,1.06-1.42-.4-3.08.48-4.71.64-.3.16-3.6-.14-3.89Z" fill="#eb671f"/>
      <path d="M189.63,28.45h0c.27.01.17,0,0,0Z" fill="#eb671f"/>
      <path d="M182.18,35.26s0-.01,0-.02l-.38.08.38-.06Z" fill="#eb671f"/>
      <path d="M181.95,30.9c-.09.2-.02.21.09.18.02-.07,0-.13-.09-.18Z" fill="#eb671f"/>
      <path d="M189.11,26.85c.02-.1-.14-.06-.32,0,.03.11.05.18.05.18.06-.06.21-.12.27-.17Z" fill="#eb671f"/>
      <path d="M185.41,27.27l-.22-.03c.05.06.13.06.22.03Z" fill="#eb671f"/>
    </g>
    <g>
      <path d="M245.82,82.18s0,.03,0,0h0Z" fill="#1d1d1d"/>
      <path d="M252.62,70.15s0,0,0-.01c-.1-.08-.19-.15-.26-.2l.25.22Z" fill="#eb671f"/>
      <path d="M254.52,68.75s.02,0,.04,0c-.07-.04-.13-.09-.04,0Z" fill="#eb671f"/>
      <path d="M250.82,75.09s0,.04.03.07c-.02-.02-.03-.05-.03-.07Z" fill="#eb671f"/>
      <path d="M244.16,85.95s0,0,0-.01c-.03,0-.05-.01-.08-.02l.08.04Z" fill="#1d1d1d"/>
      <path d="M244,85.79c.11.01.15.11.16.15.18.05.22.01.18-.08-.17-.11-.2,0-.34-.07Z" fill="#1d1d1d"/>
      <path d="M240.57,92.41l-.06-.06s.03.04.06.06Z" fill="#1d1d1d"/>
      <path d="M259.16,80.33s0,.03.02.05c.01-.01,0-.03-.02-.05Z" fill="#eb671f"/>
      <path d="M241.38,91.55l-.26-.19c.1.08.19.14.26.19Z" fill="#1d1d1d"/>
      <path d="M252.37,69.94l-.09-.08s.05.05.09.08Z" fill="#eb671f"/>
      <path d="M255.82,67.16c.08.05.15.09.21.12,0,0,0,0,0,0l-.21-.12Z" fill="#eb671f"/>
      <path d="M265.74,61.33s-.07-.04-.11-.06l.17.16s-.03-.06-.06-.1Z" fill="#eb671f"/>
      <path d="M258.52,65.57s-.05-.05-.09-.07c-.12-.02-.2.07-.28.22l.32.22.05-.37Z" fill="#eb671f"/>
      <path d="M267.82,68.03l-.82-.18c.23-1,1.13-.94,1.06-1.98l.12.13c.22,0-1.22-1.03,1.31-.94l.07.04s-.12-.13.11-.09l-.53-.07c-.09-.22-.34-.53-.28-.71.09.02.24.09.34.16l.14-.45.5.17c-.15-.27-1.08-.8-.38-.78-.7-.29-.27-.4-.61-.57.09.04.22.08.35.12.05-.23.1-.69-.16-.98,0,0-1.78-.15-2.57-.4.34-.14-.03-.12-.27-.21l.14.12c-.25.05-.64-.21-.8-.2.03.02.07.04.11.07l-.05-.04c.07.04.12.07.15.11.08.05.15.1.1.13l-.04-.04c.01.1-.12.17-.18.2l-.33-.22c.55.53-1.46.14-1.58.27-.51-.12-.12.41-.46.47-.31.24-.58-.16-.96-.2-.33.06.41.21.38.3l-.61-.07c.05-.16-.2-.22-.34-.28-.19.16-.99.08-.38.57-.49.06-.75-.11-.86-.02.14.04.3.04.44.12-.36-.08.04.1.13.1.18.35-1.75.06-1.06.57l-.13-.09c.51.39,1.07.67,1.29.98l-.29-.08.15.27c-.22-.04-.34-.17-.41-.21.12.35-.34.42-.56.59l1.61.72c-.46-.03-1.37-.14-.93.21l-.56-.21c-1.19-.23.23.53-.15.5l-.66-.16.14-.18c-.4.01-.62-.03-1.07-.1,0,0,0,0,.01.01.03,0,.06.01.09.03v.04c.25.2.36.42.26.54-.2.14.09.55-.67.48l.49.44h-.48s-.43-.27-.43-.27c.17-.21.29-.74.46-1.04l-.19-.14c-.11.17-.05.49-.17.58-.12,0-.67-.16-.89-.45l.35.39c-.33.6-.31.62-1.2.89l.25.09c.05.2.1.4-.28.2-.31.31-.83.5-1.53.37l.48.39c-.08.06-.93-.34-.23.17l.12.31c-.11.08.14.33-.23.26,0,0,0,0,0,0,0,0,0,0,0,0-.02,0-.05,0-.07-.02.02.01.03.02.04.03-.38.08.46.3-.01.37-.42-.15.59.52.38.58l-.82-.35c-.58-.04.13.48-.09.83-.37,0-1.05-.34-1.53-.82.57.59.39.36.58.77-.3-.15-.34-.21-.56-.42-.44-.04.18.27.07.4.5.38,1.29.97,1.3,1.04l.2.06c.19.32.21.56-.16.56l-.26-.18.02.26-.34-.21-.06.32.11.03c0,.09,0,.36-.25.35l-.18-.13c-.78-.07-.19.68-.37,1.09l-.35-.3c-.46-.13.56.42.28.44l-.47-.3c.53.53-.24.08-.53.02l.64.36-.24.08c-.32.05-.85-.4-1.15-.63l.4.44-.56-.33c.57.51-.16.03.07.41-.21-.12-.3-.24-.43-.24l.58.77-.23-.38.78.54c.49.56-.24.17-.09.43l-.18-.24c.06.32-.28.11-.53.11.17.06.42.15.47.3,0,.09-.3-.15-.42-.15.52.36.7.68.37.65-.07-.05-.14-.1-.19-.14.06.09.19.19.02.17l-.56-.42.48.48c-.21-.03.15.35-.24.08l-.09-.12-.5.45-.47-.3c.61.48-.44.14.37.65-.51-.19.04.61-.82-.05-.31.31.43,1.08-.29,1.23-.87-.35-.9.24-1.17.47-.04.76.01,1.31-.11,2.03-1.29-.37-.19,1.09-1.03,1.05l.36.38c-.84-.21-.25.71-1.14.61.13.21.16.29.16.32.03,0,.13.03.4.2-.25-.03-.15.32-.68-.05l-.04-.06c-.53-.37.06.46-.48.26l.62.32-.22.12-.08-.12c.76,1.64-1.31.79-.63,2.31-.57-.52.23.37-.46-.08-.99-.38-.04.47.09.78.03.02.07.05.12.09l-.26.22c-.77-.74.59.67-.05.03-1.12.27-1.06,1.63-1.9,2.25l.25.11c-.18.18-.08.62-.54.54-.46-.08.34.72.34.8.27.43-.6.08-.51.03-.01.25.67.95.16.98-.8-.4.27,1.17-.57.63l.07.05c-.8-.06,0,.91-.77.91,0,0-.06-.05-.1-.1l2.05,2.39,2.92,1.63,2.67.87.62-2,1.77-.76,1.86-3.46-.47-.65c1.52.08.8-1.57,2.04-1.75l-.53-.37c.1-.22.42.02.55.03,1.08-1.89,1.59-4.23,3.35-5.42.46.08.57-.54,1.03-.41-.31-.97.07-1.52.48-2.01l.05.06.06-.32c.05.02.12.06.15.1-.29-.6.47-.73.9-.95l.05.06c1.43-1.95,1.65-4.48,3.73-5.98,1.49-.35.99-2.23,2.43-2.81.67.16,1.69-2.26,1.56-2.62Z" fill="#eb671f"/>
      <path d="M269.19,64.38h0c.23.16.15.09,0,0Z" fill="#eb671f"/>
      <path d="M260.03,64.73s.01,0,.02-.01l-.36-.16.34.17Z" fill="#eb671f"/>
      <path d="M261.73,61.75c-.16.08-.1.12,0,.17.04-.04.05-.09,0-.17Z" fill="#eb671f"/>
      <path d="M269.45,63.05c.06-.06-.09-.12-.27-.18-.02.09-.04.14-.04.14.08,0,.22.04.3.04Z" fill="#eb671f"/>
      <path d="M266.18,61.28l-.17-.14c.02.07.09.11.17.14Z" fill="#eb671f"/>
    </g>
    <g>
      <path d="M286.27,130.49s-.01.03,0,0h0Z" fill="#1d1d1d"/>
      <path d="M296.01,126.26s0,0,0,0c-.03-.13-.06-.23-.08-.32l.07.32Z" fill="#eb671f"/>
      <path d="M297.88,126.49s.01.02.02.03c-.03-.07-.05-.15-.02-.03Z" fill="#eb671f"/>
      <path d="M292.67,128.64s-.02.03,0,.07c0-.03,0-.06,0-.07Z" fill="#1d1d1d"/>
      <path d="M283.53,132.13s0,0,0-.01c-.01-.02-.03-.04-.04-.07l.04.08Z" fill="#1d1d1d"/>
      <path d="M283.49,131.91c.07.08.05.18.04.21.09.15.14.15.15.06-.06-.19-.13-.14-.19-.27Z" fill="#1d1d1d"/>
      <path d="M278.34,134.44v-.08s0,.05,0,.08Z" fill="#1d1d1d"/>
      <path d="M295.94,137.94s0,.03,0,.05c.01,0,.01-.02,0-.05Z" fill="#eb671f"/>
      <path d="M279.25,134.35l-.09-.31c.03.13.06.22.09.31Z" fill="#1d1d1d"/>
      <path d="M295.94,125.93l-.03-.12s.02.07.03.12Z" fill="#eb671f"/>
      <path d="M299.44,126.19c.03.09.06.17.08.23,0,0,0,0,0,0l-.09-.23Z" fill="#eb671f"/>
      <path d="M308.56,128.5s-.03-.08-.04-.12l.04.22s0-.06,0-.11Z" fill="#eb671f"/>
      <path d="M301.92,126.82s-.02-.07-.03-.11c-.07-.09-.17-.08-.28-.03l.12.37.19-.24Z" fill="#eb671f"/>
      <path d="M307.03,134.73l-.47-.67c.59-.58,1.16.06,1.56-.74l.02.17c.14.14-.36-1.55,1.28.18l.02.07s-.02-.17.11,0l-.32-.4c.04-.22,0-.61.12-.7.06.07.12.22.16.34l.28-.23.26.45c.01-.29-.37-1.3.08-.82-.34-.67,0-.47-.16-.82.04.08.12.2.18.32.13-.13.36-.43.32-.82,0,0-1.11-1.28-1.53-1.98.29.12.03-.11-.09-.33l.04.18c-.19-.13-.34-.57-.45-.67.01.04.03.08.04.12v-.06c.02.08.04.13.04.18.03.09.05.17,0,.16v-.05c-.04.08-.16.05-.22.03l-.12-.37c.14.74-1.03-.86-1.17-.84-.29-.43-.26.22-.51.04-.31-.03-.31-.5-.55-.78-.24-.18.18.42.12.47l-.37-.45c.1-.08-.04-.29-.11-.42-.19,0-.69-.6-.5.16-.35-.28-.45-.58-.56-.58.08.12.19.23.24.38-.2-.3-.02.1.04.16-.04.37-1.19-1.11-.95-.28l-.05-.15c.17.62.42,1.19.43,1.56l-.16-.25v.29c-.15-.18-.17-.35-.19-.42-.07.33-.41.08-.63.06l.76,1.59c-.29-.33-.85-1-.71-.46l-.28-.52c-.69-.95-.08.54-.32.26l-.37-.55.17-.04c-.27-.25-.4-.43-.67-.78,0,0,0,.01,0,.02.02.02.03.05.05.08l-.02.02c.08.31.06.54-.06.56-.2-.03-.18.46-.66-.09l.14.64-.32-.3-.16-.49c.21-.04.51-.35.76-.45l-.07-.23c-.15.05-.25.33-.36.31-.08-.08-.37-.55-.4-.92l.07.51c-.48.22-.48.25-1.18-.14l.13.23c-.05.18-.11.36-.27-.04-.34.02-.77-.18-1.18-.74l.15.6c-.08-.01-.47-.86-.23-.03l-.06.3c-.1-.01-.05.34-.26.04,0,0,0,0,0,0,0,0,0,0,0,0-.01-.02-.03-.04-.04-.06,0,.02.01.03.02.05-.29-.19.18.52-.17.26-.21-.39.16.77,0,.67l-.39-.8c-.37-.41-.12.44-.42.54-.24-.25-.55-.94-.66-1.6.12.81.11.52.05.94-.13-.31-.13-.38-.19-.67-.28-.32,0,.32-.12.34.16.6.44,1.56.41,1.61l.11.17c-.02.36-.1.55-.35.3l-.09-.3-.1.2-.14-.38-.18.19.06.09c-.03.07-.16.25-.32.09l-.07-.21c-.49-.57-.43.37-.72.54l-.1-.45c-.25-.39.19.67,0,.5l-.18-.53c.12.73-.2-.1-.36-.34l.27.68-.2-.1c-.24-.18-.39-.85-.49-1.22l.07.58-.23-.61c.16.74-.12-.09-.13.34-.09-.23-.1-.37-.18-.46l.05.94v-.43s.29.9.29.9c.08.73-.23-.03-.25.25l-.02-.29c-.1.27-.23-.1-.4-.27.09.16.21.39.18.53-.03.07-.13-.31-.21-.39.19.6.17.96-.03.71-.03-.09-.05-.17-.06-.22,0,.11.04.26-.06.14l-.19-.67.12.66c-.12-.16-.06.35-.2-.1v-.14s-.54,0-.54,0l-.18-.53c.2.75-.35-.19-.03.72-.26-.47-.24.47-.53-.58-.34.02-.18,1.07-.73.7-.43-.83-.7-.42-.98-.43-.36.52-.56.96-.96,1.4-.7-1.12-.6.66-1.14.08l.07.51c-.47-.7-.48.35-1.02-.3,0,.24-.02.32-.03.34.02.02.07.1.18.41-.16-.19-.24.14-.43-.48v-.07c-.19-.62-.16.37-.43-.13l.27.64-.2-.06v-.14c-.21,1.69-1.22-.29-1.42,1.26-.15-.75,0,.42-.27-.36-.49-.93-.23.31-.28.62.01.04.03.08.04.15l-.27-.02c-.19-1.04.1.88-.05,0-.86-.54-1.41.48-2.24.38l.12.24c-.2.01-.32.4-.59.03-.27-.36-.08.75-.12.81,0,.49-.43-.34-.35-.32-.12.18.03,1.13-.32.82-.36-.82-.33,1.03-.65.08l.02.08c-.51-.57-.4.65-.91.15,0,0-.02-.07-.03-.14l.33,3.08,1.23,3.1,1.39,2.39,1.28-1.04,1.51.62,2.74-1.29-.03-.78c.97,1.06,1.22-.61,2.12.08l-.19-.62c.16-.09.27.29.35.38,1.54-.66,2.9-2.02,4.58-1.72.27.36.61-.02.86.38.21-.91.71-1.06,1.19-1.14v.07s.18-.19.18-.19c.03.05.05.12.06.17.07-.63.63-.22,1.01-.1v.07c1.8-.47,3.05-2.16,5.08-1.88,1.14.73,1.63-.96,2.83-.44.37.55,2.1-.53,2.17-.87Z" fill="#eb671f"/>
      <path d="M309.53,132.98h0c.09.26.06.16,0,0Z" fill="#eb671f"/>
      <path d="M303.29,127.2s0,0,.01,0l-.17-.35.15.35Z" fill="#eb671f"/>
      <path d="M305.71,126.16c-.14-.04-.12.02-.07.12.05,0,.07-.03.07-.12Z" fill="#eb671f"/>
      <path d="M310.28,132.19c.07,0,0-.15-.1-.31-.05.05-.09.08-.09.08.05.05.13.18.19.23Z" fill="#eb671f"/>
      <path d="M308.87,128.75l-.05-.22c-.02.06,0,.14.05.22Z" fill="#eb671f"/>
    </g>
    <g>
      <path d="M115.63,87.44s.03.01,0,0h0Z" fill="#1d1d1d"/>
      <path d="M107.24,76.46s0,0,0,0c-.11.06-.21.12-.29.16l.3-.15Z" fill="#1d1d1d"/>
      <path d="M106.7,74.16s.01-.02.02-.03c-.06.04-.13.08-.02.03Z" fill="#eb671f"/>
      <path d="M111.07,80.05s.03.01.07,0c-.03,0-.06.01-.07,0Z" fill="#1d1d1d"/>
      <path d="M118.45,90.44s0,0-.01,0c-.02.02-.03.04-.05.06l.07-.06Z" fill="#1d1d1d"/>
      <path d="M118.24,90.53c.05-.09.16-.09.2-.09.12-.14.1-.19,0-.2-.17.11-.09.18-.2.28Z" fill="#1d1d1d"/>
      <path d="M122.97,96.28l-.08.03s.05-.01.08-.03Z" fill="#1d1d1d"/>
      <path d="M119.17,74.44s.04,0,.06,0c0-.02-.03-.01-.06,0Z" fill="#1d1d1d"/>
      <path d="M122.5,95.2l-.27.16c.12-.06.2-.12.27-.16Z" fill="#1d1d1d"/>
      <path d="M106.94,76.61l-.11.06s.07-.03.11-.06Z" fill="#1d1d1d"/>
      <path d="M105.74,72.34c.08-.05.14-.1.2-.14,0,0,0,0,0,0l-.19.15Z" fill="#eb671f"/>
      <path d="M104.28,60.94s-.07.05-.1.07l.21-.09s-.07,0-.11.02Z" fill="#eb671f"/>
      <path d="M105.34,69.24s-.06.03-.1.05c-.06.1-.01.22.09.35l.33-.21-.32-.19Z" fill="#eb671f"/>
      <path d="M111.26,61.65l-.49.68c-.83-.6-.42-1.41-1.4-1.75l.17-.06c.09-.2-1.43.72-.35-1.58l.07-.04s-.17.06-.04-.14l-.28.46c-.24,0-.62.1-.76-.02.05-.08.18-.18.28-.25l-.36-.3.35-.39c-.31.04-1.17.68-.87.05-.54.53-.47.09-.76.34.07-.07.16-.18.25-.28-.19-.13-.59-.36-.97-.24,0,0-.84,1.57-1.37,2.2,0-.37-.12-.02-.3.17l.17-.09c-.05.25-.44.51-.5.66.03-.02.07-.05.11-.08l-.06.02c.06-.05.11-.08.16-.1.08-.06.15-.09.16-.04l-.05.02c.1.03.11.18.11.24l-.33.22c.7-.3-.45,1.39-.37,1.56-.31.43.33.28.25.6.1.37-.38.47-.56.81-.08.33.36-.29.43-.23l-.3.53c-.13-.11-.28.1-.39.2.08.23-.32.94.37.57-.14.47-.4.65-.35.78.09-.12.15-.26.28-.35-.22.3.1,0,.14-.08.39-.02-.63,1.63.11,1.19l-.13.09c.56-.31,1.04-.72,1.41-.8l-.19.23.31-.04c-.12.19-.29.25-.36.29.37.02.25.48.33.75l1.3-1.2c-.21.41-.67,1.21-.17.94l-.41.44c-.68,1,.58,0,.4.34l-.41.54-.12-.2c-.14.37-.27.56-.51.94,0,0,.01,0,.02,0,.02-.03.04-.05.07-.07l.03.02c.28-.15.53-.17.6-.03.05.24.54.13.18.81l.59-.28-.17.44-.43.29c-.12-.24-.57-.56-.78-.83l-.2.13c.11.17.43.24.47.38-.05.11-.41.55-.77.64l.49-.17c.43.54.45.53.35,1.45l.18-.2c.21.03.41.07.08.34.16.41.14.96-.26,1.55l.54-.29c.02.09-.68.72.06.28h.33c.03.14.36.01.15.32,0,0,0,0,0,0,0,0,0,0,0,0-.01.02-.03.04-.05.06.02-.01.03-.02.04-.03-.07.38.46-.3.34.16-.31.33.71-.33.68-.13l-.65.62c-.26.51.5.07.73.41-.15.34-.73.83-1.35,1.09.77-.29.48-.22.94-.24-.26.21-.33.23-.61.35-.21.39.32-.06.39.09.55-.31,1.4-.81,1.47-.79l.13-.16c.37-.04.6.03.45.36l-.27.17.25.09-.33.23.27.18.07-.09c.08.03.32.15.22.37l-.19.12c-.38.69.55.45.85.77l-.41.2c-.3.37.61-.35.52-.08l-.46.32c.7-.28-.02.25-.19.5l.58-.45-.02.25c-.08.32-.7.62-1.03.81l.56-.19-.52.38c.69-.32-.04.16.4.1-.2.15-.34.18-.39.3l.94-.24-.44.06.8-.5c.71-.23.06.28.36.26l-.29.07c.32.07,0,.3-.11.53.12-.13.31-.33.46-.32.08.03-.26.21-.31.33.53-.33.9-.38.74-.09-.08.05-.15.09-.2.12.11-.02.25-.1.16.04l-.61.35.63-.26c-.11.18.38,0-.02.25l-.14.04.22.64-.46.32c.68-.37-.05.46.74-.09-.37.39.58.2-.37.74.17.41,1.17.03,1.02.75-.67.66-.13.93-.03,1.26.68.34,1.21.5,1.82.9-.85,1.05.92.6.56,1.36l.49-.18c-.52.69.55.51.12,1.28.24-.04.33-.04.36-.03.01-.03.08-.11.34-.29-.13.22.24.26-.31.6h-.07c-.55.35.45.14.05.56l.54-.44.02.25-.14.02c1.81-.05.21,1.52,1.88,1.49-.7.32.43-.07-.25.39-.74.76.42.23.75.23.03-.02.07-.05.13-.07l.1.32c-.98.41.85-.28.01.06-.19,1.13,1.08,1.61,1.32,2.63l.2-.18c.09.23.54.31.28.71-.25.39.8-.03.87,0,.5-.08-.16.58-.17.48.23.11,1.14-.24.97.24-.68.58,1.19.22.36.77l.07-.04c-.37.71.83.36.53,1.07,0,0-.07.03-.13.06l3-.95,2.65-2.04,1.85-2.11-1.6-1.36v-1.93s-2.46-3.07-2.46-3.07l-.78.18c.67-1.37-1.13-1.36-.81-2.56l-.55.34c-.16-.17.18-.38.25-.49-1.32-1.73-3.27-3.13-3.67-5.21.25-.39-.27-.73.02-1.11-1.01-.09-1.38-.66-1.66-1.23l.07-.02-.27-.18s.1-.08.15-.1c-.66.03-.48-.72-.52-1.2l.07-.02c-1.23-2.08-3.47-3.28-4.04-5.78.27-1.51-1.66-1.79-1.63-3.34.41-.55-1.42-2.44-1.8-2.46Z" fill="#eb671f"/>
      <path d="M108.44,58.96h0c.23-.14.13-.1,0,0Z" fill="#eb671f"/>
      <path d="M105.16,67.52s0-.01,0-.02l-.29.26.29-.25Z" fill="#eb671f"/>
      <path d="M103.09,64.79c.01.18.07.14.15.07-.02-.06-.06-.08-.15-.07Z" fill="#eb671f"/>
      <path d="M107.31,58.2c-.03-.08-.15.04-.27.18.07.05.12.09.12.09.03-.07.12-.19.15-.26Z" fill="#eb671f"/>
      <path d="M104.4,60.51l-.2.1c.07,0,.14-.04.2-.1Z" fill="#eb671f"/>
    </g>
    <g>
      <path d="M145.17,308.98s.01-.04,0,0h0Z" fill="#1d1d1d"/>
      <path d="M122.82,313.6s-.01,0-.02-.01c-.1.08-.19.15-.26.2l.28-.19Z" fill="#1d1d1d"/>
      <path d="M120.99,310.63s0-.02.01-.04c-.05.06-.11.11-.01.04Z" fill="#1d1d1d"/>
      <path d="M132.43,321.35s.06-.09.07-.16c-.02.06-.04.12-.07.16Z" fill="#1d1d1d"/>
      <path d="M149.09,304.08s0,.01,0,.02c.03,0,.05.02.08.03l-.08-.05Z" fill="#1d1d1d"/>
      <path d="M149.2,304.29c-.12-.01-.12-.14-.11-.19-.18-.07-.25-.02-.25.1.14.14.23,0,.36.09Z" fill="#1d1d1d"/>
      <path d="M156.68,295.7l.03.08s-.02-.05-.03-.08Z" fill="#9d4693"/>
      <path d="M132.33,307.47s0-.04,0-.06c0-.01,0,.02,0,.06Z" fill="#1d1d1d"/>
      <path d="M155.28,296.82l.21.24c-.08-.11-.15-.18-.21-.24Z" fill="#9d4693"/>
      <path d="M122.54,313.79l-.11.07s.06-.04.11-.07Z" fill="#1d1d1d"/>
      <path d="M118.91,308.26c.07-.07.12-.13.16-.18h0s-.15.18-.15.18Z" fill="#1d1d1d"/>
      <path d="M111.3,293.49l-.08.09.2-.12s-.08,0-.12.02Z" fill="#1d1d1d"/>
      <path d="M116.84,304.24s-.06.04-.09.07c-.02.13.1.28.28.45l.29-.27-.48-.25Z" fill="#1d1d1d"/>
      <path d="M119.95,294.46l-.23.88c-1.3-.79-1.23-1.83-2.57-2.27l.17-.07c0-.26-1.32.92-1.23-2.04l.06-.06c-.06-.04-.17.07-.12-.18l-.09.59c-.29,0-.68.13-.92-.03.02-.1.12-.23.2-.33l-.58-.39.21-.51c-.34.05-1.03.87-1.01.05-.38.68-.51.12-.73.44.04-.09.1-.23.15-.35-.3-.18-.89-.47-1.27-.31,0,0-.18,2.03-.5,2.84-.19-.48-.15-.02-.26.22l.15-.11c.07.33-.26.66-.25.85.02-.03.06-.06.09-.1l-.06.03c.05-.07.1-.1.14-.13.07-.07.13-.12.17-.05l-.05.02c.13.03.22.23.26.32l-.28.28c.68-.38.19,1.8.37,2.01-.15.55.53.36.61.78.31.49-.21.6-.25,1.04.07.42.27-.37.39-.29l-.09.68c-.21-.14-.28.12-.36.26.21.3.11,1.22.74.74.08.61-.14.83-.02,1.01.05-.15.04-.34.15-.45-.11.38.13,0,.12-.11.45-.03.09,2.11.74,1.55l-.11.11c.5-.4.86-.92,1.26-1.02l-.1.3.34-.05c-.05.25-.22.32-.27.37.45.03.54.62.77.98l.92-1.54c-.04.53-.17,1.56.28,1.21l-.27.56c-.29,1.29.69,0,.65.44l-.2.7-.24-.26c.02.48-.03.72-.12,1.22h.01s.02-.07.04-.1l.05.02c.26-.2.54-.22.7-.03.19.31.71.17.63,1.05l.56-.36.02.57-.37.37c-.27-.31-.96-.72-1.35-1.08l-.17.16c.22.22.64.31.75.5,0,.14-.2.71-.58.83l.5-.22c.78.7.81.69,1.16,1.88l.12-.25c.26.05.52.09.26.43.4.53.65,1.24.49,2.01l.5-.37c.07.12-.43.92.22.37l.4.02c.1.17.43,0,.33.4h0s0,0,0,0c0,.02-.01.05-.02.08l.03-.04c.11.5.39-.39.48.21-.2.42.67-.43.74-.16l-.45.79c-.05.66.63.09,1.07.54,0,.44-.43,1.07-1.05,1.4.76-.38.46-.28.99-.3-.19.27-.27.3-.54.45-.04.5.35-.07.51.12.49-.39,1.25-1.04,1.34-1.01l.07-.2c.42-.05.73.04.72.47l-.23.21.34.11-.27.3.21.12.3.22v-.15c.17.09.66.38.76.78l-.15.17c.28,1.26,1.38,1.08,2.15,1.74l-.3.35c.08.72.37-.62.59-.08l-.2.59c.57-.47.31.53.43,1.04l.16-.88.32.54c.33.68,0,1.3-.2,1.66.16-.11.32-.23.47-.35l-.11.8c.42-.65.2.37.69.29-.02.33-.15.39-.03.66.29-.14.56-.3.81-.48-.15.04-.3.08-.45.12l.22-1.12c.49-.53.49.63.79.56l-.22.18c.46.14.44.69.69,1.23-.07-.32-.17-.78.02-.78.13.06.05.52.17.79.05-.66.25-.9.47-.62.05-.04.11-.05.17-.02,0,.13,0,.26-.02.35.07-.22.1-.48.23-.39l-.05,1.04.22-1.16c.17.1.37-.81.39-.16l-.08.28,1.28-1.04.13.67c-.03-1.06.79-.37.51-1.46.38.36.82-1.34,1.02-.01.45-.39.71-.99.97-1.51.27-.54.56-1,1.21-1.28.85.45,1.8-.92,2.51-1.5.44-.99.66-1.69,1.18-2.63,1.35.47.78-1.41,1.77-1.36l-.23-.49c.89.26.66-.92,1.66-.8-.05-.27-.04-.37-.03-.41-.04,0-.14-.04-.37-.25.29.04.34-.42.78.06l.02.08c.44.48.17-.59.7-.34l-.57-.41.32-.16.03.16c-.05-2.12,1.97-1.03,1.94-3,.41.66-.09-.47.51.1.98.49.29-.61.3-1.01-.03-.03-.06-.06-.09-.12l.42-.28c.53.95-.36-.87.08-.04,1.47-.36,2.1-2.12,3.41-2.92l-.24-.14c.3-.23.41-.8.92-.7.51.1-.04-.93.01-1.04-.1-.55.75-.1.62-.04.15-.33-.3-1.23.32-1.27.74.51.29-1.52,1.01-.82l-.06-.06c.92.07.48-1.17,1.38-1.18,0,0,.04.06.07.12l-1.21-3.07-2.62-2.09-2.72-1.11-1.77,2.6-2.49,1-3.99,4.5.23.83c-1.76-.1-1.76,2.04-3.33,2.28l.44.48c-.23.28-.49-.02-.64-.04-1.13,1.23-2.14,2.6-3.22,3.86-.54.63-1.09,1.23-1.67,1.77l-.45.39c-.07.05-.09.04-.14.05-.09,0-.18,0-.27-.06-.24-.36-.2-.05-.37-.52.23.89,0,1.11-.09,1.09v-.1s-.02.1-.02.1l-.03.07c0-.08,0-.18,0-.25-.09.72-.18-.17-.14-.46l.02-.08c-.05-.1-.12-.09-.24-.09-.07-.01-.1.03-.23-.04l-1.05-.84c-1.38-1.14-2.69-2.34-3.67-3.95-.46-1.95-2.89-2.33-3.66-4.33.2-.71-2.94-3.17-3.4-3.2Z" fill="#9d4693"/>
      <path d="M115.22,290.95h.01c.19-.18.1-.13-.01,0Z" fill="#1d1d1d"/>
      <polygon points="115.73 302.01 115.72 301.99 115.52 302.33 115.73 302.01" fill="#1d1d1d"/>
      <path d="M111.87,298.46c.11.23.16.19.21.09-.05-.07-.12-.11-.21-.09Z" fill="#1d1d1d"/>
      <path d="M113.49,289.96c-.07-.1-.15.05-.23.23.11.07.19.12.19.12,0-.09.05-.25.04-.34Z" fill="#1d1d1d"/>
      <path d="M111.23,292.94l-.18.13c.09.01.14-.05.18-.13Z" fill="#1d1d1d"/>
    </g>
    <g>
      <path d="M237.79,329.82s.01-.04,0,0h0Z" fill="#1d1d1d"/>
      <path d="M215.43,334.45s-.01,0-.02-.01c-.1.08-.19.15-.26.2l.28-.19Z" fill="#1d1d1d"/>
      <path d="M213.6,331.47s0-.02.01-.04c-.05.06-.11.11-.01.04Z" fill="#1d1d1d"/>
      <path d="M225.05,342.2s.06-.09.07-.16c-.02.06-.04.12-.07.16Z" fill="#1d1d1d"/>
      <path d="M241.7,324.93s0,.01,0,.02c.03,0,.05.02.08.03l-.08-.05Z" fill="#1d1d1d"/>
      <path d="M241.81,325.13c-.12-.01-.12-.14-.11-.19-.18-.07-.25-.02-.25.1.14.14.23,0,.36.09Z" fill="#1d1d1d"/>
      <path d="M249.3,316.54l.03.08s-.02-.05-.03-.08Z" fill="#9d4693"/>
      <path d="M224.94,328.31s0-.04,0-.06c0-.01,0,.02,0,.06Z" fill="#1d1d1d"/>
      <path d="M247.9,317.66l.21.24c-.08-.11-.15-.18-.21-.24Z" fill="#9d4693"/>
      <path d="M215.15,334.64l-.11.07s.06-.04.11-.07Z" fill="#1d1d1d"/>
      <path d="M211.53,329.1c.07-.07.12-.13.16-.18h0s-.15.18-.15.18Z" fill="#1d1d1d"/>
      <path d="M203.91,314.33l-.08.09.2-.12s-.08,0-.12.02Z" fill="#1d1d1d"/>
      <path d="M209.46,325.08s-.06.04-.09.07c-.02.13.1.28.28.45l.29-.27-.48-.25Z" fill="#1d1d1d"/>
      <path d="M212.57,315.31l-.23.88c-1.3-.79-1.23-1.83-2.57-2.27l.17-.07c0-.26-1.32.92-1.23-2.04l.06-.06c-.06-.04-.17.07-.12-.18l-.09.59c-.29,0-.68.13-.92-.03.02-.1.12-.23.2-.33l-.58-.39.21-.51c-.34.05-1.03.87-1.01.05-.38.68-.51.12-.73.44.04-.09.1-.23.15-.35-.3-.18-.89-.47-1.27-.31,0,0-.18,2.03-.5,2.84-.19-.48-.15-.02-.26.22l.15-.11c.07.33-.26.66-.25.85.03-.03.06-.06.09-.1l-.06.03c.05-.07.1-.1.14-.13.07-.07.13-.12.17-.05l-.05.02c.13.03.22.23.26.32l-.28.28c.68-.38.19,1.8.37,2.01-.15.55.53.36.61.78.31.49-.21.6-.25,1.04.07.42.27-.37.39-.29l-.09.68c-.21-.14-.28.12-.35.26.21.3.11,1.22.74.74.08.61-.14.83-.02,1.01.05-.15.04-.34.15-.45-.11.38.13,0,.12-.11.45-.03.09,2.11.74,1.55l-.11.11c.5-.4.86-.92,1.26-1.02l-.1.3.34-.05c-.05.25-.22.32-.27.37.45.03.54.62.77.98l.92-1.54c-.04.53-.17,1.56.28,1.21l-.27.56c-.29,1.29.69,0,.65.44l-.2.7-.24-.26c.02.48-.03.72-.12,1.22h.01s.02-.07.04-.1l.05.02c.26-.2.54-.22.7-.03.19.31.71.17.63,1.05l.56-.36.02.57-.37.37c-.27-.31-.96-.72-1.35-1.08l-.17.16c.22.22.64.31.75.5,0,.14-.2.71-.58.83l.5-.22c.78.7.81.69,1.16,1.88l.12-.25c.26.05.52.09.26.43.4.53.65,1.24.49,2.01l.5-.37c.07.12-.43.92.22.37l.4.02c.1.17.43,0,.33.4h0s0,0,0,0c0,.02-.01.05-.02.08l.03-.04c.11.5.39-.39.48.21-.2.42.67-.43.74-.16l-.45.79c-.05.66.63.09,1.07.54,0,.44-.43,1.07-1.05,1.4.76-.38.46-.28.99-.3-.19.27-.27.3-.54.45-.05.5.35-.07.51.12.49-.39,1.25-1.04,1.34-1.01l.07-.2c.42-.05.73.04.72.47l-.23.21.34.11-.27.3.21.12.3.22v-.15c.17.09.66.38.76.78l-.15.17c.28,1.26,1.38,1.08,2.15,1.74l-.3.35c.08.72.37-.62.59-.08l-.2.59c.57-.47.31.53.43,1.04l.16-.88.32.54c.34.68,0,1.3-.2,1.66.16-.11.32-.23.47-.35l-.11.8c.42-.65.2.37.69.29-.02.33-.15.39-.03.66.29-.14.56-.3.81-.48-.15.04-.3.08-.45.12l.22-1.12c.49-.53.49.63.79.56l-.22.18c.46.14.44.69.69,1.23-.07-.32-.17-.78.02-.78.13.06.05.52.17.79.05-.66.25-.9.47-.62.05-.04.11-.05.17-.02,0,.13,0,.26-.02.35.07-.22.1-.48.23-.39l-.05,1.04.22-1.16c.17.1.37-.81.39-.16l-.08.28,1.28-1.04.13.67c-.03-1.06.79-.37.51-1.46.38.36.82-1.34,1.02-.01.45-.39.71-.99.97-1.51.27-.54.56-1,1.21-1.28.85.45,1.8-.92,2.51-1.5.44-.99.66-1.69,1.18-2.63,1.35.47.78-1.41,1.77-1.36l-.23-.49c.89.26.66-.92,1.66-.8-.05-.27-.04-.37-.03-.41-.04,0-.14-.04-.37-.25.29.04.34-.42.78.06l.02.08c.44.48.17-.59.7-.34l-.57-.41.32-.16.03.16c-.05-2.12,1.97-1.03,1.94-3,.41.66-.09-.47.51.1.98.49.29-.61.3-1.01-.03-.03-.06-.06-.09-.12l.42-.28c.53.95-.36-.87.08-.04,1.47-.36,2.1-2.12,3.41-2.92l-.24-.14c.3-.23.41-.8.92-.7.51.1-.04-.93.01-1.04-.1-.55.75-.1.62-.04.15-.33-.3-1.23.32-1.27.74.51.29-1.52,1-.82l-.06-.06c.92.07.48-1.17,1.38-1.18,0,0,.04.06.08.12l-1.21-3.07-2.62-2.09-2.72-1.11-1.77,2.6-2.49,1-3.99,4.5.23.83c-1.76-.1-1.76,2.04-3.33,2.28l.44.48c-.23.28-.49-.02-.64-.04-1.13,1.23-2.14,2.6-3.22,3.86-.54.63-1.09,1.23-1.67,1.77l-.45.39c-.07.05-.09.04-.14.05-.09,0-.18,0-.27-.06-.24-.36-.2-.05-.37-.52.23.89,0,1.11-.09,1.09v-.1s-.02.1-.02.1l-.03.07c0-.08,0-.18,0-.25-.09.72-.18-.17-.14-.46l.02-.08c-.05-.1-.12-.09-.24-.09-.07-.01-.1.03-.23-.04l-1.05-.84c-1.38-1.14-2.69-2.34-3.67-3.95-.46-1.95-2.89-2.33-3.66-4.33.2-.71-2.94-3.17-3.4-3.2Z" fill="#9d4693"/>
      <path d="M207.83,311.8h.01c.19-.18.1-.13-.01,0Z" fill="#1d1d1d"/>
      <polygon points="208.35 322.85 208.33 322.83 208.13 323.17 208.35 322.85" fill="#1d1d1d"/>
      <path d="M204.48,319.31c.11.23.16.19.21.09-.05-.07-.12-.11-.21-.09Z" fill="#1d1d1d"/>
      <path d="M206.11,310.81c-.07-.1-.15.05-.23.23.11.07.19.12.19.12,0-.09.05-.25.04-.34Z" fill="#1d1d1d"/>
      <path d="M203.85,313.78l-.18.13c.09.01.14-.05.18-.13Z" fill="#1d1d1d"/>
    </g>
  </g>
</svg>