<?xml version="1.0" encoding="UTF-8"?>
<svg id="uuid-14cdfe00-c09b-420d-ba4c-2391d5bfa982" xmlns="http://www.w3.org/2000/svg" version="1.1" viewBox="0 0 369.4 369.4">
  <!-- Generator: Adobe Illustrator 29.4.0, SVG Export Plug-In . SVG Version: 2.1.0 Build 152)  -->
  <defs>
    <style>
      .st0 {
        fill: #ed7838;
      }

      .st1 {
        fill: #a85b9f;
      }

      .st2 {
        fill: #fabd2f;
      }

      .st3 {
        fill: #75b646;
      }
    </style>
  </defs>
  <g>
    <path class="st1" d="M236,301.3c0-.2,0-.3,0,0h0Z"/>
    <path class="st1" d="M130.1,315h0c-.3,0-.5,0-.7.2h.8v-.2Z"/>
    <path class="st1" d="M127.1,306h0c-.2,0-.3,0,0,0Z"/>
    <path class="st1" d="M185.7,315.5h.4-.4Z"/>
    <path class="st1" d="M204.5,275.2h0v-.2h0v.2Z"/>
    <path class="st1" d="M204.8,275.6c0,.5-.2,0-.2-.3-.2.5-.2.9,0,1.4.2,0,.2-.9.4-1.1h0Z"/>
    <path class="st1" d="M203.8,211.5v.2-.2Z"/>
    <path class="st1" d="M183.8,305.2h.3-.3Z"/>
    <path class="st1" d="M203.6,221.5h.4-.4Z"/>
    <path class="st1" d="M129.3,315.1h-.3.3Z"/>
    <path class="st1" d="M139,300h1.3-1.3Z"/>
    <path class="st1" d="M167.3,219.1h0l.3.4c0-.2,0-.4,0-.4h0Z"/>
    <path class="st1" d="M163.1,283.8h0c0,.2-.2.5-.2,1s-.2,1-.3,1.5l.4.2c0-.8.2-1.7.2-2.6h0Z"/>
    <path class="st1" d="M172.9,257.5l-.8,2.6c-.4-8.3.5-12.2-.2-19.3l.2.4c.2-1-1.6-1.6.6-13h0c0-.4-.2-.4,0-1.2l-.5,2c-.2-1.2-.6-2.3-.6-3.8,0-.4.3-.5.4-.5v-3.9c0,0,.5-1.2.5-1.2-.3-1.2-1.4-.6-.8-3.8-.8,1.2-.5-1.5-.8-1.2,0-.2.3-.5.4-.8,0-1.9-.3-5.4-.7-6.3,0,0-1.6,7.3-2.5,9.3.2-2.6,0-.7-.4-.2l.2.2c-.2,1.6-.7,1.6-.8,2.4h.2c0-.2.2,0,.2,0,0,0,.2,0,.2.5h0v2.3h-.5c.8,1.2-1.2,8-1.3,9.5-.5,1.6,0,3.5-.2,5.5-.2,3.2-.6,1.5-1,3.2-.3,2,.5-.4.5.4l-.5,2.4c0-1.4-.3-.6-.5-.4,0,2.1-.8,5.3,0,5.9-.4,2.8-.7,2.8-.8,4,.2-.4.3-1.2.5-1.2-.4,1.1,0,.5.2,0,.4,1.7-1.5,8.8-.6,9.1h-.2c.6.4,1.4-.3,1.7.9l-.3.8.3,1.2c-.2.8-.4.4-.5.4.3,1.9,0,4.6-.2,7l1.8-2.4c-.5,2-1.3,5.5-.7,6l-.6,1.2c-1.2,4,.5,2.8.2,4.3-.2.6-.5,1.4-.7,1.9v-1.9c-.2,1-.4,1.6-.5,2.3-.2.6-.4,1.1-.6,1.8h0c0,0,0-.2,0-.2v.3c.3.3.5,1.2.2,2.4,0,.5-.2.8-.3,1.3,0,.4,0,.8-.3,1.3s-.3.9-.5,1.4-.5,1-1,1.4c0,.3.2.6.3.9-.5.5-1,1-1.4,1.4l-.5-.4c.5-.7,1.3-1.9,1.8-3.3.3-.6.5-1.4.7-2.1.2-.7.4-1.4.5-2.1h-.3c0,.3-.2.6-.2,1.1s0,.8-.2,1.1c-.2.7-.4,1.4-.5,1.8-.2.2-.5.5-.7.6s-.5,0-.5-.4v1c-.2.3-.3.5-.4.7-.2.2-.3.4-.4.5,0,.2-.3.4-.4.5,0,.2-.3.3-.4.5-.5.5-.9.9-1.4,1.3-.2.2-.5.4-.7.5h-.2c0,.2-.3.4-.5.5-.4.2-.6.4-1.1.5-.8.4-1.7.7-2.8,1.2-.6.2-1.4.4-2.2.5-.8.2-1.6.4-2.6.6.6,0,1.1,0,1.6-.2-.3,0-.6.2-.9.3-.4,0-.9.2-1.3.3-.9.2-1.7.3-2.4.5-1.5.3-2.9.4-4.3.4-1.9.3-3.7.5-5.6.7l-1.4.2c-.5,0-1.2,0-1,.2l-.4.5c-.3.4-.5.7-.7,1.1-.3.3-.5.5-.7.7-1,.8-2.2,1.3-3.3,1.5h1.7c-.2.2-.9.3-1.3.3s-.5,0,.5,0,.2,0,.3.2c-.4,0,.2.2-.8.3h-.2,0c-1,.2.9,0-.4.2-.4,0-.2,0,0,0h.2v.8l-.9,1.6c-.2,1.4,0,2.2,0,3.1h0c.6.2,1.4.4,2.5.8.5.5-.4,1.2-1.8,1.2h1.4c.3,0,.5,0,1.3.3-.5.3-.7.3-1.4.4,0,.8,1,.2,1.6.5,1.4-.4,3.7-1,4.1-.9v-.3c1.6,0,3.2.2,3.5.8l-.8.3h2.9l-.7.4h4.6c0,0-.4-.3-.4-.3,1.1,0,4.5-.2,6.2,0l-.4.3c2.3.4,5,.3,7.7.2,1.4,0,2.7-.2,4.1-.3.7,0,1.4,0,2.1,0h1.4l-.5.5c1.3.5.4-.7,1.9-.5v.5c1.4-.7,1.8.2,2.7.5l-.5-.7,1.7.2c1.9.3,1.2,1,.9,1.4l1.3-.6.3.6c1-.8,1,0,2.6-.3.2.3-.3.4.3.5l2.7-1-1.6.5.2-1c1.7-.7,2.4,0,3.6-.2l-.8.3c2-.3,2.2.2,3.3.4-.4-.2-.9-.5,0-.5.6,0,.4.4.9.5.2-.6,1.6-1,2.9-.7,0,0,0,.2,0,.3.4,0,.5-.3,1.1,0l-.4.7,1.1-.7c.7.2,1.8-.4,1.7.2l-.5.2,5.7.2v.5c.6-.8,3.2.3,3-.7,1.1.5,4.3-.4,3.6.7.9,0,1.7,0,2.5,0,1.4,0,2.6-.2,4-.3,2.7-.2,5.4-.4,9.8,0,2,.5,5.2.6,8.4.7h5c1.4,0,3.7,0,3.5-.2.8-1.1,1.6-1.9,2.4-2.6.5-.4.9-.7,1.4-1.1s.5-.4.9-.5c.2,0,.4-.2.5-.3l.3-.2h0v-.2c.4-.9.5-2.1.5-3.3v-2.4h-.4c-.4,0-.7,0-1.1-.2-.3,0-.5,0-.3,0h-1.4c.6-.2.3-.3-.3-.6s-.5-.4-.6-.8v-.6c0-.4.3-.6.6-1-.5-.3-.9-.5-1.2-.8-.3-.3-.4-.5-.5-.5,0,.2-.5.5-1.7.6.2-.4.2-.8,0-1.4-1.1,0-2.3-.2-3.3-.4-.9,0-1.7-.2-2.4-.3-1.3-.2-1.9-.3-1-.5h1.4c.7,0,0,0-1.5-.3-.8,0-1.7,0-2.8-.2-.5,0-1.1,0-1.6,0-.4,0-.7,0-1.1-.2-1.4-.3-2.9-.5-4.3-.7-.4,0-.6,0-.9-.2-.2,0-.4-.2-.5-.3-.4-.2-.6-.4-.8-.5.2.4.3.6.4.9-1.1-.5-2.2-1.1-3.3-1.6.3,0,.6.2,1,.4-.3,0-.5-.2-.7-.3-.3,0-.5-.2-.6-.3-.4-.2-.8-.5-1.1-.6l-.3-.2h0l-.3-.2c-.2,0-.3-.2-.5-.3-.5-.5-1.1-.8-1.5-1.4-.2-.3-.5-.5-.6-.7s-.4-.5-.5-.7c-.4-.5-.5-1-.8-1.5-.9-2.1-1.4-4.2-2.4-7.4.5.4.3,0,.2-.4s-.2-1,.3-1.1c.5-.7.5-1.7.3-2.6s-.6-1.7-.7-2.5c0,0,0,0-.2,0v-2.8c1.2,1.7-.7-2,.2-.5.9-7.3,0-16.8.4-25.4l-.3.4c0-2.2-.3-4.8,0-6.4.5-1.6-.7-3.5-.8-4.2-.5-1.8.5-3.4.5-2.6-.2-1.9-1.2-3.7-.7-6.3.9-.9-1-7.2,0-7.3h0c.7-3.4-.5-6.6,0-10.2l.2.2-1.6-3.7c-.5-1.3-.9-2.4-1.4-3.7-1.2.6-2.4,1.4-3.6,2.1-.5,1.2-1,2.2-1.4,3.3l-1.4,3.3.7,17.5-1,13.9c.2,11.2.4,22.5.4,33.8l.7,2.4v.6c-.2.2-.2.5-.2.7,0,.5,0,1,0,1.5,0,1,0,2.2,0,3.3s.4,2.3.6,3.4c.2.5.4,1.2.5,1.7l.3.8.4.8.8,1.6.9,1.6c.3.5.6,1.1,1,1.5.4.5.7,1,1.1,1.4.8.9,1.5,1.9,2.4,2.7.5.5.8.9,1.3,1.3l.4.3h0v.2l.5-.5c.4.2,0,.4,0,.5.2,0,.4.2.5.2.6.2,1.4.3,2.4.4.5,0,1.1,0,1.6,0h.3v.4c0,.2.3.5.3.6h-2.4c-1,0-2-.2-2.8-.4-.4-.2-.5-.3-.7-.4,0,0-.2,0-.3,0h-.5c-.3,0-.5,0-.6-.2-5.5.8-11.3.8-16.8.7h.2-2.6c0,0,0,0,0-.2-2.9.6-7.5,0-11.1-.3h.2-9.9c-.5,0-.9,0-1.4.2-1.1.2-2.8.3-4.3.4h0v-.8h1.1c.8-.2,1.6-.3,2.4-.3s1.4,0,1.5,0c0,0,.2,0,.2,0h0c0,0,1-.9,1-.9,2.7-2.4,4.9-5.5,6.2-8.8,1.4-3.3,2.2-6.6,2.7-9.9,0-.3.3-1,.4-1.9,0-.5,0-1,0-1.6v-10.2c0-6.1-.3-12.1-.4-13.1l.9.3Z"/>
    <path class="st1" d="M172.1,224.7h0c.3,0,.2,0,0,0Z"/>
    <path class="st1" d="M164.1,270.8v-.2l-.4.5.4-.4Z"/>
    <path class="st1" d="M164,241.2c0,1.4,0,1.4,0,1.2v-1.2Z"/>
    <path class="st1" d="M171.6,213.8c0-.7-.2-.5-.4,0v1.2c0-.4.2-.8.3-1.2h0Z"/>
    <path class="st1" d="M167.7,216.7l-.3-.2c0,.5.2.4.3.2Z"/>
  </g>
  <g>
    <path class="st2" d="M263.1,113.1c0,.2,0,.3,0,0h0Z"/>
    <path class="st2" d="M309.8,87.6h0c0,.2.3.3.4.4l-.4-.4Z"/>
    <path class="st2" d="M308.9,108.6h0c0,0,.2,0,0,0Z"/>
    <path class="st2" d="M317.2,53.8h-.4.4Z"/>
    <path class="st2" d="M257.1,149.3h0s0,0-.2.2h.2v-.2Z"/>
    <path class="st2" d="M257,148.9c.3-.4.2.2,0,.4.4-.4.5-.8.6-1.4-.2,0-.5.8-.7,1h0Z"/>
    <path class="st2" d="M208.1,185.8h.2-.2Z"/>
    <path class="st2" d="M319.7,64h-.3.3Z"/>
    <path class="st2" d="M218.4,184.7v-.4.4Z"/>
    <path class="st2" d="M310.1,88v.2c0,0,0,0,0-.2Z"/>
    <path class="st2" d="M307.7,128.5h-.3.3Z"/>
    <path class="st2" d="M242,196.6h0c0,0,.3-.3.3-.3-.2,0-.3.2-.4.3h0Z"/>
    <path class="st2" d="M298.9,154.9h0c.3-.3.9-1.4,1.4-2.9l-.4-.3c-.4,1.1-.7,2.1-1.2,3.1h0Z"/>
    <path class="st2" d="M274.4,172.3l1.3-.5,1.2-.6c-.4.4-.7.8-1.1,1.1-.4.4-.7.6-1.1,1-.7.6-1.4,1.3-2,1.8-1.4,1.1-2.5,2-3.8,2.9-2.4,1.7-4.8,3.3-7.8,5.4l.3-.4c-.5.2-.6.8-2.1,1.8-.7.5-1.8,1.1-3.4,1.7s-3.8,1.4-6.8,2h0c-.4,0-.3.3-1.2.4.7,0,1.4-.2,2.1-.3-1.1.7-1.9,1.4-3.4,2.1-.4,0-.5,0-.6-.2-1.3.5-2.5,1-3.8,1.4h-1.4c-1.1.5-.3,1.4-3.6,1.7,1.4.5-1.4.9-1,1.2-.2,0-.6,0-.9-.2-1,.3-2.4.7-3.6,1.1s-2.4.7-2.8,1.1h10.4c-2.8.5-.7.3,0,.4v-.3c1.8-.3,2,.2,2.9,0h0c0,0,0,0,0-.2s0-.2.5-.3h0c.6-.2,1.9-.5,2.4-.6l.2.4c.3-.3.9-.5,1.8-.7.9-.3,2-.5,3.1-.6,2.3-.5,4.5-.9,5.3-1.3.9,0,1.8-.5,2.7-1.1.9-.5,1.8-1.1,2.9-1.4,3.2-1.5,1.8-.3,3.5-.9,2.1-.9-.6-.2,0-.6l2.5-.9c-1.3.8-.5.6,0,.6,1-.5,2.4-1.3,3.5-1.9,1.1-.6,2-1.3,2.1-1.8,2.7-1.5,3-1.3,4.1-2.1-.5.2-1.3.6-1.4.5,1.3-.5.5-.5,0-.2.4-.4,1-.9,1.9-1.4s.9-.5,1.4-.9,1-.6,1.4-1c1-.6,1.9-1.3,2.5-1.8.6-.5,1-1,.9-1.3h0c-.2-.6-1.1-.6-.5-1.8l.8-.5c.3-.4.5-.7.7-1.2.7-.5.6,0,.6,0,.6-.9,1.5-1.9,2.4-2.9.9-1,1.9-2.1,2.7-3.1-1.1.4-2.1.7-3.2,1.1,1.7-1.4,4.7-4.3,4.5-4.9l1.3-.8c3.3-3.2,1.2-2.9,2.4-4.3l1.6-1.6-1.1,2c1.4-1.8,2-2.5,3.2-4h0c0,0-.2.2-.2.2v-.3c0-.4.3-1.5.9-3,1-2.1,1.2-3.8,2.9-7.1l-.4-1.1,1.2-2.4.5.2c-.7,2.5-2,7.4-3.4,10.6l.2.2c.4-.9.8-2,1.1-2.9.3-1,.5-1.8.8-2.4.4-.5,1.4-2,1.4-.7l-.2-1.4c1-3.3,1.3-5,1.8-6.6.3-.8.5-1.7.7-2.8.2-.5.3-1.1.5-1.8.2-.6.4-1.4.5-2.3l-.4.5c0-1.4,0-2.8.5-3.2.3-2.1.6-4.3.9-6.2.2-1,.4-1.9.5-2.8.2-.8.4-1.6.5-2.3l-.6-.6c0-.9,1.1-2.2.2-2.6l-.3-1.9c0-1.2-.3-1.9,0-3.3h0v-.3h0c.3-2.7-.5,0-.2-3.1.5-1-.8-1.1-.6-2.5l.9-1.4c.5-2.7-.4-3.2-.5-7.1.4-1.9,1.1-2.7,1.8-1.5-.8-1.7-.5-.8-.9-3,.4-.4.5,0,.7.4.5-2-.3-1.3-.3-2.7-.6-.5-1.7-.9-1.7-1.4l-.2.5c0-.4-.2-.8-.2-1.2s0-.8,0-1.2c0-.7,0-1.4.4-2.3h.4c0-.5,0-1,.2-1.4h.5c0-.7.4-1.4.5-2.1,0,0-.2.2-.2.3,0-.3.3-.8.5-1.4.3-.5.6-1.1,1-1.4l.2.2c1.1-.9,1.7-1.7,2.6-2.7.9-.9,1.9-1.9,3.3-2.6l-.2.6c1.2,0,0-.8,1.4-1.1l.3.5c.9-1.2,1.4-.3,2.4-.2l-.5-.6c.5,0,1.1,0,1.6-.2,2,0,1.4.7,1.1,1.2l.6-.5.4-.2h.2q0-.2.3-.2c.3.2.5.4.9.5,1.3-.8,1.9-1.1,2.7-1.5.5-.3.9-.5,1.4-1.1.5-.5,1.1-1.3,1.5-2.4.4-.3,0,1,.8-.6.7-2.8,0-5.8-1.6-7.8.9,1.3,1.5,2.8,1.7,4.4-.4-.2-.6-.4-1-.5-.3-1.1-.6-2-1-2.7s-.7-1.4-1.2-1.8c-.8-1.1-1.7-1.9-3.3-2.4.7.2,1.4.4,2.2.7-1.2-.7-2.2-1-3-1.2-.5,0-.8-.2-1.1-.2h-.5c-.5,0-.9-.3-1.5-.4.5.2,1.1.5,0,.5-.7,0-.4-.4-1.1-.5,0,.4-.5.5-1.2.7-.6.2-1.4.2-2.3,0,0,0,0-.2.2-.3-.4,0-.5.3-1.3.2l.4-.7c-.5.3-.8.5-1.3.8-.9,0-2.1.6-2.1,0l.5-.2-1.7.2c-.5,0-1.1.2-1.6.3-1.1.2-2.3.3-3.3.5l-.2-.5c-.5.9-3.7.6-3.2,1.5-.7,0-1.9.5-2.8.7-.9.4-1.6.6-1.5,0-1.1.4-2,.8-2.8,1.3s-1.6,1-2.4,1.4c-.8.5-1.6,1-2.5,1.5-.5.3-.9.5-1.4.8-.5.3-1.1.6-1.7.9-2.3.2-6.4,3.8-9,6.3-1.1,1.4-2.2,2.5-3.1,3.8s-.9,1.3-1.3,1.8c-.5.6-.7,1.3-1.2,1.9-.4.6-.7,1.3-1.1,1.9-.4.6-.6,1.4-1,2-.4.7-.7,1.4-1,2.1-.3.7-.6,1.4-1,2.3-1.4,1.6-2.4,4.1-3,6.7-.6,2.5-1,5.2-1.8,7.3l.3,1.3c-1.4,2.8-.9,7.3-1.8,11.3,0,.5.2.8.2,1.1v.5c0-.2.2-.5.5-.5-.3,1.1,0,3.3-.7,3.1v-.3c-.7-.2,0,3.3-.6,4.3l.8-.6-.3,2v-.5c.4,4.4-.3,7.5-.9,10.5-.7,3-1.5,5.9-1.9,10-.5-1.3,0,1.6-.9,1.5-1.6,1.6-.9,3.6-1.3,5.3v.2c-.3.9-.6,1.8-1.1,2.7-.4-2,0,2.3-.2.5-1.8,3.3-3.7,7.2-6.2,11-2.4,3.7-5.2,7.3-8.4,10h.5c-.8.7-1.7,1.5-2.5,2.3-.9.7-1.8,1.4-2.5,1.6-.8.3-1.4.9-2,1.5-.5.6-1,1.2-1.3,1.4-1.4,1.4-3.3,1.1-2.5.8-1.6,1-3,2.5-5.7,3.1-.6-.3-2.3.5-4,1.2-1.6.6-3.3,1.2-3.3.7h0c-1.8,0-3.4.5-5.2.9s-3.4.6-5.3.4l.2-.2c-2.5,1.2-5.2,2.1-8,2.9.6,1.2,1.4,2.4,2.1,3.6,2.4,1.1,4.9,2.1,7.5,2.9,7-.5,13.8-2.4,20.1-4.8,5.3-1.5,10.6-3.9,15.4-7,1.4-1,2.7-2.2,4-3.3.6-.6,1.3-1.2,1.9-1.8s1.2-1.3,1.8-1.9c2.4-2.5,4.3-5.3,6.2-8.1s3.4-5.8,4.9-8.8c1.4-3,2.6-6.1,3.7-9.1,0-1,0-1.9.2-2.9,1.9-3.4,3-7.8,3.7-12.1.7-4.4,1.2-8.9,2-12.9l-.6-.2c.2-2.3.5-2.1.7-2.6,0-1.4.2-2.6.2-4v-3.9c.2-2.4.3-4.8.6-7.2.5-4.7,1.7-9.3,3.4-13.6,1.7-4.3,4-8.1,6.8-11.5,2.8-3.3,6.2-6,9.8-8,.4-.2.9-.4,1.5-.6s1.3-.7,2-1c1.4-.6,2.8-1.3,3.5-1.2,4.6-2.8,10.4-4.2,15.8-4.3h-.2c.8,0,1.7,0,2.5-.2,0,0,0,.2,0,.2.7-.2,1.5-.2,2.4-.3h.4v-2h0l-.4-2.4h-.9c-.7.2-1.5.4-2.4.5-.8.2-1.6.4-2.5.6s-1.6.5-2.5.9c-3.3,1.4-6.4,3.3-8.9,6.1-2.5,2.6-4.3,6-5.3,9.3-.5,1.7-.9,3.4-1,5.2,0,.8,0,1.7-.2,2.5v2.2c0,11.1.5,22.1-.5,33-.8,5-1.3,10.3-2.4,15.7-1.1,5.3-2.7,10.9-5.5,15.7-.7.8-3.4,6.2-7,11.1-3.5,5-7.9,9.3-8.5,10l-.8-1Z"/>
    <path class="st2" d="M246.1,190.2h0c0-.3-.2-.2,0,0Z"/>
    <polygon class="st2" points="290.3 167.5 290.3 167.6 291 167.4 290.3 167.5"/>
    <path class="st2" d="M265.7,189.7c1.4-.7,1.4-.8,1.1-.8-.5.3-.9.5-1.1.8Z"/>
    <path class="st2" d="M235.4,194.1c-.7.2-.4.3,0,.4.7-.2,1.2-.4,1.2-.4h-1.3,0Z"/>
    <path class="st2" d="M239.3,197l-.2.3c.5-.2.4-.3.2-.3Z"/>
  </g>
  <g>
    <path class="st3" d="M129.4,68.1s.2,0,0,0h0Z"/>
    <path class="st3" d="M229.8,74.1h-.8c-.2,0-.2,0-.3.2,0,0-.2,0-.3.2l.5-.2c.2,0,.5,0,.8-.2Z"/>
    <path class="st3" d="M206,89.5v.2s.2,0,0-.2Z"/>
    <path class="st3" d="M209.9,57.3h-.7.7Z"/>
    <path class="st3" d="M162.5,100.2h0c0,0,0,0,0,.2v-.2Z"/>
    <path class="st3" d="M162.2,99.6c0-.5.2.2.2.4.2-.5.2-1.2,0-1.8-.2,0-.2,1.1-.4,1.4h0Z"/>
    <path class="st3" d="M163.3,180.1v-.3.3Z"/>
    <path class="st3" d="M205,67.6h0,0Z"/>
    <path class="st3" d="M163.5,167.5l-.4-.2c.2,0,.3.2.4.2Z"/>
    <path class="st3" d="M228.5,74.5l-.5.2c.2,0,.4,0,.5-.2Z"/>
    <path class="st3" d="M205.1,111.6c0,0-.2,0-.3,0h0l.3-.2h0Z"/>
    <path class="st3" d="M199.7,223.6h0l-.3-.5c0,.3,0,.4,0,.5h0Z"/>
    <path class="st3" d="M203.5,142s0,0,0,0c0-.5,0-1.9,0-3.6h-.5c0,0,.2,3.5.2,3.5h0Z"/>
    <path class="st3" d="M194,175.4l.8-3.3c.4,10.4-.5,15.3.3,24.3l-.2-.5c-.2,1.3,1.6,2-.6,16.4h0c0,.5.2.5,0,1.4l.5-2.4c.2,1.4.6,2.8.6,4.8,0,.5-.3.5-.4.6l.2,4.9-.5,1.4c.3,1.4,1.4.8.8,4.8.8-1.5.5,2,.9,1.4,0,.2-.3.6-.4,1,0,2.4.3,6.8.7,7.9,0,0,1.6-9.2,2.4-11.8-.2,3.3,0,.9.4.2l-.2-.2c.2-2,.7-2,.8-3h-.2c0,.2-.2.2-.2,0,0,0-.2,0-.2-.6h0v-2.8h.5c-.8-1.4,1.2-10,1.2-12,.5-2,0-4.4,0-7,0-4,.6-2,1-4,.3-2.4-.5.5-.5-.5l.5-3c0,1.7.3.8.5.5,0-2.5.8-6.6,0-7.4.4-3.4.7-3.5.7-5-.2.5-.3,1.4-.5,1.5.4-1.4,0-.6-.2,0-.4-2.1,1.4-11,.5-11.5h.2c-.6-.5-1.4.3-1.7-1.2l.3-1-.3-1.4c.2-1,.4-.5.5-.5-.3-2.4,0-5.8.2-8.8l-1.8,3.1c.5-2.4,1.3-7,.7-7.4l.6-1.4c1.2-5-.5-3.4-.2-5.4l.6-2.5v2.4c.4-2.4.5-3.4,1-5.4h0q0,.2,0,.3v-.4c-.4-.3-.5-1.6-.5-3.3,0-2.4-.4-4.4.4-8.4l-.7-1,.5-3h.5c0,2.9.2,8.4.2,12.2h.3c0-2.2-.3-4.7-.2-6.2,0-.7.7-2.5,1.1-1.2l-.5-1.4c0-7.4,0-7.5.6-15.2l-.3.6c-.2-1.5-.3-3.1.2-3.4.2-4.6.5-9.4,1.4-12.4l-.6-.6c0-1,1.1-2.4.2-2.9l-.2-2.1c0-1.4-.2-2.2.2-3.6h0v-.3h0c0-.4,0-.6,0-.8v-.4q0-.2-.2-.2s0,0,0-.3v-.5c0-.2,0-.5.2-.8.5-.8-.6-1.2-.2-2.4.5-.4.9-.6,1.3-1,.4-.5.5-.9.7-1.3s.3-.7.5-1.1c.2-.4.3-.7.5-1.3.3-.5.6-1,1.3-1.5.2,0,.4-.2.5-.3.2,0,.4,0,.5-.2h.5s.5-.2.6-.2c.4,0,.6,0,.6.2s0,.3-.2.5c0,0,0,0,0,.2v.2h-.2v.3h0c0-.2.2-.3.2-.4,0-.2.3-.3.4-.4.2-.3.5-.4.6-.5.4-.3.5-.5.7-.6.3-.2.5-.4,1-.6.4-.4,1.4-.6,3-1.1,1.4,0,.9.2-.3.7,1.7-.3,2.8-.5,3.5-.7,1.1,0,1.8-.2,2.4-.3s.9-.2,1.6-.3c.4,0,.8,0,1.4-.2.3,0,.6,0,1,0h1.4c.5-.2.6-.5.8-.7-.5-.5-.9-1-.2-1.3l-2.4.4c.5-.2.8-.4,1.3-.5l.4-.2h0c0,0,.2-.4.2-.4.3-.4.7-.7,1.2-1,.5-.5,1.5-1,2.5-1.3h1.1c.2-.2.4-.4.5-.5h1.4c.3-.3.5-.4.8-.5h-.5c0,0,.8-.2,1.8-.3h.5c.7,0,1.1,0,1.4-.2.2,0,.3,0,.4,0,0,0,.3-.4.4-.7.3-.7.4-1.8,0-3-.3-1.2-.9-2.4-1.5-2.8.3,0,.5,0,.8.3,0-.5-.4-.5-.7-.5s-.7,0-1-.2l.7-.2c-.9,0-1.1,0-1.1-.3s.4-.4.5-.6l-1.1.5c-.3-.2-.5-.4-.8-.5-.8-.7,1.3-1,2.3-1.1-.6,0-1.4,0-2.2,0l1.4-.5c-1.2,0-1.4,0-1.4-.3,0,0,0-.2-.4-.4-.3,0-.5-.3-1.4-.3.5-.3,1.3-.3.9-.5h-3.4c-1.4,0-2.8.3-4.2.5l2.4-.2h1.2c0,0,1.1-.2,1.1-.2l-2.7,1c-2.6.4-3.8.4-4.7.3-.9,0-1.7-.3-3.3,0l2.4-.3c-4.8.3-4.3-.2-6.7-.4.6.2,1.4.5-.5.5-1.4,0-.3-.4-1.4-.5-.5.4-1.5.5-2.8.7-1.3,0-2.6.2-4,0,0,0,.2-.2.4-.3-.8,0-1.2.3-2.4,0,.3-.3.6-.5,1-.7-.9.3-1.8.5-2.6.7h-1.9c-.5,0-.7,0-.7-.2l.5-.2-7.2-.2v-.5c-.8.8-4-.3-3.7.7-1.4-.5-5.3.4-4.5-.7-4.7,0-7.2,1-12.9.5-2-1-7.6-.6-11.2-.7-6.2.2-11.4.4-16.7.5-2.5,0-5.1.2-7.8.3-1.3,0-2.8,0-3.7.3-.9.2-1.7.5-2.4.8-3.3,0-4.2,1.2-4.9,1.9-.2.2-.4.4-.5.5-.2.2-.4.3-.6.6-.6.7-1.3,2.4-1.4,3.6.2.5.4,1,.6,1.4,0,.8.2,1.5.4,1.8,0,.2.2,0,.4,0h.4c.5,0,1.4-.2.6,0,.9,0,1.3.3,1.4.3h1.2v.2h.2c0,0,0,.2.2.3.2.3,0,.5-1.1.5h-.4c-.5,0-.7,0-.6,0,.2.2.5.5,1,.8.3.2.5.5.9.6.4.3.6.5.9.7,0,0,.3.3.4.4,0,0,0,0,.2.2,0,0,.3,0,.4.2.5.3.8.5.9.7.3-.4.5-.7.8-1.1l2.4,1.2,1.2.5c.8,0,1.9,0,2.8.2h-3.3,5.1c1.6,0,3.3,0,4.8,0,1.6.3,3.1.6,4.5.9,1.1.5,2,.8,2.9,1.3.5.2.8.5,1.2.7.2.2.5.4.6.5,1.3,1,2.1,2.2,2.8,3.4s1.2,2.5,1.6,4.1c.5,1.4,1,3.3,1.5,5.3-.9-1.1.5,1.7-.3,1.9-1,2.3.4,4.3.6,6.2,0,0,0,0,.2.2v3.5c-1.2-2.1.8,2.5,0,.6-.8,9.1,0,21.1-.3,31.7l.3-.5c0,2.7.3,6.1-.2,8.1-.5,2.1.7,4.4.8,5.3.5,2.3-.5,4.3-.5,3.3.2,2.4,1.2,4.6.7,8-.9,1.2.9,9.1,0,9.1h0c-.7,4.3.5,8.3,0,12.9l-.2-.3,1.6,4.6.7,2.3c.2.7.4,1.5.5,2.4,1.3-.8,2.5-1.4,3.7-2.4l.2-.6.2-.5.4-1,.7-2,1.4-4.1-.6-21.9,1.1-17.5-.5-42.6-.8-3.2c.3-2.3.3-4.7,0-7.4,0-.6-.2-1.4-.4-2.1s-.4-1.4-.5-2.1c-.2-.7-.5-1.4-.7-2.1-.3-.7-.5-1.4-.9-2.1-1.4-2.8-3.3-5.3-5.5-7.4-.3-.3-.5-.5-.8-.8l-.6-.5s0,0-.2-.2c0,0,0-.2,0-.3l-.9.2c-.5-.2.2-.3.4-.3-.7-.2-1.7-.2-3.1-.2s-.6-.3-.7-.5,0-.5,0-.5c.3,0,.7,0,1.2,0,.9,0,2.1,0,3.3,0h5.7c2.7,0,5.4.2,8.1.3,2.1.5,8.2.2,9.9.6,3.4-.5,7-.6,10.6-.7h8.3c0,0,.6,0,.6,0h-.2c.5-.3,1.1-.3,1.4-.2s0,.3,0,.5h-.3,1c.2,0,.5,0,.5.3,0,.2,0,.3,0,.3-.3,0-.8,0-1.7.4-.2,0-.4.2-.6.4h-.2c0,0-.5.5-.5.5-.8.6-1.4,1.4-2.2,2.1-2.7,2.9-4.7,6.6-5.7,10.3-.2.9-.5,1.9-.6,2.8l-.3,1.4c0,.5,0,.9-.2,1.4,0,.5,0,1,0,1.4v1.2l-.2,2.4c-.2,3.2-.4,6.3-.5,9.6-.7,6.1-.6,12.7-.5,19.5,0,6.8.3,13.7-.2,20.6-.6,2.5-.2,30.6.2,33.1l-.6-.3Z"/>
    <path class="st3" d="M195,216.6h0c-.3,0-.2,0,0,0Z"/>
    <path class="st3" d="M202.7,158.8v.2l.4-.7-.4.5Z"/>
    <path class="st3" d="M203,195.8c0-1.6,0-1.7,0-1.5,0,.6,0,1.1,0,1.5Z"/>
    <path class="st3" d="M195.5,230.3c0,.9.2.5.4,0v-1.5c0,.5-.2,1-.3,1.4h0Z"/>
    <path class="st3" d="M199.4,226.7l.3.3c0-.5-.2-.5-.3-.3Z"/>
  </g>
  <g>
    <path class="st0" d="M63.5,147.1c0,.2,0,.3,0,0h0Z"/>
    <path class="st0" d="M85.3,66.2h0c.2,0,.4,0,.5,0h-.5Z"/>
    <path class="st0" d="M99.1,87.3v.2s.2,0,0-.2Z"/>
    <path class="st0" d="M45.4,70.3h.4-.4Z"/>
    <path class="st0" d="M88.8,182.6h0s0,.2.2.2v-.2h-.2Z"/>
    <path class="st0" d="M88.4,182.5c-.4-.5.3,0,.5,0-.4-.5-.8-.9-1.3-1.2-.2.2.7.9.8,1.2Z"/>
    <path class="st0" d="M161.6,206.9h-.3.3Z"/>
    <path class="st0" d="M45.2,59.8h.4-.4Z"/>
    <path class="st0" d="M149.6,205.6l-.2.3c0,0,.2-.2.2-.3Z"/>
    <path class="st0" d="M85.8,66.3h.2-.2Z"/>
    <path class="st0" d="M103.6,109.2c0,0-.2,0-.3.2h0l.3-.2Z"/>
    <path class="st0" d="M152.9,189.4v-.2l-.5.2h.5Z"/>
    <path class="st0" d="M105.5,137.6h0c0-.5-.2-1.7-.5-3.3h-.5c.3,1.1.5,2.2.8,3.3h0Z"/>
    <path class="st0" d="M109.8,170.5l-1.3-3.2c3.2,4.3,5.7,7.2,8.2,10,2.5,2.7,5.3,5.2,9.3,7.4h-.5c.5.3,1.2.3,3.2,1.3,1,.5,2.4,1.3,4.3,2.3,1.9,1.1,4.4,2.4,7.9,4.1h0c.5.2.5,0,1.4.5-.8-.4-1.5-.8-2.4-1.2,1.5.3,2.9.3,4.9.6.4.2.5.4.5.5,1.6.3,3.3.5,4.9.7.5.3.9.5,1.4.7.7,0,1-.4,1.5-.5.5-.2,1.4-.2,3.3.3-1.4-.9,2-.4,1.5-.8.2,0,.6.3,1,.5,2.4,0,6.7-.3,7.8-.7,0,0-2.3-.4-4.8-.8-2.5-.5-5.3-1.3-6.5-1.8,3.2.5.8,0,.3-.4l-.2.2c-1.9-.4-1.8-.8-2.7-1.1v.2h0v.2c0,0,0,.2-.6,0h0c-.8,0-2.2-.4-2.7-.5v-.4c-.7.3-3-.5-5.3-1.4s-4.3-2.3-5.2-2.5c-1.5-1.1-3.9-1.4-5.8-2.7-3.2-1.9-1.3-1.4-2.6-2.6-1.7-1.4,0,.6-.6.2-.6-.6-1.3-1.4-1.9-2,1.3.9.7.2.6,0-1.9-1.4-4.1-4.3-5.1-4.3-1-1.3-1.4-1.9-1.7-2.4-.3-.5-.5-.8-.9-1.4.2.5.7,1.2.5,1.3-.5-1.2-.5-.4-.2,0-.7-.6-2.2-2.6-3.3-4.6-.6-1-1.1-2-1.5-2.6-.5-.7-.8-1.1-1.1-1.1h.2c-.8,0-.9.9-2,0l-.3-.9-1-1c-.3-.9,0-.6.2-.6-1.4-1.8-2.5-4.7-3.4-7.2l-.3,1.7-.2,1.7c-.7-2.3-1.4-6.4-2.1-6.6v-1.5c-.2-4.7-1.4-2.9-1.5-4.8v-2.4c.2.7.4,1.4.6,2.2-.3-2.3-.3-3.3-.3-5.1h0v.3-.3c-.5-.2-.9-1.4-1.3-2.9-.4-2.3-1.1-4-.9-7.7l-.8-.8v-2.8h.6c.2,2.7,1.1,7.7,1.7,11h.3c-.4-2-1-4.3-1.1-5.6,0-.6.4-2.4.9-1.3l-.7-1.2c-.5-3.3-.5-5.1-.6-6.9v-7.3l-.2.6c-.3-1.4-.5-2.9-.2-3.3-.3-4.5-.6-9.3-.6-12.5l-.7-.5c-.2-1,.5-2.7-.6-2.9-.3-.6-.5-1.4-.8-2-.4-1.4-1-2-1.2-3.6h0v-.3h0c-.9-3.1-.5.3-1.5-3.3,0-1.3-1.4-.8-2-2.4v-2c-.6-1.5-1.3-2.3-2-3.1-.7-.8-1.8-1.7-3.2-3.5-1.2-1.9-1.4-3.3,0-2.5-1-.5-1.3-.5-1.5-.7-.2,0-.3-.2-.5-.4-.3-.2-.5-.5-1.2-.9,0-.5.2-.4.9-.2-1.5-2-1.4-.8-2.7-2.1-.8,0-1.9.5-2.4.3l.5.5c-1.7-.9-3.3-2-5.1-3.4l.3-.3c-.7-.4-1.4-.7-2.1-1.1v-.5l-2.9-1.4.4.4c-.7-.4-3.1-1.3-4.3-2.1l.2-.2c-1.8-1.1-3.5-1.7-5.5-2.1-1.9-.5-4-.6-6.3-1.1.3,0,.5-.3.7-.4-1.5-.7-.5.6-2.4,0v-.6c-1.8.5-2.2-.5-3.3-.9l.5.8-2.2-.4c-2.4-.4-1.4-1-1.1-1.4l-1.7.5-.4-.7c-1.3.7-1.3,0-3.5.4-.2-.3.4-.5-.4-.5h-.2l-.5.2c-.4,0-.7.2-1.1.4-.7.3-1.4.6-2,1-1.2.8-2.2,1.9-2.8,3.2.8-1.4,2.1-2.7,3.7-3.5,0,.4,0,.7-.2,1.2-1,.7-1.7,1.4-2.3,2.1s-1,1.3-1.3,2c-.6,1.3-1.1,2.6-.6,4.3-.2-.8-.3-1.5-.3-2.4-.2,1.4,0,2.5.3,3.4s.5,1.4.8,2.1c.3.5.5,1,.9,1.5.4.5.8,1,1.5,1.5-.5-.4-.8-.9-.9-1.1,0-.3,0,0,1.1.5.7.5.9.6,1.1.8s.3.5,1.1.7c0,0,.5-.2,1-.2s.5,0,.9,0h1c.4,0,.6.2,1,.3,0,0,0,.2-.2.2.4,0,.5-.2,1.1.2l-.5.6,1.3-.4c.6.4,1.8.3,1.5.7h-.5c1.7.6,3.2,1.5,4.4,2.5l-.3.5c.2,0,.5,0,.6.2s.5.4.5.6c.4.5.6.8,1,.5,0,.3.2.5.5.8.2.3.5.6.6.9.4.6.5,1.2,0,1.1.6,1.4,1.2,2.5,1.6,3.9.3.6.4,1.4.5,2.3v3.3c-1,1.9-.6,7.2-.8,10.6.4,6.8.7,11.2,1.3,18.2-.3,1.1-.4,2.3-.4,3.5s.2,2.6.4,4c.3,1.4.5,2.7.6,4.1s.4,2.6.4,3.8l.7,1.2c-.2,1.6.3,3.5.8,5.6.3,1,.5,2.1.8,3.2.3,1.1.5,2.2.6,3.3.5,1,.8,1.4.9,1.7,0-.2,0-.5.3-.7.2,1.3,1.3,3.5.6,3.6l-.2-.3c-.4,0,0,.9.6,2,.3.5.5,1.1.7,1.6.3.5.5,1,.5,1.4l.4-1,.9,2.3-.4-.5c3,4.3,4.8,7.6,6.6,10.8,2,3.1,4.1,6.2,7.9,9.2-1.4-.4,1.6,1.1,1.1,1.7.9,2.5,3.4,3,5.1,4.1h.2c.8.8,1.7,1.5,2.6,2.3-2.3-.5,2.5.9.5.4,3.3,3.2,7.7,6.2,12.5,8.7,4.8,2.5,10,4.7,14.8,6.6l-.4-.5c.6.3,1.3.5,2,.7.6.2,1.4.4,2,.6,1.4.5,2.5.8,3.4,1.4.9.5,2,.6,3,.6s1.8,0,2.2,0c2.2,0,3.9,1.4,3,1.2,1.2.2,2.3.2,3.5.2s2.6.2,4.2.6c.5.5,2.6.7,4.7.8,2.1,0,4,.2,4,.6h0c4,1.2,8,.2,12.1,1.3h-.3c0,0,5.2-1.3,5.2-1.3l-1.6-1.8,1.4,3.7,3.4-2.5.5-1.3.6-1.6-3.7-1.7-6.2-3c-3.4-.2-6.8-.4-10.1-.7-1.6-.2-3.3-.4-5-.5-1.6-.2-3.3-.5-5-.7-5.2-1.4-10.2-3-15.1-4.9-6.1-1.8-12-4.2-17.5-7.1-5.5-2.9-10.7-6.4-15.3-10.6-.8-.4-1.7-.8-2.5-1.3-2.2-3.1-5-6.1-7.6-9.4s-4.9-7-6.2-10.8l-.6.2c-1-2-.5-2.1-.6-2.6-4.2-9.4-6.3-19.9-6.9-30.5-.6-10.8-.4-21.5,0-31.6,0-.5.2-1.4.2-2.4s0-2.2-.3-3.3c0-.5-.2-1.2-.3-1.7,0-.5-.3-1.1-.4-1.5-.2-1-.5-1.8-.5-2.3-.9-1.9-2.1-3.8-3.4-5.5-1.4-1.7-3.1-3.3-4.8-4.6-3.5-2.5-7.5-4.2-11.2-5h.3c-1.2-.2-2.4-.5-3.3-.5,0,0,0-.2,0-.2h-.2l-.4,2.1h0c0,.7.2,1.4.2,2.2h2.5-.2c2.7.2,5.4.3,8.1.8,1.4.2,2.6.5,4,.8.6.2,1.3.4,2,.5.6.2,1.3.4,1.9.5,5.1,1.7,9.9,4.2,14,7.4s7.6,7.3,10,12c2.5,4.6,4,10,4.7,15.6.4,5.3.8,11.2,1.4,17.7.4,3.3.7,6.6,1.2,10s1,6.8,1.5,10.2c0,1.3,1.5,8.9,4.8,16.1.7,1.8,1.7,3.5,2.5,5.3.9,1.6,1.8,3.2,2.7,4.4s.8,1.3,1.2,1.8.7,1,1.1,1.4c.6.8,1.1,1.4,1.4,1.6l-.7-.2Z"/>
    <path class="st0" d="M145.4,192.9h0c0,.3,0,.2,0,0Z"/>
    <path class="st0" d="M109.3,152.2v.2-.7c0,0,0,.5,0,.5Z"/>
    <path class="st0" d="M130,178c-1.2-.9-1.3-.9-1.2-.7.5.4.8.5,1.2.7Z"/>
    <path class="st0" d="M159.1,194c.9,0,.5,0,0-.4h-1.5c.5,0,1,.3,1.4.4h0Z"/>
    <path class="st0" d="M155.8,190l.3-.2c-.5,0-.5,0-.3.2Z"/>
  </g>
</svg>