<?xml version="1.0" encoding="UTF-8"?>
<svg id="uuid-9f6b0d86-4209-4b58-a796-7833820c1cee" data-name="Capa 1" xmlns="http://www.w3.org/2000/svg" xmlns:xlink="http://www.w3.org/1999/xlink" viewBox="0 0 369.41 369.41">
  <defs>
    <clipPath id="uuid-8dd01c6e-a424-44fc-aecf-3b280eaea212">
      <rect x="-1589.91" y="611.22" width="423.13" height="376.13" fill="none"/>
    </clipPath>
  </defs>
  <g clip-path="url(#uuid-8dd01c6e-a424-44fc-aecf-3b280eaea212)">
    <g id="uuid-71cb55b7-4257-4ad8-8521-7ef768cf3341" data-name="3Shu6D">
      <image id="uuid-b980c14a-1eac-4cb8-b828-71629b1d39e7" data-name="3Shu6D" width="1280" height="1600" transform="translate(-2929.62 -3940.58) scale(5.09)" xlink:href="talleres-1.png"/>
    </g>
  </g>
  <g>
    <g>
      <path d="M114.17,153.27c0-.08-.05-.1,0,0h0Z" fill="#1d1d1d"/>
      <path d="M81.35,187.52s-.03,0-.06,0c-.07.12-.14.22-.19.29l.25-.28Z" fill="#1d1d1d"/>
      <path d="M73.23,183.23s-.02-.04-.03-.06c-.04.07-.09.13.03.06Z" fill="#1d1d1d"/>
      <path d="M101.49,183.4c.07-.03.09-.08.09-.14-.02.05-.05.09-.09.14Z" fill="#1d1d1d"/>
      <path d="M105.09,140.02s.02,0,.04.02c0-.04-.02-.07-.02-.12l-.02.1Z" fill="#1d1d1d"/>
      <path d="M105.37,139.97c.09.2-.16.1-.24.07.05.27.2.42.42.5.13-.15-.2-.39-.18-.57Z" fill="#1d1d1d"/>
      <path d="M77.9,136.23l.05-.11s-.04.07-.05.11Z" fill="#1d1d1d"/>
      <path d="M96.02,175.16s.04-.05.05-.08c-.04.01-.05.05-.05.08Z" fill="#1d1d1d"/>
      <path d="M82.23,135.03l-.02-.32c-.01.14,0,.24.02.32Z" fill="#1d1d1d"/>
      <path d="M81.1,187.8l-.1.11s.06-.06.1-.11Z" fill="#1d1d1d"/>
      <path d="M67.12,177.59c.07-.07.12-.13.16-.19,0,0,0-.01-.01-.02l-.15.21Z" fill="#1d1d1d"/>
      <path d="M73.25,143.64s-.06-.06-.1-.08l.05.26c.04-.06.05-.13.04-.18Z" fill="#1d1d1d"/>
      <path d="M63.14,167.23s-.08-.01-.12,0c-.05.21.04.7.26,1.29l.38-.09c-.2-.38-.35-.79-.52-1.19Z" fill="#1d1d1d"/>
      <path d="M71.53,157.16c-.33.19-.6.41-.89.63-.05-.64.11-1.17.21-1.66.09-.49.3-.9.47-1.31.31-.83.69-1.54.86-2.66l.09.18c.16-.1-.14-.38-.01-.92.1-.52.7-1.38,2.61-2.01l.06.05c.06-.1-.06-.2.25-.24l-.74.14c.07-.39-.01-.88.26-1.29.13-.02.28.07.38.15l.75-.91.6.12c.07-.44-.73-1.14.41-1.3-.75-.35.11-.66-.21-.89.1.04.27.08.42.12.44-.41,1.29-1.19,1.34-1.69,0,0-.72-.01-1.58-.03-.9-.05-1.88.05-2.43-.04.89-.45.15-.24-.16-.31l.07.18c-.58.23-.89-.12-1.21-.03.02.03.06.06.1.09v-.07c.07.04.09.1.1.15.07.07.1.14-.03.24v-.06c-.14.23-.5.48-.66.59l-.28-.28c.12.44-.68.71-1.45,1.09-.78.36-1.74.7-1.91.98-.76.26-.74,1.26-1.36,1.82-.73,1.07-.81.29-1.43.71-.62.63.49.06.35.37-.32.2-.64.42-.93.66.19-.56-.15-.37-.33-.33-.4.78-1.67,1.83-.98,2.37-.72,1.02-1.03.95-1.22,1.44.19-.13.42-.43.57-.38-.48.37.01.24.15.08.03.39-.54,1.22-1.01,2.05-.5.82-.81,1.63-.39,1.77l-.16-.02c.61.25,1.26.07,1.55.61l-.32.3.22.52c-.25.32-.4.14-.47.13.27.84-.15,1.98-.18,3,.54-.38,1.13-.74,1.72-1.07-.45.78-1.08,2.34-.53,2.45l-.54.56c-.82,1.84.68,1.08.46,1.78-.16.32-.32.64-.44.97-.08-.27-.13-.56-.17-.84-.18.91-.23,1.28-.46,2.08,0,0,.01,0,.02,0,.01-.05.03-.09.07-.11l.05.11c.34.02.66.39.82.98.25.84.86,1.3.84,2.83l.74.02.12,1.09-.46.25c-.22-.47-.61-1.11-.99-1.8-.34-.71-.69-1.46-.94-2.09l-.23.05c.29.75.84,1.52.98,2.03-.02.28-.18,1.1-.73.81l.69.24c.65,1.19.95,1.8,1.3,2.4.16.31.31.63.49,1.05.17.42.38.93.72,1.58l.05-.35c.48.35.94.69.71,1.09.48.72,1.06,1.39,1.5,2.1.43.72.84,1.37,1.08,2l.59-.31c.26.26.13,1.35.79.79.26.1.54.16.81.24.39.33.84.21,1.12.82h0s0,0,0,0c.02.04.03.08.05.12.01-.02.02-.03.02-.05.82.86.27-.45,1.21.49.15.58.78-.46,1.25-.04l.16,1.08c.85.92,1.39.23,2.92.81.64.54.81,1.38.07,1.84.97-.53.49-.39,1.55-.46.06.36-.06.4-.36.62.76.64.61-.14,1.26.04.34-.56.77-1.49.97-1.48l-.2-.24c.73-.2,1.43-.15,2.15.22l-.07.31.84-.06v.4c.41,0,.8.02,1.2,0l-.15-.11c.28-.04,1.19-.16,1.71.06l-.02.22c.74.38,1.43.28,2.13.07.7-.2,1.41-.49,2.24-.7l-.15.49c.66.35.05-.72.77-.62l.14.54c.47-.84.82.03,1.32.18l-.36-.66.81-.06c.92,0,.78.74.75,1.15l.45-.72.31.58c.22-.85.49.01,1.12-.67.15.21,0,.41.29.41.32-.45.62-.89.91-1.33l-.59.67-.25-.92c.47-.97,1.06-.28,1.48-.78-.08.14-.15.29-.24.42.75-.61.96-.28,1.54-.34-.23-.08-.57-.2-.29-.48.22-.17.29.23.57.2-.24-.6.2-1.15.85-1.23.04.08.07.16.07.23.08-.17.06-.35.37-.37l.23.68.09-.85c.4-.03.54-.73.76-.31l-.09.22c.79-.41,1.51-.94,2.24-1.45l.38.41c-.28-.75,1.34-.72.61-1.4.73.03,1.16-1.65,1.72-.68.69-.59.91-1.33,1.25-1.99.16-.34.35-.67.58-1.02.22-.36.51-.71.92-1.09,1.24-.1,2.07-2.16,2.74-3.39.19-.67.35-1.29.49-1.87.14-.58.2-1.16.3-1.71.21-1.11.27-2.25.41-3.61.77-.7.77-1.78.7-2.83-.16-1.07-.34-2.11-.04-3.01l-.54-.46c.35-.6.29-1.36.11-2.14-.19-.79-.36-1.62-.16-2.52-.32-.34-.45-.53-.49-.61,0,.08-.07.21-.37.33.1-.51-.43-1.33.2-1.46l.1.1c.32-.06.15-.39-.06-.78-.24-.38-.51-.82-.35-1.17l-.54.52-.21-.87.21.17c-.69-.77-1.19-1.43-1.57-2.08-.37-.65-.59-1.3-.9-1.91-.29-.62-.57-1.24-1-1.83-.46-.56-1.06-1.11-1.88-1.56.43-.06.25-.14.03-.26-.24-.11-.51-.28-.22-.57.1-1.37-1.34-1.08-2.06-1.34-.03.03-.07.06-.14.08l-.91-.89c1.25-.32-1.25.09-.15-.16-1.05-1.36-2.72-2.43-4.53-3.29-.92-.41-1.87-.77-2.82-1.12-.97-.28-1.9-.67-2.83-.94l.1.3c-.95-.26-2.18-.22-2.87-.7-.7-.51-1.69.47-1.96.52-.81.44-1.51-.49-1.17-.44-.88.08-1.63,1.09-2.81.78-.12-.21-.38-.25-.7-.2-.32.07-.69.24-1.04.41-.71.33-1.35.64-1.48.15v.08c-.8-.15-1.49.18-2.17.5-.68.34-1.31.78-2.19.77,0,0,0-.08.03-.16-.65,1.32-1.09,2.78-1.47,4.08.8.83,1.57,1.69,2.31,2.56,1.07.46,2.05.96,2.97,1.61.74-.44,1.55-.72,2.35-1.06.83-.23,1.66-.54,2.53-.65,1.42.2,2.76.71,4.01,1.21,1.59.24,3.15.68,4.64,1.32,1.47.68,2.84,1.57,4.09,2.62l1.02-.02c.12.58.38,1.05.65,1.53.29.46.69.86,1.01,1.33.35.45.74.89.96,1.42.24.51.47,1.03.4,1.62l.61-.21c.26.55-.13.66-.19.83,1.06,2.54,1.52,5.4,1.29,8.2-.21,2.8-1.39,5.47-3.14,7.29-.57.18-1.34,1.42-1.9,1.41-.51,1.67-1.9,2.86-3.35,3.61l.02-.1c-.19.19-.4.34-.61.49-.05-.03-.09-.1-.1-.15-.26.43-.75.75-1.33.87-.59.1-1.21.18-1.75.21l.04-.08c-2.89.82-5.86,1.26-8.83.75-2.96-.42-5.82-1.91-7.78-4.26-.15-.35-.33-.67-.54-.97-.22-.29-.44-.58-.65-.89-.22-.3-.46-.58-.72-.86-.23-.31-.46-.61-.69-.93l-.36-.47-.3-.51c-.2-.34-.41-.69-.58-1.05-.26-.75-.56-1.51-.51-2.35.06-.09.08-.26.06-.49-.03-.23-.06-.52-.09-.86-.04-.34-.09-.71-.17-1.11-.02-.4-.07-.82-.12-1.25-.15-1.69-.09-3.44-.17-3.75Z" fill="#eb671f"/>
      <path d="M75.08,148.23l-.02.02c.2.18.15.09.02-.02Z" fill="#1d1d1d"/>
      <polygon points="62.97 161.35 62.97 161.29 62.6 161.55 62.97 161.35" fill="#1d1d1d"/>
      <path d="M65.36,148.91c-.34.48-.27.54-.15.51.09-.19.15-.36.15-.51Z" fill="#1d1d1d"/>
      <path d="M77.22,145.64c.18-.12.02-.2-.19-.26-.16.17-.27.28-.27.28.14-.03.32.01.45-.02Z" fill="#1d1d1d"/>
      <path d="M74.2,143.32l-.07-.22c-.09.14-.03.2.07.22Z" fill="#1d1d1d"/>
    </g>
    <g>
      <path d="M254.78,153.09c-.04.07,0,.11,0,0h0Z" fill="#1d1d1d"/>
      <path d="M298.96,135.82s.03.02.05.03c.11-.08.21-.14.3-.19l-.34.15Z" fill="#1d1d1d"/>
      <path d="M304.52,143.12s0,.04,0,.07c.06-.05.13-.08,0-.07Z" fill="#1d1d1d"/>
      <path d="M278.96,131.09c-.08,0-.12.04-.14.08.04-.03.08-.06.14-.08Z" fill="#1d1d1d"/>
      <path d="M257.46,168.93s-.02-.02-.03-.03c-.01.04-.01.08-.03.12l.06-.09Z" fill="#1d1d1d"/>
      <path d="M257.18,168.86c0-.22.19-.03.25.04.07-.27,0-.46-.17-.63-.18.08.02.44-.08.59Z" fill="#1d1d1d"/>
      <path d="M280.54,183.8l-.09.08s.06-.05.09-.08Z" fill="#1d1d1d"/>
      <path d="M280.46,140.87s-.06.03-.08.05c.04,0,.07-.02.08-.05Z" fill="#1d1d1d"/>
      <path d="M276.1,183.07l-.12.3c.07-.12.1-.21.12-.3Z" fill="#1d1d1d"/>
      <path d="M299.31,135.66l.13-.06s-.08.03-.13.06Z" fill="#1d1d1d"/>
      <path d="M307.7,150.81c-.09.03-.16.07-.22.11,0,.01,0,.02,0,.02l.22-.13Z" fill="#1d1d1d"/>
      <path d="M287.87,179.04s.03.08.05.11l.06-.26c-.06.04-.1.1-.12.15Z" fill="#1d1d1d"/>
      <path d="M306.95,161.88s.06.05.1.05c.13-.17.25-.65.31-1.28l-.39-.08c.02.43-.02.87-.03,1.3Z" fill="#1d1d1d"/>
      <path d="M295.11,167.49c.38-.04.71-.12,1.07-.2-.22.6-.6,1.01-.89,1.42-.29.41-.65.69-.97.99-.62.62-1.27,1.11-1.9,2.05v-.2c-.19.02-.04.4-.38.84-.31.43-1.22.96-3.21.72l-.03-.07c-.1.06-.03.2-.33.11l.73.19c-.23.32-.36.8-.78,1.06-.13-.03-.22-.18-.28-.29l-1.06.51-.49-.36c-.25.37.18,1.34-.92,1.01.54.63-.38.55-.18.9-.07-.08-.21-.18-.33-.28-.57.19-1.67.54-1.92.97,0,0,.65.31,1.42.69.79.42,1.73.74,2.19,1.05-1,.04-.23.15.02.35l.02-.2c.62.03.75.49,1.09.54-.01-.04-.03-.08-.05-.12l-.02.07c-.05-.07-.05-.13-.03-.18-.04-.09-.03-.17.13-.2l-.02.06c.22-.15.65-.23.84-.26l.13.37c.08-.45.91-.36,1.77-.38.87,0,1.87.1,2.15-.08.8.09,1.2-.83,1.99-1.08,1.12-.67.86.08,1.6-.05.83-.31-.42-.26-.16-.48.38-.05.76-.11,1.12-.2-.41.43-.02.4.16.44.69-.54,2.28-.96,1.88-1.74,1.09-.62,1.33-.43,1.72-.8-.23.04-.56.21-.68.11.59-.13.09-.23-.1-.13.14-.37,1-.88,1.77-1.43.8-.53,1.42-1.14,1.1-1.44l.13.08c-.45-.49-1.12-.59-1.15-1.21l.42-.14.03-.57c.36-.18.42.04.49.08.11-.88.97-1.73,1.42-2.64-.65.12-1.34.2-2.01.25.74-.51,1.96-1.66,1.51-2l.73-.28c1.52-1.32-.16-1.26.33-1.81.28-.22.56-.45.81-.69-.04.28-.12.56-.2.83.55-.75.75-1.07,1.29-1.69,0,0,0,0-.02-.01-.03.04-.07.07-.11.07v-.12c-.3-.16-.43-.63-.33-1.23.13-.87-.24-1.54.43-2.92l-.67-.33.35-1.04.52-.03c0,.52.09,1.26.14,2.05,0,.79,0,1.62-.02,2.29l.23.05c.05-.81-.12-1.73-.04-2.25.14-.25.63-.92,1-.43l-.53-.5c-.08-1.35-.11-2.03-.17-2.73-.02-.35-.02-.7,0-1.16.02-.45.05-1,0-1.73l-.2.3c-.28-.52-.56-1.02-.19-1.29-.14-.86-.38-1.7-.47-2.53-.09-.84-.18-1.6-.14-2.27l-.66.03c-.12-.34.45-1.28-.39-1.05-.2-.2-.42-.37-.63-.56-.22-.46-.67-.54-.67-1.22h0s0,0,0,0c0-.04,0-.08,0-.13-.02.01-.03.02-.04.03-.38-1.12-.43.3-.89-.96.1-.59-.9.09-1.16-.49l.31-1.05c-.38-1.19-1.17-.79-2.31-1.97-.36-.76-.16-1.59.71-1.7-1.11.08-.61.15-1.6-.23.1-.35.22-.34.58-.41-.42-.9-.61-.13-1.12-.56-.54.37-1.32,1.03-1.51.94l.08.3c-.74-.13-1.36-.46-1.85-1.1l.2-.25-.78-.3.16-.37c-.36-.17-.71-.35-1.08-.5l.09.17c-.27-.08-1.15-.36-1.52-.77l.11-.19c-.51-.66-1.18-.86-1.9-.96-.72-.11-1.48-.15-2.33-.31l.34-.38c-.45-.59-.35.63-.96.23l.1-.55c-.78.56-.73-.38-1.12-.72l.05.75-.77-.29c-.84-.38-.4-1-.2-1.36l-.71.47-.03-.66c-.55.68-.44-.22-1.3.13-.05-.25.17-.37-.09-.5-.48.27-.94.55-1.39.83l.82-.36-.16.94c-.84.68-1.08-.19-1.67.09.13-.1.26-.2.4-.28-.94.24-.99-.15-1.54-.34.18.17.43.42.06.56-.28.06-.16-.33-.44-.42-.03.65-.67.96-1.29.76,0-.09,0-.18.04-.24-.14.12-.2.29-.49.18l.08-.72-.44.73c-.37-.14-.79.43-.82-.04l.17-.17c-.89.04-1.76.22-2.64.38l-.18-.53c-.06.79-1.52.1-1.15,1.01-.65-.33-1.74,1.01-1.85-.1-.87.24-1.38.82-1.97,1.28-.29.24-.6.46-.95.68-.35.23-.76.44-1.29.6-1.17-.43-2.78,1.09-3.91,1.92-.46.53-.86,1.02-1.23,1.49-.37.47-.67.96-.99,1.43-.66.92-1.19,1.93-1.89,3.11-.99.31-1.45,1.29-1.83,2.27-.3,1.04-.57,2.06-1.23,2.75l.3.64c-.57.4-.84,1.11-1,1.9-.16.79-.35,1.62-.91,2.35.15.45.18.67.19.76.04-.07.15-.16.47-.14-.3.42-.17,1.39-.8,1.24l-.05-.13c-.31-.08-.3.29-.28.73.05.45.12.96-.18,1.21l.71-.24-.17.88-.12-.24c.3.99.48,1.8.55,2.55.06.75,0,1.43.02,2.11,0,.68,0,1.37.14,2.08.18.71.5,1.45,1.05,2.21-.42-.12-.28.02-.14.23.17.2.34.46-.04.61-.67,1.2.76,1.54,1.31,2.08.04-.02.08-.03.16-.01l.45,1.19c-1.27-.23,1.17.45.07.21.38,1.68,1.45,3.35,2.72,4.89.66.75,1.38,1.48,2.08,2.2.76.66,1.44,1.41,2.17,2.05l.03-.31c.76.64,1.89,1.12,2.31,1.84.43.76,1.73.28,2,.35.92-.06,1.17,1.08.88.89.84.3,1.94-.31,2.88.47.02.24.24.39.55.47.31.07.73.07,1.12.07.78,0,1.49-.01,1.41.48l.03-.08c.67.47,1.43.47,2.19.46.76-.02,1.51-.16,2.31.22,0,0-.03.07-.09.14,1.15-.92,2.16-2.06,3.05-3.08-.38-1.1-.72-2.19-1.02-3.3-.77-.87-1.45-1.73-2.02-2.71-.86.09-1.7,0-2.58-.02-.85-.14-1.73-.21-2.57-.47-1.2-.78-2.21-1.81-3.13-2.79-1.34-.88-2.57-1.94-3.66-3.15-1.05-1.23-1.91-2.62-2.62-4.09l-.94-.41c.13-.58.1-1.11.05-1.66-.07-.54-.27-1.07-.36-1.63-.12-.56-.3-1.12-.27-1.69,0-.57.01-1.13.31-1.64l-.64-.07c0-.61.4-.54.52-.67.11-2.74.89-5.54,2.28-7.98,1.37-2.45,3.56-4.38,5.91-5.3.6.07,1.81-.72,2.31-.48,1.17-1.3,2.93-1.8,4.56-1.87l-.05.08c.25-.09.5-.14.76-.19.04.05.04.13.02.18.41-.28.99-.36,1.57-.22.58.16,1.17.34,1.67.55l-.07.06c2.96.46,5.84,1.32,8.32,3.03,2.51,1.62,4.47,4.18,5.27,7.14,0,.38.02.75.08,1.11.07.35.16.71.21,1.08.07.36.17.72.29,1.08.08.37.16.75.24,1.13l.13.58.06.59c.03.39.08.79.08,1.2-.08.79-.13,1.61-.53,2.34-.09.06-.18.21-.26.42-.07.22-.16.5-.28.81-.11.32-.21.68-.31,1.08-.15.38-.29.78-.41,1.18-.58,1.6-1.36,3.16-1.42,3.47Z" fill="#eb671f"/>
      <path d="M288.14,174.11h.02c-.1-.26-.1-.16-.02,0Z" fill="#1d1d1d"/>
      <polygon points="304.64 167.28 304.61 167.34 305.05 167.26 304.64 167.28" fill="#1d1d1d"/>
      <path d="M297.24,177.57c.51-.29.47-.38.35-.4-.16.13-.29.26-.35.4Z" fill="#1d1d1d"/>
      <path d="M285.1,175.55c-.21.03-.1.17.06.32.21-.08.36-.14.36-.14-.13-.03-.28-.14-.42-.18Z" fill="#1d1d1d"/>
      <path d="M286.87,178.93l-.03.23c.14-.09.11-.17.03-.23Z" fill="#1d1d1d"/>
    </g>
    <g>
      <path d="M146.32,169.65c-.07.04-.06.1,0,0h0Z" fill="#1d1d1d"/>
      <path d="M201.39,159.02s.03.01.05.02c.09-.1.18-.18.25-.24l-.3.22Z" fill="#1d1d1d"/>
      <path d="M209.26,164.58s.02.04.03.06c.04-.07.1-.12-.03-.06Z" fill="#1d1d1d"/>
      <path d="M179.74,155.7c-.08,0-.13.03-.16.07.05-.03.09-.06.16-.07Z" fill="#1d1d1d"/>
      <path d="M137.12,184.22s0-.02,0-.04c-.04.02-.07.04-.11.06l.11-.02Z" fill="#1d1d1d"/>
      <path d="M137,183.96c.18-.15.14.13.13.22.26-.13.37-.33.4-.57-.18-.08-.34.32-.52.35Z" fill="#1d1d1d"/>
      <path d="M133.4,213.85l-.08-.09s.05.06.08.09Z" fill="#1d1d1d"/>
      <path d="M180.67,165.5s-.08.03-.11.05c.06,0,.09-.02.11-.05Z" fill="#1d1d1d"/>
      <path d="M133.6,209.35l-.32-.05c.13.04.23.05.32.05Z" fill="#1d1d1d"/>
      <path d="M201.7,158.8l.12-.08s-.07.05-.12.08Z" fill="#1d1d1d"/>
      <path d="M215.74,170.51c-.07.07-.11.14-.14.2,0,0,.01.01.01.02l.13-.22Z" fill="#1d1d1d"/>
      <path d="M224.08,210.55s.08,0,.12-.02l-.23-.16c.02.08.05.14.1.18Z" fill="#1d1d1d"/>
      <path d="M221.69,180.82s.08,0,.12-.02c-.01-.22-.26-.69-.63-1.26l-.36.17.87,1.12Z" fill="#64ad2f"/>
      <path d="M217.51,194.85l.51-1.18c.29.77.49,1.46.64,2.1.15.63.14,1.24.21,1.81.07,1.15.31,2.21.63,3.6l-.18-.14c-.08.21.32.34.51,1.02.09.34.13.81.03,1.49-.1.67-.42,1.7-.95,2.96h-.08c.01.18.17.18-.04.53l.48-.88c.2.53.57.99.63,1.7-.09.15-.25.2-.37.22l.13,1.73-.51.53c.28.53,1.35.29.75,1.71.74-.53.45.7.82.53-.09.07-.23.23-.36.36.09.84.29,2.43.68,2.82,0,0,1.57-3.3,2.36-4.19-.2,1.19.09.31.34.08l-.19-.08c.18-.71.65-.71.78-1.07-.04,0-.08.01-.13.02l.06.05c-.08.03-.14.01-.19-.02-.1,0-.18-.02-.15-.22l.05.04c-.07-.3,0-.81.04-1.03h.39c-.75-.53,1.14-3.55,1.16-4.25.25-.36.22-.75.15-1.17-.08-.43-.2-.88-.1-1.34.05-1.46.54-.75.84-1.51.2-.94-.45.22-.49-.15l.49-1.15c.08.64.3.27.44.14.03-.49.14-1.13.14-1.69,0-.55-.08-1.01-.49-1.1.17-1.36.48-1.42.43-2-.11.22-.18.61-.34.64.26-.59-.12-.23-.17,0-.11-.18-.12-.55-.09-1,.04-.45.04-.97.07-1.47.04-1.01.03-1.95-.4-1.92l.15-.04c-.66-.01-1.19.44-1.67,0l.18-.44-.4-.46c.09-.42.3-.29.38-.32-.59-.77-.69-2.07-1-3.15-.41.58-.82,1.15-1.23,1.7.07-.97.27-2.86-.37-2.78l.3-.74c.2-2.16-1-.96-1.02-1.77l.16-1.14.4.85c-.12-.99-.08-1.44-.13-2.29,0,0-.01,0-.02,0,0,.06,0,.1-.03.13l-.08-.11c-.34.06-.78-.26-1.11-.83-.21-.43-.51-.74-.78-1.14-.28-.4-.5-.92-.69-1.71l-.76.07-.36-1.13.42-.31c.32.46.84,1.08,1.39,1.73.49.69,1,1.43,1.39,2.04l.22-.1c-.45-.74-1.15-1.45-1.41-1.96-.07-.28-.06-1.16.54-.94l-.74-.14c-1.81-2.27-1.71-2.33-3.35-4.96l-.02.37c-.52-.34-1.03-.68-.84-1.1-.28-.36-.57-.72-.86-1.08-.3-.34-.58-.7-.84-1.05-.51-.7-.93-1.41-1.16-2.07l-.59.29c-.25-.3-.13-1.39-.83-.82l-.83-.29c-.4-.36-.87-.27-1.14-.91h0s0,0,0,0c-.02-.04-.03-.08-.05-.13-.01.02-.02.03-.02.05-.81-.94-.31.45-1.21-.65-.11-.63-.83.36-1.32-.1l-.1-1.09c-.78-1.06-1.42-.42-2.91-1.32-.6-.65-.64-1.5.19-1.84-1.08.37-.57.31-1.67.2,0-.37.13-.38.47-.55-.67-.75-.65.02-1.27-.3-.45.48-1.06,1.28-1.27,1.23l.16.29c-.39,0-.77-.05-1.13-.18-.37-.11-.73-.27-1.06-.57l.14-.28-.89-.16.09-.39-1.23-.32.13.16c-.3-.04-1.24-.27-1.72-.62l.08-.21c-1.34-1.06-2.85-.53-4.64-.87l.33-.4c-.53-.55-.31.66-1,.32l.06-.56c-.78.62-.82-.28-1.23-.63l.1.76-.82-.28c-.9-.38-.46-1-.26-1.36l-.72.48-.05-.66c-.56.69-.46-.23-1.35.14-.05-.25.18-.38-.1-.49l-1.45.84.86-.36-.17.94c-.9.67-1.15-.16-1.77.07l.43-.26c-1.01.18-1.04-.22-1.61-.46.17.18.43.46.03.56-.3.04-.16-.34-.44-.46-.07.6-.78.97-1.42.71,0-.09.02-.18.06-.24-.16.11-.24.28-.53.14l.15-.71-.53.69c-.38-.17-.89.36-.87-.11l.2-.15c-.94.01-1.88-.06-2.82.03l-.1-.55c-.18.8-1.57-.06-1.35.88-.61-.44-2,.68-1.88-.43-.94.08-1.59.5-2.29.87-.7.37-1.45.69-2.62.73-.26-.17-.59-.25-.95-.25-.36.02-.75.11-1.16.23-.81.24-1.67.61-2.37.82-.32.17-.62.33-.92.49-.29.17-.55.36-.81.54-.52.35-1.02.69-1.51,1.02-.49.33-.99.66-1.51,1.01-.52.35-1.03.79-1.61,1.21-1.07-.1-1.96.56-2.79,1.3-.79.81-1.52,1.67-2.49,1.94l-.09.71c-.37.03-.72.16-1.03.38-.3.23-.59.52-.89.82-.6.61-1.23,1.25-2.15,1.55-.16.45-.28.65-.33.73.07-.04.23-.05.48.15-.52.18-.97,1.13-1.39.63l.04-.14c-.42-.5-.8,1.32-1.59,1.36l.72.23-.72.62.07-.27c-.42.99-.8,1.8-1.26,2.45-.45.66-.96,1.19-1.46,1.71-.53.51-.96,1.09-1.35,1.75-.39.67-.72,1.45-.9,2.43-.4-.8-.05.82-.78.48-1.34.39-.59,1.72-.67,2.53.04.02.08.05.11.11l-.68,1.19c-.61-1.15.37,1.23-.12.2-.53.74-.93,1.62-1.32,2.55-.37.94-.77,1.91-.97,2.97-.24,1.04-.48,2.1-.72,3.15-.25,1.05-.36,2.11-.63,3.12l.29-.14c-.19,1.03-.12,2.34-.54,3.1-.47.77.59,1.78.62,2.08.42.87-.54,1.63-.47,1.26.06.96,1.06,1.69.64,2.89-.89.4.87,3.23-.13,3.26h.08c-.7,1.53.49,2.96-.14,4.59,0,0-.07-.03-.14-.09l3.03,3.32,3.33-.95,2.71-2.88-.59-7.8.26-1.56.34-1.37.67-2.67c.35-4.35,1.47-8.63,3.28-12.63l-.26-1.19c.55-.46,1.06-.97,1.49-1.56.43-.59.78-1.25,1.13-1.92.38-.65.82-1.28,1.27-1.88.47-.58.92-1.17,1.6-1.51l-.45-.46c.51-.62.78-.31.99-.38l.9-1.05.45-.53.5-.49,1.98-1.97c.69-.63,1.43-1.19,2.14-1.79.36-.29.7-.61,1.09-.87l1.16-.76,1.15-.75c.38-.26.77-.5,1.18-.68.82-.39,1.63-.78,2.43-1.17.81-.38,1.67-.58,2.49-.85.83-.25,1.64-.5,2.48-.57.74.27,2.54-.5,3.12-.13.97-.54,2.05-.9,3.14-1.16,1.1-.21,2.23-.19,3.31-.22l-.08.08,1.02-.18c.04.05.05.13.02.18,1.16-.49,2.98.11,4.33.49l-.09.06c4.03.5,7.88,1.37,11.58,2.79,3.7,1.39,7.11,3.65,9.83,6.69,1.09,1.6,2.46,3.04,3.93,4.55.67.8,1.36,1.62,2.01,2.48.56.91,1.05,1.89,1.42,2.9-.02.13.05.34.15.63.09.3.23.68.42,1.11.18.43.4.9.65,1.4.12.25.25.5.38.76.1.27.21.54.32.81.41,1.09.96,2.14,1.25,3.02.3.88.56,1.52.68,1.68Z" fill="#64ad2f"/>
      <path d="M219.52,208.08v-.04c-.28,0-.17.06,0,.04Z" fill="#1d1d1d"/>
      <polygon points="223.7 186.89 223.72 186.96 223.99 186.57 223.7 186.89" fill="#64ad2f"/>
      <path d="M227.03,200.46c.05-.64-.02-.66-.12-.56,0,.23.03.43.12.56Z" fill="#1d1d1d"/>
      <path d="M220.04,212.93c-.02.31.14.19.32,0-.03-.32-.05-.54-.05-.54-.06.18-.21.35-.27.53Z" fill="#1d1d1d"/>
      <path d="M223.74,211.66l.22.1c-.05-.18-.13-.18-.22-.1Z" fill="#1d1d1d"/>
    </g>
    <g>
      <path d="M98.83,227.05c-.32.1-.46.21,0,0h0Z" fill="#1d1d1d"/>
      <path d="M73.6,213.12c0,.06,0,.09,0,.15.13.11.24.21.33.3l-.33-.45Z" fill="#1d1d1d"/>
      <path d="M72.79,237.45c-.01.06-.02.1-.03.15.08-.01.16.02.03-.15Z" fill="#1d1d1d"/>
      <path d="M109.12,216.73c.21,0,.33-.02.41-.06-.12.03-.25.05-.41.06Z" fill="#1d1d1d"/>
      <path d="M103.31,272.21s-.09,0-.16.01c.17.03.21.04.31.08l-.16-.09Z" fill="#1d1d1d"/>
      <path d="M102.51,272.44c-.89-.1.27-.18.65-.21-.98-.18-1.92-.19-2.93-.11-.06.2,1.84.17,2.28.32Z" fill="#1d1d1d"/>
      <path d="M155.42,321.92l-.21-.15c.08.07.14.11.21.15Z" fill="#1d1d1d"/>
      <path d="M106.73,206.88c.12-.02.25-.03.37-.05-.19,0-.29.02-.37.05Z" fill="#1d1d1d"/>
      <path d="M148.15,311.42l-.34.07c.18.02.28-.01.34-.07Z" fill="#1d1d1d"/>
      <path d="M73.93,213.58l.12.18c-.03-.06-.07-.12-.12-.18Z" fill="#1d1d1d"/>
      <path d="M72.58,259.93c-.1,0-.18.06-.24.12,0,.03,0,.05,0,.06l.24-.18Z" fill="#1d1d1d"/>
      <path d="M139.46,326.54s.05-.07.07-.12l-.45-.24c.15.18.28.3.38.36Z" fill="#64ad2f"/>
      <path d="M77.67,283.45s.09-.05.1-.09c-.34-.17-1.27-.5-2.35-1.15l-.28.29c.78.47,1.66.75,2.52.95Z" fill="#64ad2f"/>
      <path d="M108.3,293.26c-.4-.44-.91-.82-1.5-1.13,1.48.02,2.73.61,3.62,1.37.45.39.81.79,1.12,1.28.54.8,1.06,1.57,1.57,2.33,2.05,3.05,4.03,5.93,6.88,9.44l-.43-.31c.61,1.18,2.48.77,9.06,13.9l-.06.05c.3.4.43.31.83,1.26l-1.05-2.33c1.03,1.12,2.09,1.98,3.28,3.59.17.4.13.61.05.72l2.93,3.95.45,1.53c1.09,1.07,1.57-.1,3.4,3.53-.26-1.67,1.51,1.38,1.54.75.04.22.19.68.3,1.05,1.44,1.91,4.2,5.47,5.16,6.16,0,0-4.1-8.56-4.89-11.07,1.77,2.87.58.67.41-.01l-.28-.08c-1.01-1.75-.63-2.02-1.1-2.92-.03.02-.05.07-.07.12l.13.07c-.01.13-.09.11-.19.05-.07.08-.19.05-.48-.42l.1.06c-.54-.65-1.32-1.88-1.65-2.42l.31-.24c-1.47-.79-4.84-8.88-5.98-10.53-.75-1.93-2.7-3.63-3.94-5.83-2.2-3.36-.69-1.97-1.57-3.81-1.25-2.2-.08.68-.68-.13l-1.29-2.78c1.05,1.41.69.49.63.14-1.44-2.17-3.22-5.95-4.32-6.15-1.72-3.1-1.45-3.26-2.31-4.55.2.53.65,1.4.53,1.5-.53-1.35-.46-.5-.19.01-.19-.2-.41-.5-.66-.88-.15-.22-.3-.46-.47-.71-.18-.28-.39-.54-.61-.84-.88-1.15-2.09-2.38-3.49-3.31-1.37-.95-2.9-1.57-4.11-1.85-1.21-.28-2.08-.26-2.23-.06v-.16c-.33.31-.24.63-.31.9-.06.28-.33.51-1.05.69l-1-.29-1.51.28c-1.01-.21-.51-.38-.51-.46-2.46.3-5.88-.06-8.85-.14l3.15,1.74c-2.51-.4-7.03-1.22-7.54-.66l-1.51-.59c-5.03-1.12-3.51.49-5.52.15-.83-.22-1.71-.42-2.5-.64l2.49.02c-.63-.09-1.16-.16-1.64-.23-.24-.04-.46-.07-.68-.11-.2-.04-.33-.09-.5-.13-.31-.08-.59-.17-.88-.31-.29-.12-.59-.26-.91-.47,0,0-.02,0-.02.01.09.05.14.1.15.14l-.25-.05c-.29.28-1.34.19-2.51-.53-.79-.54-1.53-1.01-2.21-1.77-.67-.74-1.33-1.79-1.49-3.32-.31-.16-.55-.36-.84-.56-.08-.82,0-1.58.1-2.41h.52c0,.33.03.58.04.92.03.32.1.65.16,1.01.19.69.42,1.44.83,2.14.77,1.4,2,2.61,3.15,3.29l.17-.18c-1.33-.78-2.66-2.07-3.09-3.04-.05-.26-.14-.72-.03-1.04.09-.31.28-.45.58-.12-.24-.21-.54-.42-.76-.67-.17-.59-.27-1.13-.3-1.62,0-.12-.02-.24-.02-.36,0-.11-.02-.22-.02-.4,0-.33,0-.64,0-.93,0-1.18,0-2.14.04-3.11.06-1.93.2-3.9.5-7.83l-.26.68c-.15-1.56-.3-3.11.12-3.54.09-4.71.41-9.59,1.07-12.65l-.61-.67c.03-.99.96-2.49.1-2.97l-.27-2.12c.05-1.36-.3-2.19.05-3.74h0c.02-.1.05-.2.07-.3-.02,0-.03,0-.05.02.27-3.08-.55.03-.2-3.49.44-1.13-.78-1.25-.64-2.97l.88-1.72c.5-3.11-.38-3.64-.38-8.15.31-2.16,1.06-3.21,1.73-1.78-.81-1.97-.52-.9-.91-3.51.33-.4.4-.12.7.45.39-2.32-.3-1.43-.28-3.18-.4-.33-.95-.68-1.31-1.05l-4.42,4.42.02-.02,4.41-4.24h-.02c-.17-.16-.28-.31-.29-.45l-.21.42-2.13,4.28-1.76-.51h-.02s3.89-3.9,3.89-3.9l-.02.06v-.06s-3.87,3.86-3.87,3.86h.02s4.47-.79,4.47-.79l-.61-2.95c-.28-1.35-.1-2.98.88-4.29l.26.19.31-.78.38-.75.39.14c.21-.33.43-.64.66-.96.27-.28.48-.62.78-.88-.1.05-.22.08-.32.14.09-.11.25-.26.44-.45.18-.2.42-.41.69-.6.13-.1.27-.2.4-.3.15-.08.3-.16.44-.24.29-.16.57-.29.84-.34l.06.22c1.44-.3,2.61-.64,3.97-.87,1.35-.24,2.87-.3,4.51.31l-.58.27c.45.4.57.27.75.14.17-.13.42-.32.98.13l-.21.52c.7-.03,1.02.24,1.19.58.17.34.21.74.4,1.11.07-.26.14-.53.21-.8.36.38.7.79,1,1.21.87,1.49-.16,1.35-.56,1.4.35.16.71.34,1.05.56l-.46.49c.48.16.57.35.6.61.01.14.02.29.09.47,0,0,.16.42.31.74.15.34.38.71.64,1.11-.05.4-.68-.4-.08.82,1.43,1.7,3.25,2.97,5.21,3.66-1.15-.46-2.25-1.12-3.23-1.95.33-.11.66-.22.98-.35,1.58.99,2.61,1.55,3.59,2.06.97.48,1.92.88,3.24.87-.6.04-1.22.04-1.83-.02,1.07.2,1.9.25,2.56.27.13,0,.24.01.36.02.09,0,.17.01.25.02.16.02.3.04.44.06.54.1.93.25,1.66.36-.45-.18-1.14-.44-.1-.56.76-.05.41.33,1.13.44.17-.63,2.01-.96,3.68-.67-.02.09-.06.18-.16.23.43-.1.65-.26,1.39-.11l-.44.7,1.43-.67c.95.19,2.34-.32,2.21.16l-.54.14,7.2.17.1.56c.71-.77,3.92.29,3.69-.67,1.36.52,5.35-.37,4.55.71,2.37.04,4.19-.2,6.14-.38.49-.04.98-.08,1.5-.12.26-.01.52-.03.79-.04.15,0,.3,0,.46,0,.55.02,1.15.2,1.69.62.11.31.29.62.52.92.21.33.45.66.66,1.04.44.72.63,1.68.51,2.39.05,1.33-.7,2.63-1.92,3.43-.61.39-1.32.66-2.13.75-1.59.07-3.26.15-5.11.23-4.44-1.28-11.07.44-15.84-.28l-1.31.51c-1.59-.41-3.59-.36-5.76-.31-1.08.02-2.2.05-3.33.02-.56-.02-1.13-.04-1.7-.09l-.85-.09c-.09-.02-.37-.04-.63-.06-.25-.02-.51-.04-.76-.06-1.94.31-2.81.8-3.22.94.34-.1.88-.16,1.14.11-1.07.13-2.56.82-3.6,1.61-1.05.77-1.74,1.53-1.89,1.2.1-.16.21-.31.32-.47-.1-.35-1.35.94-2.07,2.92-.36.98-.61,2.09-.68,3.12-.09,1-.09,2.1-.24,2.29l.35-.39.35-.66-.03.87-.03.6-.06,1.2-.13-.64c.77,5.23.6,9.03.42,12.74-.09,1.86-.19,3.7-.17,5.69,0,.99.04,2.03.12,3.12.12,1.47.24,3.03.37,4.71-.38-.98-.28-.2-.19.89.09,1.08.17,2.41-.24,2.79-.33,1.56-.43,3.02-.4,4.27,1.42-.03,2.9-.21,4.26-.4,1.37-.19,2.63-.4,3.8-.5.01-.04.07-.09.27-.15l2.83.05,1.78.05c-2.12,1.05,2.56-.87.61.02,2.31.2,4.81.29,7.41.33,1.25.01,2.53.02,3.83.03.67.02,1.35.19,1.96.52.31.16.59.36.86.6.13.12.25.24.37.37.12.14.19.23.44.57.82,1.13,1.64,2.26,2.46,3.38,1.63,2.26,3.23,4.52,4.71,6.75l-.06-.54c1.54,2.24,3.77,4.8,4.63,6.73.85,1.93,3.18,3.27,3.68,3.9,1.69,1.57,2.14,3.78,1.61,2.96,1.51,1.89,3.61,3.18,5.23,6.15-.05,1.45,6.03,6.93,5.28,7.6l.09-.02c1.93,3.9,5.26,6.5,7.44,10.63,0,0-.11-.03-.26-.12l7.94,5.89,1.15-4.12-2.55-8.21-13.35-17.64-9.42-14.97-6.33-8.68-3.16-4.34-.79-1.08-.44-.6c-.23-.3-.46-.6-.71-.88-.99-1.14-2.16-2.11-3.44-2.89-1.29-.78-2.7-1.34-4.16-1.69-.73-.16-1.47-.29-2.22-.34-.37-.04-.75-.03-1.12-.04h-.67s-5.37.05-5.37.05l-5.37.04h-1.34s-.67.02-.67.02h-.13s-.03,0-.03,0l-.25.02c-.22.24-.55.49-1,.73h-.02c.12-.28.24-.57.37-.86l.11-.28c.03-.16.05.09.06-.72.06-2.34.02-4.77-.03-7.22-.1-4.9-.24-9.88.23-14.43l-.65-.19c0-.64,0-1.11.04-1.46.02-.18.04-.33.06-.45.01-.06.03-.12.04-.17l.04-.02c.11-.06.24-.06.29-.09-.03-.37.31-.73.71-.72l8.74-.12c5.99-.08,11.97-.17,17.87-.25,1.48-.01,2.95-.03,4.41-.04l2.19-.02h.55c.18,0,.34,0,.65-.02.54-.03,1.09-.04,1.63-.13,4.33-.57,8.27-3.06,10.6-6.73,1.18-1.82,1.94-3.95,2.16-6.11.23-2.16-.01-4.3-.7-6.33-1.36-4.06-4.52-7.35-8.41-8.92-.71-.39-1.88-.84-3.3-1.06-.35-.07-.72-.11-1.1-.13-.19-.01-.38-.03-.57-.04l-.49-.02c-.5-.01-1.01-.02-1.52-.04-2.03-.05-4.01-.1-4.83-.32-6.97.79-14.35.78-21.33.7l.26-.07-3.29.12c-.14-.05-.16-.13-.05-.18-.93.14-1.99.22-3.13.24-1.55.03-1.33,0-1.68-.15-.24-.15-.42-.39-.51-.64-.05-.12-.07-.25-.07-.37.02.05-.09-.28-.15-.44l-.2-.58c-.13-.39-.29-.75-.45-1.11l.23.3c-1.95-4.18-5.33-7.62-9.43-9.59-4.11-2-8.81-2.47-13.16-1.49-4.38.97-8.3,3.5-11.07,6.9-2.79,3.4-4.33,7.76-4.45,12.09l5.25-5.08h-.02s-5.32.07-5.32.07l.07,5.18c.17,12.68.25,25.33-.2,38.4-.53,6.11-.43,12.71-.31,19.54.04,1.76.07,3.54.11,5.32.09,2.53.73,5.07,1.87,7.36,2.25,4.62,6.51,8.18,11.55,9.64.44.21,1.5.51,3.03.68.38.03.8.06,1.24.09.3,0,.62.02.96.03.65.01,1.37.03,2.13.04,3.06.04,6.92.03,10.78,0,3.86-.04,7.72-.11,10.77-.19.7-.02,1.35-.04,1.94-.05.31-.02.58,0,.83.02.49.05.82.14.98.16Z" fill="#64ad2f"/>
      <path d="M131.69,323.41l-.07-.09c-.22.16-.04.23.07.09Z" fill="#64ad2f"/>
      <path d="M93.64,284.57c.06,0,.12,0,.18,0l-.7-.38.51.38Z" fill="#64ad2f"/>
      <path d="M125.87,301.77c-.9-1.43-1-1.45-.95-1.2.34.51.66.93.95,1.2Z" fill="#64ad2f"/>
      <path d="M140.02,334.38c.49.74.43.37.28-.16-.54-.72-.92-1.22-.92-1.22.23.44.4.93.64,1.39Z" fill="#1d1d1d"/>
      <path d="M140.98,329.3l.34.1c-.34-.4-.4-.33-.34-.1Z" fill="#1d1d1d"/>
    </g>
    <g>
      <path d="M261.99,236.01s.07,0,0,0h0Z" fill="#1d1d1d"/>
      <path d="M302.52,213.12c0,.06,0,.09,0,.15.13.11.24.21.33.3l-.33-.45Z" fill="#1d1d1d"/>
      <path d="M301.71,237.45c-.01.06-.02.1-.03.15.08-.01.16.02.03-.15Z" fill="#1d1d1d"/>
      <path d="M255.55,207.71c-.21,0-.33.02-.41.06.12-.03.25-.05.41-.06Z" fill="#1d1d1d"/>
      <path d="M261.36,264.06s.05,0,.06-.01c0-.03-.13-.04-.21-.08l.16.09Z" fill="#1d1d1d"/>
      <path d="M261.53,263.84c.18.1-.03.18-.12.21.21.18.46.19.65.11-.06-.2-.44-.17-.53-.32Z" fill="#1d1d1d"/>
      <path d="M203.53,317.82l.08-.24c-.04.09-.06.17-.08.24Z" fill="#1d1d1d"/>
      <path d="M257.94,217.56c-.12.02-.25.03-.37.05.19,0,.29-.02.37-.05Z" fill="#1d1d1d"/>
      <path d="M211.12,307.56l-.18-.3c.04.18.1.26.18.3Z" fill="#1d1d1d"/>
      <path d="M302.85,213.58l.12.18c-.03-.06-.07-.12-.12-.18Z" fill="#1d1d1d"/>
      <path d="M301.5,259.93c-.1,0-.18.06-.24.12,0,.03,0,.05,0,.06l.24-.18Z" fill="#eb671f"/>
      <path d="M224.63,326.13s.08.02.14.02l.07-.5c-.12.21-.19.36-.21.48Z" fill="#1d1d1d"/>
      <path d="M288.76,289.86s-.11.1-.1.14c.68-.04,2.45-.56,4.4-1.79l-.09-.4c-1.26.91-2.71,1.57-4.2,2.05Z" fill="#64ad2f"/>
      <path d="M252.22,282.45c1.64-.35,3.3-.44,4.89-.3-3.8.39-6.86,1.93-9.16,3.82-1.15.95-2.14,2.03-2.92,3.12-.57.78-1.12,1.53-1.66,2.27-2.17,2.97-4.21,5.8-6.55,9.68l.15-.51c-.9.97.11,2.59-10,13.24l-.06-.05c-.28.42-.15.51-.9,1.21l1.84-1.78c-.7,1.34-1.15,2.64-2.26,4.31-.32.3-.53.32-.66.29l-2.72,4.1-1.28.94c-.64,1.39.63,1.44-2.17,4.39,1.48-.81-.78,1.89-.19,1.7-.19.11-.57.41-.89.64-1.3,2.01-3.72,5.81-4.05,6.94,0,0,6.66-6.76,8.76-8.36-2.1,2.64-.44.78.15.38l-.02-.29c1.31-1.55,1.69-1.28,2.38-2.03-.03-.02-.09-.02-.14-.03l-.02.14c-.12.03-.14-.05-.11-.16-.1-.04-.11-.16.23-.59l-.02.11c.43-.73,1.32-1.88,1.72-2.38l.33.22c.25-1.65,6.71-7.57,7.88-9.2,1.56-1.37,2.5-3.77,4.15-5.68,2.41-3.21,1.62-1.31,3.06-2.77,1.65-1.92-.67.15-.11-.69l2.18-2.15c-.97,1.46-.23.82.08.64,1.55-2.09,4.5-5.04,4.32-6.15,2.32-2.65,2.6-2.51,3.48-3.68-.39.29-1.08,1.07-1.21.97,1.09-.95.32-.6-.08-.17.12-.24.33-.56.6-.92.28-.37.5-.6.84-.91.65-.57,1.52-1.09,2.39-1.39,1.76-.66,3.36-.47,3.49-.91v.16c.17-.32.11-.64.13-.92.04-.28.12-.54.89-.71l1,.29,1.51-.28c1.01.21.51.38.51.46,2.46-.3,5.88.06,8.85.14l-3.15-1.74c2.51.4,7.03,1.22,7.54.66l1.51.59c5.03,1.12,3.51-.49,5.52-.15.85.21,1.66.43,2.55.63h-2.54c.63.08,1.16.15,1.64.22.24.04.46.07.68.11.23.03.51.05.76.08.51.05,1,.1,1.53.09.53.01,1.1,0,1.75-.07,0,0,.02-.02.02-.02-.18.02-.3.02-.33-.01l.43-.13c.3-.39,1.81-1.05,3.68-2.15,1.34-.78,2.37-1.73,3.4-2.96,1.02-1.23,2.12-2.69,3.27-4.96-.05-.46-.19-.93-.29-1.37.24-.57.35-1.16.52-1.76.13-.59.21-1.24.3-1.8h.52c-.02.46-.05.97-.07,1.52-.05.56-.15,1.16-.25,1.79-.28,1.24-.66,2.6-1.32,3.88-1.25,2.59-3.37,4.87-5.46,6.16l.05.25c2.58-1.54,4.53-4.36,5.43-6.04.24-.4.79-1.08,1.13-1.5.36-.41.63-.51.47.42.06-.67.15-1.3.13-1.96.33-1.21.49-2.31.55-3.29.01-.24.02-.48.03-.71.01-.24.02-.46.01-.61,0-.33,0-.64,0-.93,0-1.18,0-2.14.04-3.11.06-1.93.2-3.9.5-7.83l-.26.68c-.15-1.56-.3-3.11.12-3.54.09-4.71.41-9.59,1.07-12.65l-.61-.67c.03-.99.96-2.49.1-2.97l-.27-2.12c.05-1.36-.3-2.19.05-3.74h0c.02-.1.05-.2.07-.3-.02,0-.03,0-.05.02.27-3.08-.55.03-.2-3.49.44-1.13-.78-1.25-.64-2.97l.88-1.72c.5-3.11-.38-3.64-.38-8.15.31-2.16,1.06-3.21,1.73-1.78-.81-1.97-.53-.9-.91-3.51.33-.4.4-.12.7.45.39-2.32-.3-1.43-.28-3.18-.4-.33-.95-.68-1.31-1.05l-4.35-4.48-.06.06-.02.02,4.39,4.25c-.2-.25-.35-.49-.38-.74l-.11.75-3.9-3.77h.02s4.63,1.34,4.63,1.34l-.74,2.56-.02.06v-.06s-.79-4.4-.79-4.4l-3.08.54h-.02s3.85,3.73,3.85,3.73c-.41-2.3-1.04-4.66-1.9-7.19l.33-.04-.73-1.26c-.27-.4-.56-.8-.84-1.19l.23-.38c-.42-.56-.87-1.11-1.34-1.63-.5-.49-.96-1.02-1.51-1.46.12.16.24.3.35.47-.39-.3-1.16-1.02-2.12-1.66-.23-.17-.47-.34-.71-.51-.25-.16-.5-.31-.74-.46-.48-.32-.94-.6-1.35-.84l.16-.17c-2.23-1.47-4.74-2.03-7.26-2.01-2.53,0-5.14.59-7.94,1.75l.6-.71c-1.08.15-1.15.39-1.24.66-.09.29-.23.54-1.36,1.04l-.38-.43c-.4.42-.73.74-1.05.97-.32.23-.63.37-.92.5-.6.25-1.22.36-1.89.8.35.01.69.04,1.02.07-.75.58-1.47,1.22-2.13,1.91-1.11,1.13-1.54,1.45-1.77,1.32-.23-.11-.19-.63-.2-.94-.3.73-.56,1.47-.76,2.22l-.79.07c-.05.93-.26,1.27-.56,1.77-.14.25-.31.54-.48.94-.12.29-.09.21-.1.27,0,.04,0,.09.03.16-.23-.1-.31-.22-.45-.2.18.27.26.67.15,1.07.09-.2.13-.4.12-.59.22.23.42.47.62.72-.03.51-.34.67-.59.68-.26.01-.46-.08-.72.08.12-.11.22-.22.3-.33-.18.1-.33.13-.46.13-.07,0-.14,0-.21,0-.09,0-.17-.01-.25-.02-.16-.02-.3-.04-.44-.06-.54-.1-.93-.25-1.66-.36.45.18,1.14.44.1.56-.76.05-.41-.33-1.13-.44-.17.63-2.01.96-3.68.67.02-.09.06-.18.16-.23-.43.1-.65.26-1.39.11l.44-.7-1.43.67c-.95-.19-2.34.32-2.21-.16l.54-.14-7.2-.17-.1-.56c-.71.77-3.92-.29-3.69.67-1.36-.52-5.35.37-4.55-.71-2.37-.04-4.19.2-6.14.38-.49.04-.98.08-1.5.12-.63.04-1.28.08-1.97.12-1.68.15-3.55.54-5.57,1.42-.8.15-1.87.62-3,1.41-1.11.81-2.25,1.97-3.18,3.39-.94,1.41-1.63,3.09-1.99,4.79-.36,1.7-.44,3.35-.3,4.85.41,2.91,1.63,5.4,3.19,7.29,1.57,1.89,3.45,3.3,5.52,4.22,2.07.92,4.35,1.39,6.72,1.33,1.59-.07,3.26-.15,5.11-.23,4.44,1.28,11.07-.44,15.84.28l1.31-.51c1.59.41,3.59.36,5.76.31,1.08-.02,2.2-.05,3.33-.02.56.02,1.13.04,1.7.09l.85.09c.19.02.19.04.21.06.03.02.05.04.07.07.24-.23.42-.25.48-.25-.03-.04-.07-.15,0-.47.15.14.41.24.57.41.15.18.18.36-.1.56h-.1c-.22.19-.13.24-.01.35.13.09.28.29.2.47-.01.04-.03.06-.06.1-.03.15-.06.28-.11.4l.35-.39c.12-.06.23-.07.35-.12v.08s-.02.17-.03.25l-.03.6-.06,1.2-.13-.64c.77,5.23.6,9.03.42,12.74-.09,1.86-.19,3.7-.17,5.69,0,.99.04,2.03.12,3.12.02.27.04.55.07.83l.04.42c.01.12.03.34.04.34.07.2.15.41.22.63-.38-.32-.28-.14-.19.1.09.24.17.6-.24.35-.33,0-.43.05-.4.23-.13.03-.15.21-.23.4-.08.19-.22.4-.45.5.01.04.02.09,0,.15l-.72-.05-1.78-.05c2.12-1.05-2.56.87-.61-.02-2.31-.2-4.81-.29-7.41-.33-.65,0-1.31-.01-1.97-.02h-1s-.5,0-.5,0h-.65c-2.02.08-4.06.65-5.85,1.67-.9.51-1.74,1.13-2.49,1.85-.38.36-.73.74-1.06,1.14-.33.4-.66.87-.82,1.1-.8,1.14-1.61,2.28-2.41,3.42-1.61,2.27-3.24,4.51-4.87,6.63l.49-.23c-1.62,2.18-3.33,5.12-4.88,6.55-1.55,1.43-2.07,4.07-2.5,4.74-.94,2.11-2.89,3.24-2.28,2.48-1.3,2.04-1.85,4.44-4.14,6.93-1.39.42-4.62,7.95-5.49,7.45l.05.08c-3.07,3.08-4.46,7.07-7.67,10.47,0,0,0-.11.03-.28l-3.02,9.42,4.27-.24,6.95-5.06,12.4-18.32,11.14-13.74,6.18-8.78,3.09-4.39.77-1.1.34-.49c.04-.06.08-.12.13-.17.18-.22.4-.41.64-.57.24-.16.51-.27.79-.35.14-.03.28-.07.43-.08.07-.02.15,0,.22-.02h.67s5.37-.05,5.37-.05l13.69-.09c1.77-.24,3.43-.49,4.96-.73l-.02-.17c.16-1.72.28-3.64.37-5.67.03-1.03.07-2.07.11-3.13.02-.91.04-1.83.06-2.76.06-2.34.02-4.77-.03-7.22-.1-4.9-.24-9.88.23-14.43l-.65-.19c-.01-.89.03-1.45.09-1.82.02-.09.04-.18.05-.25.02-.13.04-.25.06-.35.04-.22.08-.38.12-.54.06-.28.12-.51.13-.88-.21-2.76-1.53-5.37-3.57-7.18-2.03-1.83-4.78-2.8-7.57-2.7l-9.24.12c-5.99.08-11.97.17-17.87.25-1.48.01-2.95.03-4.41.04l-2.19.02h-.55c-.19,0-.39,0-.44,0-.18-.02-.37,0-.55-.04-.72-.09-1.43-.34-2.04-.72-.61-.39-1.12-.92-1.47-1.49-.36-.57-.56-1.19-.6-1.83-.05-.64.06-1.33.3-1.92.46-1.2,1.52-2.13,2.66-2.43.25.02.58-.03.96-.02.68.01,1.46.03,2.22.04,2.03.05,4.01.1,4.83.32,6.97-.79,14.35-.78,21.33-.7l-.26.07,3.29-.12c.14.05.16.13.05.18.93-.14,1.99-.22,3.13-.24.29,0,.57,0,.87,0h.58c.26-.02.53-.02.79-.05,1.06-.09,2.14-.32,3.18-.7,2.08-.75,3.99-2.12,5.38-3.88.7-.87,1.27-1.84,1.68-2.84.14-.33.13-.28.19-.4l.13-.24c.07-.17.17-.32.27-.47v.18c.87-1.83,2.36-3.38,4.16-4.26,1.78-.9,3.88-1.16,5.85-.79,1.96.37,3.78,1.46,5.12,2.97,1.35,1.53,2.11,3.5,2.26,5.55l.37,5.14,4.88-.07h.02s-5.25-5.25-5.25-5.25c.17,12.68.25,25.33-.2,38.4-.53,6.11-.43,12.71-.31,19.54.02.85.03,1.71.05,2.57l.02,1.29v.65s.01.31.01.31v.17c-.01.93-.22,1.85-.64,2.68-.8,1.69-2.53,2.93-4.31,3.13-.17-.02-.54-.02-1.05-.02-.91-.02-2.09-.04-3.44-.07-3.06-.04-6.92-.03-10.78,0-3.86.04-7.72.11-10.77.19-.83.03-1.6.05-2.31.07-.99.04-1.88.19-2.64.34-1.52.33-2.53.77-2.96.96Z" fill="#64ad2f"/>
      <path d="M224.93,317.75l.06-.09c-.23-.15-.24.04-.06.09Z" fill="#1d1d1d"/>
      <path d="M271.03,289.63c-.06,0-.12,0-.18,0l.7.38-.51-.38Z" fill="#64ad2f"/>
      <path d="M243.31,304.94c1.04-1.33,1.03-1.43.8-1.3-.36.49-.65.94-.8,1.3Z" fill="#64ad2f"/>
      <path d="M217.44,329.32c-.53.71-.2.53.25.21.5-.76.84-1.28.84-1.28-.34.37-.74.69-1.09,1.07Z" fill="#1d1d1d"/>
      <path d="M222.55,328.49l.02.35c.26-.46.18-.49-.02-.35Z" fill="#1d1d1d"/>
    </g>
    <g>
      <path d="M163.67,226.41s-.06.02,0,0h0Z" fill="#1d1d1d"/>
      <path d="M193.19,225.46s.02,0,.03,0c.02-.13.04-.24.06-.33l-.09.33Z" fill="#9d4693"/>
      <path d="M197.94,226.27s.02.02.03.03c0-.08,0-.16-.03-.03Z" fill="#1d1d1d"/>
      <path d="M182.25,226.68s-.06.02-.08.06c.02-.03.05-.05.08-.06Z" fill="#9d4693"/>
      <path d="M154.96,227.11s.01,0,.02-.01c-.02-.03-.03-.04-.05-.08l.03.09Z" fill="#1d1d1d"/>
      <path d="M155.06,226.89c.1.1-.03.18-.07.21.12.18.23.19.35.11,0-.2-.22-.17-.27-.32Z" fill="#1d1d1d"/>
      <path d="M139.17,227.66l.05-.08s-.03.05-.05.08Z" fill="#1d1d1d"/>
      <path d="M182.72,236.53s-.05.03-.07.05c.04,0,.06-.02.07-.05Z" fill="#9d4693"/>
      <path d="M141.67,227.86l.03-.32c-.02.13-.03.23-.03.32Z" fill="#1d1d1d"/>
      <path d="M193.28,225.13l.03-.12s-.02.07-.03.12Z" fill="#9d4693"/>
      <path d="M202.33,226.48c0,.1.01.18.02.24,0,0,0,0,.01,0l-.04-.24Z" fill="#1d1d1d"/>
      <path d="M224.45,231.54s0-.08-.01-.12l-.09.23s.08-.05.1-.1Z" fill="#1d1d1d"/>
      <path d="M208.35,227.86s.02-.07.02-.11c-.1-.11-.37-.13-.72-.12l-.02.39.72-.16Z" fill="#1d1d1d"/>
      <path d="M214.93,236.97l-.64-.79c2.06-.36,3.02.43,4.78-.21l-.1.17c.26.18.4-1.58,3.24.57v.08c.1-.01.1-.17.29.04l-.49-.48c.29-.2.55-.57.94-.63.08.09.11.25.12.37l.96-.13.29.51c.29-.28.16-1.35.94-.75-.3-.74.39-.45.29-.82.04.09.13.23.2.36.47-.09,1.35-.29,1.56-.68,0,0-1.83-1.57-2.32-2.36.66.2.17-.09.04-.34l-.04.19c-.39-.18-.39-.65-.59-.78,0,.04,0,.08.01.13l.03-.06c.02.08,0,.14-.01.19,0,.1-.01.18-.12.15l.02-.05c-.16.07-.45,0-.57-.04v-.39c-.29.75-1.96-1.14-2.36-1.16-.39-.49-.88.12-1.37-.13-.78-.13-.39-.57-.78-.91-.49-.25.1.46-.1.48l-.59-.55c.34-.05.16-.28.09-.44-.51-.07-1.31-.79-1.47,0-.69-.37-.69-.69-.98-.73.1.14.29.27.3.43-.27-.35-.13.09-.02.16-.42.34-2.18-1.43-2.26-.57v-.16c-.1.64.06,1.26-.23,1.61l-.2-.29-.29.28c-.2-.21-.1-.38-.1-.46-.48.3-1.15-.06-1.73-.14l.61,1.74c-.49-.4-1.37-1.22-1.47-.66l-.29-.59c-.98-1.12-.69.49-1.08.15l-.49-.64h.49c-.49-.31-.69-.52-1.08-.94,0,0,0,.01,0,.02.03.03.04.06.05.1l-.07.02c-.06.32-.32.54-.66.52-.49-.09-.87.38-1.66-.29l-.2.65-.59-.39v-.52c.58.03,1.66-.17,2.4-.19v-.24c-.43,0-.93.23-1.22.18-.14-.1-.5-.64-.24-1l-.27.51c-1.47.06-1.48.08-3.01-.51l.13.26c-.3.15-.61.3-.69-.12-.92-.09-1.87-.41-2.47-1.07l-.13.61c-.19-.03-.49-.96-.58-.1l-.41.27c-.27-.05-.43.3-.73-.05,0,0,0,0,0,0,0,0,0,0,0,0-.02-.02-.04-.04-.06-.07,0,.02,0,.03,0,.05-.6-.27,0,.55-.68.2-.22-.44-.24.78-.58.64l-.34-.88c-.61-.5-.71.38-1.59.38-.42-.31-.63-1.06-.35-1.73-.38.81-.18.53-.69.91-.08-.33-.02-.4.09-.7-.45-.39-.28.3-.62.28-.1.62-.21,1.62-.32,1.66l.13.19c-.36.33-.76.49-1.18.18l.02-.31-.45.16-.03-.4-.64.12.09.11c-.15.05-.64.19-.92-.02v-.22c-.78-.7-1.44.22-2.37.29l.12-.46c-.32-.45-.09.7-.47.47l-.02-.56c-.33.73-.43-.16-.66-.43l.11.73-.43-.15c-.48-.24-.29-.93-.22-1.31l-.32.58-.06-.65c-.24.75-.24-.12-.65.28-.03-.24.07-.38-.07-.49l-.68.91.41-.4-.05.94c-.43.72-.58-.1-.89.16l.21-.28c-.5.23-.53-.17-.81-.38.09.18.22.44.02.56-.15.05-.08-.33-.22-.44-.03.63-.39.96-.72.67,0-.09.01-.18.03-.23-.08.1-.13.26-.27.11l.09-.7-.28.67c-.19-.19-.46.32-.43-.16l.11-.14-1.41-.17-.02-.56c-.14.77-.77-.29-.72.67-.27-.52-1.04.37-.89-.71-.92-.08-1.42.96-2.55.43-.4-.92-1.5-.62-2.22-.72-1.41.38-2.32.73-3.76,1.03-.87-1.28-2.16.44-3.09-.28l-.26.51c-.62-.81-1.57.18-2.43-.61-.21.22-.32.29-.37.31.04.02.1.12.12.44-.25-.23-.75.06-.71-.59l.06-.07c.04-.65-.75.3-1.03-.26l.15.69-.47-.12.13-.13c-2.04,1.54-2.96-.66-4.88.74.25-.76-.38.4-.4-.43-.48-1.04-.9.22-1.29.5,0,.04,0,.09-.03.15l-.69-.1c.41-1.05-.5.87-.12-.02-1.81-.78-4.17.01-6.26-.35l.09.27c-.53-.05-1.19.27-1.59-.15-.4-.43-.88.68-1.04.73-.44.46-.84-.46-.65-.41-.47.13-.92,1.08-1.57.67-.22-.89-1.79.87-1.81-.13v.08c-.85-.7-1.64.49-2.54-.14,0,0,.02-.07.05-.14l-1.84,3.03.52,3.33,1.59,2.71,4.32-.59,3.45,1.06,8.39-.36.6-.75c1.65,1.31,3.76-.2,5.54.74l.04-.65c.5-.04.47.36.59.48,4.66-.14,9.45-1.01,13.64-.19.4.43,1.63.18,1.95.63,1.36-.79,2.8-.78,4.16-.7l-.05.07.64-.12c.03.05.03.13.01.18.72-.57,1.86,0,2.75.23l-.05.07c5.17.12,9.97-1.09,15.1-.19,2.38,1.06,5.16-.4,7.89.48.5.64,6.04.16,6.53-.14Z" fill="#9d4693"/>
      <path d="M223.08,236.11h-.02c0,.28.03.17.02,0Z" fill="#1d1d1d"/>
      <path d="M211.65,228.65s.02,0,.04,0l-.14-.38.1.38Z" fill="#1d1d1d"/>
      <path d="M218.97,228.43c-.33-.09-.34-.02-.3.09.12.02.22,0,.3-.09Z" fill="#1d1d1d"/>
      <path d="M225.77,235.59c.17.02.11-.14,0-.32-.18.03-.3.05-.3.05.1.06.19.21.29.27Z" fill="#1d1d1d"/>
      <path d="M225.06,231.89l.05-.22c-.1.05-.1.13-.05.22Z" fill="#1d1d1d"/>
    </g>
    <g>
      <path d="M187.46,263.18s-.02-.07,0,0h0Z" fill="#9d4693"/>
      <path d="M188.41,298.07s0,.02,0,.03c.13.02.24.05.33.07l-.33-.1Z" fill="#1d1d1d"/>
      <path d="M187.6,303.69s-.02.02-.03.03c.08,0,.16,0,.03-.03Z" fill="#1d1d1d"/>
      <path d="M187.2,285.14s-.02-.08-.06-.1c.03.03.05.06.06.1Z" fill="#1d1d1d"/>
      <path d="M186.76,252.89s0,.01.01.02c.03-.02.04-.04.08-.06l-.09.04Z" fill="#9d4693"/>
      <path d="M186.99,253c-.1.12-.18-.03-.21-.09-.18.14-.19.27-.11.41.2,0,.17-.26.32-.32Z" fill="#9d4693"/>
      <path d="M186.21,234.23l.08.06s-.05-.04-.08-.06Z" fill="#9d4693"/>
      <path d="M177.34,285.69s-.03-.06-.05-.08c0,.04.02.07.05.08Z" fill="#1d1d1d"/>
      <path d="M186.01,237.17l.32.03c-.13-.03-.23-.04-.32-.03Z" fill="#9d4693"/>
      <path d="M188.74,298.18l.12.04s-.07-.03-.12-.04Z" fill="#1d1d1d"/>
      <path d="M187.39,308.87c-.1,0-.18.01-.24.03,0,0,0,.01,0,.01l.24-.04Z" fill="#1d1d1d"/>
      <path d="M182.33,335.02s.08,0,.12-.01l-.23-.1c.02.06.05.09.1.12Z" fill="#1d1d1d"/>
      <path d="M186.01,315.99s.07.02.11.02c.11-.12.13-.44.12-.85l-.39-.03.16.85Z" fill="#1d1d1d"/>
      <path d="M176.9,323.77l.79-.76c.36,2.43-.43,3.57.21,5.65l-.17-.12c-.18.3,1.58.47-.57,3.82h-.08c.01.12.17.12-.04.35l.48-.58c.2.35.57.65.63,1.11-.09.1-.25.13-.37.14l.13,1.13-.51.35c.28.35,1.35.19.75,1.12.74-.35.45.46.82.35-.09.05-.23.15-.36.24.09.55.29,1.59.68,1.85,0,0,1.57-2.16,2.36-2.74-.2.78.09.2.34.05l-.19-.05c.18-.47.65-.47.78-.7-.04,0-.08,0-.13.01l.06.03c-.08.02-.14,0-.19-.02-.1,0-.18-.02-.15-.14l.05.02c-.07-.19,0-.53.04-.68h.39c-.75-.35,1.14-2.32,1.16-2.78.49-.47-.12-1.04.13-1.62.13-.93.57-.46.91-.93.25-.58-.46.12-.48-.12l.55-.7c.05.4.28.18.44.11.07-.6.79-1.55,0-1.73.37-.81.69-.81.73-1.16-.14.12-.27.35-.43.35.35-.32-.09-.16-.16-.02-.34-.5,1.43-2.57.57-2.68h.16c-.64-.12-1.26.07-1.61-.28l.29-.23-.28-.35c.21-.23.38-.12.46-.12-.3-.57.06-1.36.14-2.04l-1.74.73c.4-.58,1.22-1.62.66-1.74l.59-.35c1.12-1.16-.49-.81-.15-1.27l.64-.58v.58c.31-.58.52-.81.94-1.27,0,0-.01,0-.02,0-.03.03-.06.05-.1.06l-.02-.08c-.32-.07-.54-.37-.52-.78.09-.58-.38-1.03.29-1.96l-.65-.23.39-.7h.52c-.03.68.17,1.96.19,2.84l.24.02c0-.52-.23-1.11-.18-1.45.1-.17.64-.6,1-.28l-.51-.32c-.06-1.73-.08-1.75.51-3.55l-.26.16c-.15-.36-.3-.72.12-.82.09-1.09.41-2.21,1.07-2.92l-.61-.15c.03-.23.96-.57.1-.69l-.27-.49c.05-.31-.3-.51.05-.86,0,0,0,0,0,0,0,0,0,0,0,0,.02-.02.04-.05.07-.07-.02,0-.03,0-.05,0,.27-.71-.55,0-.2-.81.44-.26-.78-.29-.64-.68l.88-.4c.5-.72-.38-.84-.38-1.88.31-.5,1.06-.74,1.73-.41-.81-.45-.53-.21-.91-.81.33-.09.4-.03.7.1.39-.54-.3-.33-.28-.73-.62-.12-1.62-.25-1.66-.38l-.19.16c-.33-.43-.49-.89-.18-1.39l.31.02-.16-.53.4-.03-.12-.76-.11.1c-.05-.18-.19-.76.02-1.09h.22c.7-.93-.22-1.7-.29-2.8l.46.14c.45-.37-.7-.1-.47-.55l.56-.02c-.73-.39.16-.51.43-.78l-.73.13.15-.51c.24-.56.93-.34,1.31-.26l-.58-.38.65-.07c-.75-.28.12-.28-.28-.77.24-.04.38.08.49-.08l-.91-.81.4.49-.94-.06c-.72-.51.1-.69-.16-1.05l.28.25c-.23-.59.17-.62.38-.96-.18.1-.44.26-.56.02-.05-.18.33-.1.44-.26-.63-.04-.96-.46-.67-.85.09,0,.18.01.23.04-.1-.1-.26-.15-.11-.32l.7.1-.67-.33c.19-.22-.32-.54.16-.51l.14.12.17-1.66.56-.02c-.77-.16.29-.91-.67-.85.52-.31-.37-1.23.71-1.05.08-1.09-.96-1.68-.43-3.01.92-.47.62-1.77.72-2.62-.38-1.67-.73-2.74-1.03-4.44,1.28-1.02-.44-2.55.28-3.65l-.51-.3c.81-.73-.18-1.85.61-2.88-.22-.25-.29-.38-.31-.44-.02.05-.12.12-.45.14.23-.29-.06-.89.59-.84l.07.07c.65.04-.3-.89.26-1.22l-.69.18.12-.56.13.15c-1.54-2.41.66-3.5-.74-5.77.76.3-.4-.45.43-.48,1.04-.57-.22-1.06-.5-1.53-.04,0-.09,0-.15-.03l.1-.82c1.05.49-.87-.59.02-.14.78-2.14-.01-4.92.35-7.4l-.27.11c.05-.63-.27-1.41.15-1.88.43-.48-.68-1.04-.73-1.23-.46-.52.46-1,.41-.77-.13-.56-1.08-1.08-.67-1.86.89-.26-.87-2.11.13-2.13h-.08c.7-1-.49-1.93.14-3,0,0,.07.02.14.06l-3.03-2.17-3.33.62-2.71,1.88.59,5.1-1.06,4.07.36,9.91.75.71c-1.31,1.95.2,4.45-.74,6.54l.65.04c.04.59-.36.55-.48.7.14,5.5,1.01,11.17.19,16.12-.43.48-.18,1.93-.63,2.3.79,1.61.78,3.31.7,4.92l-.07-.06.12.76c-.05.03-.13.04-.18.01.57.86,0,2.2-.23,3.25l-.07-.06c-.12,6.11,1.09,11.78.19,17.85-1.06,2.82.4,6.1-.48,9.33-.64.59-.16,7.13.14,7.71Z" fill="#9d4693"/>
      <path d="M177.77,333.4v-.03c-.28,0-.17.04,0,.03Z" fill="#1d1d1d"/>
      <path d="M185.22,319.88s0,.03,0,.04l.38-.16-.38.12Z" fill="#1d1d1d"/>
      <path d="M185.44,328.54c.09-.39.02-.41-.09-.35-.02.14,0,.26.09.35Z" fill="#1d1d1d"/>
      <path d="M178.28,336.57c-.02.2.14.13.32,0-.03-.21-.05-.35-.05-.35-.06.11-.21.23-.27.35Z" fill="#1d1d1d"/>
      <path d="M181.99,335.74l.22.06c-.05-.12-.13-.12-.22-.06Z" fill="#1d1d1d"/>
    </g>
    <g>
      <path d="M108.78,45.84c-.16-.02-.23.02,0,0h0Z" fill="#1d1d1d"/>
      <path d="M229.4,44.88s.07,0,.12,0c.09-.13.17-.24.24-.33l-.36.33Z" fill="#1d1d1d"/>
      <path d="M248.8,45.69s.08.02.12.03c-.01-.08.01-.16-.12-.03Z" fill="#1d1d1d"/>
      <path d="M184.7,46.1c-.17,0-.26.02-.33.06.1-.03.2-.05.33-.06Z" fill="#9d4693"/>
      <path d="M83.81,65.27s0-.05-.01-.08c-.03.07-.04.14-.08.21l.09-.12Z" fill="#1d1d1d"/>
      <path d="M83.59,64.88c.1-.43.18.12.21.31.18-.47.19-.95.11-1.42-.2,0-.17.91-.32,1.12Z" fill="#1d1d1d"/>
      <path d="M84.37,129.77l-.08-.19c.02.08.05.14.08.19Z" fill="#1d1d1d"/>
      <path d="M186.6,55.95c-.1.02-.2.03-.29.05.15,0,.23-.02.29-.05Z" fill="#1d1d1d"/>
      <path d="M84.57,119.58l-.32-.11c.13.1.23.12.32.11Z" fill="#1d1d1d"/>
      <path d="M229.76,44.55l.14-.12s-.09.07-.14.12Z" fill="#1d1d1d"/>
      <path d="M266.73,45.9c0,.1.05.18.1.24.02,0,.04,0,.05,0l-.15-.24Z" fill="#1d1d1d"/>
      <path d="M281.85,125.49s.08-.02.12-.05l-.23-.36c.02.19.05.32.1.41Z" fill="#1d1d1d"/>
      <path d="M285.53,59.72s.07.08.11.08c.11-.42.13-1.53.12-2.95-.13-.03-.26-.08-.39-.12l.16,2.99Z" fill="#1d1d1d"/>
      <path d="M276.42,86.61l.79-2.62c.36,8.41-.43,12.34.21,19.54l-.17-.4c-.18,1.05,1.58,1.64-.57,13.22h-.08c.01.4.17.4-.04,1.2l.48-2c.2,1.2.57,2.25.63,3.85-.09.34-.25.46-.37.49l.13,3.92-.51,1.2c.28,1.2,1.35.65.75,3.86.74-1.21.45,1.59.82,1.2-.09.16-.23.53-.36.83.09,1.91.29,5.5.68,6.39,0,0,1.57-7.46,2.36-9.47-.2,2.68.09.71.34.18l-.19-.18c.18-1.61.65-1.61.78-2.41-.04,0-.08.02-.13.05l.06.1c-.08.08-.14.03-.19-.05-.1.02-.18-.05-.15-.49l.05.08c-.07-.67,0-1.83.04-2.34h.39c-.75-1.2,1.14-8.02,1.16-9.62.49-1.61-.12-3.6.12-5.61.13-3.2.57-1.6.91-3.21.25-2.01-.46.41-.48-.4l.55-2.4c.05,1.4.28.64.44.38.07-2.08.79-5.35,0-5.99.37-2.8.69-2.81.73-4.01-.14.4-.27,1.2-.43,1.21.35-1.12-.09-.54-.16-.08-.34-1.71,1.43-8.89.57-9.25h.16c-.64-.4-1.26.24-1.61-.95l.29-.8-.28-1.2c.21-.81.38-.41.46-.41-.3-1.96.06-4.69.14-7.06l-1.74,2.51c.4-2,1.22-5.61.66-6.01l.59-1.2c1.12-4.01-.49-2.8-.15-4.4l.64-2.01v2c.31-2,.52-2.81.94-4.41,0,0-.01-.02-.02-.02-.03.11-.06.18-.1.2l-.02-.28c-.32-.24-.54-1.29-.52-2.7,0-.15,0-.29.01-.44v-.51c0-.33-.01-.67-.02-1-.02-.66-.04-1.32-.06-2.03-.03-1.43,0-2.99.29-5.46-.14-.02-.3-.05-.47-.08-.6.22-1.18.44-1.73.65l-3.18-.39.22-.52c1.42.01,3.35-.01,5.54-.05.05,3.18.1,6.82.15,9.65l.24.05c0-1.36-.06-2.96-.11-4.32-.05-1.38-.1-2.62-.07-3.58.06-.6.29-1.91.54-2.55-.07-.1,0-.21.31-.31.05.05.1.17.14.37l-.13-.37-1.73.37c-2.49.01-4.36.02-5.92.03-.78,0-1.48,0-2.15,0-.32,0-.64,0-.95-.01l-.58-.02c-1.54-.06-3.11-.2-6.24-.5l.54.26c-1.24.15-2.48.3-2.82-.12-3.76-.09-7.65-.41-10.08-1.07l-.53.61c-.79-.03-1.98-.96-2.37-.1l-1.69.27c-1.08-.05-1.75.3-2.98-.05h0s0,0,0,0c-.07-.02-.15-.05-.23-.07,0,.02,0,.03.01.05-2.45-.27.02.55-2.78.2-.9-.44-1,.78-2.37.64l-1.37-.88c-2.48-.5-2.91.38-6.5.38-1.73-.31-2.56-1.06-1.42-1.73-1.57.81-.72.53-2.8.91-.32-.33-.1-.4.36-.7-1.85-.39-1.14.3-2.54.28-.41.62-.87,1.62-1.33,1.66l.54.19c-1.48.33-3.09.49-4.81.18l.06-.31-1.83.16-.11-.4-2.61.12.36.11c-.61.05-2.63.19-3.78-.02l.04-.22c-3.25-.7-5.93.22-9.73.29l.5-.46c-1.3-.45-.36.7-1.9.47l-.08-.56c-1.36.73-1.76-.16-2.69-.43l.44.73-1.76-.15c-1.94-.24-1.19-.93-.91-1.31l-1.32.58-.26-.65c-.97.75-.97-.12-2.66.28-.14-.24.29-.38-.29-.49l-2.79.91,1.68-.4-.2.94c-1.75.72-2.38-.1-3.63.16l.86-.28c-2.05.23-2.15-.17-3.31-.38.36.18.91.44.08.56-.61.05-.33-.33-.9-.44-.14.63-1.6.96-2.94.67.02-.09.04-.18.13-.23-.34.1-.51.26-1.11.11l.35-.7-1.14.67c-.76-.19-1.86.32-1.76-.16l.43-.14-5.74-.17-.08-.56c-.57.77-3.13-.29-2.94.67-1.08-.52-4.27.37-3.63-.71-3.77-.08-5.81.96-10.4.43-1.63-.92-6.11-.62-9.06-.72-5.76.38-9.48.73-15.36,1.03-3.54-1.28-8.83.44-12.63-.28l-1.04.51c-2.53-.81-6.4.18-9.95-.61-.87.22-1.33.29-1.53.31.16.02.41.12.48.44-1.01-.23-3.06.06-2.92-.59l.26-.07c.15-.65-3.08.3-4.21-.26l.62.69-1.92-.12.51-.13c-2.91.54-5.26.62-7.43.56-3.53-.06-7.07-.27-10.83-.3-.03,3.17.06,6.83.49,10.76-.19-.43-.26-.5-.27-.33,0,.07,0,.24.02.37.02.1.04.23.06.36.09.53.17,1.2-.24,1.25-1.04,1.98.22,3.66.5,5.28.04,0,.09.02.15.11l-.1,2.83c-1.05-1.69.87,2.04-.02.49-.78,7.38.01,17.02-.35,25.57l.27-.37c-.05,2.17.27,4.86-.15,6.51-.43,1.65.68,3.6.73,4.24.46,1.8-.46,3.44-.41,2.67.13,1.93,1.08,3.74.67,6.41-.89.91.87,7.3-.13,7.38l.08.03c-.7,3.43.49,6.66-.14,10.35,0,0-.07-.07-.14-.2l3.03,7.51,3.33-2.14,2.71-6.51-.59-17.64,1.06-14.08-.36-34.26-.75-2.45c.14-.73.25-1.49.34-2.26.03-.37.07-.74.11-1.12.03-.06.05-.11.07-.15.07-.19.07-.37.03-.61l.38-.08.22-.04h.12s.06-.02.06-.02h.39c2.19,0,4.35.06,6.4.33l.15-.65c2.04-.04,1.91.36,2.41.48,19.02-.14,38.6-1.01,55.71-.19,1.65.43,6.67.18,7.96.63,5.56-.79,11.45-.78,17.01-.7l-.21.07,2.62-.12c.11.05.12.13.04.18,2.96-.57,7.61,0,11.24.23l-.21.07c21.12.12,40.73-1.09,61.68-.19,3.51.38,7.23.43,11.08.39,1.84-.04,3.72-.08,5.61-.11.16-.04.37-.08.58-.09,0,.14,0,.31-.05.46-.04-.49-.12,1.84-.24,3.25-.64,2.05-.16,24.66.14,26.66Z" fill="#9d4693"/>
      <path d="M277.29,119.88v-.09c-.28,0-.17.13,0,.09Z" fill="#1d1d1d"/>
      <polygon points="284.74 73.19 284.73 73.33 285.12 72.78 284.74 73.19" fill="#1d1d1d"/>
      <path d="M284.97,103.1c.09-1.34.02-1.41-.09-1.22-.02.49,0,.91.09,1.22Z" fill="#1d1d1d"/>
      <path d="M277.81,130.86c-.02.71.14.44.32.02-.03-.72-.05-1.22-.05-1.22-.06.4-.21.79-.27,1.2Z" fill="#1d1d1d"/>
      <path d="M281.51,127.98l.22.22c-.05-.42-.13-.4-.22-.22Z" fill="#1d1d1d"/>
    </g>
    <g>
      <path d="M134.1,45.84c-.1-.02-.15.02,0,0h0Z" fill="#1d1d1d"/>
      <path d="M214.14,44.88s.05,0,.08,0c.06-.13.11-.24.16-.33l-.24.33Z" fill="#1d1d1d"/>
      <path d="M227.01,45.69s.05.02.08.03c0-.08,0-.16-.08-.03Z" fill="#1d1d1d"/>
      <path d="M184.47,46.1c-.11,0-.17.02-.22.06.06-.03.13-.05.22-.06Z" fill="#9d4693"/>
      <path d="M110.51,46.53s.03,0,.06-.01c-.05-.03-.09-.04-.14-.08l.08.09Z" fill="#1d1d1d"/>
      <path d="M110.77,46.31c.28.1-.08.18-.2.21.31.18.63.19.95.11,0-.2-.6-.17-.74-.32Z" fill="#1d1d1d"/>
      <path d="M67.71,47.08l.13-.08c-.05.02-.09.05-.13.08Z" fill="#1d1d1d"/>
      <path d="M185.74,55.95c-.06.02-.14.03-.19.05.1,0,.16-.02.19-.05Z" fill="#1d1d1d"/>
      <path d="M74.47,47.28l.07-.32c-.07.13-.08.23-.07.32Z" fill="#1d1d1d"/>
      <path d="M214.38,44.55l.09-.12s-.06.07-.09.12Z" fill="#1d1d1d"/>
      <path d="M238.91,45.9c0,.1.03.18.06.24.01,0,.03,0,.03,0l-.1-.24Z" fill="#1d1d1d"/>
      <path d="M298.86,50.96s-.01-.08-.03-.12l-.24.23c.13-.02.21-.05.27-.1Z" fill="#1d1d1d"/>
      <path d="M255.22,47.28s.05-.07.06-.11c-.28-.11-1.01-.13-1.96-.12l-.06.39,1.96-.16Z" fill="#1d1d1d"/>
      <path d="M273.07,56.39l-1.74-.79c5.58-.36,8.19.43,12.97-.21l-.26.17c.7.18,1.09-1.58,8.77.57v.08c.27-.01.26-.17.8.04l-1.33-.48c.8-.2,1.49-.57,2.55-.63.23.09.3.25.32.37l2.6-.13.8.51c.8-.28.43-1.35,2.56-.75-.8-.74,1.06-.45.79-.82.11.09.35.23.55.36,1.26-.09,3.65-.29,4.24-.68,0,0-4.95-1.57-6.28-2.36,1.78.2.47-.09.12-.34l-.12.19c-1.07-.18-1.07-.65-1.6-.78,0,.04.02.08.03.13l.07-.06c.05.08.02.14-.04.19.01.1-.04.18-.33.15l.06-.05c-.45.07-1.22,0-1.55-.04v-.39c-.8.75-5.32-1.14-6.39-1.16-1.07-.49-2.39.12-3.72-.13-2.12-.13-1.06-.57-2.13-.91-1.33-.25.27.46-.26.48l-1.59-.55c.93-.05.42-.28.25-.44-1.38-.07-3.55-.79-3.98,0-1.86-.37-1.86-.69-2.66-.73.27.14.8.27.8.43-.74-.35-.36.09-.05.16-1.14.34-5.9-1.43-6.14-.57v-.16c-.26.64.16,1.26-.63,1.61l-.53-.29-.8.28c-.53-.21-.27-.38-.27-.46-1.3.3-3.11-.06-4.68-.14l1.67,1.74c-1.33-.4-3.72-1.22-3.99-.66l-.8-.59c-2.66-1.12-1.86.49-2.92.15l-1.34-.64h1.33c-1.33-.31-1.86-.52-2.92-.94,0,0-.01.01-.01.02.07.03.12.06.13.1l-.19.02c-.16.32-.85.54-1.79.52-1.33-.09-2.37.38-4.5-.29l-.53.65-1.6-.39v-.52c1.56.03,4.5-.17,6.51-.19l.04-.24c-1.19,0-2.55.23-3.33.18-.38-.1-1.37-.64-.65-1l-.74.51c-3.98.06-4,.08-8.15-.51l.36.26c-.82.15-1.64.3-1.87-.12-2.49-.09-5.07-.41-6.69-1.07l-.35.61c-.53-.03-1.32-.96-1.57-.1l-1.12.27c-.72-.05-1.16.3-1.98-.05,0,0,0,0,0,0,0,0,0,0,0,0-.05-.02-.1-.04-.15-.07,0,.02,0,.03,0,.05-1.63-.27.02.55-1.85.2-.6-.44-.66.78-1.57.64l-.91-.88c-1.65-.5-1.93.38-4.31.38-1.15-.31-1.7-1.06-.94-1.73-1.04.81-.47.53-1.86.91-.21-.33-.07-.4.24-.7-1.23-.39-.76.3-1.68.28-.27.62-.58,1.62-.88,1.66l.36.19c-.98.33-2.05.49-3.19.18l.04-.31-1.21.16-.08-.4-1.73.12.24.11c-.41.05-1.74.19-2.51-.02l.03-.22c-2.16-.7-3.93.22-6.46.29l.33-.46c-.86-.45-.24.7-1.26.47l-.05-.56c-.9.73-1.17-.16-1.79-.43l.29.73-1.17-.15c-1.29-.24-.79-.93-.6-1.31l-.88.58-.17-.65c-.64.75-.64-.12-1.77.28-.09-.24.19-.38-.19-.49l-1.85.91,1.12-.4-.14.94c-1.16.72-1.58-.1-2.41.16l.57-.28c-1.36.23-1.43-.17-2.2-.38.24.18.6.44.05.56-.4.05-.22-.33-.6-.44-.09.63-1.06.96-1.95.67.01-.09.03-.18.09-.23-.23.1-.34.26-.73.11l.23-.7-.75.67c-.5-.19-1.24.32-1.17-.16l.29-.14-3.81-.17-.05-.56c-.38.77-2.08-.29-1.95.67-.72-.52-2.83.37-2.41-.71-2.5-.08-3.86.96-6.9.43-1.08-.92-4.05-.62-6.01-.72-3.82.38-6.29.73-10.19,1.03-2.35-1.28-5.86.44-8.38-.28l-.69.51c-1.68-.81-4.24.18-6.6-.61-.58.22-.88.29-1.01.31.11.02.27.12.32.44-.67-.23-2.03.06-1.94-.59l.17-.07c.1-.65-2.04.3-2.79-.26l.41.69-1.27-.12.34-.13c-5.54,1.54-8.04-.66-13.23.74.69-.76-1.02.4-1.09-.43-1.31-1.04-2.43.22-3.5.5,0,.04-.01.09-.07.15l-1.88-.1c1.12-1.05-1.35.87-.32-.02-4.9-.78-11.29.01-16.96-.35l.25.27c-1.44-.05-3.23.27-4.32-.15-1.09-.43-2.39.68-2.81.73-1.2.46-2.28-.46-1.77-.41-1.28.13-2.48,1.08-4.26.67-.61-.89-4.84.87-4.9-.13l-.02.08c-2.27-.7-4.42.49-6.87-.14,0,0,.05-.07.13-.14l-4.98,3.03,1.42,3.33,4.32,2.71,11.7-.59,9.34,1.06,22.73-.36,1.62-.75c4.47,1.31,10.2-.2,15.01.74l.1-.65c1.36-.04,1.26.36,1.6.48,12.62-.14,25.61-1.01,36.97-.19,1.09.43,4.42.18,5.28.63,3.69-.79,7.59-.78,11.29-.7l-.14.07,1.74-.12c.07.05.08.13.03.18,1.96-.57,5.05,0,7.46.23l-.14.07c14.02.12,27.03-1.09,40.93-.19,6.46,1.06,13.98-.4,21.4.48,1.36.64,16.36.16,17.69-.14Z" fill="#9d4693"/>
      <path d="M295.15,55.53h-.06c0,.28.09.17.06,0Z" fill="#1d1d1d"/>
      <path d="M264.16,48.07s.07,0,.1,0l-.37-.38.27.38Z" fill="#1d1d1d"/>
      <path d="M284.01,47.85c-.89-.09-.93-.02-.81.09.32.02.6,0,.81-.09Z" fill="#1d1d1d"/>
      <path d="M302.43,55.01c.47.02.29-.14.01-.32-.48.03-.81.05-.81.05.26.06.53.21.8.27Z" fill="#1d1d1d"/>
      <path d="M300.52,51.31l.15-.22c-.28.05-.26.13-.15.22Z" fill="#1d1d1d"/>
    </g>
    <g>
      <path d="M157.22,72.21c-.06-.02-.09.02,0,0h0Z" fill="#1d1d1d"/>
      <path d="M203.64,71.25s.03,0,.05,0c.03-.13.06-.24.09-.33l-.14.33Z" fill="#1d1d1d"/>
      <path d="M211.11,72.07s.03.02.05.03c0-.08,0-.16-.05-.03Z" fill="#1d1d1d"/>
      <path d="M186.44,72.47c-.06,0-.1.02-.13.06.04-.03.08-.05.13-.06Z" fill="#1d1d1d"/>
      <path d="M143.53,72.9s.02,0,.03-.01c-.03-.03-.05-.04-.08-.08l.05.09Z" fill="#1d1d1d"/>
      <path d="M143.68,72.68c.16.1-.05.18-.12.21.18.18.36.19.55.11,0-.2-.35-.17-.43-.32Z" fill="#1d1d1d"/>
      <path d="M118.71,73.46l.07-.08s-.05.05-.07.08Z" fill="#1d1d1d"/>
      <path d="M187.17,82.32s-.08.03-.11.05c.06,0,.09-.02.11-.05Z" fill="#1d1d1d"/>
      <path d="M122.63,73.66l.04-.32c-.04.13-.05.23-.04.32Z" fill="#1d1d1d"/>
      <path d="M203.78,70.92l.05-.12s-.04.07-.05.12Z" fill="#1d1d1d"/>
      <path d="M218.01,72.27c0,.1.02.18.04.24,0,0,.02,0,.02,0l-.06-.24Z" fill="#1d1d1d"/>
      <path d="M252.79,77.34s0-.08-.02-.12l-.14.23c.07-.02.12-.05.16-.1Z" fill="#f9b515"/>
      <path d="M227.47,73.65s.03-.07.03-.11c-.16-.11-.59-.13-1.13-.12l-.03.39,1.14-.16Z" fill="#1d1d1d"/>
      <path d="M237.82,82.77l-1.01-.79c3.24-.36,4.75.43,7.52-.21l-.15.17c.4.18.63-1.58,5.09.57v.08c.15-.01.15-.17.46.04l-.77-.48c.46-.2.87-.57,1.48-.63.13.09.18.25.19.37l1.51-.13.46.51c.46-.28.25-1.35,1.49-.75-.47-.74.61-.45.46-.82.06.09.2.23.32.36.73-.09,2.12-.29,2.46-.68,0,0-2.87-1.57-3.64-2.36,1.03.2.27-.09.07-.34l-.07.19c-.62-.18-.62-.65-.93-.78,0,.04,0,.08.02.13l.04-.06c.03.08.01.14-.02.19,0,.1-.02.18-.19.15l.03-.05c-.26.07-.71,0-.9-.04v-.39c-.46.75-3.09-1.14-3.7-1.16-.62-.49-1.39.12-2.16-.13-1.23-.13-.62-.57-1.23-.91-.77-.25.16.46-.15.48l-.93-.55c.54-.05.25-.28.15-.44-.8-.07-2.06-.79-2.31,0-1.08-.37-1.08-.69-1.54-.73.16.14.46.27.47.43-.43-.35-.21.09-.03.16-.66.34-3.42-1.43-3.56-.57v-.16c-.15.64.09,1.26-.37,1.61l-.31-.29-.46.28c-.31-.21-.16-.38-.16-.46-.75.3-1.8-.06-2.72-.14l.97,1.74c-.77-.4-2.16-1.22-2.31-.66l-.46-.59c-1.54-1.12-1.08.49-1.69.15l-.78-.64h.77c-.77-.31-1.08-.52-1.7-.94,0,0,0,.01,0,.02.04.03.07.06.08.1l-.11.02c-.09.32-.5.54-1.04.52-.77-.09-1.38.38-2.61-.29l-.31.65-.93-.39v-.52c.91.03,2.61-.17,3.78-.19l.02-.24c-.69,0-1.48.23-1.93.18-.22-.1-.79-.64-.38-1l-.43.51c-2.31.06-2.32.08-4.73-.51l.21.26c-.48.15-.95.3-1.09-.12-1.45-.09-2.94-.41-3.88-1.07l-.21.61c-.31-.03-.76-.96-.91-.1l-.65.27c-.42-.05-.67.3-1.15-.05,0,0,0,0,0,0,0,0,0,0,0,0-.03-.02-.06-.04-.09-.07,0,.02,0,.03,0,.05-.94-.27,0,.55-1.07.2-.35-.44-.38.78-.91.64l-.53-.88c-.95-.5-1.12.38-2.5.38-.66-.31-.99-1.06-.55-1.73-.6.81-.28.53-1.08.91-.12-.33-.04-.4.14-.7-.71-.39-.44.3-.98.28-.16.62-.34,1.62-.51,1.66l.21.19c-.57.33-1.19.49-1.85.18l.02-.31-.7.16-.04-.4-1.01.12.14.11c-.24.05-1.01.19-1.45-.02l.02-.22c-1.25-.7-2.28.22-3.75.29l.19-.46c-.5-.45-.14.7-.73.47l-.03-.56c-.52.73-.68-.16-1.04-.43l.17.73-.68-.15c-.75-.24-.46-.93-.35-1.31l-.51.58-.1-.65c-.37.75-.37-.12-1.02.28-.05-.24.11-.38-.11-.49l-1.08.91.65-.4-.08.94c-.68.72-.92-.1-1.4.16l.33-.28c-.79.23-.83-.17-1.27-.38.14.18.35.44.03.56-.23.05-.13-.33-.35-.44-.05.63-.62.96-1.13.67,0-.09.02-.18.05-.23-.13.1-.2.26-.43.11l.13-.7-.44.67c-.29-.19-.72.32-.68-.16l.17-.14-2.21-.17-.03-.56c-.22.77-1.2-.29-1.13.67-.42-.52-1.64.37-1.4-.71-1.45-.08-2.24.96-4,.43-.63-.92-2.35-.62-3.49-.72-2.22.38-3.65.73-5.91,1.03-1.36-1.28-3.4.44-4.86-.28l-.4.51c-.97-.81-2.46.18-3.83-.61-.33.22-.51.29-.59.31.06.02.16.12.19.44-.39-.23-1.18.06-1.12-.59l.1-.07c.06-.65-1.18.3-1.62-.26l.24.69-.74-.12.2-.13c-3.21,1.54-4.66-.66-7.68.74.4-.76-.59.4-.63-.43-.76-1.04-1.41.22-2.03.5,0,.04,0,.09-.04.15l-1.09-.1c.65-1.05-.78.87-.19-.02-2.84-.78-6.55.01-9.84-.35l.14.27c-.83-.05-1.87.27-2.51-.15-.63-.43-1.38.68-1.63.73-.69.46-1.32-.46-1.03-.41-.74.13-1.44,1.08-2.47.67-.35-.89-2.81.87-2.84-.13v.08c-1.33-.7-2.57.49-3.99-.14,0,0,.03-.07.08-.14l-2.89,3.03.82,3.33,2.5,2.71,6.79-.59,5.42,1.06,13.19-.36.94-.75c2.59,1.31,5.91-.2,8.7.74l.06-.65c.79-.04.73.36.93.48,7.32-.14,14.86-1.01,21.44-.19.64.43,2.57.18,3.06.63,2.14-.79,4.41-.78,6.55-.7l-.08.07,1.01-.12c.04.05.05.13.02.18,1.14-.57,2.93,0,4.32.23l-.08.07c8.13.12,15.68-1.09,23.74-.19,3.75,1.06,8.11-.4,12.41.48.79.64,9.49.16,10.26-.14Z" fill="#f9b515"/>
      <path d="M250.63,81.9h-.03c0,.28.05.17.03,0Z" fill="#f9b515"/>
      <path d="M232.66,74.45s.04,0,.06,0l-.21-.38.16.38Z" fill="#1d1d1d"/>
      <path d="M244.17,74.22c-.52-.09-.54-.02-.47.09.19.02.35,0,.47-.09Z" fill="#f9b515"/>
      <path d="M254.86,81.38c.27.02.17-.14,0-.32-.28.03-.47.05-.47.05.15.06.3.21.46.27Z" fill="#f9b515"/>
      <path d="M253.75,77.68l.08-.22c-.16.05-.15.13-.08.22Z" fill="#f9b515"/>
    </g>
    <g>
      <path d="M157.22,98.05c-.06-.02-.09.02,0,0h0Z" fill="#1d1d1d"/>
      <path d="M203.64,97.1s.03,0,.05,0c.03-.13.06-.24.09-.33l-.14.33Z" fill="#1d1d1d"/>
      <path d="M211.11,97.91s.03.02.05.03c0-.08,0-.16-.05-.03Z" fill="#1d1d1d"/>
      <path d="M186.44,98.31c-.06,0-.1.02-.13.06.04-.03.08-.05.13-.06Z" fill="#1d1d1d"/>
      <path d="M143.53,98.74s.02,0,.03-.01c-.03-.03-.05-.04-.08-.08l.05.09Z" fill="#1d1d1d"/>
      <path d="M143.68,98.52c.16.1-.05.18-.12.21.18.18.36.19.55.11,0-.2-.35-.17-.43-.32Z" fill="#1d1d1d"/>
      <path d="M118.71,99.3l.07-.08s-.05.05-.07.08Z" fill="#1d1d1d"/>
      <path d="M187.17,108.16s-.08.03-.11.05c.06,0,.09-.02.11-.05Z" fill="#1d1d1d"/>
      <path d="M122.63,99.5l.04-.32c-.04.13-.05.23-.04.32Z" fill="#1d1d1d"/>
      <path d="M203.78,96.77l.05-.12s-.04.07-.05.12Z" fill="#1d1d1d"/>
      <path d="M218.01,98.11c0,.1.02.18.04.24,0,0,.02,0,.02,0l-.06-.24Z" fill="#1d1d1d"/>
      <path d="M252.79,103.18s0-.08-.02-.12l-.14.23c.07-.02.12-.05.16-.1Z" fill="#f9b515"/>
      <path d="M227.47,99.49s.03-.07.03-.11c-.16-.11-.59-.13-1.13-.12l-.03.39,1.14-.16Z" fill="#1d1d1d"/>
      <path d="M237.82,108.61l-1.01-.79c3.24-.36,4.75.43,7.52-.21l-.15.17c.4.18.63-1.58,5.09.57v.08c.15-.01.15-.17.46.04l-.77-.48c.46-.2.87-.57,1.48-.63.13.09.18.25.19.37l1.51-.13.46.51c.46-.28.25-1.35,1.49-.75-.47-.74.61-.45.46-.82.06.09.2.23.32.36.73-.09,2.12-.29,2.46-.68,0,0-2.87-1.57-3.64-2.36,1.03.2.27-.09.07-.34l-.07.19c-.62-.18-.62-.65-.93-.78,0,.04,0,.08.02.13l.04-.06c.03.08.01.14-.02.19,0,.1-.02.18-.19.15l.03-.05c-.26.07-.71,0-.9-.04v-.39c-.46.75-3.09-1.14-3.7-1.16-.62-.49-1.39.12-2.16-.13-1.23-.13-.62-.57-1.23-.91-.77-.25.16.46-.15.48l-.93-.55c.54-.05.25-.28.15-.44-.8-.07-2.06-.79-2.31,0-1.08-.37-1.08-.69-1.54-.73.16.14.46.27.47.43-.43-.35-.21.09-.03.16-.66.34-3.42-1.43-3.56-.57v-.16c-.15.64.09,1.26-.37,1.61l-.31-.29-.46.28c-.31-.21-.16-.38-.16-.46-.75.3-1.8-.06-2.72-.14l.97,1.74c-.77-.4-2.16-1.22-2.31-.66l-.46-.59c-1.54-1.12-1.08.49-1.69.15l-.78-.64h.77c-.77-.31-1.08-.52-1.7-.94,0,0,0,.01,0,.02.04.03.07.06.08.1l-.11.02c-.09.32-.5.54-1.04.52-.77-.09-1.38.38-2.61-.29l-.31.65-.93-.39v-.52c.91.03,2.61-.17,3.78-.19l.02-.24c-.69,0-1.48.23-1.93.18-.22-.1-.79-.64-.38-1l-.43.51c-2.31.06-2.32.08-4.73-.51l.21.26c-.48.15-.95.3-1.09-.12-1.45-.09-2.94-.41-3.88-1.07l-.21.61c-.31-.03-.76-.96-.91-.1l-.65.27c-.42-.05-.67.3-1.15-.05,0,0,0,0,0,0,0,0,0,0,0,0-.03-.02-.06-.04-.09-.07,0,.02,0,.03,0,.05-.94-.27,0,.55-1.07.2-.35-.44-.38.78-.91.64l-.53-.88c-.95-.5-1.12.38-2.5.38-.66-.31-.99-1.06-.55-1.73-.6.81-.28.53-1.08.91-.12-.33-.04-.4.14-.7-.71-.39-.44.3-.98.28-.16.62-.34,1.62-.51,1.66l.21.19c-.57.33-1.19.49-1.85.18l.02-.31-.7.16-.04-.4-1.01.12.14.11c-.24.05-1.01.19-1.45-.02l.02-.22c-1.25-.7-2.28.22-3.75.29l.19-.46c-.5-.45-.14.7-.73.47l-.03-.56c-.52.73-.68-.16-1.04-.43l.17.73-.68-.15c-.75-.24-.46-.93-.35-1.31l-.51.58-.1-.65c-.37.75-.37-.12-1.02.28-.05-.24.11-.38-.11-.49l-1.08.91.65-.4-.08.94c-.68.72-.92-.1-1.4.16l.33-.28c-.79.23-.83-.17-1.27-.38.14.18.35.44.03.56-.23.05-.13-.33-.35-.44-.05.63-.62.96-1.13.67,0-.09.02-.18.05-.23-.13.1-.2.26-.43.11l.13-.7-.44.67c-.29-.19-.72.32-.68-.16l.17-.14-2.21-.17-.03-.56c-.22.77-1.2-.29-1.13.67-.42-.52-1.64.37-1.4-.71-1.45-.08-2.24.96-4,.43-.63-.92-2.35-.62-3.49-.72-2.22.38-3.65.73-5.91,1.03-1.36-1.28-3.4.44-4.86-.28l-.4.51c-.97-.81-2.46.18-3.83-.61-.33.22-.51.29-.59.31.06.02.16.12.19.44-.39-.23-1.18.06-1.12-.59l.1-.07c.06-.65-1.18.3-1.62-.26l.24.69-.74-.12.2-.13c-3.21,1.54-4.66-.66-7.68.74.4-.76-.59.4-.63-.43-.76-1.04-1.41.22-2.03.5,0,.04,0,.09-.04.15l-1.09-.1c.65-1.05-.78.87-.19-.02-2.84-.78-6.55.01-9.84-.35l.14.27c-.83-.05-1.87.27-2.51-.15-.63-.43-1.38.68-1.63.73-.69.46-1.32-.46-1.03-.41-.74.13-1.44,1.08-2.47.67-.35-.89-2.81.87-2.84-.13v.08c-1.33-.7-2.57.49-3.99-.14,0,0,.03-.07.08-.14l-2.89,3.03.82,3.33,2.5,2.71,6.79-.59,5.42,1.06,13.19-.36.94-.75c2.59,1.31,5.91-.2,8.7.74l.06-.65c.79-.04.73.36.93.48,7.32-.14,14.86-1.01,21.44-.19.64.43,2.57.18,3.06.63,2.14-.79,4.41-.78,6.55-.7l-.08.07,1.01-.12c.04.05.05.13.02.18,1.14-.57,2.93,0,4.32.23l-.08.07c8.13.12,15.68-1.09,23.74-.19,3.75,1.06,8.11-.4,12.41.48.79.64,9.49.16,10.26-.14Z" fill="#f9b515"/>
      <path d="M250.63,107.74h-.03c0,.28.05.17.03,0Z" fill="#f9b515"/>
      <path d="M232.66,100.29s.04,0,.06,0l-.21-.38.16.38Z" fill="#1d1d1d"/>
      <path d="M244.17,100.06c-.52-.09-.54-.02-.47.09.19.02.35,0,.47-.09Z" fill="#f9b515"/>
      <path d="M254.86,107.22c.27.02.17-.14,0-.32-.28.03-.47.05-.47.05.15.06.3.21.46.27Z" fill="#f9b515"/>
      <path d="M253.75,103.52l.08-.22c-.16.05-.15.13-.08.22Z" fill="#f9b515"/>
    </g>
    <g>
      <path d="M128.14,123.61s-.03.02,0,0h0Z" fill="#1d1d1d"/>
      <path d="M141.96,122.66s0,0,.01,0c0-.13.02-.24.03-.33l-.04.33Z" fill="#1d1d1d"/>
      <path d="M144.18,123.47s0,.02.01.03c0-.08,0-.16-.01-.03Z" fill="#1d1d1d"/>
      <path d="M136.84,123.87s-.03.02-.04.06c.01-.03.02-.05.04-.06Z" fill="#1d1d1d"/>
      <path d="M124.07,124.31s0,0,0-.01c0-.03-.02-.04-.02-.08v.09Z" fill="#1d1d1d"/>
      <path d="M124.11,124.08c.05.1-.01.18-.03.21.05.18.11.19.16.11,0-.2-.1-.17-.13-.32Z" fill="#1d1d1d"/>
      <path d="M116.68,124.86l.02-.08s-.02.05-.02.08Z" fill="#1d1d1d"/>
      <path d="M137.06,133.72s-.02.03-.03.05c.02,0,.03-.02.03-.05Z" fill="#f9b515"/>
      <path d="M117.85,125.06v-.32c0,.13,0,.23,0,.32Z" fill="#1d1d1d"/>
      <path d="M142,122.33l.02-.12s-.01.07-.02.12Z" fill="#1d1d1d"/>
      <path d="M146.23,123.68c0,.1,0,.18.01.24,0,0,0,0,0,0l-.02-.24Z" fill="#1d1d1d"/>
      <path d="M156.58,128.74s0-.08,0-.12l-.04.23s.04-.05.05-.1Z" fill="#1d1d1d"/>
      <path d="M149.05,125.06s0-.07,0-.11c-.05-.11-.18-.13-.34-.12v.39s.33-.16.33-.16Z" fill="#1d1d1d"/>
      <path d="M152.13,134.17l-.3-.79c.96-.36,1.41.43,2.24-.21l-.05.17c.12.18.19-1.58,1.51.57v.08s.05-.17.14.04l-.23-.48c.14-.2.26-.57.44-.63.04.09.05.25.06.37l.45-.13.14.51c.14-.28.07-1.35.44-.75-.14-.74.18-.45.14-.82.02.09.06.23.09.36.22-.09.63-.29.73-.68,0,0-.85-1.57-1.08-2.36.31.2.08-.09.02-.34l-.02.19c-.18-.18-.18-.65-.28-.78,0,.04,0,.08,0,.13v-.06c.02.08.02.14,0,.19,0,.1,0,.18-.06.15v-.05c-.07.07-.2,0-.26-.04v-.39c-.14.75-.92-1.14-1.1-1.16-.18-.49-.41.12-.64-.13-.37-.13-.18-.57-.37-.91-.23-.25.05.46-.05.48l-.28-.55c.16-.05.07-.28.04-.44-.24-.07-.61-.79-.69,0-.32-.37-.32-.69-.46-.73.05.14.14.27.14.43-.13-.35-.06.09,0,.16-.2.34-1.02-1.43-1.06-.57v-.16c-.05.64.03,1.26-.11,1.61l-.09-.29-.14.28c-.09-.21-.05-.38-.05-.46-.22.3-.54-.06-.81-.14l.29,1.74c-.23-.4-.64-1.22-.69-.66l-.14-.59c-.46-1.12-.32.49-.5.15l-.23-.64h.23c-.23-.31-.32-.52-.5-.94,0,0,0,.01,0,.02.01.03.02.06.02.1l-.03.02c-.03.32-.15.54-.31.52-.23-.09-.41.38-.78-.29l-.09.65-.28-.39v-.52c.27.03.78-.17,1.12-.19v-.24c-.2,0-.43.23-.57.18-.07-.1-.24-.64-.11-1l-.13.51c-.69.06-.69.08-1.41-.51l.06.26c-.14.15-.28.3-.32-.12-.43-.09-.88-.41-1.16-1.07l-.06.61c-.09-.03-.23-.96-.27-.1l-.19.27c-.12-.05-.2.3-.34-.05,0,0,0,0,0,0,0,0,0,0,0,0,0-.02-.02-.04-.03-.07,0,.02,0,.03,0,.05-.28-.27,0,.55-.32.2-.1-.44-.11.78-.27.64l-.16-.88c-.28-.5-.33.38-.74.38-.2-.31-.29-1.06-.16-1.73-.18.81-.08.53-.32.91-.04-.33-.01-.4.04-.7-.21-.39-.13.3-.29.28-.05.62-.1,1.62-.15,1.66l.06.19c-.17.33-.35.49-.55.18v-.31s-.2.16-.2.16v-.4s-.31.12-.31.12l.04.11c-.07.05-.3.19-.43-.02v-.22c-.37-.7-.67.22-1.11.29l.06-.46c-.15-.45-.04.7-.22.47v-.56c-.16.73-.21-.16-.32-.43l.05.73-.2-.15c-.22-.24-.14-.93-.1-1.31l-.15.58-.03-.65c-.11.75-.11-.12-.3.28-.02-.24.03-.38-.03-.49l-.32.91.19-.4-.02.94c-.2.72-.27-.1-.42.16l.1-.28c-.23.23-.25-.17-.38-.38.04.18.1.44,0,.56-.07.05-.04-.33-.1-.44-.02.63-.18.96-.34.67,0-.09,0-.18.02-.23-.04.1-.06.26-.13.11l.04-.7-.13.67c-.09-.19-.21.32-.2-.16l.05-.14-.66-.17v-.56c-.07.77-.37-.29-.35.67-.12-.52-.49.37-.42-.71-.43-.08-.67.96-1.19.43-.19-.92-.7-.62-1.04-.72-.66.38-1.09.73-1.76,1.03-.41-1.28-1.01.44-1.45-.28l-.12.51c-.29-.81-.73.18-1.14-.61-.1.22-.15.29-.18.31.02.02.05.12.06.44-.12-.23-.35.06-.33-.59l.03-.07c.02-.65-.35.3-.48-.26l.07.69-.22-.12.06-.13c-.96,1.54-1.39-.66-2.28.74.12-.76-.18.4-.19-.43-.23-1.04-.42.22-.6.5,0,.04,0,.09-.01.15l-.32-.1c.19-1.05-.23.87-.06-.02-.85-.78-1.95.01-2.93-.35l.04.27c-.25-.05-.56.27-.75-.15-.19-.43-.41.68-.49.73-.21.46-.39-.46-.31-.41-.22.13-.43,1.08-.73.67-.1-.89-.84.87-.84-.13v.08c-.4-.7-.77.49-1.19-.14,0,0,0-.07.02-.14l-.86,3.03.24,3.33.75,2.71,2.02-.59,1.61,1.06,3.92-.36.28-.75c.77,1.31,1.76-.2,2.59.74l.02-.65c.23-.04.22.36.28.48,2.18-.14,4.42-1.01,6.38-.19.19.43.76.18.91.63.64-.79,1.31-.78,1.95-.7l-.02.07.3-.12c.01.05.01.13,0,.18.34-.57.87,0,1.29.23l-.02.07c2.42.12,4.67-1.09,7.07-.19,1.12,1.06,2.41-.4,3.69.48.23.64,2.82.16,3.05-.14Z" fill="#f9b515"/>
      <path d="M155.94,133.3h-.01c0,.28.02.17.01,0Z" fill="#1d1d1d"/>
      <path d="M150.59,125.85s.01,0,.02,0l-.06-.38.05.38Z" fill="#1d1d1d"/>
      <path d="M154.02,125.62c-.15-.09-.16-.02-.14.09.06.02.1,0,.14-.09Z" fill="#1d1d1d"/>
      <path d="M157.2,132.78c.08.02.05-.14,0-.32-.08.03-.14.05-.14.05.05.06.09.21.14.27Z" fill="#1d1d1d"/>
      <path d="M156.87,129.08l.03-.22c-.05.05-.05.13-.03.22Z" fill="#1d1d1d"/>
    </g>
    <g>
      <path d="M221.54,123.61s-.03.02,0,0h0Z" fill="#1d1d1d"/>
      <path d="M238.13,122.66s0,0,.02,0c.01-.13.02-.24.03-.33l-.05.33Z" fill="#f9b515"/>
      <path d="M240.8,123.47s.01.02.02.03c0-.08,0-.16-.02-.03Z" fill="#f9b515"/>
      <path d="M231.98,123.87s-.04.02-.05.06c.01-.03.03-.05.05-.06Z" fill="#1d1d1d"/>
      <path d="M216.64,124.31s0,0,.01-.01c0-.03-.02-.04-.03-.08l.02.09Z" fill="#1d1d1d"/>
      <path d="M216.7,124.08c.06.1-.02.18-.04.21.06.18.13.19.2.11,0-.2-.12-.17-.15-.32Z" fill="#1d1d1d"/>
      <path d="M207.77,124.86l.03-.08s-.02.05-.03.08Z" fill="#1d1d1d"/>
      <path d="M232.24,133.72s-.03.03-.04.05c.02,0,.03-.02.04-.05Z" fill="#1d1d1d"/>
      <path d="M209.17,125.06l.02-.32c-.01.13-.02.23-.02.32Z" fill="#1d1d1d"/>
      <path d="M238.18,122.33l.02-.12s-.01.07-.02.12Z" fill="#f9b515"/>
      <path d="M243.27,123.68c0,.1,0,.18.01.24,0,0,0,0,0,0l-.02-.24Z" fill="#f9b515"/>
      <path d="M255.7,128.74s0-.08,0-.12l-.05.23s.04-.05.06-.1Z" fill="#f9b515"/>
      <path d="M246.65,125.06s.01-.07.01-.11c-.06-.11-.21-.13-.41-.12v.39s.39-.16.39-.16Z" fill="#f9b515"/>
      <path d="M250.35,134.17l-.36-.79c1.16-.36,1.7.43,2.69-.21l-.05.17c.14.18.23-1.58,1.82.57v.08c.06-.01.05-.17.17.04l-.28-.48c.17-.2.31-.57.53-.63.05.09.06.25.07.37l.54-.13.17.51c.16-.28.09-1.35.53-.75-.17-.74.22-.45.16-.82.02.09.07.23.11.36.26-.09.76-.29.88-.68,0,0-1.03-1.57-1.3-2.36.37.2.1-.09.02-.34l-.02.19c-.22-.18-.22-.65-.33-.78,0,.04,0,.08,0,.13v-.06c.02.08.02.14,0,.19,0,.1,0,.18-.07.15v-.05c-.08.07-.24,0-.31-.04v-.39c-.17.75-1.1-1.14-1.32-1.16-.22-.49-.5.12-.77-.13-.44-.13-.22-.57-.44-.91-.28-.25.06.46-.05.48l-.33-.55c.19-.05.09-.28.05-.44-.29-.07-.74-.79-.82,0-.39-.37-.39-.69-.55-.73.06.14.17.27.17.43-.15-.35-.07.09-.01.16-.24.34-1.22-1.43-1.27-.57v-.16c-.05.64.03,1.26-.13,1.61l-.11-.29-.17.28c-.11-.21-.06-.38-.06-.46-.27.3-.65-.06-.97-.14l.35,1.74c-.28-.4-.77-1.22-.83-.66l-.17-.59c-.55-1.12-.39.49-.61.15l-.28-.64h.28c-.28-.31-.39-.52-.61-.94,0,0,0,.01,0,.02.02.03.02.06.03.1l-.04.02c-.03.32-.18.54-.37.52-.28-.09-.49.38-.93-.29l-.11.65-.33-.39v-.52c.32.03.93-.17,1.35-.19v-.24c-.24,0-.52.23-.68.18-.08-.1-.28-.64-.14-1l-.15.51c-.82.06-.83.08-1.69-.51l.07.26c-.17.15-.34.3-.39-.12-.52-.09-1.05-.41-1.39-1.07l-.07.61c-.11-.03-.27-.96-.33-.1l-.23.27c-.15-.05-.24.3-.41-.05,0,0,0,0,0,0,0,0,0,0,0,0-.01-.02-.02-.04-.03-.07,0,.02,0,.03,0,.05-.34-.27,0,.55-.38.2-.12-.44-.14.78-.33.64l-.19-.88c-.34-.5-.4.38-.89.38-.24-.31-.35-1.06-.2-1.73-.22.81-.1.53-.39.91-.04-.33-.01-.4.05-.7-.25-.39-.16.3-.35.28-.06.62-.12,1.62-.18,1.66l.07.19c-.2.33-.43.49-.66.18v-.31s-.24.16-.24.16l-.02-.4-.36.12.05.11c-.08.05-.36.19-.52-.02v-.22c-.44-.7-.81.22-1.33.29l.07-.46c-.18-.45-.05.7-.26.47v-.56c-.2.73-.25-.16-.38-.43l.06.73-.24-.15c-.27-.24-.16-.93-.12-1.31l-.18.58-.04-.65c-.13.75-.13-.12-.37.28-.02-.24.04-.38-.04-.49l-.38.91.23-.4-.03.94c-.24.72-.33-.1-.5.16l.12-.28c-.28.23-.3-.17-.46-.38.05.18.12.44.01.56-.08.05-.05-.33-.12-.44-.02.63-.22.96-.4.67,0-.09,0-.18.02-.23-.05.1-.07.26-.15.11l.05-.7-.16.67c-.1-.19-.26.32-.24-.16l.06-.14-.79-.17v-.56c-.09.77-.44-.29-.42.67-.15-.52-.59.37-.5-.71-.52-.08-.8.96-1.43.43-.22-.92-.84-.62-1.25-.72-.79.38-1.3.73-2.11,1.03-.49-1.28-1.21.44-1.74-.28l-.14.51c-.35-.81-.88.18-1.37-.61-.12.22-.18.29-.21.31.02.02.06.12.07.44-.14-.23-.42.06-.4-.59l.04-.07c.02-.65-.42.3-.58-.26l.09.69-.26-.12.07-.13c-1.15,1.54-1.67-.66-2.74.74.14-.76-.21.4-.23-.43-.27-1.04-.5.22-.73.5,0,.04,0,.09-.02.15l-.39-.1c.23-1.05-.28.87-.07-.02-1.02-.78-2.34.01-3.52-.35l.05.27c-.3-.05-.67.27-.9-.15-.23-.43-.5.68-.58.73-.25.46-.47-.46-.37-.41-.27.13-.51,1.08-.88.67-.13-.89-1,.87-1.02-.13v.08c-.48-.7-.92.49-1.43-.14,0,0,0-.07.03-.14l-1.03,3.03.29,3.33.9,2.71,2.43-.59,1.94,1.06,4.71-.36.34-.75c.93,1.31,2.11-.2,3.11.74l.02-.65c.28-.04.26.36.33.48,2.62-.14,5.31-1.01,7.67-.19.23.43.92.18,1.1.63.76-.79,1.57-.78,2.34-.7l-.03.07.36-.12c.02.05.02.13,0,.18.41-.57,1.05,0,1.55.23l-.03.07c2.91.12,5.6-1.09,8.49-.19,1.34,1.06,2.9-.4,4.44.48.28.64,3.39.16,3.67-.14Z" fill="#f9b515"/>
      <path d="M254.93,133.3h-.01c0,.28.02.17.01,0Z" fill="#f9b515"/>
      <path d="M248.51,125.85s.01,0,.02,0l-.08-.38.06.38Z" fill="#f9b515"/>
      <path d="M252.62,125.62c-.19-.09-.19-.02-.17.09.07.02.13,0,.17-.09Z" fill="#f9b515"/>
      <path d="M256.44,132.78c.1.02.06-.14,0-.32-.1.03-.17.05-.17.05.05.06.11.21.16.27Z" fill="#f9b515"/>
      <path d="M256.04,129.08l.03-.22c-.06.05-.05.13-.03.22Z" fill="#f9b515"/>
    </g>
    <g>
      <path d="M175.51,151.46c.06.04.11,0,0,0h0Z" fill="#eb671f"/>
      <path d="M162.26,105.91s.02-.03.04-.04c-.07-.12-.12-.23-.16-.31l.12.36Z" fill="#eb671f"/>
      <path d="M170.04,101.02s.04,0,.07,0c-.04-.07-.07-.14-.07,0Z" fill="#eb671f"/>
      <path d="M155.76,125.41c0,.08.03.12.07.15-.03-.04-.06-.09-.07-.15Z" fill="#eb671f"/>
      <path d="M191.53,150.21s-.02.01-.03.02c.04.01.07.02.12.04l-.08-.07Z" fill="#eb671f"/>
      <path d="M191.43,150.48c-.21-.02,0-.19.06-.25-.26-.09-.46-.03-.64.12.06.19.44.02.58.13Z" fill="#eb671f"/>
      <path d="M208.4,128.56l.07.1s-.04-.07-.07-.1Z" fill="#eb671f"/>
      <path d="M165.63,124.79s.02.06.04.09c0-.04-.01-.07-.04-.09Z" fill="#eb671f"/>
      <path d="M207.27,132.91l.29.14c-.11-.08-.2-.12-.29-.14Z" fill="#eb671f"/>
      <path d="M162.14,105.55l-.04-.14s.02.08.04.14Z" fill="#eb671f"/>
      <path d="M177.98,98.55c.02.1.05.17.09.23.01,0,.02,0,.02,0l-.11-.23Z" fill="#eb671f"/>
      <path d="M204.31,120.83s.08-.02.12-.04l-.25-.09c.04.07.09.11.14.13Z" fill="#eb671f"/>
      <path d="M188.94,100.29s.05-.06.06-.1c-.16-.14-.62-.31-1.24-.42l-.11.38c.43.02.86.09,1.29.14Z" fill="#eb671f"/>
      <path d="M193.46,112.58c0-.38-.05-.72-.1-1.09.58.28.96.69,1.33,1.01.38.33.63.71.9,1.06.56.68.99,1.37,1.87,2.08h-.2c0,.17.4.06.8.44.4.35.84,1.3.43,3.26l-.07.03c.05.1.2.05.08.34l.25-.71c.3.26.77.43.99.87-.04.12-.2.21-.31.25l.42,1.1-.4.45c.35.28,1.35-.06.92,1.01.68-.48.52.43.88.26-.08.06-.2.19-.31.3.14.58.38,1.71.79,2,0,0,.37-.62.81-1.35.49-.75.9-1.66,1.25-2.09-.05,1,.13.25.35.01l-.19-.04c.09-.61.55-.71.63-1.03-.04,0-.08.03-.12.04l.07.03c-.08.04-.14.04-.19.02-.1.03-.18.01-.19-.15l.06.02c-.13-.23-.17-.67-.18-.86l.38-.1c-.44-.12-.27-.94-.22-1.8.08-.86.26-1.86.11-2.14.16-.79-.72-1.27-.9-2.08-.56-1.17.16-.85.1-1.6-.23-.85-.3.39-.49.12-.01-.38-.04-.77-.1-1.14.39.45.4.06.45-.12-.47-.73-.75-2.36-1.57-2.03-.52-1.14-.31-1.37-.64-1.78.02.23.16.58.05.69-.08-.6-.22-.11-.14.09-.35-.17-.78-1.08-1.27-1.89-.45-.84-1.01-1.52-1.34-1.22l.1-.12c-.53.4-.69,1.06-1.3,1.04l-.1-.43-.56-.08c-.15-.37.08-.41.12-.48-.86-.19-1.63-1.12-2.51-1.65.06.66.08,1.35.07,2.03-.45-.78-1.48-2.1-1.85-1.68l-.22-.75c-1.18-1.63-1.27.05-1.77-.49-.19-.3-.4-.6-.61-.87.28.07.54.17.81.27-.7-.61-1-.84-1.57-1.44,0,0-.01,0-.01.01.04.04.06.08.06.11l-.12-.02c-.18.29-.67.37-1.26.22-.85-.2-1.55.1-2.87-.69l-.39.63-1.01-.44v-.52c.53.05,1.28.02,2.07.05.78.07,1.61.14,2.28.23l.07-.23c-.8-.13-1.73-.03-2.25-.16-.24-.16-.86-.71-.34-1.04l-.55.48c-1.36-.04-2.03-.07-2.73-.07-.35-.01-.7-.05-1.15-.1-.45-.06-.99-.14-1.73-.16l.28.22c-.54.24-1.07.47-1.3.08-.87.06-1.73.22-2.57.25-.84.01-1.61.04-2.27-.07l-.03.66c-.35.09-1.23-.57-1.08.29-.21.18-.41.39-.61.58-.48.18-.6.62-1.27.56h0s0,0,0,0c-.04,0-.08-.01-.13-.02,0,.02.02.03.03.04-1.15.28.26.46-1.03.8-.58-.16,0,.91-.59,1.11l-1.02-.4c-1.22.28-.9,1.09-2.17,2.12-.79.29-1.6.01-1.63-.86-.02,1.11.09.62-.37,1.58-.34-.13-.32-.25-.36-.62-.94.33-.18.6-.66,1.07.32.58.9,1.41.8,1.59l.31-.05c-.19.73-.58,1.31-1.27,1.75l-.23-.22-.37.76-.35-.2c-.2.35-.42.68-.59,1.03l.18-.08c-.11.27-.46,1.11-.91,1.45l-.18-.13c-.7.45-.96,1.1-1.13,1.81-.18.71-.28,1.46-.52,2.29l-.35-.38c-.63.4.6.4.15.98l-.54-.15c.49.83-.44.7-.81,1.05l.75.02-.35.74c-.46.8-1.03.31-1.37.07l.4.75-.66-.03c.63.61-.26.42.02,1.3-.25.02-.36-.21-.5.05.23.5.46.98.7,1.46l-.28-.85.92.24c.6.89-.29,1.06-.06,1.67-.08-.14-.18-.28-.25-.42.15.96-.23.97-.48,1.5.18-.16.46-.39.56,0,.04.28-.34.14-.46.4.64.09.9.75.64,1.36-.09,0-.18-.02-.24-.06.11.15.27.23.14.5l-.71-.14.69.5c-.17.36.36.83-.11.82l-.15-.19c-.04.89.06,1.77.14,2.66l-.55.13c.79.13-.04,1.52.9,1.23-.39.61.85,1.83-.27,1.83.16.89.69,1.45,1.1,2.08.22.31.41.64.59,1.01.2.37.37.8.48,1.34-.53,1.12.84,2.87,1.56,4.07.49.5.94.95,1.37,1.36.43.41.9.75,1.33,1.12.86.74,1.82,1.36,2.92,2.16.22,1.02,1.16,1.56,2.1,2.03,1.01.39,2,.76,2.62,1.47l.67-.24c.35.6,1.03.93,1.8,1.17.78.23,1.58.5,2.26,1.12.46-.11.68-.12.78-.12-.07-.04-.15-.16-.1-.48.39.34,1.37.29,1.16.91l-.13.04c-.11.31.26.32.71.34.45-.01.97-.03,1.19.29l-.17-.73.86.25-.25.1c1.01-.21,1.83-.32,2.59-.32.75,0,1.43.14,2.11.17.68.06,1.36.13,2.09.05.72-.12,1.49-.36,2.3-.85-.16.41,0,.28.21.16.22-.15.49-.3.61.1,1.13.77,1.61-.62,2.19-1.12-.01-.04-.02-.09,0-.16l1.23-.34c-.34,1.24.55-1.13.21-.06,1.7-.23,3.46-1.14,5.12-2.27.81-.59,1.6-1.24,2.38-1.88.73-.7,1.53-1.31,2.23-1.98l-.31-.06c.7-.7,1.28-1.78,2.04-2.13.79-.36.44-1.69.53-1.96.02-.92,1.18-1.06.97-.8.37-.81-.13-1.96.73-2.83.24,0,.41-.2.52-.5.1-.31.13-.72.17-1.11.07-.78.12-1.49.61-1.36l-.08-.04c.53-.63.6-1.39.65-2.14.04-.76-.02-1.52.43-2.28,0,0,.07.04.13.1-.82-1.22-1.86-2.34-2.8-3.31-1.12.28-2.25.52-3.37.72-.93.69-1.86,1.29-2.88,1.77.01.86-.15,1.7-.25,2.56-.21.83-.36,1.71-.7,2.52-.89,1.13-2,2.04-3.06,2.87-1,1.26-2.16,2.39-3.46,3.36-1.32.94-2.78,1.67-4.31,2.24l-.49.9c-.57-.18-1.1-.2-1.65-.2-.54.03-1.09.17-1.66.21-.56.07-1.14.2-1.71.12-.56-.05-1.12-.11-1.6-.46l-.13.63c-.61-.06-.5-.44-.63-.58-2.72-.35-5.44-1.38-7.74-2.98-2.32-1.58-4.04-3.94-4.75-6.36.13-.59-.56-1.87-.27-2.34-1.19-1.28-1.53-3.08-1.45-4.71l.07.06c-.07-.26-.1-.51-.12-.77.05-.03.13-.03.18,0-.25-.44-.27-1.02-.08-1.59.21-.56.44-1.14.69-1.61l.05.07c.73-2.91,1.83-5.7,3.76-8.02,1.84-2.35,4.56-4.08,7.58-4.61.38.04.75.05,1.11.02.36-.04.72-.09,1.09-.12.37-.04.73-.11,1.11-.19.38-.04.76-.09,1.15-.13l.59-.08h.59c.4,0,.8-.01,1.2.02.78.15,1.59.28,2.28.73.05.1.19.2.4.3.21.09.48.2.79.35.31.14.66.27,1.04.4.36.18.75.35,1.14.52,1.54.72,3.03,1.64,3.33,1.73Z" fill="#eb671f"/>
      <path d="M199.43,120.12v-.02c-.27.08-.16.09,0,.02Z" fill="#eb671f"/>
      <polygon points="194.11 103.07 194.16 103.1 194.13 102.66 194.11 103.07" fill="#eb671f"/>
      <path d="M203.69,111.36c-.24-.54-.34-.5-.37-.38.12.17.23.31.37.38Z" fill="#eb671f"/>
      <path d="M200.6,123.27c.01.22.16.12.32-.03-.06-.22-.11-.37-.11-.37-.04.13-.17.27-.21.4Z" fill="#eb671f"/>
      <path d="M204.12,121.81l.23.05c-.08-.15-.16-.13-.23-.05Z" fill="#eb671f"/>
    </g>
  </g>
</svg>