<?xml version="1.0" encoding="utf-8"?>
<!-- Generator: Adobe Illustrator 29.4.0, SVG Export Plug-In . SVG Version: 9.03 Build 0)  -->
<svg version="1.0" id="Capa_1" xmlns="http://www.w3.org/2000/svg" xmlns:xlink="http://www.w3.org/1999/xlink" x="0px" y="0px"
	 viewBox="0 0 290.5 68.1" style="enable-background:new 0 0 290.5 68.1;" xml:space="preserve">
<style type="text/css">
	.st0{fill:#FEFEFE;}
	.st1{fill:#FFC82C;}
	.st2{fill:#EF8C29;}
	.st3{fill:#8E3A8C;}
</style>
<g>
	<g>
		<path class="st0" d="M105.4,5.5c-0.6-0.6-1.4-0.9-2.3-0.9H102c-0.1,0-0.2,0-0.3,0H88.9c-0.2,0-0.4,0.2-0.4,0.4l0,14.3L83.1,4.9
			c-0.1-0.2-0.2-0.3-0.4-0.3H82c0,0,0,0-0.1,0c-0.4,0-0.7,0.4-0.7,0.8c0,0.4,0.3,0.8,0.7,0.8l0,16.8h-6.2c-0.1,0-0.1,0-0.1,0
			c0,0,0-0.1,0-0.1v-7.5c0,0,0,0,0-0.1c0.1-0.1,0.1-0.1,0.2-0.1h2.7c0.1,0,0.2,0,0.2-0.1c0.1-0.1,0.1-0.1,0.1-0.2v-0.5
			c0-0.1,0-0.2-0.1-0.2c-0.1-0.1-0.1-0.1-0.2-0.1c-0.7,0-1.6,0-2.7,0c-0.1,0-0.1,0-0.2-0.1c0,0,0,0,0,0V5.8c0,0,0,0,0,0
			c0.1-0.1,0.1-0.1,0.2-0.1h4.8c0.1,0,0.2-0.1,0.2-0.2V5l0-0.1c0-0.1-0.1-0.2-0.2-0.2c-0.6,0-2.2,0-3.3,0c-1.4,0-2.4,0-3.1,0
			c0,0-0.1,0-0.1,0c0,0-0.1,0-0.1,0c0,0,0,0,0,0c-0.4,0.1-0.7,0.4-0.7,0.8c0,0.4,0.3,0.7,0.7,0.7c0.1,0,0.2,0,0.4-0.1l-0.1,16.9
			c0,0,0,0-0.1,0h-0.5c0,0,0,0,0,0c0,0,0,0,0,0h-1.5c-0.1,0-0.2-0.1-0.2-0.2V5c0-0.2-0.2-0.4-0.4-0.4H71h-0.4h-1.5
			c-0.2,0-0.3,0.1-0.3,0.3l-1.2,6.5l-1.7,9.6L63,4.9c0-0.2-0.2-0.3-0.3-0.3h-1.1c0,0,0,0,0,0c0,0,0,0,0,0c-0.4,0-0.8,0.4-0.8,0.8
			c0,0.4,0.4,0.8,0.8,0.8c0.2,0,0.3-0.1,0.5-0.2c0.2,1.3,0.7,3.9,1.4,7.8c0.6,3.3,1.4,8.1,1.7,9.7c0.1,0.3,0.3,0.6,0.7,0.6h0.9
			c0,0,0,0,0,0c0,0,0,0,0,0c0.4,0,0.8-0.3,0.8-0.8s-0.3-0.8-0.8-0.8c0,0-0.1,0-0.1,0l3-16.7c0-0.1,0.1-0.2,0.2-0.2h0.7c0,0,0,0,0,0
			h0.1c0.1,0,0.2,0.1,0.2,0.2l0,17.8c0,0.2,0.2,0.4,0.4,0.4l11.7,0c0.2,0,0.3-0.1,0.3-0.3V8.1l5.2,14.1l0,1.3c0,0.3,0.3,0.6,0.6,0.6
			h0.3c0,0,0,0,0,0c0.2,0,0.3,0,0.5-0.1c0.2-0.2,0.4-0.4,0.4-0.7c0-0.4-0.4-0.7-0.8-0.7c0,0,0,0,0,0V5.8c0-0.1,0.1-0.2,0.2-0.2h0
			h3.8c0.1,0,0.2,0.1,0.2,0.2v17.8c0,0.2,0.2,0.4,0.4,0.4l0.7,0c0,0,0.1,0,0.1,0c0.6,0,1-0.6,0.7-1.2c-0.1-0.3-0.4-0.4-0.7-0.4l0,0
			V5.9c0-0.1,0.1-0.2,0.2-0.2c0.1,0,2.4,0,4.4,0c0,0,0,0,0,0h2c0,0,0.1,0,0.1,0c0.3,0,0.6,0,0.7,0c0,0,0.1,0,0.1,0h0.6
			c0.6,0,1.1,0.2,1.5,0.6c0.4,0.4,0.6,0.9,0.6,1.5v13c0,0.6-0.2,1.1-0.6,1.5c-0.4,0.4-0.9,0.6-1.5,0.6H102c-0.6,0-1.1-0.2-1.5-0.6
			c-0.4-0.4-0.6-0.9-0.6-1.5V8c0.3-0.1,0.6-0.4,0.5-0.8c0-0.4-0.3-0.6-0.7-0.7c-0.5-0.1-0.9,0.3-0.9,0.8c0,0,0,0,0,0v0.5v13.2
			c0,0.9,0.3,1.6,0.9,2.3c0.6,0.6,1.4,0.9,2.3,0.9h1.1c0.9,0,1.6-0.3,2.3-0.9c0.6-0.6,0.9-1.4,0.9-2.3V7.7
			C106.3,6.9,106,6.1,105.4,5.5z"/>
	</g>
	<g>
		<g>
			<path class="st0" d="M150.7,29.7c-0.5,0-1.8-0.2-2.7-1.4c-0.9-1.3-1.4-3.4-1.5-7c-0.2-6.5,2-8.7,4.1-8.9c0.2,0,0.3,0,0.5,0
				c2.2,0,3.1,1.9,3.2,2c0.2,0.3,0,0.8-0.3,1c-0.4,0.2-0.8,0.1-0.9-0.3L153,15l0,0c-0.1-0.2-0.2-0.4-0.5-0.6
				c-0.3-0.2-0.7-0.5-1.4-0.5h-0.3c-1.3,0.3-2.7,0.7-2.8,6.7c0,0.2,0,0.5,0,0.8c0.1,3.4,0.8,5.4,1.3,6.1c0.5,0.6,0.9,0.8,1.3,0.9
				c0.1,0,0.1,0,0.2,0c1.7,0.1,2.4-2.3,2.4-2.3c0.1-0.4,0.6-0.7,1-0.6c0.3,0.1,0.5,0.5,0.4,0.9c0,0.1-0.8,3.1-3.7,3.3
				C150.9,29.7,150.7,29.7,150.7,29.7z"/>
			<path class="st0" d="M161.5,29.7c-2.8-0.3-4.2-3.4-4.2-8.5V21c0-2.3,0.3-4.3,0.9-5.8c0.5-1.5,1.7-2.7,3.3-2.8c0.1,0,0.1,0,0.1,0
				c3.4-0.1,4.2,4.5,4.3,8.9v0.1c0,2.2-0.3,4.2-0.9,5.7c-0.6,1.4-1.7,2.6-3.3,2.6C161.7,29.7,161.5,29.7,161.5,29.7z M161.6,14
				c-0.9,0-1.5,0.5-2,1.8c-0.5,1.2-0.7,3-0.7,5.1v0.3c0.1,5.5,1.5,6.9,2.6,6.9h0.1c0.8,0,1.3-0.4,1.9-1.7c0.5-1.1,0.8-2.9,0.8-5
				v-0.2c0-2.1-0.2-4-0.7-5.3C163.1,14.6,162.5,14,161.6,14z"/>
			<path class="st0" d="M172.5,29.7c-2.8-0.3-4.2-3.4-4.2-8.5V21c0-2.3,0.3-4.3,0.9-5.8c0.5-1.5,1.7-2.7,3.3-2.8c0.1,0,0.1,0,0.1,0
				c3.4-0.1,4.2,4.5,4.3,8.9v0.1c0,2.2-0.3,4.2-0.9,5.7c-0.6,1.4-1.7,2.6-3.3,2.6C172.7,29.7,172.5,29.7,172.5,29.7z M172.6,14
				c-0.9,0-1.5,0.5-2,1.8c-0.5,1.2-0.7,3-0.7,5.1v0.3c0.1,5.5,1.5,6.9,2.6,6.9h0.1c0.8,0,1.3-0.4,1.9-1.7c0.5-1.1,0.8-2.9,0.8-5
				v-0.2c0-2.1-0.2-4-0.7-5.3C174.1,14.6,173.5,14,172.6,14z"/>
			<path class="st0" d="M180.1,13.5c0-0.4,0.2-0.7,0.6-0.8c0.2,0,0.5-0.1,1-0.1c1.5,0,5.3,0.6,5.4,4.9c0,2.4-1,3.8-2.2,4.5
				s-2.6,0.8-3.3,0.8v6c0,0.5-0.3,0.8-0.8,0.8c-0.4,0-0.8-0.3-0.8-0.8V13.5H180.1z M181.6,21.3c1-0.1,4-0.2,4-3.7
				c-0.1-3-2.3-3.4-4-3.5V21.3z"/>
			<path class="st0" d="M193.1,21.3V28c1.4,0,3.2,0.1,4.6,0.1c0.4,0,0.8,0.3,0.8,0.7c0,0.4-0.3,0.7-0.7,0.7h-5.4
				c-0.4,0-0.7-0.3-0.7-0.7V13.4c0-0.2,0.1-0.4,0.2-0.5c0.1-0.1,0.3-0.2,0.5-0.2h5.4c0.4,0,0.7,0.3,0.7,0.8c0,0.4-0.3,0.7-0.7,0.7
				h-4.6V20h2.8c0.4,0,0.7,0.3,0.7,0.8c0,0.4-0.3,0.7-0.7,0.7h-2.9V21.3z"/>
			<path class="st0" d="M205,22.3c-0.4,0.1-1,0.2-1.4,0.2v6.4c0,0.4-0.3,0.8-0.7,0.8s-0.7-0.3-0.7-0.8V13.4c0-0.3,0.3-0.7,0.6-0.8
				c0.2,0,0.7-0.1,1.2-0.1c1.6-0.1,5,0.6,5.1,4.6c0,2.4-1,3.9-2.2,4.6l0,0l-0.6,0.3c0.8,2.1,1.8,4.5,2.6,6.6l0,0
				c0.1,0.4-0.1,0.9-0.5,1h-0.2c-0.3,0-0.6-0.1-0.7-0.4L205,22.3z M203.6,21c1.5-0.1,4-0.4,4-3.7c-0.1-2.9-2.1-3.4-3.9-3.3L203.6,21
				z"/>
			<path class="st0" d="M215.4,13.2c0.1-0.4,0.4-0.7,0.8-0.6h0.7c0.3,0,0.6,0.3,0.7,0.7c1,4.9,2.2,10.6,3.2,15.5
				c0.1,0.4-0.2,0.8-0.6,0.9c-0.1,0-0.1,0-0.1,0c-0.4,0-0.7-0.2-0.7-0.6l-0.7-3.5h-4.1l-0.6,3.5c-0.1,0.4-0.5,0.6-0.9,0.5
				c-0.4-0.1-0.6-0.4-0.5-0.9L215.4,13.2z M214.8,24h3.5l-1.8-9.6L214.8,24z"/>
			<path class="st0" d="M226.8,14.3h-2.1c-0.5,0-0.8-0.4-0.8-0.8c0.1-0.5,0.4-0.9,0.9-0.9c2,0,3.9,0,5.9,0c0.5,0,0.8,0.3,0.8,0.9
				c0,0.4-0.4,0.8-0.9,0.8h-2.1v14.4c0,0.5-0.3,0.8-0.8,0.8c-0.4,0-0.8-0.3-0.8-0.8L226.8,14.3L226.8,14.3z"/>
			<path class="st0" d="M236,29.4c-0.4,0-0.7-0.2-0.7-0.7c0-0.4,0.3-0.7,0.7-0.7h1.8l0.1-14.1h-1.8c-0.4,0-0.7-0.3-0.7-0.7
				s0.3-0.6,0.7-0.6h5.1c0.4,0,0.8,0.2,0.8,0.6c0,0.4-0.3,0.7-0.8,0.7h-1.8V28h1.8c0.4,0,0.8,0.3,0.8,0.7c0,0.4-0.4,0.7-0.8,0.7H236
				z"/>
			<path class="st0" d="M249.4,29.6c-0.3,0-0.6-0.3-0.8-0.6c-1-4.9-2.2-10.5-3.2-15.3c-0.1-0.4,0.2-0.8,0.6-0.9
				c0.4-0.1,0.8,0.2,0.9,0.6l2.7,13.5l2.6-13.5c0.1-0.4,0.5-0.7,0.9-0.6c0.4,0.1,0.7,0.5,0.6,0.9l-3,15.3c-0.1,0.3-0.4,0.6-0.8,0.6
				H249.4z"/>
			<path class="st0" d="M259.4,13.2c0.1-0.4,0.4-0.7,0.8-0.6h0.7c0.3,0,0.6,0.3,0.7,0.7c1,4.9,2.2,10.6,3.2,15.5
				c0.1,0.4-0.2,0.8-0.6,0.9c-0.1,0-0.1,0-0.1,0c-0.4,0-0.7-0.2-0.7-0.6l-0.7-3.5h-4.1l-0.6,3.5c-0.1,0.4-0.5,0.6-0.9,0.5
				c-0.4-0.1-0.6-0.4-0.5-0.9L259.4,13.2z M258.8,24h3.5l-1.8-9.6L258.8,24z"/>
			<path class="st0" d="M147.1,56.8c-0.3-0.1-0.6-0.3-0.6-0.7V40.8c0-0.4,0.3-0.7,0.7-0.8c0.1,0,0.3,0,0.6,0c0.8,0,2.8,0.3,4.2,1.8
				c1.3,1.3,1.5,3.2,1.6,4.2c0.1,0.8,0.1,1.5,0.1,2.7c0,0.5,0,1.1-0.1,1.7c-0.1,1.2-0.3,3.3-1.6,4.9c-1.2,1.3-2.9,1.6-3.9,1.6
				C147.5,56.9,147.2,56.9,147.1,56.8L147.1,56.8z M148,55.4c0.9,0.1,2.2-0.3,2.8-1c1-1.2,1.2-2.9,1.2-4.1c0-0.6,0.1-1.1,0.1-1.6
				c0-1.1-0.1-1.9-0.1-2.6c-0.1-0.9-0.3-2.4-1.2-3.3l0,0c-0.6-0.7-1.8-1.2-2.8-1.3V55.4z"/>
			<path class="st0" d="M159.5,48.8v6.7c1.4,0,3.2,0.1,4.6,0.1c0.4,0,0.8,0.3,0.8,0.7s-0.3,0.7-0.7,0.7h-5.4c-0.4,0-0.7-0.3-0.7-0.7
				V40.8c0-0.2,0.1-0.4,0.2-0.5c0.1-0.1,0.3-0.2,0.5-0.2h5.4c0.4,0,0.7,0.3,0.7,0.8c0,0.4-0.3,0.7-0.7,0.7h-4.6v5.8h2.8
				c0.4,0,0.7,0.3,0.7,0.8c0,0.4-0.3,0.7-0.7,0.7L159.5,48.8L159.5,48.8z"/>
			<path class="st0" d="M183,57c-1.8-0.1-3-1.3-3.6-2.3c-0.2-0.4-0.1-0.8,0.3-1c0.3-0.2,0.8-0.1,1,0.3c0.4,0.7,1.5,1.6,2.4,1.6
				c0.5,0,1-0.2,1.6-0.6c0.3-0.3,0.7-1.1,0.7-1.8c0-0.1,0-0.2,0-0.2v-0.1c-0.1-1-1.4-2.5-2.5-3.9c-0.2-0.2-0.4-0.5-0.6-0.8
				c-1-1.2-2.4-2.8-2.4-4.9c0-2,1.6-3.2,3.4-3.2c2.1,0,3,1.7,3.3,2.5c0.2,0.4,0,0.8-0.4,1s-0.8,0-1-0.4c-0.4-0.9-0.8-1.7-1.9-1.7
				c-1.2,0.1-1.7,0.7-1.9,1.6c-0.1,1.3,1.1,2.8,2.1,4.1c0.2,0.3,0.5,0.5,0.6,0.8c0.2,0.3,0.4,0.5,0.7,0.8c0.8,1,1.8,2.2,2.1,3.7
				c0.1,0.3,0.1,0.5,0.1,0.7c0,1-0.3,2.1-1.2,2.9C184.8,56.7,184.2,57,183,57z"/>
			<path class="st0" d="M192.8,40.6c0.1-0.4,0.4-0.7,0.8-0.6h0.7c0.3,0,0.6,0.3,0.7,0.7c1,4.9,2.2,10.6,3.2,15.5
				c0.1,0.4-0.2,0.8-0.6,0.9c-0.1,0-0.1,0-0.1,0c-0.4,0-0.7-0.2-0.7-0.6l-0.7-3.5H192l-0.6,3.5c-0.1,0.4-0.5,0.6-0.9,0.5
				s-0.6-0.4-0.5-0.9L192.8,40.6z M192.2,51.4h3.5l-1.8-9.6L192.2,51.4z"/>
			<path class="st0" d="M202.3,56.9c-0.2,0-0.4-0.1-0.5-0.2l0,0c-0.2-0.2-0.3-0.4-0.3-0.6V40.8c0-0.4,0.4-0.8,0.8-0.8
				c0.5,0,0.8,0.3,0.8,0.8v14.5h4.7c0.4,0,0.8,0.4,0.8,0.8c0,0.4-0.4,0.8-0.8,0.8C207.8,56.9,202.3,56.9,202.3,56.9z"/>
			<path class="st0" d="M215.9,57.1c-2.9-0.2-3.4-2.2-3.4-4.1V40.9c0-0.5,0.4-0.8,0.8-0.8c0.5,0,0.8,0.3,0.8,0.8v12.4
				c0.1,0.8,0.2,2.4,1.9,2.4c1.8,0,1.9-1.2,2-2c0-0.1,0-0.2,0-0.2V40.9c0-0.5,0.3-0.8,0.8-0.8c0.4,0,0.8,0.3,0.8,0.8v12.4
				c0,0.1,0,0.1,0,0.2c0,1.6-0.8,3.8-3.4,3.7h-0.3V57.1z"/>
			<path class="st0" d="M224.1,56.8c-0.3-0.1-0.6-0.3-0.6-0.7V40.8c0-0.4,0.3-0.7,0.7-0.8c0.1,0,0.3,0,0.6,0c0.8,0,2.8,0.3,4.2,1.8
				c1.3,1.3,1.5,3.2,1.6,4.2c0.1,0.8,0.1,1.5,0.1,2.7c0,0.5,0,1.1-0.1,1.7c-0.1,1.2-0.3,3.3-1.6,4.9c-1.2,1.3-2.9,1.6-3.9,1.6
				C224.5,56.9,224.2,56.9,224.1,56.8L224.1,56.8z M225,55.4c0.9,0.1,2.2-0.3,2.8-1c1-1.2,1.2-2.9,1.2-4.1c0-0.6,0.1-1.1,0.1-1.6
				c0-1.1-0.1-1.9-0.1-2.6c-0.1-0.9-0.3-2.4-1.2-3.3l0,0c-0.6-0.7-1.8-1.2-2.8-1.3V55.4z"/>
		</g>
		<rect x="125.1" y="0" class="st0" width="1.6" height="68.1"/>
	</g>
	<path class="st1" d="M105,61.5c-0.1,0-0.1,0-0.2,0l-8-13.9h3.8c0.8,0,1.5-0.1,2.3-0.4c0.8-0.3,1.4-0.7,1.8-1.4
		c0.5-0.7,0.7-1.4,0.7-2.3V32.2c0-1.1-0.4-2.1-1.2-2.9c-0.8-0.8-1.8-1.2-2.9-1.2h-8.9c0,0-0.1,0-0.1,0c0,0-0.1,0-0.1,0h-2.6
		c-0.7,0-1.3,0.6-1.3,1.3c0,0.7,0.6,1.3,1.3,1.3c0,0,0,0,0,0v27.5c0,1.1-0.4,2-1.2,2.8c-0.8,0.8-1.8,1.2-2.9,1.2h-2
		c-1.1,0-2-0.4-2.8-1.2c-0.8-0.8-1.2-1.7-1.2-2.8V30.8c0,0,0.1,0,0.1,0c0.7,0,1.3-0.6,1.3-1.3c0-0.7-0.6-1.3-1.3-1.3l0,0h-2.7h-9.7
		c-1.2,0-2.3,0.4-3.2,1.3c-0.9,0.9-1.3,2-1.3,3.2v4.7c0,0.6,0.2,1,0.6,1.4l10,8.2c0.6,0.5,0.9,1.1,0.9,1.9v10.3c0,0.9-0.3,1.7-1,2.3
		c-0.7,0.6-1.4,0.9-2.4,0.9h-3.4c-1,0-1.8-0.3-2.4-0.9c-0.6-0.6-1-1.3-1-2.3V48.7c0-0.6-0.5-1-1-1h-0.9c0,0,0,0,0,0
		c-0.7,0-1.3,0.6-1.3,1.3c0,0.7,0.6,1.3,1.3,1.3c0,0,0,0,0,0v9.3c0,1.2,0.4,2.3,1.3,3.2c0.9,0.9,2,1.3,3.2,1.3h4.7
		c1.2,0,2.3-0.4,3.2-1.3c0.9-0.9,1.3-2,1.3-3.2V47.5c0-0.5-0.2-1-0.6-1.4c-1.2-1-4.5-3.7-10-8.2c-0.6-0.5-0.9-1.1-0.9-1.9v-2.8
		c0-0.9,0.3-1.7,1-2.3c0.7-0.6,1.4-0.9,2.4-0.9h9.1H77c0.2,0,0.3,0.1,0.4,0.2c0.1,0.1,0.2,0.2,0.2,0.4v27.7c0,1.6,0.6,3,1.7,4.2
		c1.2,1.2,2.5,1.7,4.2,1.7h2c1.6,0,3-0.6,4.2-1.7c1.2-1.2,1.7-2.5,1.7-4.2V30.6c0-0.1,0.1-0.3,0.2-0.4c0.1-0.1,0.2-0.2,0.4-0.2H92
		c0,0,0.1,0,0.1,0c0,0,0.1,0,0.1,0h1c0.2,0,0.3,0.1,0.4,0.2c0.1,0.1,0.2,27.3,0.2,33c0,0.6,0.5,1,1,1h0.6c0,0,0.1,0,0.1,0
		c0,0,0.1,0,0.1,0c0.7,0,1.3-0.6,1.3-1.3c0-0.7-0.6-1.3-1.3-1.3V49.8l8.1,13.9c0.2,0.3,0.5,0.5,0.9,0.5h0.2c0.7,0,1.3-0.6,1.3-1.3
		C106.3,62.1,105.7,61.5,105,61.5z M95.9,45.5c-0.1-0.1-0.2-0.2-0.2-0.4V30.6c0-0.2,0.1-0.3,0.2-0.4c0.1-0.1,0.3-0.2,0.5-0.2h4.2
		c0.8,0,1.5,0.3,2,0.9c0.5,0.6,0.8,1.2,0.8,2v10c0,0.8-0.3,1.4-0.8,2c-0.6,0.6-1.2,0.9-2,0.9h-4.3C96.2,45.7,96,45.6,95.9,45.5z"/>
	<g>
		<g>
			<g>
				<path class="st2" d="M33.9,16c-0.9,0-0.6-2-0.8-2.6c-0.8-4.4-3.6-8.1-7.6-10c-0.2-0.5-1.6-0.2-1.4-0.7c-1.1-0.2-2.7-1-4.3-0.8
					c-1-1.1-0.1-2.8,1.2-1.5C27,1,33.1,5.3,34.7,11.6c0.3,0.4,0.9,0.9,0.5,1.6c0.3,0.6,0.8-0.3,0.2,0.9C36.1,15.4,34.9,16.2,33.9,16
					z"/>
				<path class="st1" d="M14.6,43c0.7,0.9-2.6,3-3.1,3.9c-0.5,0.8-1.8,1-1.7,1.7c0.9,0.9,1.9,1.7,2.6,2.7c1.1,0.8,2,1.6,2.7,2.8
					c1,0.8,1.9,1.6,2.7,2.6c0.3,0.2,1.3,1,0.9,1c0.3,0.3,0.1,0.4,0.5,0.2c0.2,0.4,0,0.1,0.4,0.2c0.4-0.6,1.2-1.7,1.9-1.9
					c1.3,0.4,1.6,1.5,0.3,2c-0.2-0.2-1.1,0.5-1.1,0.7c0,0.4-0.4,0.2-0.5,0.6c-1.2,1.7-0.6,0.9-1.9-0.2c-0.4-0.3-1.2-0.6-1.2-1.2
					c-0.6,0.1-1-0.7-1.4-1.1c-0.6-0.8-1.2-1.7-2-2.2c-0.1-0.3-0.4-0.7-0.7-1c-0.1-0.2-0.5,0.2-0.4-0.2c-0.4-0.3-1-0.7-1.4-1.2
					c-0.5-0.2-0.5-0.3-0.8-0.8c-0.2,0.2-0.2,0-0.4-0.3c-0.5,0-0.2-0.6-0.6-0.6C6,47.1,6.2,49.4,9,45.9c0.5-0.4,1-0.6,1-1.1
					c0.5,0.2,0-0.2,0.3-0.4c0.2-0.4,1.4-0.5,0.9-1c-0.2-0.3,0.4-0.2,0.6-0.3c0.3-0.3,0.6-0.7,0.9-1C13.3,42.4,14.4,42.5,14.6,43z"/>
				<path class="st1" d="M27,51.2c-0.8-0.7,1-1.5,1.3-2.1c0.1-0.1,0.6-0.7,0.4-0.6c-0.5-0.3-4.9-5.6-5.5-5.7
					c-0.5-0.5-0.8-0.6-0.2-1.2c0.3-0.6,1.1-1,1.3-0.3C24,41.7,30,46.8,29.9,47c0.4,0.3,0.8,0.7,1.3,1.1c0.3,0.3,0.3,0.8,0.1,1.1
					c-0.8,0.9-2.2,2.4-2.3,2.4C28.6,52.7,27.5,51.7,27,51.2z"/>
				<path class="st1" d="M15.4,34.6c-0.1,0-0.1,0-0.1,0.1l0,0c-0.1,0.1-0.2,0-0.3,0s-0.1,0-0.2-0.1l-0.1-0.1
					c-0.1-0.1-0.3-0.2-0.4-0.3c-0.1-0.1-0.1-0.1-0.2-0.1c0,0-0.1-0.1-0.1-0.1c0-0.1-0.1-0.2-0.2-0.2c-0.1,0-0.2-0.1-0.3-0.2
					c-0.1-0.1-0.2-0.2-0.3-0.3C13.1,33.2,13,33.1,13,33c-0.1-0.3-0.3-0.4-0.5-0.6c-0.1,0-0.1-0.1-0.2-0.1c-0.1,0-0.1-0.1-0.2-0.2
					c-0.1-0.2-0.2-0.3-0.3-0.4s-0.2-0.2-0.2-0.2c-0.1-0.1-0.2-0.1-0.3-0.3c-0.1-0.1-0.2-0.1-0.3-0.2s-0.2-0.2-0.3-0.3
					c0-0.1-0.1-0.1-0.1-0.2s0-0.1-0.1-0.1s-0.1-0.1-0.2-0.1c-0.1-0.4-0.4-0.7-0.7-0.9c-0.2-0.1-0.3-0.2-0.4-0.4
					c-0.1-0.1-0.2-0.2-0.3-0.2s-0.2-0.1-0.2-0.2c-0.1-0.2-0.2-0.4-0.4-0.6c0-0.1-0.1-0.1-0.1-0.2c-0.2-0.2-0.4-0.4-0.5-0.6
					s-0.3-0.3-0.5-0.4c0,0-0.1,0-0.1-0.1c-0.2-0.3-0.4-0.5-0.6-0.8c0-0.1-0.1-0.1-0.2-0.2s-0.1-0.2-0.2-0.2c0-0.2-0.1-0.3-0.2-0.4
					C6,25,6,25,6,24.9s-0.1-0.2-0.2-0.2v-0.1c0-0.1,0-0.2-0.1-0.2l-0.2-0.3c0,0,0-0.1-0.1-0.1c-0.1-0.1-0.2-0.1-0.3-0.2
					C5,23.7,5,23.6,4.9,23.5c-0.1-0.1-0.1-0.1-0.2-0.2S4.5,23.1,4.5,23c0-0.1-0.1-0.2-0.1-0.2c-0.1-0.1-0.1-0.2-0.2-0.3
					c0-0.1-0.1-0.2-0.1-0.4c0-0.1,0-0.1,0-0.1C4,21.6,4,21.3,3.9,21.1l0,0c-0.1-0.2-0.1-0.4-0.1-0.6c0-0.1,0-0.1,0-0.2s0-0.1,0-0.2
					s0-0.1-0.1-0.2c0-0.1-0.1-0.1-0.1-0.2c-0.1-0.1-0.2-0.2-0.2-0.4v-0.1v-0.1l-0.1-0.2l-0.1-0.5c0,0,0,0,0-0.1c0-0.2,0-0.3,0.1-0.4
					c0-0.1-0.1-0.3-0.2-0.4c0-0.1,0-0.1,0-0.2v-0.1c0.1-0.3,0.1-0.5,0-0.8c0-0.1-0.1-0.2-0.1-0.3c0-0.1,0-0.2,0-0.3l0,0
					c0-0.2,0-0.4,0-0.5c0-0.2,0.1-0.3,0.1-0.5l0,0l0,0v0.1l0,0c0-0.1,0.1-0.3,0.1-0.4c0,0,0-0.1-0.1-0.1S3,14.4,3,14.3
					c0-0.3,0-0.6,0.1-0.9c0-0.1,0-0.2,0.1-0.3c0-0.1,0.1-0.2,0.1-0.3c0.1-0.1,0.1-0.2,0.1-0.3c0-0.2,0-0.3,0.2-0.5
					c0.1-0.1,0.2-0.2,0.2-0.4c0.1-0.1,0.1-0.3,0-0.4v-0.1C3.9,10.8,4,10.7,4,10.5v-0.3c0-0.1,0-0.1,0.1-0.2c0.1-0.1,0.2-0.2,0.2-0.3
					c0.1-0.1,0.1-0.2,0.1-0.3S4.5,9.1,4.5,9c0-0.1,0.1-0.2,0.3-0.2c0.1,0,0.2,0.1,0.3,0c0.1-0.1,0.2,0,0.4,0h0.1
					C5.8,8.7,5.9,8.8,6,9c0.1,0.1,0.1,0.2,0.2,0.4c0.1,0.1,0.1,0.2,0.1,0.3s0,0.2,0,0.3s0,0.2-0.1,0.2H6.1c0,0,0,0,0,0.1
					c0,0.2-0.1,0.2-0.1,0.4l0,0c-0.3-0.1-0.3,0.1-0.4,0.3c-0.1,0.1-0.1,0.2-0.1,0.3s-0.1,0.1-0.1,0.2c-0.1,0.1-0.2,0.2-0.1,0.3
					s0.1,0.3-0.1,0.4l0,0l0,0c-0.1,0.1-0.1,0.1-0.1,0.2l0,0c0,0.1,0,0.3-0.1,0.4c0,0.1,0,0.1,0,0.2c0,0.1,0,0.1,0,0.2
					c0,0.1-0.1,0.2-0.2,0.2H4.7c-0.1,0-0.1,0.1-0.1,0.1c0,0.1,0,0.2,0,0.2c0,0.1,0,0.1,0,0.2c0,0.1,0,0.2,0,0.3
					c0,0.2,0.1,0.3,0.1,0.4c0,0.1,0.1,0.3,0,0.4c0,0.1,0,0.1,0,0.2c0,0.2,0,0.3-0.2,0.4c0,0,0,0,0,0.1s0,0.2,0.1,0.2h0.1
					c0.1,0,0.1,0.1,0.1,0.2s0,0.2,0,0.3c0,0.1,0,0.1,0,0.2c0,0.2,0,0.4,0,0.5c0.1,0.1,0,0.3,0,0.4l0,0c0,0.1-0.1,0.1-0.1,0.2
					s0,0.2,0,0.4c0,0.1,0,0.1,0,0.2c0,0.2,0,0.4,0.1,0.5v0.1C5,19,5,19,5,19c0,0.1,0,0.2,0,0.2c-0.1,0.2,0,0.3,0,0.5l0,0
					C5.2,20,5.2,20,5.2,20.3c0,0,0,0.1,0.1,0.1h0.1c0.1,0,0.1,0.1,0,0.1c-0.1,0.1-0.1,0.1-0.1,0.2c0.1,0.1,0.2,0.3,0.2,0.5
					c0,0.1,0.1,0.2,0.1,0.3c0,0.1,0.1,0.1,0.3,0.1c0.1,0,0.1,0,0.1,0.1v0.1C5.8,22,5.8,22,6,22c0.1,0,0.2,0.1,0.2,0.2
					c0.1,0.2,0.2,0.4,0.4,0.5l0.1,0.1c0,0.2,0.2,0.3,0.3,0.5c0.1,0.1,0.2,0.2,0.3,0.2h0.1l0.1,0.1c0,0.2,0.1,0.4,0.2,0.5
					c0,0,0,0,0.1,0V24v-0.1l0,0C7.9,24,7.9,24.2,8,24.4c0,0.1,0.1,0.1,0.1,0.1l0,0c0.1,0,0.1,0.1,0.1,0.1c0,0.1,0,0.2,0,0.3
					c0,0.1,0.1,0.2,0.2,0.2c0.1,0,0.1,0,0.2,0.1v0.1c0.1,0,0.2,0.2,0.3,0.2c0.1,0.1,0.3,0.3,0.4,0.4L9.4,26c0,0.2,0.2,0.4,0.4,0.6
					h0.1l0,0c0,0,0.1,0,0.1,0.1c0.2,0.2,0.3,0.4,0.5,0.6c0.2,0.3,0.4,0.5,0.6,0.7c0.1,0.1,0.1,0.1,0.1,0.2s0,0.2,0,0.3
					c0,0,0,0,0.1,0.1h0.1c0.3,0,0.5,0.1,0.6,0.3c0.1,0.2,0.3,0.4,0.4,0.6c0.1,0.1,0.2,0.3,0.3,0.4S12.9,30,13,30h0.1
					c0,0,0.1,0,0.1,0.1s0,0.1-0.1,0.2l0,0l0,0c0,0,0.1,0,0.1-0.1c0.1,0,0.3,0,0.4,0.1c0.1,0.1,0.2,0.2,0.3,0.3c0,0,0,0.1,0.1,0.1
					c0.1,0.1,0.2,0.1,0.2,0.2s0,0.2,0,0.3l0.1,0.1c0.1,0,0.2,0,0.3-0.1c0-0.1,0.1-0.1,0.2,0v0.1v0.1c0.1,0.1,0.1,0.2,0.1,0.4
					c0,0,0,0.1,0.1,0.1c0.1,0.1,0.1,0.1,0.2,0.1c0.1,0.1,0.2,0.1,0.2,0.2c0.2,0.2,0.4,0.4,0.6,0.5v0.1c-0.1,0.1-0.2,0.2-0.1,0.4
					c0,0.1,0,0.2-0.1,0.3s-0.1,0.2-0.1,0.4V34c-0.1,0.1-0.1,0.2-0.2,0.3C15.6,34.5,15.6,34.6,15.4,34.6z"/>
				<path class="st3" d="M8.1,51.9c0.2,0.2,0.2,0,0.1-0.1c0.3-0.1,0.9,0.5,1.2,0.7c3.4,3.1,6.4,6.5,9.6,9.8c0.1,0.1,0.2,0.2,0.2,0.2
					l0.1-0.1l0.2-0.2c4.5-4.5,9.1-8.8,13.5-13.3c0.1,0,0.2-0.3,0.1-0.4c-2.5-2.6-5.2-4.9-7.7-7.5c-4.4-5-9.7-9.2-14.1-14.2
					c-3.9-3.6-6.7-9-4.7-14.4c4.1-13.1,22.3-12.3,25.6,1c0.2,0.7,0.1,0.9-0.2,1.5c-0.1,0.7-0.3,0.4-0.4,0.8
					c-0.2,1.5-1.8-3.2-1.7-3.7c-0.2-0.6-0.6-1.1-0.8-1.7c0.1-0.8-0.9-1.8-1.5-2.4c-0.9-1.2-2.1-1.5-3.2-2.3l0,0
					c-0.3-0.2-0.4-0.2-0.7-0.3l0,0c-3.1-0.9-6.6-1.5-9.4,0.4c-3.6,1.8-5.6,5.1-6.3,9l0,0c-1.3,6.1,3.7,10.2,7.4,14.1
					c3.5,2.9,6.8,6.3,10.1,9.6c-0.6-1.2,1.3,1.5,1.7,1.6c2.3,2.4,4.8,4.6,7,7.1c1.7,1.4,0.8,3-0.7,4.1c-2.5,2.5-5,4.6-7.3,7.3
					c-1.3,1.4-3.2,2.5-4,4.2c-0.2,0.4-0.8,0.3-1,0.7c-1.6,3.9-4.6,0.2-6-1.8c-0.8-0.7-0.9,0.1-1.3-0.8c-1.4-2.2-3.4-3.8-5.2-5.6
					c-0.1-0.1-0.2-0.3-0.2-0.3c0.3-0.1-0.8-1.3-0.6-1.5C8.2,53.3,7.1,51.1,8.1,51.9z"/>
				<path class="st3" d="M19.4,11.7c-2.4,0-4.4,2-4.4,4.4s2,4.4,4.4,4.4s4.4-2,4.4-4.4S21.8,11.7,19.4,11.7z"/>
				<path class="st1" d="M29.5,15c-0.2-0.9-0.5-1.8-0.4-2.7c-0.9,0-0.4-0.5-0.8-1.2c-0.1-0.5-0.5-0.7-0.8-0.8
					c0.3-0.5-0.2-0.2-0.5-0.5c-1.1-1.5-2.6-2.3-4.4-3.1c-1,0-2.3-0.6-3.4-0.3c-0.5-0.2-1,0-1.5,0c0.4,0.4-0.8-0.1-0.9,0.3
					c-0.7,0.5-1.9,0.8-2.5,1.5C13.9,8,14.2,8.4,14,8.5c-1.6,0.9-2.6,2.4-3.5,4l0,0c-0.4,0.7-0.9,1.7-0.4,2.3c-0.5,0.5-0.3,1.4-0.1,2
					c0.3,1.1-0.3,1.5,0.5,2.6c0.1,0.1,0.1,0.1,0.1,0.2l0,0c0,0.2,0,0.4,0.2,0.5c0.4,0.2,0.2,0.8,0.6,1.1c0.3,0.4-0.2,0.8,0.4,1.1
					c0.1,0.4,0.2,0.5,0.6,0.7c0.5,0.4,0.4,0.9,0.9,1.1c0,0.2,0.3,0.1,0.4,0.3c-0.1,1,0.8,0.1,0.4,0.6c0.6-0.3,0.8,0.7,1,0.7
					c0.3,0.1,1.6,1.6,1.8,1.5c0.1,0.7,0.8,0.8,1,0.7c0.1,0,0.1,0,0,0.1c-0.2,0.3,0.8,1,1,1c0.2,0.1,0.3,0.3,0.3,0.5l0,0
					c0.4,0.6,1.8,1.6,1.8,1.6s0.1,0.8,0.5,0.9c-0.1,0.8,2-1.1,1.3-1.3c-0.2,0-0.1-0.4-0.3-0.4c-0.3-0.3-0.3-0.1-0.4-0.2
					c0-0.4-1.5-1.4-1.4-1.8c-0.2-0.3-0.5-0.7-0.9-0.6c-0.3-0.1-0.3-0.9-0.5-1c-0.2-0.2-0.6-0.1-0.8-0.4c-0.2-0.4-0.5-0.9-1-1
					c-0.3-0.3-0.3-0.7-0.6-0.8c-0.3-0.3-0.3-0.1-0.5-0.6c0-0.2,0-0.3-0.3-0.4c-0.1-0.3-0.7-0.4-0.7-0.7c0-0.3-0.3-0.3-0.5-0.5
					c-0.6-0.6-2.6-2.2-2.7-3.4c-0.3-0.7,0-2.1-0.5-2.5c0-0.5,0.4-0.6,0.3-1.3c0-1.1,0.5-1.9,1-2.8c0.4-1.4,1.5-2,2.7-2.6
					c1.3-1.2,2.9-1.4,4.6-1.3c1-0.3,1.9,0.4,2.8,0.7c1.3,0.3,1.9,1.3,2.7,2.2c1.1,1.1,1.4,2.5,1.8,3.9C27.2,16.9,28.8,15.9,29.5,15z
					"/>
				<path class="st3" d="M16.7,26.7"/>
				<path class="st1" d="M29.6,38.1c0.1,0,0.1,0,0.1-0.1l0,0c0.1,0,0.2,0,0.3,0c0.1,0,0.1,0.1,0.2,0.1c0.1,0.1,0.1,0.1,0.2,0.2
					c0.2,0.1,0.4,0.3,0.6,0.5c0.1,0.1,0.2,0.1,0.3,0.2c0.1,0.1,0.1,0.1,0.2,0.2c0.1,0.1,0.2,0.2,0.3,0.3c0.2,0.1,0.3,0.2,0.4,0.3
					c0.1,0.2,0.3,0.3,0.4,0.4c0.1,0.1,0.3,0.3,0.3,0.4c0.1,0.3,0.4,0.6,0.7,0.8c0.1,0.1,0.2,0.1,0.2,0.1c0.1,0.1,0.2,0.1,0.2,0.2
					c0.1,0.2,0.3,0.4,0.5,0.5c0.1,0.1,0.2,0.2,0.3,0.3s0.3,0.2,0.4,0.4c0.1,0.1,0.2,0.2,0.4,0.3s0.3,0.3,0.4,0.4
					c0.1,0.1,0.1,0.2,0.1,0.3s0.1,0.2,0.1,0.2c0.1,0,0.2,0.1,0.2,0.2c0.1,0.2,0.3,0.5,0.4,0.7c0.1,0.1,0.1,0.1,0.2,0.2
					c0.1,0.1,0.1,0.1,0.2,0.2l0.1,0.1l0.1,0.1c0.1,0.1,0.1,0.1,0.2,0.2c0.2,0.2,0.4,0.5,0.5,0.9c0,0.1,0.1,0.2,0.1,0.3
					s0.1,0.2,0.2,0.3c0.1,0.1,0.1,0.3,0.2,0.5c0,0.2,0,0.4,0,0.6c0,0.1,0,0.2,0,0.3l0,0.3c0,0.1-0.1,0.3-0.1,0.4
					c-0.1,0.5-0.2,0.9-0.4,1.4c-0.1,0.2-0.2,0.3-0.3,0.5s-0.2,0.3-0.3,0.5c0,0.1-0.1,0.2-0.1,0.2c-0.2,0.2-0.4,0.4-0.5,0.5
					c-0.2,0.2-0.3,0.3-0.5,0.4c-0.1,0.1-0.2,0.2-0.3,0.3s-0.2,0.2-0.3,0.3c-0.2,0.1-0.4,0.2-0.5,0.4c-0.1,0.1-0.1,0.1-0.2,0.2
					c-0.1,0.1-0.2,0.2-0.3,0.3l-0.1,0.1c-0.1,0-0.2,0.1-0.3,0.2L34.1,55L34,55.1c-0.1,0.1-0.1,0.3-0.3,0.4c-0.1,0.1-0.3,0.2-0.4,0.4
					c-0.1,0.1-0.1,0.2-0.2,0.3c-0.1,0.2-0.2,0.3-0.3,0.4c-0.1,0.1-0.2,0.1-0.2,0.2c-0.2,0.3-0.5,0.5-0.8,0.6c-0.1,0-0.1,0.1-0.2,0.1
					c-0.2,0.3-0.5,0.5-0.8,0.7l0,0c-0.2,0.2-0.4,0.3-0.6,0.4c-0.1,0-0.1,0.1-0.2,0.1c-0.2,0.1-0.3,0.3-0.4,0.4
					c0,0.1-0.1,0.2-0.1,0.2c-0.1,0.2-0.2,0.3-0.3,0.5c-0.3,0.3-0.6,0.6-0.9,0.9l0,0C28.2,60.8,28,61,27.8,61
					c-0.1,0.2-0.2,0.3-0.3,0.5c-0.1,0.1-0.1,0.1-0.2,0.2c-0.1,0-0.1,0.1-0.2,0.1c-0.3,0.2-0.6,0.4-0.8,0.7c-0.1,0.2-0.3,0.4-0.5,0.6
					l0,0c-0.2,0.4-0.6,0.6-1,0.9l0,0c0,0,0,0,0-0.1c0,0,0-0.1,0.1-0.1l0,0l-0.5,0.4v0.1c0.1,0,0.1,0.1,0,0.1
					c-0.3,0.3-0.6,0.6-0.9,0.9c-0.1,0.1-0.2,0.2-0.3,0.3c-0.1,0.1-0.2,0.2-0.4,0.3c-0.1,0-0.1,0.1-0.2,0.1c-0.1,0.1-0.1,0.1-0.2,0.2
					c0,0.1-0.1,0.1-0.1,0.2s-0.1,0.1-0.2,0.1c-0.1,0.1-0.2,0.1-0.4,0.2c-0.1,0-0.2,0.1-0.3,0.1c-0.1,0-0.2,0.1-0.3,0.1
					c-0.1,0-0.1,0-0.2,0.1c-0.1,0-0.1,0-0.2,0.1s-0.2,0.1-0.3,0.2c0,0-0.1,0.1-0.2,0.1c-0.2,0-0.4,0-0.6,0.1c-0.1,0-0.2,0-0.2,0
					c-0.1,0-0.2,0-0.2,0c-0.1,0-0.2,0-0.3,0h-0.3c-0.1,0-0.2,0-0.3-0.1c-0.2-0.1-0.4-0.2-0.6-0.2c-0.1,0-0.2-0.1-0.3-0.1
					c-0.1,0-0.2-0.1-0.3-0.1c-0.1,0-0.2-0.1-0.4-0.1c-0.1,0-0.2-0.1-0.3-0.2c-0.1,0-0.1-0.1-0.1-0.1l-0.1-0.1c0-0.1-0.1-0.1-0.1-0.2
					s0.1-0.2,0-0.3c-0.1-0.2,0-0.3,0.1-0.4v-0.1c-0.1-0.3,0.1-0.3,0.3-0.3c0.2,0,0.3,0,0.4-0.1c0.1,0,0.2-0.1,0.3,0
					c0.1,0.1,0.2,0,0.3,0c0.1,0,0.2,0,0.2,0.2c0,0,0,0.1,0.1,0.1h0.1c0.2,0,0.3,0.1,0.4,0.1l0,0c0,0.3,0.2,0.3,0.5,0.3h0.1H19
					c0.1,0,0.2,0,0.2,0c0.1,0,0.2,0,0.3,0c0.1,0,0.2,0,0.2,0c0.1,0,0.1-0.1,0.2-0.2c0-0.1,0.1-0.1,0.2-0.2c0.1,0,0.2-0.1,0.3,0
					c0,0,0,0,0.1,0l0,0c0.1,0,0.1,0,0.2-0.1l0,0l0.1-0.1l0.1-0.1L21,65h0.1v-0.1c0.1-0.1,0.1-0.1,0.1-0.2c0,0,0,0,0-0.1
					c0,0,0,0,0-0.1l0.1-0.1c0.1-0.1,0.3-0.2,0.4-0.2h0.1c0.1,0,0.2,0,0.2-0.1c0.1-0.2,0.3-0.3,0.5-0.5c0.1-0.1,0.2-0.2,0.3-0.3
					c0.1-0.2,0.2-0.4,0.4-0.5c0.1-0.2,0.2-0.4,0.4-0.5c0.1-0.1,0.2-0.2,0.2-0.2c0.1-0.2,0.3-0.3,0.5-0.3c0,0,0.1,0,0.1-0.1
					c0.1,0,0.2-0.2,0.1-0.3c0,0-0.1,0-0.1-0.1s0-0.2,0.1-0.3s0.2-0.2,0.3-0.2c0.1-0.1,0.1-0.1,0.2-0.2c0.2-0.2,0.4-0.4,0.6-0.5
					c0.1-0.2,0.3-0.3,0.5-0.4l0,0c0.1,0,0.2-0.1,0.2-0.1c0.1-0.1,0.3-0.2,0.4-0.4c0.1-0.1,0.2-0.2,0.2-0.2c0.2-0.2,0.4-0.3,0.6-0.6
					c0.1-0.2,0.3-0.4,0.5-0.5s0.4-0.3,0.6-0.4c0,0,0,0,0-0.1c0.2-0.3,0.2-0.3,0.5-0.5c0.1,0,0.1-0.1,0.1-0.2v-0.1
					c0-0.1,0.1-0.1,0.2-0.1s0.2,0,0.3-0.1c0.2-0.2,0.3-0.4,0.5-0.5c0.1-0.1,0.3-0.2,0.4-0.4c0.1-0.1,0.1-0.2,0.1-0.3s0-0.2,0.1-0.2
					h0.1c0.2,0,0.2,0,0.2-0.2c0-0.1,0.1-0.3,0.2-0.4c0.2-0.2,0.4-0.5,0.6-0.7c0.1-0.1,0.1-0.1,0.2-0.2c0.2-0.2,0.4-0.4,0.6-0.6
					c0.2-0.1,0.2-0.3,0.3-0.5v-0.1c0-0.1,0.1-0.1,0.1-0.1c0.3-0.1,0.5-0.2,0.7-0.4c0,0,0-0.1,0.1-0.1h-0.1h-0.1c0,0,0,0,0-0.1
					c0.2-0.2,0.4-0.3,0.6-0.4c0.1,0,0.1-0.1,0.1-0.2c0,0,0,0,0-0.1s0.1-0.2,0.2-0.2c0.1-0.1,0.2-0.1,0.3-0.1
					c0.2-0.1,0.2-0.1,0.3-0.3c0-0.1,0.1-0.2,0.2-0.2l0.1-0.1c0-0.1,0.1-0.1,0.1-0.2c0-0.1,0.1-0.1,0.1-0.2l0.1-0.1l0.1-0.1
					c0,0,0-0.1,0.1-0.1l0.1-0.1c0-0.1,0-0.1,0.1-0.2c0.1-0.1,0.2-0.2,0.2-0.3s0-0.1,0-0.2c0-0.1,0-0.1,0-0.2c0-0.1,0-0.1-0.1-0.1
					l0,0c0-0.1,0-0.1,0-0.2c0-0.3,0-0.6-0.1-0.8c-0.1-0.3-0.2-0.7-0.5-0.9c0.3,0.5,0.3,0.4,0.3,0.3c0-0.1,0-0.2,0-0.3l-0.1-0.1h-0.1
					c-0.3,0-0.6-0.2-0.8-0.5s-0.4-0.5-0.6-0.8c-0.1-0.2-0.3-0.3-0.4-0.5c-0.1-0.1-0.2-0.2-0.3-0.1c0,0-0.1,0-0.2,0
					c-0.1,0-0.1-0.1-0.1-0.1c0-0.1,0-0.2,0-0.3c0,0,0,0,0-0.1c0,0,0,0-0.1,0h-0.1c-0.2,0-0.3-0.1-0.4-0.2c-0.2-0.1-0.3-0.3-0.4-0.5
					c0-0.1-0.1-0.1-0.1-0.2c-0.1-0.1-0.3-0.2-0.3-0.3s0-0.2-0.1-0.3l-0.1-0.1c-0.2-0.1-0.3-0.1-0.4,0c0,0.1-0.1,0.1-0.2,0
					c-0.1,0-0.1-0.1-0.1-0.2c0-0.1,0-0.1,0-0.2c-0.2-0.2-0.2-0.3-0.3-0.5c0-0.1-0.1-0.1-0.1-0.2c-0.1-0.1-0.2-0.1-0.3-0.2
					c-0.2,0.2-0.4,0.1-0.4,0c-0.2-0.3-0.5-0.5-0.8-0.8c-0.1,0-0.1-0.1,0-0.2c0.1-0.1,0.1-0.2,0-0.4c-0.1-0.1,0-0.3,0-0.4
					c0.1-0.1,0.1-0.3,0.1-0.5v-0.1c0.1-0.1,0.1-0.2,0.1-0.3C29.4,38.1,29.5,38,29.6,38.1z"/>
				<path class="st3" d="M14.1,39.5c-1.1-1.9-1.2-1.4-2.5-0.5c0,0.1,0.3,0.2,0,0.2c-0.3-0.4-0.2,0.4-0.5,0.3
					c-0.2,0.1-0.5,0.3-0.4,0.7c-0.3,0.2-0.9,0.1-0.9,0.6c0,0.4-0.8,0.4-0.8,0.9c-0.3,0.2-4.6,4-4.6,4.6c-2.9,1.7-0.7,3.2,0.4,5
					c1.3,1.5,1.9,1.7,3-0.3c0-0.3-2.8-2.4-2.8-2.5c0.2-0.2-0.3-0.7-0.1-0.6c0.2,0.1-0.4-0.3,0.3-0.3c0-0.4,2.4-2.4,2.5-2.5
					c0-0.1,3.2-2.7,3.3-2.8c-0.2-0.3,0.1-0.3,0.2-0.5c0.1-0.1-0.2-0.4,0.1-0.4c0.4-0.1,0.1-0.2,0.5-0.3c0.2,0.1,0-0.2,0.2-0.2
					c0.3-0.2,0.8-0.1,0.4-0.6c0.6,0.3,0-0.8,0.8-0.4c0-0.1,0-0.4,0.1-0.3c0.3,0.1-0.2-0.4,0.1-0.2c0.2,0,0.2-0.2,0.5,0.1
					C14.1,39.4,14.1,39.7,14.1,39.5z"/>
				<path class="st1" d="M14.9,49.4l3.6,3.6c0.4,0.4,1.1,0.4,1.5,0l3.6-3.6c0.7-0.7,0.2-1.8-0.7-1.8h-7.1
					C14.7,47.6,14.2,48.7,14.9,49.4z"/>
			</g>
			<path class="st2" d="M5.3,55.4c-0.9,0.7-2.5-1.9-3.1-2.5c-3.9-3.9-2.1-7.6,1.6-10.1c-0.4-0.5,1.4-1,1.8-2
				c0.8-1.1,2.3,0.5,1.7,1.1c0,0-0.1-0.1-0.2,0C7,42.3,6.6,41.8,6.5,42c-0.1,0.2-0.5,0.1-0.4,0.4c0.1,0.2-0.4,0.3-0.5,0.8
				c-0.7-0.1-0.7,0.5-1.1,1c0,0.2-0.5-0.1-0.4,0.2c0.4,0.2-2.2,1.8-2.4,2.3C1.6,47,2,47.1,1.9,47.2c-0.2,0,0,0.7-0.2,1
				c0,0.1,0.3,0.2,0.3,0.3c-0.2,0.1-0.2,0.4,0,0.3c-0.2,0.3,0.2,0.3-0.1,0.6c-0.1,0.1,0.2,0.1,0.2,0.4c0.2,0.1,0.1,0.7,0.4,0.6
				c0.2,0.2,0.8,0.7,0.7,1.1c0.7-0.2,0.6,0.8,1.1,0.7c0.2-0.2,0.1,0.1,0.1,0.2c0.8-0.5,0.4,1.1,1.2,0.5C5.6,54.1,7.1,53.4,5.3,55.4z
				"/>
		</g>
	</g>
</g>
</svg>
