<?xml version="1.0" encoding="utf-8"?>
<!-- Generator: Adobe Illustrator 29.4.0, SVG Export Plug-In . SVG Version: 9.03 Build 0)  -->
<svg version="1.0" id="Capa_1" xmlns="http://www.w3.org/2000/svg" xmlns:xlink="http://www.w3.org/1999/xlink" x="0px" y="0px"
	 viewBox="0 0 80 80" style="enable-background:new 0 0 80 80;" xml:space="preserve">
<style type="text/css">
	.st0{fill:#EB671F;}
	.st1{fill:#9D4693;}
	.st2{fill:#F9B515;}
	.st3{fill:#9E4694;}
	.st4{fill:#63AE30;}
</style>
<g>
	<g>
		<g>
			<path class="st0" d="M59.9,18.6c-1,0-0.7-2.3-0.9-3C58,10.5,54.8,6.2,50.2,4c-0.2-0.6-1.8-0.2-1.6-0.8c-1.3-0.2-3.1-1.2-5-0.9
				C42.4,1,43.5-1,45,0.5c6.9,0.7,14,5.7,15.8,12.9c0.3,0.5,1,1,0.6,1.8c0.3,0.7,0.9-0.3,0.2,1C62.4,17.9,61,18.8,59.9,18.6z"/>
			<path class="st1" d="M37.6,49.8c0.8,1-3,3.5-3.6,4.5c-0.6,0.9-2.1,1.2-2,2c1,1,2.2,2,3,3.1c1.3,0.9,2.3,1.8,3.1,3.2
				c1.2,0.9,2.2,1.8,3.1,3c0.3,0.2,1.5,1.2,1,1.2c0.3,0.3,0.1,0.5,0.6,0.2c0.2,0.5,0,0.1,0.5,0.2c0.5-0.7,1.4-2,2.2-2.2
				c1.5,0.5,1.8,1.7,0.3,2.3c-0.2-0.2-1.3,0.6-1.3,0.8c0,0.5-0.5,0.2-0.6,0.7c-1.4,2-0.7,1-2.2-0.2c-0.5-0.3-1.4-0.7-1.4-1.4
				c-0.7,0.1-1.2-0.8-1.6-1.3c-0.7-0.9-1.4-2-2.3-2.5c-0.1-0.3-0.5-0.8-0.8-1.2c-0.1-0.2-0.6,0.2-0.5-0.2c-0.5-0.3-1.2-0.8-1.6-1.4
				c-0.6-0.2-0.6-0.3-0.9-0.9c-0.2,0.2-0.2,0-0.5-0.3c-0.6,0-0.2-0.7-0.7-0.7c-3.9-4.2-3.7-1.5-0.5-5.5c0.6-0.5,1.2-0.7,1.2-1.3
				c0.6,0.2,0-0.2,0.3-0.5c0.2-0.5,1.6-0.6,1-1.2c-0.2-0.3,0.5-0.2,0.7-0.3c0.3-0.3,0.7-0.8,1-1.2C36.1,49.1,37.3,49.2,37.6,49.8z"
				/>
			<path class="st0" d="M51.9,59.3c-0.9-0.8,1.2-1.7,1.5-2.4c0.1-0.1,0.7-0.8,0.5-0.7c-0.6-0.3-5.7-6.5-6.4-6.6
				c-0.6-0.6-0.9-0.7-0.2-1.4c0.3-0.7,1.3-1.2,1.5-0.3c-0.3,0.5,6.6,6.4,6.5,6.6c0.5,0.3,0.9,0.8,1.5,1.3c0.3,0.3,0.3,0.9,0.1,1.3
				c-0.9,1-2.5,2.8-2.7,2.8C53.7,61,52.5,59.8,51.9,59.3z"/>
			<path class="st1" d="M38.5,40.1c-0.1,0-0.1,0-0.1,0.1l0,0c-0.1,0.1-0.2,0-0.3,0s-0.1,0-0.2-0.1L37.7,40c-0.1-0.1-0.3-0.2-0.5-0.3
				c-0.1-0.1-0.1-0.1-0.2-0.1c0,0-0.1-0.1-0.1-0.1c0-0.1-0.1-0.2-0.2-0.2s-0.2-0.1-0.3-0.2c-0.1-0.1-0.2-0.2-0.3-0.3
				c-0.1-0.1-0.2-0.2-0.2-0.3c-0.1-0.3-0.3-0.5-0.6-0.7c-0.1,0-0.1-0.1-0.2-0.1c-0.1,0-0.1-0.1-0.2-0.2c-0.1-0.2-0.2-0.3-0.3-0.5
				c-0.1-0.1-0.2-0.2-0.2-0.2c-0.1-0.1-0.2-0.1-0.3-0.3c-0.1-0.1-0.2-0.1-0.3-0.2c-0.1-0.1-0.2-0.2-0.3-0.3c0-0.1-0.1-0.1-0.1-0.2
				s0-0.1-0.1-0.1s-0.1-0.1-0.2-0.1c-0.1-0.5-0.5-0.8-0.8-1c-0.2-0.1-0.3-0.2-0.5-0.5c-0.1-0.1-0.2-0.2-0.3-0.2s-0.2-0.1-0.2-0.2
				c-0.1-0.2-0.2-0.5-0.5-0.7c0-0.1-0.1-0.1-0.1-0.2c-0.2-0.2-0.5-0.5-0.6-0.7c-0.1-0.2-0.3-0.3-0.6-0.5c0,0-0.1,0-0.1-0.1
				c-0.2-0.3-0.5-0.6-0.7-0.9c0-0.1-0.1-0.1-0.2-0.2c-0.1-0.1-0.1-0.2-0.2-0.2c0-0.2-0.1-0.3-0.2-0.5c0.1-0.1,0.1-0.1,0.1-0.2
				s-0.1-0.2-0.2-0.2v-0.1c0-0.1,0-0.2-0.1-0.2L27,27.9c0,0,0-0.1-0.1-0.1c-0.1-0.1-0.2-0.1-0.3-0.2c-0.1-0.1-0.1-0.2-0.2-0.3
				c-0.1-0.1-0.1-0.1-0.2-0.2c-0.1-0.1-0.2-0.2-0.2-0.3c0-0.1-0.1-0.2-0.1-0.2c-0.1-0.1-0.1-0.2-0.2-0.3c0-0.1-0.1-0.2-0.1-0.5
				c0-0.1,0-0.1,0-0.1c-0.1-0.5-0.1-0.8-0.2-1l0,0c-0.1-0.2-0.1-0.5-0.1-0.7c0-0.1,0-0.1,0-0.2s0-0.1,0-0.2c0-0.1,0-0.1-0.1-0.2
				c0-0.1-0.1-0.1-0.1-0.2c-0.1-0.1-0.2-0.2-0.2-0.5v-0.1v-0.1l-0.1-0.2l-0.1-0.6c0,0,0,0,0-0.1c0-0.2,0-0.3,0.1-0.5
				c0-0.1-0.1-0.3-0.2-0.5c0-0.1,0-0.1,0-0.2V20c0.1-0.3,0.1-0.6,0-0.9c0-0.1-0.1-0.2-0.1-0.3c0-0.1,0-0.2,0-0.3l0,0
				c0-0.2,0-0.5,0-0.6c0-0.2,0.1-0.3,0.1-0.6l0,0l0,0v0.1l0,0c0-0.1,0.1-0.3,0.1-0.5c0,0,0-0.1-0.1-0.1c-0.1,0-0.1,0-0.1-0.1
				c0-0.3,0-0.7,0.1-1c0-0.1,0-0.2,0.1-0.3c0-0.1,0.1-0.2,0.1-0.3c0.1-0.1,0.1-0.2,0.1-0.3c0-0.2,0-0.3,0.2-0.6
				c0.1-0.1,0.2-0.2,0.2-0.5c0.1-0.1,0.1-0.3,0-0.5v-0.1c0.1-0.3,0.2-0.5,0.2-0.7v-0.3c0-0.1,0-0.1,0.1-0.2c0.1-0.1,0.2-0.2,0.2-0.3
				c0.1-0.1,0.1-0.2,0.1-0.3s0.1-0.3,0.1-0.5c0-0.1,0.1-0.2,0.3-0.2c0.1,0,0.2,0.1,0.3,0c0.1-0.1,0.2,0,0.5,0h0.1
				c0.2-0.1,0.3,0,0.5,0.2c0.1,0.1,0.1,0.2,0.2,0.5c0.1,0.1,0.1,0.2,0.1,0.3c0,0.1,0,0.2,0,0.3s0,0.2-0.1,0.2h-0.1c0,0,0,0,0,0.1
				c0,0.2-0.1,0.2-0.1,0.5l0,0c-0.3-0.1-0.3,0.1-0.5,0.3C27,12.9,27,13,27,13.1c0,0.1-0.1,0.1-0.1,0.2c-0.1,0.1-0.2,0.2-0.1,0.3
				c0.1,0.1,0.1,0.3-0.1,0.5l0,0l0,0c-0.1,0.1-0.1,0.1-0.1,0.2l0,0c0,0.1,0,0.3-0.1,0.5c0,0.1,0,0.1,0,0.2c0,0.1,0,0.1,0,0.2
				c0,0.1-0.1,0.2-0.2,0.2h-0.1c-0.1,0-0.1,0.1-0.1,0.1c0,0.1,0,0.2,0,0.2c0,0.1,0,0.1,0,0.2c0,0.1,0,0.2,0,0.3
				c0,0.2,0.1,0.3,0.1,0.5c0,0.1,0.1,0.3,0,0.5c0,0.1,0,0.1,0,0.2c0,0.2,0,0.3-0.2,0.5c0,0,0,0,0,0.1s0,0.2,0.1,0.2h0.1
				c0.1,0,0.1,0.1,0.1,0.2c0,0.1,0,0.2,0,0.3c0,0.1,0,0.1,0,0.2c0,0.2,0,0.5,0,0.6c0.1,0.1,0,0.3,0,0.5l0,0c0,0.1-0.1,0.1-0.1,0.2
				c0,0.1,0,0.2,0,0.5c0,0.1,0,0.1,0,0.2c0,0.2,0,0.5,0.1,0.6v0.1c0.2,0.1,0.2,0.1,0.2,0.1c0,0.1,0,0.2,0,0.2c-0.1,0.2,0,0.3,0,0.6
				l0,0c0.2,0.3,0.2,0.3,0.2,0.7c0,0,0,0.1,0.1,0.1h0.1c0.1,0,0.1,0.1,0,0.1c-0.1,0.1-0.1,0.1-0.1,0.2c0.1,0.1,0.2,0.3,0.2,0.6
				c0,0.1,0.1,0.2,0.1,0.3c0,0.1,0.1,0.1,0.3,0.1c0.1,0,0.1,0,0.1,0.1v0.1c-0.2,0.2-0.2,0.2,0,0.2c0.1,0,0.2,0.1,0.2,0.2
				c0.1,0.2,0.2,0.5,0.5,0.6l0.1,0.1c0,0.2,0.2,0.3,0.3,0.6c0.1,0.1,0.2,0.2,0.3,0.2h0.1l0.1,0.1c0,0.2,0.1,0.5,0.2,0.6
				c0,0,0,0,0.1,0v-0.1v-0.1l0,0c0.1,0.1,0.1,0.3,0.2,0.6c0,0.1,0.1,0.1,0.1,0.1l0,0c0.1,0,0.1,0.1,0.1,0.1c0,0.1,0,0.2,0,0.3
				c0,0.1,0.1,0.2,0.2,0.2c0.1,0,0.1,0,0.2,0.1v0.1c0.1,0,0.2,0.2,0.3,0.2c0.1,0.1,0.3,0.3,0.5,0.5l0.1,0.1c0,0.2,0.2,0.5,0.5,0.7
				h0.1l0,0c0,0,0.1,0,0.1,0.1c0.2,0.2,0.3,0.5,0.6,0.7c0.2,0.3,0.5,0.6,0.7,0.8c0.1,0.1,0.1,0.1,0.1,0.2s0,0.2,0,0.3
				c0,0,0,0,0.1,0.1h0.1c0.3,0,0.6,0.1,0.7,0.3s0.3,0.5,0.5,0.7c0.1,0.1,0.2,0.3,0.3,0.5c0.1,0.1,0.2,0.1,0.3,0.1h0.1
				c0,0,0.1,0,0.1,0.1s0,0.1-0.1,0.2l0,0l0,0c0,0,0.1,0,0.1-0.1c0.1,0,0.3,0,0.5,0.1c0.1,0.1,0.2,0.2,0.3,0.3c0,0,0,0.1,0.1,0.1
				c0.1,0.1,0.2,0.1,0.2,0.2s0,0.2,0,0.3l0.1,0.1c0.1,0,0.2,0,0.3-0.1c0-0.1,0.1-0.1,0.2,0v0.1v0.1c0.1,0.1,0.1,0.2,0.1,0.5
				c0,0,0,0.1,0.1,0.1c0.1,0.1,0.1,0.1,0.2,0.1c0.1,0.1,0.2,0.1,0.2,0.2c0.2,0.2,0.5,0.5,0.7,0.6V38c-0.1,0.1-0.2,0.2-0.1,0.5
				c0,0.1,0,0.2-0.1,0.3c-0.1,0.1-0.1,0.2-0.1,0.5v0.1c-0.1,0.1-0.1,0.2-0.2,0.3C38.7,40,38.7,40.1,38.5,40.1z"/>
			<path class="st2" d="M30.1,60.1c0.2,0.2,0.2,0,0.1-0.1c0.3-0.1,1,0.6,1.4,0.8c3.9,3.6,7.4,7.5,11.1,11.3c0.1,0.1,0.2,0.2,0.2,0.2
				l0.1-0.1l0.2-0.2c5.2-5.2,10.5-10.2,15.6-15.4c0.1,0,0.2-0.3,0.1-0.5c-2.9-3-6-5.7-8.9-8.7C45,41.7,38.8,36.8,33.8,31.1
				c-4.5-4.2-7.7-10.4-5.4-16.6c4.7-15.1,25.8-14.2,29.6,1.2c0.2,0.8,0.1,1-0.2,1.7c-0.1,0.8-0.3,0.5-0.5,0.9
				c-0.2,1.7-2.1-3.7-2-4.3c-0.2-0.7-0.7-1.3-0.9-2c0.1-0.9-1-2.1-1.7-2.8c-1-1.4-2.4-1.7-3.7-2.7l0,0c-0.3-0.2-0.5-0.2-0.8-0.3l0,0
				c-3.6-1-7.6-1.7-10.9,0.5c-4.2,2.1-6.5,5.9-7.3,10.4l0,0c-1.5,7.1,4.3,11.8,8.6,16.3c4,3.4,7.9,7.3,11.7,11.1
				c-0.7-1.4,1.5,1.7,2,1.8c2.7,2.8,5.5,5.3,8.1,8.2c2,1.6,0.9,3.5-0.8,4.7c-2.9,2.9-5.8,5.3-8.4,8.4c-1.5,1.6-3.7,2.9-4.6,4.9
				c-0.2,0.5-0.9,0.3-1.2,0.8c-1.8,4.5-5.3,0.2-6.9-2.1c-0.9-0.8-1,0.1-1.5-0.9c-1.6-2.5-3.9-4.4-6-6.5c-0.1-0.1-0.2-0.3-0.2-0.3
				c0.3-0.1-0.9-1.5-0.7-1.7C30.2,61.7,28.9,59.1,30.1,60.1z"/>
			<path class="st3" d="M43.1,13.6c-2.8,0-5.1,2.3-5.1,5.1s2.3,5.1,5.1,5.1c2.8,0,5.1-2.3,5.1-5.1S45.9,13.6,43.1,13.6z"/>
			<path class="st3" d="M54.8,17.4c-0.2-1-0.6-2.1-0.5-3.1c-1,0-0.5-0.6-0.9-1.4c-0.1-0.6-0.6-0.8-0.9-0.9c0.3-0.6-0.2-0.2-0.6-0.6
				c-1.3-1.7-3-2.7-5.1-3.6c-1.2,0-2.7-0.7-3.9-0.3c-0.6-0.2-1.2,0-1.7,0c0.5,0.5-0.9-0.1-1,0.3c-0.8,0.6-2.2,0.9-2.9,1.7
				c-0.5-0.2-0.1,0.2-0.3,0.3c-1.8,1-3,2.8-4,4.6l0,0c-0.5,0.8-1,2-0.5,2.7c-0.6,0.6-0.3,1.6-0.1,2.3c0.3,1.3-0.3,1.7,0.6,3
				c0.1,0.1,0.1,0.1,0.1,0.2l0,0c0,0.2,0,0.5,0.2,0.6c0.5,0.2,0.2,0.9,0.7,1.3c0.3,0.5-0.2,0.9,0.5,1.3c0.1,0.5,0.2,0.6,0.7,0.8
				c0.6,0.5,0.5,1,1,1.3c0,0.2,0.3,0.1,0.5,0.3c-0.1,1.2,0.9,0.1,0.5,0.7c0.7-0.3,0.9,0.8,1.2,0.8c0.3,0.1,1.8,1.8,2.1,1.7
				c0.1,0.8,0.9,0.9,1.2,0.8c0.1,0,0.1,0,0,0.1c-0.2,0.3,0.9,1.2,1.2,1.2c0.2,0.1,0.3,0.3,0.3,0.6l0,0C43.3,34.9,45,36,45,36
				s0.1,0.9,0.6,1c-0.1,0.9,2.3-1.3,1.5-1.5c-0.2,0-0.1-0.5-0.3-0.5c-0.3-0.3-0.3-0.1-0.5-0.2c0-0.5-1.7-1.6-1.6-2.1
				c-0.2-0.3-0.6-0.8-1-0.7c-0.3-0.1-0.3-1-0.6-1.2c-0.2-0.2-0.7-0.1-0.9-0.5c-0.2-0.5-0.6-1-1.2-1.2c-0.3-0.3-0.3-0.8-0.7-0.9
				c-0.3-0.3-0.3-0.1-0.6-0.7c0-0.2,0-0.3-0.3-0.5c-0.1-0.3-0.8-0.5-0.8-0.8c0-0.3-0.3-0.3-0.6-0.6c-0.7-0.7-3-2.5-3.1-3.9
				c-0.3-0.8,0-2.4-0.6-2.9c0-0.6,0.5-0.7,0.3-1.5c0-1.3,0.6-2.2,1.2-3.2c0.5-1.6,1.7-2.3,3.1-3c1.5-1.4,3.4-1.6,5.3-1.5
				c1.2-0.3,2.2,0.5,3.2,0.8c1.5,0.3,2.2,1.5,3.1,2.5c1.3,1.3,1.6,2.9,2.1,4.5C52.1,19.6,54,18.5,54.8,17.4z"/>
			<path class="st4" d="M40,30.9"/>
			<path class="st3" d="M54.9,44.1c0.1,0,0.1,0,0.1-0.1l0,0c0.1,0,0.2,0,0.3,0c0.1,0,0.1,0.1,0.2,0.1c0.1,0.1,0.1,0.1,0.2,0.2
				c0.2,0.1,0.5,0.3,0.7,0.6c0.1,0.1,0.2,0.1,0.3,0.2c0.1,0.1,0.1,0.1,0.2,0.2c0.1,0.1,0.2,0.2,0.3,0.3c0.2,0.1,0.3,0.2,0.5,0.3
				c0.1,0.2,0.3,0.3,0.5,0.5c0.1,0.1,0.3,0.3,0.3,0.5c0.1,0.3,0.5,0.7,0.8,0.9c0.1,0.1,0.2,0.1,0.2,0.1c0.1,0.1,0.2,0.1,0.2,0.2
				c0.1,0.2,0.3,0.5,0.6,0.6c0.1,0.1,0.2,0.2,0.3,0.3s0.3,0.2,0.5,0.5c0.1,0.1,0.2,0.2,0.5,0.3c0.2,0.1,0.3,0.3,0.5,0.5
				c0.1,0.1,0.1,0.2,0.1,0.3c0,0.1,0.1,0.2,0.1,0.2c0.1,0,0.2,0.1,0.2,0.2c0.1,0.2,0.3,0.6,0.5,0.8c0.1,0.1,0.1,0.1,0.2,0.2
				s0.1,0.1,0.2,0.2l0.1,0.1l0.1,0.1c0.1,0.1,0.1,0.1,0.2,0.2c0.2,0.2,0.5,0.6,0.6,1c0,0.1,0.1,0.2,0.1,0.3s0.1,0.2,0.2,0.3
				s0.1,0.3,0.2,0.6c0,0.2,0,0.5,0,0.7c0,0.1,0,0.2,0,0.3l0,0.3c0,0.1-0.1,0.3-0.1,0.5c-0.1,0.6-0.2,1-0.5,1.6
				c-0.1,0.2-0.2,0.3-0.3,0.6S64.2,59.7,64,60c0,0.1-0.1,0.2-0.1,0.2c-0.2,0.2-0.5,0.5-0.6,0.6c-0.2,0.2-0.3,0.3-0.6,0.5
				c-0.1,0.1-0.2,0.2-0.3,0.3s-0.2,0.2-0.3,0.3c-0.2,0.1-0.5,0.2-0.6,0.5c-0.1,0.1-0.1,0.1-0.2,0.2c-0.1,0.1-0.2,0.2-0.3,0.3
				l-0.1,0.1c-0.1,0-0.2,0.1-0.3,0.2l-0.3,0.3L60,63.8c-0.1,0.1-0.1,0.3-0.3,0.5c-0.1,0.1-0.3,0.2-0.5,0.5c-0.1,0.1-0.1,0.2-0.2,0.3
				c-0.1,0.2-0.2,0.3-0.3,0.5c-0.1,0.1-0.2,0.1-0.2,0.2c-0.2,0.3-0.6,0.6-0.9,0.7c-0.1,0-0.1,0.1-0.2,0.1c-0.2,0.3-0.6,0.6-0.9,0.8
				l0,0c-0.2,0.2-0.5,0.3-0.7,0.5c-0.1,0-0.1,0.1-0.2,0.1c-0.2,0.1-0.3,0.3-0.5,0.5c0,0.1-0.1,0.2-0.1,0.2c-0.1,0.2-0.2,0.3-0.3,0.6
				c-0.3,0.3-0.7,0.7-1,1l0,0c-0.1,0.1-0.3,0.3-0.6,0.3c-0.1,0.2-0.2,0.3-0.3,0.6c-0.1,0.1-0.1,0.1-0.2,0.2c-0.1,0-0.1,0.1-0.2,0.1
				c-0.3,0.2-0.7,0.5-0.9,0.8c-0.1,0.2-0.3,0.5-0.6,0.7l0,0c-0.2,0.5-0.7,0.7-1.2,1l0,0c0,0,0,0,0-0.1c0,0,0-0.1,0.1-0.1l0,0
				l-0.6,0.5v0.1c0.1,0,0.1,0.1,0,0.1c-0.3,0.3-0.7,0.7-1,1c-0.1,0.1-0.2,0.2-0.3,0.3c-0.1,0.1-0.2,0.2-0.5,0.3
				c-0.1,0-0.1,0.1-0.2,0.1c-0.1,0.1-0.1,0.1-0.2,0.2c0,0.1-0.1,0.1-0.1,0.2s-0.1,0.1-0.2,0.1c-0.1,0.1-0.2,0.1-0.5,0.2
				c-0.1,0-0.2,0.1-0.3,0.1c-0.1,0-0.2,0.1-0.3,0.1c-0.1,0-0.1,0-0.2,0.1c-0.1,0-0.1,0-0.2,0.1c-0.1,0.1-0.2,0.1-0.3,0.2
				c0,0-0.1,0.1-0.2,0.1c-0.2,0-0.5,0-0.7,0.1c-0.1,0-0.2,0-0.2,0c-0.1,0-0.2,0-0.2,0c-0.1,0-0.2,0-0.3,0h-0.3c-0.1,0-0.2,0-0.3-0.1
				c-0.2-0.1-0.5-0.2-0.7-0.2c-0.1,0-0.2-0.1-0.3-0.1c-0.1,0-0.2-0.1-0.3-0.1c-0.1,0-0.2-0.1-0.5-0.1c-0.1,0-0.2-0.1-0.3-0.2
				c-0.1,0-0.1-0.1-0.1-0.1l-0.1-0.1c0-0.1-0.1-0.1-0.1-0.2c0-0.1,0.1-0.2,0-0.3c-0.1-0.2,0-0.3,0.1-0.5v-0.1
				c-0.1-0.3,0.1-0.3,0.3-0.3c0.2,0,0.3,0,0.5-0.1c0.1,0,0.2-0.1,0.3,0c0.1,0.1,0.2,0,0.3,0c0.1,0,0.2,0,0.2,0.2c0,0,0,0.1,0.1,0.1
				h0.1c0.2,0,0.3,0.1,0.5,0.1l0,0c0,0.3,0.2,0.3,0.6,0.3h0.1h0.1c0.1,0,0.2,0,0.2,0c0.1,0,0.2,0,0.3,0c0.1,0,0.2,0,0.2,0
				c0.1,0,0.1-0.1,0.2-0.2c0-0.1,0.1-0.1,0.2-0.2c0.1,0,0.2-0.1,0.3,0c0,0,0,0,0.1,0l0,0c0.1,0,0.1,0,0.2-0.1l0,0l0.1-0.1l0.1-0.1
				l0.1-0.1h0.1v-0.1c0.1-0.1,0.1-0.1,0.1-0.2c0,0,0,0,0-0.1c0,0,0,0,0-0.1l0.1-0.1c0.1-0.1,0.3-0.2,0.5-0.2h0.1
				c0.1,0,0.2,0,0.2-0.1c0.1-0.2,0.3-0.3,0.6-0.6c0.1-0.1,0.2-0.2,0.3-0.3c0.1-0.2,0.2-0.5,0.5-0.6c0.1-0.2,0.2-0.5,0.5-0.6
				c0.1-0.1,0.2-0.2,0.2-0.2c0.1-0.2,0.3-0.3,0.6-0.3c0,0,0.1,0,0.1-0.1c0.1,0,0.2-0.2,0.1-0.3c0,0-0.1,0-0.1-0.1
				c0-0.1,0-0.2,0.1-0.3s0.2-0.2,0.3-0.2c0.1-0.1,0.1-0.1,0.2-0.2c0.2-0.2,0.5-0.5,0.7-0.6c0.1-0.2,0.3-0.3,0.6-0.5l0,0
				c0.1,0,0.2-0.1,0.2-0.1c0.1-0.1,0.3-0.2,0.5-0.5c0.1-0.1,0.2-0.2,0.2-0.2c0.2-0.2,0.5-0.3,0.7-0.7c0.1-0.2,0.3-0.5,0.6-0.6
				c0.2-0.1,0.5-0.3,0.7-0.5c0,0,0,0,0-0.1c0.2-0.3,0.2-0.3,0.6-0.6c0.1,0,0.1-0.1,0.1-0.2v-0.1c0-0.1,0.1-0.1,0.2-0.1
				c0.1,0,0.2,0,0.3-0.1c0.2-0.2,0.3-0.5,0.6-0.6c0.1-0.1,0.3-0.2,0.5-0.5c0.1-0.1,0.1-0.2,0.1-0.3c0-0.1,0-0.2,0.1-0.2h0.1
				c0.2,0,0.2,0,0.2-0.2c0-0.1,0.1-0.3,0.2-0.5c0.2-0.2,0.5-0.6,0.7-0.8c0.1-0.1,0.1-0.1,0.2-0.2c0.2-0.2,0.5-0.5,0.7-0.7
				c0.2-0.1,0.2-0.3,0.3-0.6v-0.1c0-0.1,0.1-0.1,0.1-0.1c0.3-0.1,0.6-0.2,0.8-0.5c0,0,0-0.1,0.1-0.1h-0.1h-0.1c0,0,0,0,0-0.1
				c0.2-0.2,0.5-0.3,0.7-0.5c0.1,0,0.1-0.1,0.1-0.2c0,0,0,0,0-0.1c0-0.1,0.1-0.2,0.2-0.2c0.1-0.1,0.2-0.1,0.3-0.1
				c0.2-0.1,0.2-0.1,0.3-0.3c0-0.1,0.1-0.2,0.2-0.2l0.1-0.1c0-0.1,0.1-0.1,0.1-0.2s0.1-0.1,0.1-0.2l0.1-0.1l0.1-0.1
				c0,0,0-0.1,0.1-0.1l0.1-0.1c0-0.1,0-0.1,0.1-0.2c0.1-0.1,0.2-0.2,0.2-0.3s0-0.1,0-0.2c0-0.1,0-0.1,0-0.2c0-0.1,0-0.1-0.1-0.1l0,0
				c0-0.1,0-0.1,0-0.2c0-0.3,0-0.7-0.1-0.9c-0.1-0.3-0.2-0.8-0.6-1c0.3,0.6,0.3,0.5,0.3,0.3c0-0.1,0-0.2,0-0.3l-0.1-0.1h-0.1
				c-0.3,0-0.7-0.2-0.9-0.6s-0.5-0.6-0.7-0.9c-0.1-0.2-0.3-0.3-0.5-0.6c-0.1-0.1-0.2-0.2-0.3-0.1c0,0-0.1,0-0.2,0
				c-0.1,0-0.1-0.1-0.1-0.1c0-0.1,0-0.2,0-0.3c0,0,0,0,0-0.1c0,0,0,0-0.1,0h-0.1c-0.2,0-0.3-0.1-0.5-0.2c-0.2-0.1-0.3-0.3-0.5-0.6
				c0-0.1-0.1-0.1-0.1-0.2c-0.1-0.1-0.3-0.2-0.3-0.3c0-0.1,0-0.2-0.1-0.3l-0.1-0.1c-0.2-0.1-0.3-0.1-0.5,0c0,0.1-0.1,0.1-0.2,0
				c-0.1,0-0.1-0.1-0.1-0.2s0-0.1,0-0.2c-0.2-0.2-0.2-0.3-0.3-0.6c0-0.1-0.1-0.1-0.1-0.2c-0.1-0.1-0.2-0.1-0.3-0.2
				c-0.2,0.2-0.5,0.1-0.5,0c-0.2-0.3-0.6-0.6-0.9-0.9c-0.1,0-0.1-0.1,0-0.2c0.1-0.1,0.1-0.2,0-0.5c-0.1-0.1,0-0.3,0-0.5
				c0.1-0.1,0.1-0.3,0.1-0.6v-0.1c0.1-0.1,0.1-0.2,0.1-0.3C54.7,44.1,54.8,44,54.9,44.1z"/>
			<path class="st2" d="M37,45.7c-1.3-2.2-1.4-1.6-2.9-0.6c0,0.1,0.3,0.2,0,0.2c-0.3-0.5-0.2,0.5-0.6,0.3c-0.2,0.1-0.6,0.3-0.5,0.8
				c-0.3,0.2-1,0.1-1,0.7c0,0.5-0.9,0.5-0.9,1c-0.3,0.2-5.3,4.6-5.3,5.3c-3.4,2-0.8,3.7,0.5,5.8c1.5,1.7,2.2,2,3.5-0.3
				c0-0.3-3.2-2.8-3.2-2.9c0.2-0.2-0.3-0.8-0.1-0.7c0.2,0.1-0.5-0.3,0.3-0.3c0-0.5,2.8-2.8,2.9-2.9c0-0.1,3.7-3.1,3.8-3.2
				c-0.2-0.3,0.1-0.3,0.2-0.6c0.1-0.1-0.2-0.5,0.1-0.5c0.5-0.1,0.1-0.2,0.6-0.3c0.2,0.1,0-0.2,0.2-0.2c0.3-0.2,0.9-0.1,0.5-0.7
				c0.7,0.3,0-0.9,0.9-0.5c0-0.1,0-0.5,0.1-0.3c0.3,0.1-0.2-0.5,0.1-0.2c0.2,0,0.2-0.2,0.6,0.1C37,45.6,37,46,37,45.7z"/>
			<path class="st1" d="M37.9,57.2l4.2,4.2c0.5,0.5,1.3,0.5,1.7,0l4.2-4.2c0.8-0.8,0.2-2.1-0.8-2.1H39
				C37.7,55.1,37.1,56.4,37.9,57.2z"/>
		</g>
		<path class="st0" d="M26.8,64.1c-1,0.8-2.9-2.2-3.6-2.9c-4.5-4.5-2.4-8.8,1.8-11.7c-0.5-0.6,1.6-1.2,2.1-2.3
			c0.9-1.3,2.7,0.6,2,1.3c0,0-0.1-0.1-0.2,0c-0.1,0.5-0.6-0.1-0.7,0.1c-0.1,0.2-0.6,0.1-0.5,0.5c0.1,0.2-0.5,0.3-0.6,0.9
			c-0.8-0.1-0.8,0.6-1.3,1.2c0,0.2-0.6-0.1-0.5,0.2c0.5,0.2-2.5,2.1-2.8,2.7c-0.1,0.3,0.3,0.5,0.2,0.6c-0.2,0,0,0.8-0.2,1.2
			c0,0.1,0.3,0.2,0.3,0.3c-0.2,0.1-0.2,0.5,0,0.3c-0.2,0.3,0.2,0.3-0.1,0.7c-0.1,0.1,0.2,0.1,0.2,0.5c0.2,0.1,0.1,0.8,0.5,0.7
			c0.2,0.2,0.9,0.8,0.8,1.3c0.8-0.2,0.7,0.9,1.3,0.8c0.2-0.2,0.1,0.1,0.1,0.2c0.9-0.6,0.5,1.3,1.4,0.6
			C27.2,62.6,28.9,61.8,26.8,64.1z"/>
	</g>
</g>
</svg>
